<?xml version="1.0" encoding="utf-8" ?>
<svg xmlns="http://www.w3.org/2000/svg" xmlns:xlink="http://www.w3.org/1999/xlink" width="930" height="930">
	<path fill="#DE5331" transform="scale(0.908694 0.908694)" d="M312.988 934.645Q276.537 934.352 240.087 934.825C228.501 935.008 216.608 935.054 205.13 933.358C177.838 929.324 150.078 915.283 130.317 896.003Q128.4 894.132 126.555 892.19Q124.709 890.247 122.939 888.236Q121.17 886.226 119.477 884.149Q117.785 882.072 116.173 879.933Q114.56 877.793 113.03 875.594Q111.501 873.395 110.055 871.139Q108.61 868.883 107.252 866.575Q105.893 864.266 104.623 861.907Q103.353 859.548 102.174 857.143Q100.994 854.737 99.9069 852.289Q98.8197 849.84 97.8262 847.352Q96.8326 844.865 95.9343 842.341Q95.0359 839.817 94.2341 837.261Q93.4322 834.704 92.728 832.12Q92.0237 829.535 91.4182 826.925Q90.8126 824.316 90.3065 821.685C85.8429 798.786 87.6005 773.329 87.6004 750.006L87.5827 649.081L87.0429 258.468C86.6208 209.988 90.712 168.5 126.94 131.746C146.86 111.538 171.591 97.1226 199.571 91.5927C223.834 86.7974 249.341 88.7376 273.945 88.7421L376.471 88.6636L778.047 88.3376C791.215 88.2415 804.575 88.2492 817.641 90.0262Q820.296 90.3935 822.934 90.8674Q825.572 91.3412 828.189 91.9208Q830.806 92.5004 833.398 93.1849Q835.989 93.8693 838.551 94.6575Q841.113 95.4456 843.641 96.3362Q846.169 97.2268 848.659 98.2184Q851.149 99.21 853.598 100.301Q856.046 101.392 858.448 102.581Q860.851 103.769 863.203 105.054Q865.556 106.338 867.855 107.716Q870.154 109.094 872.396 110.563Q874.638 112.032 876.818 113.591Q878.999 115.149 881.115 116.794Q883.232 118.439 885.28 120.167Q887.329 121.896 889.306 123.706Q891.283 125.515 893.186 127.403Q894.962 129.156 896.677 130.968Q898.391 132.78 900.043 134.65Q901.695 136.52 903.281 138.446Q904.868 140.372 906.388 142.35Q907.907 144.329 909.358 146.359Q910.809 148.389 912.19 150.467Q913.57 152.545 914.879 154.67Q916.187 156.794 917.422 158.962Q918.657 161.13 919.817 163.339Q920.977 165.548 922.06 167.796Q923.144 170.043 924.149 172.327Q925.155 174.61 926.082 176.927Q927.009 179.243 927.856 181.59Q928.703 183.937 929.469 186.311Q930.235 188.686 930.919 191.085Q931.603 193.485 932.205 195.906C936.464 213.016 936.066 230.471 936.034 247.957L935.984 285.041L936.042 410.444C924.017 396.48 910.298 384.132 897.298 371.094C888.016 361.784 868.762 340.52 858.586 334.141C854.212 329.137 849.308 324.567 844.61 319.87L819.222 294.616L767.595 294.957C758.888 285.148 749.303 276.056 740.02 266.8C732.611 259.413 725.431 251.447 717.081 245.108C708.531 235.313 699.242 226.36 690.292 216.96C679.354 205.472 668.66 191.096 654.906 182.858C650.985 180.51 645.508 179.007 640.973 178.647C631.339 177.883 621.364 178.387 611.7 178.418L560.039 178.431L515.303 178.105C506.197 178.021 496.845 177.427 487.778 178.371C483.799 178.785 478.818 180.079 475.787 182.847C473.197 185.212 471.093 188.468 469.264 191.434C462.358 202.638 456.482 214.747 450.002 226.241C442.156 240.157 433.543 253.905 426.153 268.034L384.448 224.951C376.531 216.684 369.028 207.799 360.581 200.086C353.498 190.406 346.763 180.421 333.958 178.424C325.008 177.029 315.139 178.048 306.075 178.183Q286.509 178.39 266.941 178.325L213.825 178.304C203.924 178.239 193.858 177.283 183.986 178.245C178.748 178.756 173.83 180.06 169.496 183.201Q168.988 183.566 168.5 183.956Q168.011 184.346 167.542 184.76Q167.073 185.174 166.626 185.611Q166.178 186.048 165.753 186.506Q165.327 186.965 164.926 187.444Q164.524 187.923 164.146 188.422Q163.769 188.92 163.417 189.437Q163.064 189.954 162.738 190.488Q162.412 191.022 162.113 191.571Q161.814 192.12 161.543 192.684Q161.272 193.247 161.029 193.823Q160.786 194.4 160.573 194.987Q160.359 195.575 160.175 196.173Q159.99 196.77 159.836 197.377Q159.682 197.983 159.558 198.596Q159.434 199.209 159.341 199.827C158.121 208.223 158.842 217.237 158.921 225.72L158.966 261.312L158.962 402.551L158.965 651.492L159.009 732.666C159.003 745.885 158.345 759.176 158.943 772.381C159.239 778.906 160.147 782.651 164.118 787.927C170.62 796.567 179.327 803.6 186.908 811.26C197.1 821.556 206.653 833.153 218.073 842.125C226.525 851.07 235.606 859.476 244.384 868.102L312.988 934.645Z"/>
	<path transform="scale(0.908694 0.908694)" d="M218.073 842.125C206.653 833.153 197.1 821.556 186.908 811.26C179.327 803.6 170.62 796.567 164.118 787.927C160.147 782.651 159.239 778.906 158.943 772.381C158.345 759.176 159.003 745.885 159.009 732.666L158.965 651.492L158.962 402.551L158.966 261.312L158.921 225.72C158.842 217.237 158.121 208.223 159.341 199.827Q159.434 199.209 159.558 198.596Q159.682 197.983 159.836 197.376Q159.99 196.77 160.174 196.173Q160.359 195.575 160.573 194.987Q160.786 194.4 161.029 193.823Q161.272 193.247 161.543 192.684Q161.814 192.12 162.113 191.571Q162.412 191.022 162.738 190.488Q163.064 189.954 163.417 189.437Q163.769 188.921 164.146 188.422Q164.524 187.923 164.926 187.444Q165.327 186.965 165.753 186.506Q166.178 186.048 166.626 185.611Q167.073 185.174 167.542 184.76Q168.011 184.346 168.5 183.956Q168.988 183.566 169.496 183.201C173.83 180.06 178.748 178.756 183.986 178.245C193.858 177.283 203.924 178.239 213.825 178.304L266.941 178.325Q286.509 178.39 306.075 178.183C315.139 178.048 325.008 177.029 333.958 178.424C346.763 180.421 353.498 190.406 360.581 200.086C369.028 207.799 376.531 216.684 384.448 224.951L426.153 268.034C433.543 253.905 442.156 240.157 450.002 226.241C456.482 214.747 462.358 202.638 469.264 191.434C471.093 188.468 473.197 185.212 475.787 182.847C478.818 180.079 483.799 178.785 487.778 178.371C496.845 177.427 506.197 178.021 515.303 178.105L560.039 178.431L611.7 178.418C621.364 178.387 631.339 177.883 640.973 178.647C645.508 179.007 650.985 180.51 654.906 182.858C668.66 191.096 679.354 205.472 690.292 216.96C699.242 226.36 708.531 235.313 717.081 245.108C725.431 251.447 732.611 259.413 740.02 266.8C749.303 276.056 758.888 285.148 767.595 294.957L819.222 294.616L844.61 319.87C849.308 324.567 854.212 329.137 858.586 334.141C868.762 340.52 888.016 361.784 897.298 371.094C910.298 384.132 924.017 396.48 936.042 410.444Q935.442 472.169 936.184 533.894C936.676 554.875 936.601 576.01 936.325 596.995L936.317 729.208L936.474 770.437C936.587 790.735 937.017 811.432 932.108 831.288Q931.558 833.509 930.932 835.71Q930.306 837.911 929.605 840.089Q928.904 842.267 928.128 844.42Q927.353 846.572 926.505 848.697Q925.657 850.823 924.736 852.917Q923.816 855.012 922.824 857.074Q921.832 859.136 920.771 861.163Q919.709 863.19 918.579 865.18Q917.448 867.169 916.25 869.118Q915.053 871.068 913.789 872.975Q912.525 874.883 911.197 876.746Q909.868 878.609 908.477 880.425Q907.086 882.242 905.633 884.01Q904.18 885.778 902.668 887.495Q901.156 889.212 899.585 890.876Q898.015 892.54 896.389 894.15Q894.746 895.816 893.046 897.424Q891.346 899.032 889.592 900.581Q887.838 902.129 886.031 903.617Q884.224 905.104 882.367 906.527Q880.51 907.951 878.605 909.309Q876.7 910.668 874.749 911.96Q872.798 913.252 870.804 914.476Q868.809 915.7 866.774 916.854Q864.738 918.008 862.664 919.091Q860.59 920.174 858.479 921.185Q856.369 922.195 854.225 923.133Q852.081 924.07 849.906 924.932Q847.73 925.795 845.527 926.582Q843.323 927.369 841.093 928.079Q838.864 928.789 836.611 929.422Q834.358 930.054 832.085 930.609C806.573 936.961 769.064 934.828 742.182 934.818L637.816 934.849C617.772 935.169 597.676 934.903 577.627 934.901L485.316 934.697C468.4 933.995 451.285 934.472 434.349 934.469C393.905 934.461 353.426 935.051 312.988 934.645L244.384 868.102C235.606 859.476 226.525 851.07 218.073 842.125Z"/>
	<path fill="#B6291D" transform="scale(0.908694 0.908694)" d="M671.887 599.883C687.22 599.475 702.659 599.911 718.003 599.915L717.924 646.225C711.752 640.671 705.961 634.529 699.99 628.738C690.435 619.472 680.253 610.234 671.887 599.883Z"/>
	<path fill="#24494A" transform="scale(0.908694 0.908694)" d="M717.081 245.108C725.431 251.447 732.611 259.413 740.02 266.8C749.303 276.056 758.888 285.148 767.595 294.957C752.185 293.54 735.992 294.5 720.485 294.56C720.445 277.642 722.285 261.586 717.081 245.108Z"/>
	<path fill="#24494A" transform="scale(0.908694 0.908694)" d="M360.581 200.086C369.028 207.799 376.531 216.684 384.448 224.951L426.153 268.034C421.205 276.2 416.646 284.625 411.708 292.811C401.17 274.97 391.602 256.403 381.47 238.307C375.865 228.296 369.374 218.667 364.065 208.532C362.654 205.839 361.135 203.099 360.581 200.086Z"/>
	<path fill="#24494A" transform="scale(0.908694 0.908694)" d="M668.084 469.509C683.871 469.417 699.571 469.85 715.364 469.225Q723.173 476.284 730.588 483.756C733.668 486.896 747.311 500.842 747.281 504.25L668.442 504.273Q668.412 486.889 668.084 469.509Z"/>
	<path fill="#B6291D" transform="scale(0.908694 0.908694)" d="M739.846 462.246C748.75 462.649 757.807 462.323 766.726 462.325L816.894 462.264C822.212 468.745 845.541 488.506 847.458 492.786C838.107 493.729 828.206 492.499 818.803 492.287C803.306 491.937 787.75 492.078 772.246 492.062C768.169 488.545 740.533 464.718 739.846 462.246Z"/>
	<path fill="#24494A" transform="scale(0.908694 0.908694)" d="M667.514 608.33C672.99 612.65 677.793 618.944 682.754 623.955L717.963 659.079L717.975 679.984L667.505 680.033L667.514 608.33Z"/>
	<path fill="#371A16" transform="scale(0.908694 0.908694)" d="M648.554 210.787C653.9 213.977 658.899 221.272 663.156 225.838Q677.998 241.63 692.67 257.58L692.513 294.434C677.886 294.903 663.134 294.505 648.493 294.494L648.554 210.787Z"/>
	<path fill="#371A16" transform="scale(0.908694 0.908694)" d="M233.147 778.26C254.804 777.265 276.723 778.008 298.389 778.516C310.575 792.289 324.553 804.197 336.737 817.94Q314.766 818.009 292.797 817.649Q260.769 817.384 228.739 817.508C215.721 804.502 202.868 790.775 189.169 778.506C203.829 778.354 218.49 778.694 233.147 778.26Z"/>
	<path fill="#EA8C37" transform="scale(0.908694 0.908694)" d="M377.736 482.847C384.725 475.194 389.252 464.2 394.57 455.278L431.212 394.394C438.687 381.69 462.912 336.986 471.248 329.359C468.853 337.885 467.409 345.956 467.267 354.85C467.125 363.782 468.999 382.71 466.707 390.18C464.958 395.88 454.581 410.844 450.95 417.082Q422.965 464.246 395.652 511.801C389.363 502.3 383.738 492.503 377.736 482.847Z"/>
	<path fill="#371A16" transform="scale(0.908694 0.908694)" d="M822.928 318.934C833.724 326.329 848.238 341.706 856.537 351.98Q856.773 395.087 856.496 438.193C856.472 454.641 857.287 471.368 856.356 487.777C849.751 482.986 844.315 477.049 838.482 471.391Q830.642 463.836 822.407 456.712C821.81 430.282 822.511 403.703 822.502 377.251C822.495 358.672 821.47 337.031 822.928 318.934Z"/>
	<path fill="#B6291D" transform="scale(0.908694 0.908694)" d="M466.726 403.36C467.161 403.788 467.112 403.633 467.277 404.263C468.7 409.69 467.402 433.326 467.399 440.419L467.55 473.45C467.586 479.706 468.191 486.614 467.167 492.775C465.847 500.717 457.333 514.897 453.353 522.608L429.497 568.16L418.491 549.859C412.456 539.15 405.73 528.85 399.753 518.101C405.78 506.822 412.698 495.961 419.115 484.892L466.726 403.36Z"/>
	<path fill="#EA8C37" transform="scale(0.908694 0.908694)" d="M813.758 320.32C814.709 336.265 813.886 352.72 813.879 368.708L813.872 454.989L727.309 454.984Q727.3 445.324 727.022 435.667C732.111 430.326 737.582 425.349 742.623 419.963C755.692 406.001 768.153 391.317 780.957 377.09C791.647 365.213 801.622 352.764 813.47 341.996Q813.161 331.152 813.758 320.32Z"/>
	<path fill="#B6291D" transform="scale(0.908694 0.908694)" d="M606.523 405.036L719.167 404.937Q718.894 424.962 719.038 444.988L636.804 444.992C635.92 464.28 636.833 483.698 636.899 503L636.574 596.875L636.504 680.405Q621.653 680.576 606.807 680.159L606.523 405.036Z"/>
	<path fill="#371A16" transform="scale(0.908694 0.908694)" d="M304.188 396.775C304.439 396.966 304.71 397.134 304.942 397.348C309.013 401.114 342.097 459.082 343.202 464.439C344.991 473.115 343.489 487.534 343.477 496.904L343.471 576.791L343.455 736.548C343.455 750.404 343.359 764.271 343.521 778.126C343.645 788.829 344.169 799.474 343.652 810.177C340.962 809.781 308.828 775.718 303.64 770.298C302.698 752.437 303.801 734.516 303.915 716.65L303.966 621.806L303.974 477.398C303.971 450.543 303.429 423.617 304.188 396.775Z"/>
	<path fill="#EA8C37" transform="scale(0.908694 0.908694)" d="M297.617 594.305C297.109 615.481 297.376 636.599 297.396 657.776L297.415 770.427L183.841 770.485L183.671 679.848L183.617 650.66C183.607 645.621 183.318 640.434 183.646 635.418C184.902 640.802 184.05 648.036 184.047 653.606L184.054 690.95Q208.309 670.719 232.122 649.97Q264.717 621.957 297.617 594.305Z"/>
	<path fill="#B6291D" transform="scale(0.908694 0.908694)" d="M848.047 532.278C851.461 534.371 870.782 555.638 874.864 559.73L875.009 693.763C875.068 718.921 875.661 744.054 875.107 769.213C874.785 783.841 872.743 796.887 861.594 807.394C855.772 812.881 847.995 816.13 840.123 817.234C827.022 819.071 813.166 817.811 799.948 817.669Q772.547 817.479 745.146 817.691L629.939 817.879Q591.509 818.304 553.082 817.71C551.391 816.432 549.848 814.943 548.276 813.522Q530.901 796.215 515.032 777.517L718.437 777.514L771.626 777.48C784.037 777.498 797.234 778.418 809.474 776.303C818.424 774.756 826.786 769.911 833.265 763.641C839.687 757.428 844.318 749.764 846.111 740.96C848.208 730.661 847.629 719.829 847.597 709.372L847.53 674.109L848.047 532.278Z"/>
	<path fill="#FEDFA7" transform="scale(0.908694 0.908694)" d="M492.424 751.847C490.746 745.414 491.279 737.925 491.216 731.291Q491.105 713.344 491.352 695.398L491.512 621.781L491.432 441.286L491.214 390.129C491.095 379.196 490.62 368.218 490.91 357.289C491.093 350.433 491.256 343.539 494.255 337.235C497.625 330.15 504.05 323.987 511.464 321.398C516.959 319.48 522.722 319.437 528.477 319.288C542.513 318.923 556.613 319.312 570.659 319.339L653.061 319.416L754.95 319.334C770.166 319.313 785.437 318.893 800.645 319.144C804.501 319.208 810.317 318.678 813.758 320.32Q813.161 331.152 813.47 341.996C801.622 352.764 791.647 365.213 780.957 377.09C768.153 391.317 755.692 406.001 742.623 419.963C737.582 425.349 732.111 430.326 727.022 435.667Q726.399 417.099 726.494 398.52L726.52 370.487C671.702 370.415 616.794 369.432 561.989 370.163L562.475 590.582L562.435 654.502C562.445 665.668 563.429 677.778 562.111 688.844C556.842 695.571 545.522 704.392 538.79 710.554L512.602 734.631C506.134 740.588 499.831 747.05 492.424 751.847Z"/>
	<path fill="#24494A" transform="scale(0.908694 0.908694)" d="M858.586 334.141C868.762 340.52 888.016 361.784 897.298 371.094C910.298 384.132 924.017 396.48 936.042 410.444Q935.442 472.169 936.184 533.894C936.676 554.875 936.601 576.01 936.325 596.995L936.317 729.208L936.474 770.437C936.587 790.735 937.017 811.432 932.108 831.288Q931.558 833.509 930.932 835.71Q930.306 837.911 929.605 840.089Q928.904 842.267 928.128 844.42Q927.353 846.572 926.505 848.697Q925.657 850.823 924.736 852.917Q923.816 855.012 922.824 857.074Q921.832 859.136 920.771 861.163Q919.709 863.19 918.579 865.18Q917.448 867.169 916.25 869.118Q915.053 871.068 913.789 872.975Q912.525 874.883 911.197 876.746Q909.868 878.609 908.477 880.425Q907.086 882.242 905.633 884.01Q904.18 885.778 902.668 887.495Q901.156 889.212 899.585 890.876Q898.015 892.54 896.389 894.15Q894.746 895.816 893.046 897.424Q891.346 899.032 889.592 900.581Q887.838 902.129 886.031 903.617Q884.224 905.104 882.367 906.527Q880.51 907.951 878.605 909.309Q876.7 910.668 874.749 911.96Q872.798 913.252 870.804 914.476Q868.809 915.7 866.774 916.854Q864.738 918.008 862.664 919.091Q860.59 920.174 858.479 921.185Q856.369 922.195 854.225 923.133Q852.081 924.07 849.906 924.932Q847.73 925.795 845.527 926.582Q843.323 927.369 841.093 928.079Q838.864 928.789 836.611 929.422Q834.358 930.054 832.085 930.609C806.573 936.961 769.064 934.828 742.182 934.818L637.816 934.849C637.209 932.305 633.75 929.193 631.981 927.324C624.445 919.367 616.005 912.285 608.234 904.55C594.543 890.923 581.38 876.791 567.769 863.096C559.704 854.981 550.885 847.495 543.646 838.605C547.746 839.551 551.683 841.546 555.654 842.958C562.241 845.299 570.121 845.466 577.045 845.498L764.722 845.113L822.017 845.133C834.076 845.134 846.804 845.953 858.719 844.058C869.035 842.417 877.988 838.384 885.403 830.942C892.92 823.398 898.114 813.978 900.065 803.49C902.185 792.092 901.549 780.196 901.542 768.649L901.504 724.788L901.507 562.854C888.401 547.219 873.267 533.56 858.604 519.431C862.093 518.551 865.633 517.75 868.886 516.169C873.395 513.977 877.864 510.007 879.339 505.042C882.346 494.919 881.269 471.651 881.197 460.02Q880.987 439.101 880.987 418.288C880.989 404.723 881.922 390.896 881.427 377.385C881.281 373.381 881.024 368.942 879.84 365.089C876.954 355.696 871.219 348.669 864.62 341.615C862.787 339.656 860.15 337.392 858.992 335.022C858.849 334.732 858.721 334.435 858.586 334.141Z"/>
	<path fill="#327D74" transform="scale(0.908694 0.908694)" d="M906.117 567.456C911.703 562.603 917.284 557.708 921.997 551.975C926.863 546.058 931 539.545 936.184 533.894C936.676 554.875 936.601 576.01 936.325 596.995C934.308 596.6 910.006 571.344 906.117 567.456Z"/>
	<path fill="#24494A" transform="scale(0.908694 0.908694)" d="M218.073 842.125C222.555 843.031 227.075 844.297 231.653 844.514C255.312 845.634 279.297 844.543 303.001 844.516C316.702 844.501 332.394 846.293 345.813 843.971C350.862 843.097 355.894 840.648 359.605 837.105C363.839 833.061 366.246 827.366 366.958 821.622C368.297 810.815 367.502 799.44 367.509 788.55L367.607 729.433L367.657 513.797C377.957 531.613 388.653 549.241 399.173 566.931C404.319 575.585 409.076 586.262 415.798 593.708C418.743 596.97 422.194 598.551 426.233 600.009C432.384 600.063 439.123 600.359 443.801 595.64C450.286 589.098 463.397 562.083 466.938 552.783Q467.894 596.539 467.533 640.304C467.486 650.77 468.401 667.401 467.078 677.038C467.271 694.119 466.922 711.193 467.249 728.275C467.369 734.536 467.088 741.005 467.791 747.225C468.294 751.681 469.256 756.085 470.933 760.253C474.135 768.208 479.606 774.165 485.6 780.122C499.808 794.467 513.697 809.092 528.037 823.312C533.186 828.418 538.24 833.777 543.646 838.605C550.885 847.495 559.704 854.981 567.769 863.096C581.38 876.791 594.543 890.923 608.234 904.55C616.005 912.285 624.445 919.367 631.981 927.324C633.75 929.193 637.209 932.305 637.816 934.849C617.772 935.169 597.676 934.903 577.627 934.901L485.316 934.697C468.4 933.995 451.285 934.472 434.349 934.469C393.905 934.461 353.426 935.051 312.988 934.645L244.384 868.102C235.606 859.476 226.525 851.07 218.073 842.125Z"/>
	<path fill="#327D74" transform="scale(0.908694 0.908694)" d="M485.6 780.122C499.808 794.467 513.697 809.092 528.037 823.312C533.186 828.418 538.24 833.777 543.646 838.605C550.885 847.495 559.704 854.981 567.769 863.096C581.38 876.791 594.543 890.923 608.234 904.55C616.005 912.285 624.445 919.367 631.981 927.324C633.75 929.193 637.209 932.305 637.816 934.849C617.772 935.169 597.676 934.903 577.627 934.901L485.316 934.697C486.094 898.132 485.455 861.415 485.416 824.835C485.401 810.186 483.654 794.623 485.6 780.122Z"/>
	<path fill="#EA8C37" transform="scale(0.908694 0.908694)" d="M561.989 370.163C616.794 369.432 671.702 370.415 726.52 370.487L726.494 398.52L600.475 398.004L600.332 596.43L600.336 655.366C600.291 666.099 599.498 677.205 600.422 687.894C617.776 687.131 635.223 687.589 652.593 687.643L725.888 687.509C725.196 655.709 725.895 623.732 725.867 591.908L668.027 592.105L668.011 577.367L667.998 520.534L809.473 520.594Q824.751 520.388 840.029 520.583C841.288 536.65 840.552 553.078 840.507 569.2L840.434 647.859L840.483 702.759C840.507 713.671 841.348 725.176 839.749 735.981Q839.527 737.387 839.208 738.773Q838.888 740.159 838.471 741.52Q838.054 742.88 837.542 744.208Q837.031 745.536 836.427 746.824Q835.823 748.112 835.13 749.355Q834.437 750.598 833.658 751.788Q832.879 752.979 832.018 754.112Q831.157 755.245 830.218 756.314C822.015 765.793 811.643 769.34 799.41 770.119C782.482 771.198 765.408 770.607 748.454 770.511L681.392 770.476L568.594 770.487C552.496 770.495 536.277 771.066 520.199 770.703C515.625 770.599 509.388 771.06 505.309 768.919C505.061 768.789 504.81 768.666 504.564 768.534C498.097 765.056 495.226 758.229 492.424 751.847C499.831 747.05 506.134 740.588 512.602 734.631L538.79 710.554C545.522 704.392 556.842 695.571 562.111 688.844C563.429 677.778 562.445 665.668 562.435 654.502L562.475 590.582L561.989 370.163Z"/>
	<path fill="#FEDFA7" transform="scale(0.908694 0.908694)" d="M600.422 687.894C617.776 687.131 635.223 687.589 652.593 687.643L725.888 687.509Q726 696.135 725.999 704.761Q650.804 705.379 575.608 704.995C583.458 698.687 591.169 692.071 600.422 687.894Z"/>
	<path fill="#FEDFA7" transform="scale(0.908694 0.908694)" d="M667.998 520.534L809.473 520.594C816.495 521.272 823.785 520.903 830.841 520.839C817.364 534.247 802.551 545.806 787.961 557.939C780.214 564.38 772.944 571.419 764.956 577.566C732.652 577.559 700.31 577.841 668.011 577.367L667.998 520.534Z"/>
	<path fill="#FEDFA7" transform="scale(0.908694 0.908694)" d="M183.98 203.441C206.551 202.862 229.063 203.287 251.631 203.277C278.926 203.265 306.167 202.894 333.464 203.43C341.04 213.717 346.314 225.619 352.572 236.72C362.453 254.249 372.473 271.66 382.066 289.352C391.142 306.089 399.694 323.199 410.048 339.195C414.954 332.815 418.725 325.421 422.693 318.428L440.661 286.612C456.474 258.667 472.989 231.119 489.029 203.303L585.829 203.421C604.275 203.426 622.725 203.124 641.168 203.523C642.036 214.069 641.203 224.873 641.152 235.454L641.069 294.896L573.001 294.885C553.312 294.791 523.822 292.147 505.432 297.742C490.026 302.429 478.507 315.548 471.248 329.359C462.912 336.986 438.687 381.69 431.212 394.394L394.57 455.278C389.252 464.2 384.725 475.194 377.736 482.847Q359.775 451.509 342.317 419.888C327.756 393.58 313.471 367.142 298.216 341.225L297.765 516.38L297.988 566.924C298.003 576.026 298.202 585.219 297.617 594.305Q264.717 621.957 232.122 649.97Q208.309 670.719 184.054 690.95L184.047 653.606C184.05 648.036 184.902 640.802 183.646 635.418L183.98 203.441Z"/>
</svg>
