<?xml version="1.0" encoding="utf-8" ?>
<svg xmlns="http://www.w3.org/2000/svg" xmlns:xlink="http://www.w3.org/1999/xlink" width="14008" height="14008">
	<path transform="scale(13.6803 13.6803)" d="M671.902 944.376C673.774 944.504 675.657 944.737 677.121 946.041C678.052 946.87 678.491 947.92 678.442 949.165C678.35 951.505 676.833 952.958 675.297 954.539C673.428 954.507 671.662 954.374 670.239 952.99C669.324 952.099 668.903 950.818 668.975 949.557C669.102 947.29 670.395 945.921 671.902 944.376Z"/>
	<path transform="scale(13.6803 13.6803)" d="M70.8886 945.56C74.7055 945.334 82.3628 944.586 85.2954 947.298C86.3364 948.26 86.2613 948.602 86.2932 949.924C85.4976 951.513 84.6994 952.385 83.3675 953.551C79.8221 954.077 72.5981 954.726 69.7025 952.402C68.5395 951.469 68.5505 951.034 68.2978 949.644C68.7553 947.839 69.6483 946.914 70.8886 945.56Z"/>
	<path fill="#EB6F56" transform="scale(13.6803 13.6803)" d="M101.999 256.794C103.339 256.915 104.992 257.283 106.026 258.186C108.417 260.275 107.827 264.988 107.693 267.872C110.695 267.962 114.293 267.784 116.977 269.291C118.32 270.044 119.157 270.826 119.581 272.355C119.332 273.353 119.376 273.694 118.639 274.47C115.847 277.406 111.214 276.972 107.514 277.027Q107.503 278.464 107.462 279.9C107.337 283.913 106.637 285.904 103.678 288.667C102.565 288.476 101.722 288.107 100.837 287.381C98.1434 285.171 98.2642 279.248 97.9675 276.106C95.5382 276.116 92.1884 276.49 89.8725 275.751C88.2058 275.219 86.8281 274.316 86.0328 272.738C86.1523 271.506 86.3179 270.914 87.3299 270.11C90.4314 267.644 94.3062 268.238 97.9773 268.423C98.3607 263.536 98.2566 260.364 101.999 256.794Z"/>
	<path transform="scale(13.6803 13.6803)" d="M708.273 79.8504C710.018 79.9788 711.736 80.5055 712.927 81.8421C715.17 84.3606 714.486 89.3145 714.441 92.416C717.616 92.4222 721.195 92.0778 724.033 93.7521C725.436 94.5796 725.889 95.3561 726.288 96.8975C726.022 97.872 725.833 98.32 725.093 99.0518C722.457 101.655 717.884 101.443 714.455 101.479C714.54 104.286 715.009 107.866 714.102 110.533C713.334 112.792 711.939 113.598 709.883 114.611C708.821 114.041 707.841 113.501 707.046 112.558C704.557 109.602 705.567 104.686 705.861 101.172Q704.402 101.258 702.942 101.315C700.048 101.423 695.982 101.338 693.965 98.8259C693.058 97.6959 693.205 97.0256 693.333 95.7039C693.751 95.0445 694.139 94.4319 694.784 93.9652C697.801 91.7821 702.043 92.3729 705.499 92.7977C705.417 87.6964 705.196 84.1942 708.273 79.8504Z"/>
	<path transform="scale(13.6803 13.6803)" d="M956.058 625.598L964.183 625.535C964.621 629.737 964.486 634.06 964.535 638.286Q970.995 638.326 977.455 638.435L977.455 646.165C973.135 646.523 968.745 646.42 964.41 646.458C964.451 650.453 964.698 654.6 963.938 658.537L956.034 658.558L956.045 646.433C952.723 646.337 948.832 647.094 945.624 646.247C944.167 645.862 942.901 645.024 942.275 643.601C941.587 642.035 941.851 640.837 942.574 639.38C945.97 637.026 951.993 638.131 956.024 638.282L956.058 625.598Z"/>
	<path transform="scale(13.6803 13.6803)" d="M348.573 905.292C350.317 905.413 351.937 905.781 353.132 907.151C355.867 910.283 354.704 917.537 354.554 921.53C359.156 921.451 365.532 920.92 369.415 923.763C370.508 924.563 370.679 925.072 370.835 926.369C370.498 926.977 370.468 927.107 369.935 927.668C366.83 930.939 358.553 930.223 354.468 930.105C354.686 935.204 355.792 941.259 352.537 945.576C352.234 945.641 351.932 945.712 351.628 945.77C350.34 946.017 349.078 945.873 348.062 944.951C345.08 942.244 346.308 933.78 346.444 930.007C341.117 930.097 334.896 930.919 330.711 926.969C330.169 925.536 330.155 925.652 330.774 924.253C335.159 920.533 340.944 921.336 346.294 921.525C346.027 915.844 345.11 910.189 348.573 905.292Z"/>
	<path transform="scale(13.6803 13.6803)" d="M641.61 906.226C654.909 905.268 668.534 906.005 681.869 906.018C689.972 906.026 699.395 904.731 707.321 906.281C709.136 906.636 710.729 907.219 711.775 908.812C712.002 910.001 711.959 910.715 711.435 911.833C710.791 913.209 710.051 914.04 708.587 914.564Q687.172 914.394 665.757 914.519C658.35 914.581 650.452 915.385 643.102 914.473C641.164 914.232 639.934 914.045 638.672 912.417C638.279 911.137 638.099 910.086 638.632 908.791C639.175 907.471 640.445 906.874 641.61 906.226Z"/>
	<path transform="scale(13.6803 13.6803)" d="M115.749 133.386C117.873 133.34 119.453 133.282 121.044 134.959C123.881 137.953 122.594 146.673 122.502 150.484C127.483 150.251 133.768 149.418 138.308 151.93C139.641 152.667 140.176 153.395 140.611 154.825C140.277 155.778 140.048 156.17 139.242 156.832C135.292 160.078 127.219 158.973 122.429 158.659C122.58 164.781 123.666 171.278 119.653 176.402C118.253 176.193 116.833 176.07 115.817 174.957C112.725 171.57 114.183 163.336 114.435 159.001C109.104 159.174 100.7 160.293 96.3314 156.755C95.2656 155.892 95.0798 155.367 94.9483 154.044C95.2887 153.465 95.3181 153.351 95.8359 152.809C99.3854 149.091 109.171 150.365 113.933 150.534C113.527 144.537 112.741 138.866 115.749 133.386Z"/>
	<path transform="scale(13.6803 13.6803)" d="M602.017 48.8255C603.973 48.9901 605.303 49.0819 606.669 50.6861C609.706 54.2532 608.346 62.7833 608.139 67.1911C612.547 66.967 617.305 66.3257 621.631 67.3931C623.837 67.9374 625.585 68.8719 626.777 70.8326C626.847 72.2227 626.874 72.5857 625.92 73.7294C622.583 77.73 613.139 76.6229 608.404 76.4975C608.54 82.6175 609.737 89.8108 605.543 94.8009C603.72 94.7017 602.425 94.6119 601.073 93.1963C597.87 89.8407 599.375 80.4516 599.569 76.1408C594.196 76.4192 587.39 77.4421 582.58 74.5804C581.195 73.7566 580.659 72.9962 580.269 71.4605C580.561 70.6576 580.809 70.2536 581.446 69.6504C585.633 65.6871 594.655 67.0619 599.997 67.4381C599.832 61.5287 598.724 53.9692 602.017 48.8255Z"/>
	<path transform="scale(13.6803 13.6803)" d="M73.4046 366.087C77.2657 365.71 80.9268 366.025 84.4492 367.762C89.1014 370.055 92.6389 374.375 94.1503 379.319Q94.4151 380.192 94.5928 381.087Q94.7704 381.982 94.8593 382.89Q94.9481 383.798 94.9473 384.71Q94.9464 385.623 94.8559 386.531Q94.7654 387.439 94.5861 388.333Q94.4068 389.228 94.1404 390.1Q93.874 390.973 93.5231 391.815Q93.1723 392.657 92.7403 393.461C90.0293 398.443 85.6483 400.947 80.4118 402.554C75.9076 403.106 71.6054 402.908 67.5068 400.742Q67.1101 400.53 66.7248 400.297Q66.3394 400.065 65.9664 399.813Q65.5934 399.561 65.2337 399.291Q64.874 399.021 64.5285 398.732Q64.183 398.444 63.8527 398.138Q63.5224 397.833 63.208 397.511Q62.8937 397.189 62.5962 396.851Q62.2987 396.514 62.0188 396.161Q61.7388 395.809 61.4772 395.443Q61.2156 395.077 60.973 394.698Q60.7304 394.319 60.5074 393.928Q60.2844 393.537 60.0816 393.135Q59.8788 392.734 59.6967 392.322Q59.5147 391.911 59.3538 391.49Q59.1929 391.07 59.0537 390.642Q58.9145 390.214 58.7972 389.78C57.407 384.742 58.1079 379.074 60.8443 374.6C63.737 369.871 68.1607 367.412 73.4046 366.087Z"/>
	<path fill="#FEFEFE" transform="scale(13.6803 13.6803)" d="M72.922 374.51C74.4108 374.443 76.0128 374.313 77.4951 374.492C80.3477 374.836 83.3362 376.665 85.0144 378.977C86.5599 381.107 87.1286 383.68 86.5951 386.259C85.7991 390.109 83.297 392.214 80.2183 394.374C78.7604 394.501 77.1995 394.687 75.7388 394.555C73.1042 394.317 70.3184 392.902 68.6221 390.868Q68.3104 390.495 68.0392 390.091Q67.768 389.687 67.5402 389.258Q67.3125 388.828 67.1305 388.377Q66.9486 387.926 66.8146 387.458Q66.6805 386.991 66.5957 386.512Q66.511 386.033 66.4764 385.548Q66.4419 385.063 66.4579 384.577Q66.474 384.091 66.5404 383.609C67.1129 379.279 69.6396 376.992 72.922 374.51Z"/>
	<path transform="scale(13.6803 13.6803)" d="M81.6803 660.587C85.3256 660.053 89.0948 660.275 92.5597 661.59Q92.9723 661.745 93.3762 661.92Q93.7802 662.096 94.1743 662.293Q94.5684 662.49 94.9516 662.708Q95.3349 662.925 95.7062 663.162Q96.0774 663.4 96.4357 663.656Q96.794 663.912 97.1384 664.187Q97.4827 664.462 97.8121 664.755Q98.1416 665.047 98.4551 665.357Q98.7687 665.666 99.0656 665.992Q99.3625 666.317 99.6419 666.658Q99.9212 666.999 100.182 667.354Q100.443 667.708 100.685 668.076Q100.928 668.445 101.15 668.825Q101.372 669.205 101.574 669.597Q101.777 669.988 101.958 670.39Q102.139 670.792 102.299 671.202Q102.476 671.653 102.63 672.111Q102.784 672.57 102.915 673.036Q103.047 673.502 103.155 673.974Q103.263 674.445 103.348 674.922Q103.433 675.398 103.494 675.878Q103.555 676.358 103.593 676.841Q103.63 677.323 103.644 677.807Q103.658 678.291 103.648 678.775Q103.637 679.259 103.603 679.741Q103.569 680.224 103.512 680.705Q103.454 681.185 103.372 681.662Q103.291 682.139 103.186 682.612Q103.082 683.084 102.954 683.551Q102.826 684.018 102.675 684.478Q102.524 684.938 102.351 685.389Q102.177 685.841 101.982 686.284C99.2785 692.372 94.6833 695.049 88.743 697.266C84.6576 697.782 80.39 697.273 76.6872 695.392Q75.8845 694.988 75.1264 694.506Q74.3683 694.024 73.6624 693.468Q72.9566 692.912 72.3101 692.289Q71.6636 691.665 71.083 690.979Q70.5024 690.293 69.9936 689.553Q69.4848 688.812 69.0529 688.024Q68.621 687.237 68.2703 686.409Q67.9197 685.582 67.6539 684.724C66.1451 679.819 66.7923 674.245 69.2603 669.758C72.0622 664.663 76.3373 662.261 81.6803 660.587Z"/>
	<path fill="#FEFEFE" transform="scale(13.6803 13.6803)" d="M84.2441 668.435C85.8817 668.607 87.5961 668.874 89.0969 669.576C91.8136 670.844 93.9878 673.221 94.8719 676.101Q95.0197 676.574 95.1187 677.06Q95.2176 677.546 95.2665 678.04Q95.3155 678.533 95.314 679.029Q95.3125 679.525 95.2606 680.018Q95.2086 680.511 95.1068 680.996Q95.0049 681.482 94.8543 681.954Q94.7036 682.427 94.5056 682.881Q94.3076 683.336 94.0644 683.768C92.3815 686.765 89.8668 687.97 86.7117 688.957C85.1863 688.864 83.4972 688.735 82.0448 688.252C79.6641 687.461 77.4979 685.691 76.3733 683.437C75.1957 681.077 75.1283 678.241 76.0787 675.795C77.633 671.796 80.4832 670.114 84.2441 668.435Z"/>
	<path transform="scale(13.6803 13.6803)" d="M499.186 63.5883C503.596 63.3097 507.575 63.3892 511.64 65.3406Q512.079 65.5548 512.507 65.7913Q512.934 66.0277 513.349 66.2858Q513.764 66.5439 514.165 66.8229Q514.566 67.1019 514.952 67.4011Q515.338 67.7003 515.708 68.0189Q516.079 68.3375 516.432 68.6747Q516.786 69.0119 517.121 69.3668Q517.457 69.7216 517.774 70.0933Q518.091 70.4649 518.389 70.8523Q518.686 71.2397 518.964 71.6418Q519.241 72.044 519.497 72.4598Q519.754 72.8756 519.988 73.3041Q520.223 73.7325 520.436 74.1724Q520.648 74.6124 520.838 75.0626Q521.027 75.5128 521.193 75.9722Q521.36 76.4315 521.502 76.8988Q521.774 77.7809 521.957 78.6856Q522.14 79.5903 522.232 80.5086Q522.325 81.427 522.326 82.35Q522.327 83.2729 522.237 84.1915Q522.146 85.1101 521.966 86.0152Q521.785 86.9203 521.516 87.8031Q521.246 88.6859 520.891 89.5377Q520.535 90.3895 520.097 91.2019C517.35 96.2332 512.856 98.8373 507.544 100.429C504.187 100.935 500.733 100.972 497.455 99.9967Q497.022 99.8712 496.596 99.7235Q496.171 99.5759 495.753 99.4064Q495.336 99.237 494.927 99.0463Q494.519 98.8555 494.121 98.644Q493.723 98.4325 493.337 98.2007Q492.95 97.9689 492.576 97.7175Q492.202 97.4661 491.842 97.1957Q491.481 96.9254 491.135 96.6368Q490.789 96.3482 490.458 96.0421Q490.128 95.7361 489.813 95.4134Q489.498 95.0907 489.201 94.7522Q488.904 94.4137 488.624 94.0603Q488.344 93.7069 488.083 93.3395Q487.822 92.9722 487.581 92.5919Q487.339 92.2116 487.117 91.8193Q486.895 91.427 486.694 91.0238Q486.482 90.5901 486.292 90.146Q486.103 89.702 485.936 89.2488Q485.77 88.7956 485.627 88.3344Q485.484 87.8732 485.365 87.4053Q485.246 86.9374 485.151 86.4641Q485.056 85.9906 484.985 85.513Q484.915 85.0354 484.869 84.5547Q484.823 84.0741 484.802 83.5917Q484.781 83.1093 484.785 82.6265Q484.789 82.1437 484.817 81.6618Q484.846 81.1798 484.899 80.6999Q484.952 80.22 485.03 79.7435Q485.108 79.267 485.21 78.7952Q485.312 78.3233 485.439 77.8573Q485.565 77.3913 485.715 76.9324Q485.865 76.4736 486.039 76.023C488.467 69.6616 493.16 66.188 499.186 63.5883Z"/>
	<path fill="#FEFEFE" transform="scale(13.6803 13.6803)" d="M501.1 71.4663C502.706 71.4483 504.453 71.5359 505.998 72.0013C508.888 72.8715 511.487 74.8247 512.851 77.5505Q513.075 77.9985 513.253 78.467Q513.43 78.9355 513.559 79.4196Q513.688 79.9037 513.768 80.3983Q513.847 80.893 513.876 81.3932Q513.904 81.8934 513.882 82.3939Q513.86 82.8944 513.787 83.39Q513.714 83.8857 513.591 84.3713Q513.468 84.857 513.296 85.3277C511.935 89.1305 509.225 90.8123 505.771 92.4983C504.105 92.584 502.205 92.6373 500.58 92.2226C498.035 91.573 495.594 89.8633 494.294 87.5615C492.966 85.2091 492.717 82.4419 493.46 79.8555C494.657 75.6944 497.509 73.52 501.1 71.4663Z"/>
	<path transform="scale(13.6803 13.6803)" d="M937.815 283.587C941.743 283.474 945.551 284.113 949.057 285.965Q949.484 286.19 949.9 286.437Q950.315 286.683 950.717 286.951Q951.119 287.218 951.507 287.506Q951.895 287.793 952.268 288.1Q952.641 288.407 952.997 288.732Q953.354 289.058 953.694 289.401Q954.033 289.744 954.355 290.105Q954.677 290.465 954.98 290.841Q955.283 291.217 955.566 291.608Q955.85 291.999 956.113 292.404Q956.376 292.809 956.618 293.226Q956.86 293.644 957.081 294.074Q957.302 294.503 957.5 294.943Q957.698 295.384 957.874 295.834Q958.05 296.283 958.202 296.742Q958.355 297.2 958.484 297.665Q958.613 298.111 958.719 298.563Q958.825 299.014 958.907 299.471Q958.989 299.928 959.048 300.388Q959.107 300.848 959.141 301.311Q959.176 301.774 959.187 302.238Q959.198 302.702 959.185 303.166Q959.172 303.629 959.135 304.092Q959.098 304.555 959.038 305.015Q958.977 305.475 958.893 305.931Q958.808 306.387 958.701 306.839Q958.593 307.29 958.462 307.735Q958.331 308.18 958.177 308.618Q958.024 309.056 957.848 309.485Q957.672 309.915 957.474 310.334Q957.276 310.754 957.057 311.163Q956.837 311.572 956.597 311.969C953.488 317.12 948.753 319.477 943.134 320.936C938.888 321.155 935.012 320.89 931.149 318.909Q930.746 318.703 930.355 318.477Q929.963 318.25 929.584 318.004Q929.204 317.759 928.837 317.494Q928.47 317.229 928.118 316.947Q927.765 316.664 927.426 316.364Q927.088 316.063 926.766 315.746Q926.443 315.43 926.137 315.097Q925.831 314.764 925.542 314.416Q925.253 314.068 924.982 313.706Q924.711 313.344 924.458 312.969Q924.206 312.594 923.973 312.206Q923.739 311.819 923.526 311.42Q923.313 311.021 923.12 310.612Q922.927 310.203 922.755 309.785Q922.583 309.366 922.432 308.94Q922.282 308.513 922.153 308.08C920.655 303.112 921.349 297.505 923.877 292.989C927.022 287.372 931.906 285.186 937.815 283.587Z"/>
	<path fill="#FEFEFE" transform="scale(13.6803 13.6803)" d="M939.507 291.522C941.096 291.714 942.705 292.053 944.188 292.671C946.944 293.821 949.217 296.102 950.246 298.914Q950.433 299.431 950.565 299.966Q950.697 300.5 950.772 301.045Q950.847 301.59 950.864 302.14Q950.881 302.69 950.841 303.239Q950.801 303.787 950.703 304.329Q950.606 304.87 950.452 305.399Q950.298 305.927 950.09 306.436Q949.882 306.945 949.621 307.43C947.655 311.092 944.743 312.254 941.016 313.462C939.518 313.203 937.962 312.892 936.553 312.307C933.79 311.161 931.336 308.866 930.223 306.069Q930.039 305.612 929.903 305.138Q929.766 304.664 929.679 304.179Q929.591 303.694 929.552 303.203Q929.514 302.711 929.526 302.219Q929.537 301.726 929.598 301.237Q929.66 300.748 929.77 300.267Q929.88 299.787 930.039 299.32Q930.197 298.853 930.402 298.405C932.328 294.256 935.461 292.935 939.507 291.522Z"/>
	<path transform="scale(13.6803 13.6803)" d="M407.151 878.539C402.572 865.296 402.188 849.767 404.202 836.008C407.857 811.027 422.495 787.767 442.756 772.843Q443.699 772.152 444.659 771.484Q445.618 770.817 446.595 770.173Q447.571 769.53 448.563 768.911Q449.554 768.292 450.561 767.697Q451.568 767.103 452.59 766.534Q453.611 765.965 454.646 765.422Q455.682 764.879 456.73 764.362Q457.779 763.844 458.84 763.353Q459.901 762.862 460.974 762.397Q462.046 761.933 463.131 761.495Q464.215 761.057 465.309 760.647Q466.404 760.236 467.509 759.853Q468.613 759.47 469.727 759.114Q470.841 758.759 471.963 758.431Q473.085 758.103 474.215 757.803Q475.346 757.504 476.483 757.232Q477.62 756.961 478.764 756.718Q479.907 756.475 481.056 756.26Q482.206 756.045 483.36 755.859Q484.514 755.674 485.673 755.517Q486.831 755.359 487.993 755.231Q489.156 755.103 490.321 755.004Q491.485 754.904 492.653 754.834Q493.82 754.764 494.988 754.723Q496.156 754.681 497.326 754.669Q498.495 754.657 499.664 754.674Q500.833 754.691 502.001 754.737Q503.169 754.783 504.336 754.859Q505.503 754.934 506.667 755.038Q507.832 755.142 508.993 755.275Q510.155 755.408 511.313 755.57Q512.47 755.732 513.624 755.923C538.982 759.911 562.594 773.561 577.599 794.534C595.222 819.165 597.378 846.841 592.438 875.872C584.04 901.672 568.991 923.385 544.291 935.917C538.072 939.072 531.579 941.378 524.958 943.52L581.674 943.498C590.743 943.44 600.337 942.461 609.314 943.203C611.767 943.406 615.491 943.854 617.369 945.669C618.071 946.347 618.254 946.824 618.509 947.736C618.197 949.157 617.842 949.938 616.557 950.719C614.871 951.743 612.901 952.107 610.961 952.262C607.108 952.568 603.175 952.173 599.313 952.09C593.541 951.968 587.751 952.075 581.977 952.12C558.122 952.307 534.111 953.262 510.311 951.223C498.986 950.253 487.489 948.544 476.571 945.362C449.722 937.537 428.159 920.949 414.806 896.284C411.722 890.586 409.312 884.638 407.151 878.539Z"/>
	<path fill="#FEFEFE" transform="scale(13.6803 13.6803)" d="M491.339 763.196C511.925 760.662 536.107 769.148 552.459 781.352Q553.302 781.981 554.129 782.63Q554.955 783.28 555.766 783.95Q556.576 784.62 557.37 785.309Q558.164 785.999 558.94 786.708Q559.716 787.418 560.475 788.146Q561.233 788.875 561.973 789.621Q562.713 790.368 563.435 791.133Q564.156 791.898 564.858 792.681Q565.56 793.464 566.243 794.264Q566.925 795.064 567.588 795.88Q568.25 796.697 568.892 797.529Q569.534 798.362 570.155 799.211Q570.777 800.059 571.376 800.923Q571.976 801.786 572.555 802.664Q573.133 803.543 573.689 804.435Q574.245 805.327 574.779 806.233Q575.313 807.139 575.825 808.058Q576.336 808.977 576.824 809.908Q577.313 810.839 577.778 811.782Q578.243 812.725 578.685 813.679Q579.126 814.633 579.544 815.598Q579.962 816.563 580.355 817.538Q580.749 818.513 581.118 819.498Q581.488 820.482 581.833 821.476Q582.177 822.469 582.498 823.471Q582.818 824.472 583.113 825.481Q583.408 826.491 583.678 827.507Q583.948 828.523 584.193 829.546Q584.437 830.568 584.656 831.597Q584.876 832.625 585.069 833.659Q585.263 834.692 585.431 835.73Q585.599 836.768 585.741 837.81Q585.898 838.911 586.029 840.015Q586.159 841.119 586.262 842.227Q586.364 843.334 586.44 844.443Q586.515 845.553 586.563 846.664Q586.611 847.775 586.632 848.886Q586.653 849.998 586.646 851.11Q586.639 852.222 586.605 853.334Q586.57 854.445 586.509 855.555Q586.447 856.666 586.358 857.774Q586.269 858.882 586.152 859.988Q586.036 861.094 585.892 862.197Q585.748 863.299 585.577 864.398Q585.406 865.497 585.208 866.591Q585.01 867.685 584.785 868.774Q584.56 869.863 584.308 870.946Q584.056 872.029 583.778 873.106Q583.499 874.183 583.194 875.252Q582.889 876.321 582.558 877.383Q582.227 878.444 581.869 879.497Q581.512 880.55 581.129 881.594Q580.745 882.638 580.336 883.672Q579.927 884.706 579.493 885.729Q579.058 886.753 578.599 887.766Q578.139 888.778 577.655 889.779Q577.17 890.78 576.661 891.769Q576.152 892.757 575.619 893.733Q575.086 894.709 574.529 895.671Q573.972 896.634 573.391 897.582Q572.81 898.53 572.206 899.464Q571.602 900.397 570.975 901.316Q570.348 902.234 569.699 903.137Q569.049 904.04 568.378 904.926C553.097 925.009 531.137 935.003 506.619 938.42C483.654 939.273 462.574 934.205 444.242 919.765C426.655 905.911 414.322 883.996 411.75 861.735Q411.612 860.632 411.503 859.527Q411.393 858.421 411.311 857.313Q411.229 856.204 411.174 855.095Q411.12 853.985 411.094 852.874Q411.068 851.763 411.069 850.652Q411.071 849.54 411.1 848.43Q411.13 847.319 411.187 846.209Q411.244 845.099 411.329 843.992Q411.415 842.884 411.527 841.778Q411.64 840.673 411.781 839.57Q411.922 838.468 412.09 837.37Q412.258 836.271 412.454 835.178Q412.65 834.084 412.873 832.995Q413.096 831.907 413.346 830.824Q413.597 829.741 413.874 828.665Q414.152 827.589 414.456 826.521Q414.761 825.452 415.092 824.391Q415.423 823.331 415.781 822.279Q416.138 821.226 416.522 820.184Q416.906 819.141 417.316 818.108Q417.726 817.075 418.162 816.053Q418.598 815.031 419.059 814.02Q419.52 813.009 420.007 812.01Q420.493 811.011 421.005 810.025Q421.516 809.038 422.052 808.065Q422.588 807.091 423.149 806.132Q423.709 805.172 424.293 804.227Q424.877 803.282 425.485 802.351Q426.093 801.421 426.724 800.506Q427.355 799.592 428.008 798.693Q428.662 797.794 429.338 796.913Q430.014 796.031 430.712 795.166C445.799 776.401 467.561 765.681 491.339 763.196Z"/>
	<path transform="scale(13.6803 13.6803)" d="M453.059 844.094C453.405 845.316 453.753 846.488 453.951 847.744C450.808 849.307 447.555 851.012 444.057 851.572C443.045 851.734 442.223 851.969 441.364 851.336C441.418 851.189 441.453 851.034 441.524 850.894C443.231 847.545 449.771 845.409 453.059 844.094Z"/>
	<path fill="#FBB32D" transform="scale(13.6803 13.6803)" d="M454.438 807.2C468.098 801.119 482.316 795.461 496.379 790.413C511.977 797.126 528.088 804.327 543.096 812.29Q520.662 821.084 497.743 828.524C491.766 824.275 484.363 821.539 477.67 818.567C469.744 815.046 462.003 811.461 454.438 807.2Z"/>
	<path fill="#EB6F56" transform="scale(13.6803 13.6803)" d="M454.438 807.2C462.003 811.461 469.744 815.046 477.67 818.567C484.363 821.539 491.766 824.275 497.743 828.524C498.3 840.46 497.385 852.439 497.716 864.367C485.794 861.764 475.359 854.85 463.507 851.59L460.716 858.075C472.113 864.677 485.432 870.535 498.015 874.441C497.914 885.873 497.723 897.31 498.069 908.739C484.136 901.424 468.465 897.297 454.512 889.947Q454.356 868.844 453.951 847.744C453.753 846.488 453.405 845.316 453.059 844.094L453.615 843.651C456.208 836.05 454.614 816.051 454.438 807.2Z"/>
	<path fill="#1282B0" transform="scale(13.6803 13.6803)" d="M543.096 812.29C544.01 812.718 544.185 812.552 544.558 813.573C546.822 819.774 544.521 835.73 544.462 842.861C549.113 845.511 553.671 848.27 557.741 851.772C553.041 850.392 548.778 848.39 544.493 846.034L544.504 892.54C529.304 898.306 513.791 904.591 498.069 908.739C497.723 897.31 497.914 885.873 498.015 874.441C485.432 870.535 472.113 864.677 460.716 858.075L463.507 851.59C475.359 854.85 485.794 861.764 497.716 864.367C497.385 852.439 498.3 840.46 497.743 828.524Q520.662 821.084 543.096 812.29Z"/>
	<path transform="scale(13.6803 13.6803)" d="M497.716 864.367Q515.149 856.709 532.974 850.016C534.408 852.828 535.597 855.628 536.698 858.586C524.096 862.668 508.832 866.577 498.015 874.441C485.432 870.535 472.113 864.677 460.716 858.075L463.507 851.59C475.359 854.85 485.794 861.764 497.716 864.367Z"/>
	<path transform="scale(13.6803 13.6803)" d="M762.873 247.877C758.473 241.406 753.902 234.87 750.364 227.881C740.263 207.927 737.779 183.841 741.917 161.996Q742.148 160.777 742.408 159.564Q742.669 158.351 742.959 157.145Q743.249 155.939 743.568 154.74Q743.887 153.541 744.236 152.35Q744.584 151.159 744.961 149.978Q745.338 148.796 745.744 147.623Q746.15 146.451 746.584 145.289Q747.018 144.127 747.48 142.975Q747.943 141.824 748.433 140.684Q748.923 139.545 749.441 138.417Q749.958 137.29 750.503 136.175Q751.048 135.061 751.62 133.96Q752.192 132.859 752.791 131.772Q753.389 130.686 754.014 129.614Q754.639 128.542 755.289 127.486Q755.94 126.429 756.616 125.389Q757.292 124.349 757.994 123.326Q758.695 122.302 759.421 121.296Q760.147 120.29 760.897 119.302Q761.647 118.314 762.421 117.344Q763.195 116.375 763.993 115.424Q764.79 114.474 765.61 113.543Q766.431 112.612 767.273 111.702Q768.116 110.791 768.98 109.902Q769.845 109.012 770.731 108.143Q771.617 107.275 772.524 106.428Q773.43 105.582 774.357 104.757Q775.285 103.933 776.232 103.131Q777.178 102.33 778.144 101.551Q779.111 100.773 780.095 100.018Q781.08 99.2638 782.083 98.5333Q783.086 97.8029 784.106 97.0971C807.941 80.9048 837.49 75.9501 865.627 81.422Q866.855 81.6718 868.076 81.9512Q869.297 82.2306 870.512 82.5394Q871.726 82.8482 872.932 83.1862Q874.139 83.5243 875.337 83.8913Q876.535 84.2584 877.724 84.6543Q878.912 85.0502 880.091 85.4747Q881.27 85.8992 882.438 86.352Q883.606 86.8048 884.763 87.2857Q885.92 87.7666 887.065 88.2753Q888.21 88.784 889.343 89.3202Q890.475 89.8564 891.594 90.4197Q892.713 90.9831 893.818 91.5734Q894.924 92.1636 896.014 92.7804Q897.105 93.3971 898.18 94.04Q899.256 94.6829 900.315 95.3516Q901.375 96.0203 902.418 96.7144Q903.461 97.4085 904.487 98.1275Q905.513 98.8466 906.521 99.5903Q907.53 100.334 908.52 101.102Q909.51 101.869 910.481 102.661Q911.452 103.452 912.404 104.267Q913.356 105.082 914.288 105.919Q915.22 106.757 916.132 107.616Q917.043 108.476 917.933 109.357Q918.824 110.239 919.693 111.141Q920.562 112.044 921.408 112.968Q922.255 113.891 923.08 114.835Q923.904 115.778 924.705 116.741Q925.506 117.705 926.284 118.687Q927.062 119.669 927.816 120.67Q928.569 121.671 929.299 122.689Q930.028 123.708 930.733 124.744Q931.428 125.761 932.097 126.795Q932.767 127.829 933.411 128.879Q934.055 129.929 934.673 130.995Q935.292 132.06 935.883 133.14Q936.475 134.221 937.04 135.315Q937.605 136.41 938.143 137.518Q938.681 138.626 939.192 139.747Q939.703 140.868 940.186 142.001Q940.669 143.134 941.124 144.279Q941.579 145.424 942.006 146.579Q942.433 147.735 942.831 148.9Q943.23 150.066 943.599 151.241Q943.969 152.416 944.31 153.6Q944.65 154.783 944.962 155.975Q945.274 157.167 945.556 158.366Q945.838 159.565 946.091 160.771Q946.344 161.976 946.567 163.188Q946.79 164.399 946.983 165.616Q947.176 166.832 947.339 168.053Q947.503 169.274 947.636 170.499Q947.77 171.723 947.873 172.951Q947.976 174.178 948.049 175.408Q948.122 176.638 948.165 177.869Q948.208 179.1 948.221 180.331Q948.233 181.563 948.216 182.795Q948.198 184.027 948.151 185.257Q948.103 186.488 948.025 187.718Q947.947 188.947 947.839 190.174Q947.731 191.401 947.592 192.625Q947.454 193.849 947.286 195.07Q947.118 196.29 946.92 197.506Q946.722 198.721 946.494 199.932C941.096 227.572 923.906 251.452 900.645 266.987C876.971 282.797 847.87 287.004 820.206 281.417Q814.246 280.167 808.461 278.267Q802.675 276.367 797.135 273.84C793.492 272.194 788.82 268.09 785.022 267.543C777.183 262.194 768.756 255.406 762.873 247.877Z"/>
	<path fill="#FEFEFE" transform="scale(13.6803 13.6803)" d="M902.861 230.991Q913.571 230.908 924.274 231.309C916.801 245.003 903.995 255.564 890.791 263.453C885.805 265.971 880.752 268.157 875.594 270.289C887.797 258.718 896.243 246.381 902.861 230.991Z"/>
	<path fill="#FEFEFE" transform="scale(13.6803 13.6803)" d="M761.911 230.923L785.959 230.892C792.302 246.027 801.666 259.062 813.121 270.727C812.599 270.621 812.075 270.521 811.559 270.387C790.948 265.023 772.614 248.898 761.911 230.923Z"/>
	<path fill="#FEFEFE" transform="scale(13.6803 13.6803)" d="M796.036 231.354Q808.655 231.195 821.273 231.459C823.956 246.629 827.272 260.802 834.041 274.759C832.851 274.531 831.804 273.998 830.728 273.455C816.04 266.044 801.176 246.809 796.036 231.354Z"/>
	<path fill="#FEFEFE" transform="scale(13.6803 13.6803)" d="M867.568 231.434Q880.304 231.483 893.039 231.314C888.258 244.041 879.67 254.897 870.198 264.46C865.195 268.878 860.067 272.304 854.032 275.149C860.833 260.95 864.5 246.784 867.568 231.434Z"/>
	<path fill="#FEFEFE" transform="scale(13.6803 13.6803)" d="M874.556 93.339C875.59 93.4081 876.571 93.6619 877.569 93.921C898.934 99.466 917.456 117.967 928.3 136.481L903.115 136.494C897.483 118.942 888.11 105.709 874.556 93.339Z"/>
	<path fill="#FEFEFE" transform="scale(13.6803 13.6803)" d="M829.36 92.9895C830.554 94.7595 828.128 100.31 827.497 102.309C823.911 113.685 822.179 124.786 821.401 136.662Q808.013 136.945 794.622 136.875L794.004 136.239C794.05 135.537 794.029 135.488 794.226 134.689C798.325 118.003 815.053 101.453 829.36 92.9895Z"/>
	<path fill="#FEFEFE" transform="scale(13.6803 13.6803)" d="M854.052 89.8521C873.685 99.1666 885.496 116.915 893.896 136.144C884.994 136.51 876.075 136.413 867.167 136.403C865.413 119.745 860.727 105.119 854.052 89.8521Z"/>
	<path fill="#FEFEFE" transform="scale(13.6803 13.6803)" d="M814.044 91.9839L814.773 92.1647C813.502 95.1366 803.553 103.788 800.661 107.56C793.669 116.678 788.809 126.656 784.221 137.115C776.495 137.17 768.759 137.023 761.034 136.962L760.394 136.54C760.319 135.917 760.332 135.42 760.569 134.827C762.179 130.796 765.505 126.723 768.237 123.406C780.743 108.222 795.854 98.968 814.044 91.9839Z"/>
	<path fill="#5EC9DA" transform="scale(13.6803 13.6803)" d="M829.834 231.445Q844.263 231.209 858.692 231.367C856.873 242.827 854.767 254.053 849.865 264.667C848.168 268.411 846.481 271.748 843.756 274.869C834.44 264.251 832.292 244.95 829.834 231.445Z"/>
	<path fill="#5EC9DA" transform="scale(13.6803 13.6803)" d="M842.356 88.356C853.118 98.4636 856.477 122.445 859.156 136.548L847.25 136.553L829.915 136.527C830.352 119.635 833.298 102.844 842.356 88.356Z"/>
	<path fill="#2DB0EA" transform="scale(13.6803 13.6803)" d="M756.353 144.483L782.071 144.506Q780.573 151.103 779.589 157.797C778.868 162.875 778.813 175.81 776.499 179.645L775.125 179.966L748.412 179.999C748.646 167.83 752.593 155.941 756.353 144.483Z"/>
	<path fill="#2DB0EA" transform="scale(13.6803 13.6803)" d="M911.814 187.714C921.174 187.707 930.544 187.917 939.904 188.026C938.011 200.367 934.993 210.932 929.714 222.241C929.601 222.358 929.5 222.487 929.377 222.592C926.499 225.066 908.243 223.624 904.181 223.484C905.995 216.933 907.559 210.23 908.579 203.507C909.307 198.71 909.489 193.707 910.728 189.013C910.925 188.267 911.239 188.191 911.814 187.714Z"/>
	<path fill="#2DB0EA" transform="scale(13.6803 13.6803)" d="M748.444 187.594L777.408 187.584C778.601 199.855 780.8 211.493 783.746 223.466L757.535 223.565C753.018 211.667 750.266 200.148 748.444 187.594Z"/>
	<path fill="#2DB0EA" transform="scale(13.6803 13.6803)" d="M905.252 144.022L932.638 144.014C936.458 156.08 938.937 167.624 940.062 180.247L910.507 180.254C908.821 168.077 907.504 156.135 905.252 144.022Z"/>
	<path fill="#5EC9DA" transform="scale(13.6803 13.6803)" d="M870.529 187.573L901.546 187.78C901.682 199.16 899.148 210.256 896.091 221.139C895.815 221.793 895.618 222.239 895.117 222.762C893.129 224.836 872.649 223.976 868.664 223.939Q870.412 205.798 870.529 187.573Z"/>
	<path fill="#5EC9DA" transform="scale(13.6803 13.6803)" d="M868.232 143.879L896.174 143.89C900.229 155.562 901.533 167.924 901.504 180.215L870.501 180.233Q869.699 162.035 868.232 143.879Z"/>
	<path fill="#5EC9DA" transform="scale(13.6803 13.6803)" d="M785.964 187.569L818.523 187.513L820.577 223.484L792.161 223.495C788.916 211.656 786.562 199.864 785.964 187.569Z"/>
	<path fill="#5EC9DA" transform="scale(13.6803 13.6803)" d="M804.344 144.264C809.739 144.051 815.146 144.132 820.545 144.146Q819.805 161.946 818.279 179.696C812.794 179.986 807.245 179.835 801.75 179.847L785.919 179.854C786.466 168.041 787.381 155.69 790.941 144.354L804.344 144.264Z"/>
	<path fill="#2DB0EA" transform="scale(13.6803 13.6803)" d="M829.076 144.47C839.287 144.053 849.734 144.093 859.944 144.479C859.987 144.814 860.033 145.148 860.072 145.483C860.667 150.579 863.698 177.349 861.456 180.103L827.44 180.048C827.283 168.178 828.302 156.308 829.076 144.47Z"/>
	<path fill="#2DB0EA" transform="scale(13.6803 13.6803)" d="M827.02 187.998L862.328 188.024C861.671 199.647 861.288 211.242 860.376 222.855C857.344 225.31 834.465 223.723 829.072 223.664L827.02 187.998Z"/>
	<path transform="scale(13.6803 13.6803)" d="M208.891 699.228C216.949 698.863 225.246 698.238 233.203 699.883C233.954 704.611 234.426 709.253 234.754 714.024L245.686 719.144Q252.246 715.086 258.574 710.675C264.609 715.823 269.833 721.111 274.791 727.334Q271.027 734.482 266.151 740.922C268.809 744.993 270.224 748.785 271.473 753.47L287.054 754.118Q287.123 767.52 287.01 780.921C281.561 781.189 276.087 781.315 270.793 782.753C269.108 786.842 267.38 790.947 264.981 794.682C268.023 799.339 271.169 803.929 273.692 808.893C273.761 809.029 273.832 809.163 273.903 809.297C268.987 814.109 264.167 819.18 258.647 823.31C254.009 820.633 249.614 817.625 245.185 814.621C241.232 816.177 237.322 817.724 233.225 818.873Q232.278 824.404 231.232 829.917C238.995 838.385 246.752 847.898 256.333 854.332C260.543 850.225 264.825 846.171 268.911 841.942C282.127 853.178 294.035 865.93 305.865 878.588C301.091 886.078 291.043 893.482 284.271 899.49C267.787 914.116 250.059 928.348 235.058 944.513C242.811 944.499 275.657 943.358 280.194 945.234C281.927 945.95 283.342 946.994 284.057 948.763C283.906 949.759 284.082 949.655 283.506 950.314C281.745 952.331 278.221 953.118 275.673 953.391C267.314 954.286 258.353 953.317 249.943 953.155C236.882 952.905 223.79 953.055 210.727 953.038C190.605 953.012 170.468 952.808 150.348 953.019C135.945 953.171 121.369 953.994 106.983 953.404C104.729 953.311 101.057 953.131 99.3662 951.386C98.7618 950.762 98.4562 950.11 98.4113 949.259C98.3468 948.034 98.6154 946.765 99.5362 945.879C100.941 944.526 103.268 944.509 105.1 944.384C116.969 943.581 128.933 944.463 140.82 944.503L209.651 944.431Q199.721 934.763 190.099 924.788C196.328 917.91 202.794 911.354 209.364 904.807C203.895 899.158 198.044 893.824 192.25 888.511Q180.633 899.82 168.663 910.755C162.707 905.228 156.906 899.512 151.037 893.892C142.557 900.949 134.299 908.485 127.292 917.023C117.638 906.552 106.701 897.334 97.3249 886.623C104.602 878.925 111.568 870.861 118.654 862.981C113.814 858.033 108.789 853.266 104.446 847.864C111.531 839.133 120.65 831.504 128.352 823.22C124.099 818.094 119.155 813.427 114.474 808.687Q105.947 817.318 96.8241 825.316C86.7449 813.797 74.5116 802.589 63.4246 791.933C75.7475 779.155 88.3413 766.636 100.788 753.979C109.34 745.281 117.489 735.61 127.4 728.417C136.768 736.296 144.721 745.394 153.396 753.978L156.53 756.753L169.251 754.232Q172.104 747.128 174.881 739.995C171.092 735.845 167.215 731.848 164.484 726.887C170.202 721.095 175.861 715.225 181.703 709.558L193.739 720.273C198.127 717.959 203.131 715.951 206.742 712.495C208.125 708.254 208.451 703.652 208.891 699.228Z"/>
	<path fill="#FBB32D" transform="scale(13.6803 13.6803)" d="M134.626 829.384C141.354 832.394 178.48 872.819 186.79 881.468C181.53 887.985 175.462 893.582 169.293 899.205C163.342 893.276 157.426 887.386 151.004 881.962L147.235 885.255Q137.037 894.856 127.339 904.962C120.975 898.898 114.85 892.501 108.84 886.086C115.589 878.383 123.056 871.638 129.156 863.336C125.402 857.997 120.644 853.272 116.207 848.502C122.171 841.937 128.348 835.646 134.626 829.384Z"/>
	<path fill="#194E84" transform="scale(13.6803 13.6803)" d="M216.157 707.146L225.896 706.895C226.095 709.99 226.076 713.675 227.143 716.579C229.807 723.833 240.981 725.969 247.459 728.861C250.92 726.696 254.15 724.096 257.419 721.652Q261.213 725.073 265.073 728.42C262.428 732.124 259.333 735.199 255.926 738.194C260.217 745.29 263.074 753.343 264.852 761.416C269.553 761.517 274.263 761.481 278.966 761.506L278.968 773.721C274.106 773.629 269.238 773.654 264.376 773.627C262.356 781.949 259.547 788.398 255.035 795.67L264.227 807.741C262.4 809.995 260.373 812.061 258.373 814.161Q251.925 809.473 245.423 804.862C240.852 806.739 236.293 808.562 231.621 810.18L226.045 811.811C225.453 815.334 225.161 818.94 224.762 822.491Q194.465 793.874 165.195 764.208C169.185 763.354 173.212 762.815 177.262 762.344C177.806 753.75 181.344 746.098 185.106 738.505C181.723 735.101 178.6 731.54 175.489 727.893L181.783 720.29C185.397 723.472 188.956 726.622 192.909 729.387L214.337 720.071C215.273 715.837 215.642 711.449 216.157 707.146Z"/>
	<path transform="scale(13.6803 13.6803)" d="M216.209 729.16C224.911 728.624 233.279 730.208 240.64 735.044C248.735 740.361 254.231 749.049 256.101 758.506C257.965 767.933 256.264 778.258 250.85 786.265C244.84 795.154 235.692 799.314 225.461 801.338C216.069 802.156 206.92 799.92 199.242 794.37C191.497 788.77 186.574 780.693 185.123 771.254C183.641 761.611 185.873 750.882 191.741 743.004C197.623 735.108 206.592 730.56 216.209 729.16Z"/>
	<path fill="#EB6F56" transform="scale(13.6803 13.6803)" d="M219.274 737.626Q220.29 737.585 221.307 737.617Q222.323 737.648 223.335 737.752Q224.346 737.855 225.348 738.029Q226.35 738.204 227.337 738.449Q228.324 738.694 229.291 739.008Q230.258 739.323 231.201 739.705Q232.144 740.087 233.057 740.534Q233.97 740.982 234.849 741.493C241.279 745.304 246.048 752.016 247.733 759.291C249.437 766.648 248.272 774.103 244.134 780.463C239.329 787.846 232.264 791.156 224.03 793.045C217.363 793.276 211.316 792.345 205.69 788.435C199.599 784.201 195.299 777.308 194.017 770.005C192.719 762.607 194.352 755.002 198.827 748.94C203.981 741.958 211.056 739.018 219.274 737.626Z"/>
	<path transform="scale(13.6803 13.6803)" d="M219.9 753.07C221.743 753.075 223.63 753.31 225.356 753.992C228.217 755.124 230.522 757.197 231.739 760.043Q231.988 760.639 232.174 761.257Q232.361 761.875 232.483 762.509Q232.605 763.143 232.662 763.786Q232.718 764.429 232.708 765.074Q232.698 765.72 232.622 766.361Q232.546 767.002 232.405 767.632Q232.264 768.262 232.058 768.874Q231.853 769.486 231.586 770.074C229.506 774.588 226.125 776.335 221.69 777.87C219.464 777.686 217.405 777.409 215.386 776.39C212.249 774.806 209.828 772.068 208.851 768.673Q208.69 768.119 208.585 767.551Q208.479 766.983 208.43 766.408Q208.381 765.833 208.389 765.256Q208.396 764.679 208.461 764.105Q208.526 763.531 208.646 762.967Q208.767 762.402 208.943 761.852Q209.119 761.302 209.348 760.773Q209.577 760.243 209.857 759.738C212.134 755.703 215.648 754.232 219.9 753.07Z"/>
	<path fill="#194E84" transform="scale(13.6803 13.6803)" d="M219.675 760.832C220.101 760.895 220.531 760.949 220.951 761.043C222.478 761.387 223.391 762.019 224.224 763.367C224.654 766.206 223.614 767.486 221.989 769.711C220.638 769.616 219.55 769.218 218.51 768.348C217.622 767.605 217.234 766.665 217.191 765.517C217.107 763.33 218.255 762.258 219.675 760.832Z"/>
	<path fill="#FBB32D" transform="scale(13.6803 13.6803)" d="M127.111 739.821C131.762 741.652 146.227 758.372 151.066 763.111Q203.861 813.973 255.372 866.134C260.06 861.987 264.337 857.35 269.353 853.585Q282.454 865.853 295.186 878.504C285.952 887.318 276.174 895.48 266.697 904.022C251.679 917.558 236.871 931.261 221.337 944.217L221.163 944.234C218.406 943.064 204.464 928.492 201.034 925.256Q210.521 915.117 220.58 905.545C211.256 893.561 199.787 883.4 189.261 872.502Q152.506 834.529 115.069 797.228Q106.271 805.447 97.71 813.913C90.2577 806.574 82.8602 799.244 75.623 791.691C92.1904 773.861 109.824 756.952 127.111 739.821Z"/>
	<path fill="#FEFEFE" transform="scale(13.6803 13.6803)" d="M227.293 82.4983C228.089 78.4895 228.737 74.0725 231.265 70.7231C233.859 67.2856 237.759 66.4334 241.807 65.8093C254.468 63.8571 268.196 65.1886 281.001 65.1945C291.026 65.1992 301.227 64.3948 311.214 65.3579C314.374 65.6627 318.629 66.0241 321.176 68.0499C325.601 71.5695 326.187 77.3328 326.63 82.5663C340.334 82.3987 361.651 79.4098 372.453 89.5829C375.873 92.8039 378.323 97.3223 379.323 101.913C381.511 111.954 380.182 123.036 380.074 133.25C379.903 149.49 379.734 165.788 380.059 182.025L459.338 182.019C459.137 174.396 457.182 155.199 461.319 149.421C463.434 148.151 467.093 148.242 469.53 148.182C486.301 147.768 503.176 148.191 519.961 148.186L618.999 148.243C627.305 148.27 661.92 147.304 666.731 148.762C667.915 149.12 668.433 149.436 668.921 150.605C670.587 154.592 669.56 229.135 669.566 240.91C692.852 230.115 730.479 235.75 754.008 244.449Q758.457 246.12 762.873 247.877C768.756 255.406 777.183 262.194 785.022 267.543C790.865 275.139 797.59 281.966 803.625 289.396C815.549 304.077 829.411 326.267 830.652 345.531Q856.464 345.976 882.275 345.482C894.322 357.717 905.615 370.722 917.322 383.283C925.141 391.671 936.005 401.715 942.283 410.95C941.549 429.176 942.061 447.348 942.11 465.577L942.008 545.36L942.081 574.466C942.106 581.715 942.473 589.157 941.338 596.341Q941.219 597.12 941.037 597.886Q940.856 598.653 940.615 599.402Q940.373 600.152 940.073 600.88Q939.772 601.608 939.415 602.31Q939.057 603.012 938.645 603.683Q938.233 604.354 937.768 604.99Q937.304 605.626 936.79 606.224Q936.277 606.821 935.717 607.375C932.925 610.087 929.176 611.422 925.416 612.133C919.116 613.323 912.12 612.722 905.734 612.68L874.514 612.481C874.829 634.506 874.666 656.606 875.361 678.616C878.682 680.028 893.598 678.816 898.424 679.268L933.403 713.058C941.645 721.059 950.079 728.861 957.613 737.551L957.799 880.676L957.761 924.264C957.754 931.71 958.131 939.351 957.675 946.774C957.56 948.644 957.274 950.215 956.368 951.863L955.888 952.22C953.544 953.962 874.326 952.994 864.264 952.989L745.241 953.413L713.419 953.47C708.68 953.475 703.163 954.065 698.523 953.291C696.294 952.919 693.324 951.869 692.092 949.845C691.645 949.111 691.858 948.796 691.965 947.999C694.17 945.401 698.013 944.759 701.254 944.487C710.239 943.735 719.811 944.536 728.838 944.634C728.122 921.62 729.321 898.528 728.735 875.504Q660.588 876.174 592.438 875.872C597.378 846.841 595.222 819.165 577.599 794.534C562.594 773.561 538.982 759.911 513.624 755.923Q512.47 755.732 511.313 755.57Q510.155 755.408 508.993 755.275Q507.832 755.142 506.667 755.038Q505.503 754.934 504.336 754.859Q503.169 754.783 502.001 754.737Q500.833 754.691 499.664 754.674Q498.495 754.657 497.326 754.669Q496.156 754.681 494.988 754.723Q493.82 754.764 492.652 754.834Q491.485 754.904 490.321 755.004Q489.156 755.103 487.993 755.231Q486.831 755.359 485.673 755.517Q484.514 755.674 483.36 755.86Q482.206 756.045 481.056 756.26Q479.907 756.475 478.763 756.718Q477.62 756.961 476.483 757.232Q475.346 757.504 474.215 757.803Q473.085 758.103 471.963 758.431Q470.841 758.759 469.727 759.114Q468.613 759.47 467.509 759.853Q466.404 760.236 465.309 760.647Q464.215 761.057 463.131 761.495Q462.046 761.933 460.974 762.397Q459.901 762.862 458.84 763.353Q457.779 763.844 456.73 764.362Q455.682 764.879 454.646 765.422Q453.611 765.965 452.59 766.534Q451.568 767.103 450.561 767.697Q449.554 768.292 448.563 768.911Q447.571 769.53 446.595 770.173Q445.618 770.817 444.659 771.484Q443.699 772.152 442.756 772.843C422.495 787.767 407.857 811.027 404.202 836.008C402.188 849.767 402.572 865.296 407.151 878.539C373.387 879.319 339.614 878.128 305.865 878.588C294.035 865.93 282.127 853.178 268.911 841.942C264.825 846.171 260.543 850.225 256.333 854.332C246.752 847.898 238.995 838.385 231.232 829.917Q232.278 824.404 233.225 818.873C237.322 817.724 241.232 816.177 245.185 814.621C249.614 817.625 254.009 820.633 258.647 823.31C264.167 819.18 268.987 814.109 273.903 809.297C273.832 809.163 273.761 809.029 273.692 808.893C271.169 803.929 268.023 799.339 264.981 794.682C267.38 790.947 269.108 786.842 270.793 782.753C276.087 781.315 281.561 781.189 287.01 780.921Q287.123 767.52 287.054 754.118L271.473 753.47C270.224 748.785 268.809 744.993 266.151 740.922Q271.027 734.482 274.791 727.334C269.833 721.111 264.609 715.823 258.574 710.675Q252.246 715.086 245.686 719.144L234.754 714.024C234.426 709.253 233.954 704.611 233.203 699.883C225.246 698.238 216.949 698.863 208.891 699.228C208.451 703.652 208.125 708.254 206.742 712.495C203.131 715.951 198.127 717.959 193.739 720.273L181.703 709.558C175.861 715.225 170.202 721.095 164.484 726.887C167.215 731.848 171.092 735.845 174.881 739.995Q172.104 747.128 169.251 754.232L156.53 756.753L153.396 753.978C153.813 743.681 153.476 733.25 153.476 722.934C153.473 694.036 152.818 665.127 153.015 636.237Q145.503 634.028 138.317 630.92Q137.191 630.409 136.077 629.87Q134.964 629.332 133.864 628.768Q132.763 628.203 131.677 627.612Q130.591 627.021 129.519 626.404Q128.447 625.787 127.39 625.144Q126.333 624.502 125.292 623.834Q124.251 623.167 123.226 622.474Q122.202 621.782 121.194 621.065Q120.186 620.348 119.196 619.607Q118.206 618.866 117.233 618.102Q116.261 617.337 115.307 616.55Q114.354 615.762 113.419 614.952Q112.485 614.142 111.57 613.31Q110.656 612.477 109.761 611.623Q108.867 610.769 107.993 609.894Q107.119 609.018 106.267 608.122Q105.414 607.226 104.584 606.31Q103.753 605.394 102.945 604.458Q102.136 603.522 101.351 602.567Q100.565 601.612 99.8022 600.638Q99.0397 599.664 98.3007 598.673Q97.5617 597.681 96.8467 596.672Q96.1318 595.663 95.4412 594.637Q94.7507 593.611 94.085 592.568Q93.4193 591.526 92.7788 590.468Q92.1383 589.41 91.5234 588.337Q90.9085 587.264 90.3195 586.176Q89.7305 585.089 89.1678 583.988Q88.6051 582.886 88.069 581.772Q87.5329 580.657 87.0238 579.53Q86.5146 578.403 86.0326 577.264Q85.5506 576.125 85.0961 574.975Q84.6495 573.803 84.2322 572.621Q83.815 571.438 83.4273 570.246Q83.0397 569.053 82.6819 567.852Q82.3241 566.65 81.9964 565.44Q81.6687 564.229 81.3713 563.011Q81.0738 561.793 80.8069 560.568Q80.5399 559.343 80.3036 558.112Q80.0673 556.88 79.8617 555.643Q79.6562 554.406 79.4815 553.165Q79.3069 551.923 79.1633 550.677Q79.0196 549.432 78.9071 548.183Q78.7946 546.934 78.7133 545.683Q78.6319 544.431 78.5818 543.179Q78.5317 541.926 78.5128 540.672Q78.4939 539.418 78.5064 538.164Q78.5188 536.911 78.5624 535.657Q78.6061 534.404 78.681 533.153Q78.7559 531.901 78.862 530.652Q78.9681 529.402 79.1053 528.156Q79.2425 526.909 79.4107 525.667Q79.579 524.424 79.7782 523.186Q79.9773 521.948 80.2073 520.716Q80.4373 519.483 80.6979 518.257Q80.9586 517.03 81.2498 515.811Q81.5409 514.591 81.8624 513.379Q82.1839 512.167 82.5354 510.963Q82.887 509.76 83.2685 508.565Q83.65 507.371 84.0612 506.186Q84.4724 505.002 84.9129 503.828Q85.3535 502.654 85.8232 501.491Q86.2929 500.329 86.7915 499.178Q87.29 498.028 87.8171 496.89C100.491 468.872 123.406 451.468 151.557 440.761C150.459 437.287 149.689 433.58 149.019 429.995C142.327 394.158 147.106 351.636 161.216 318.028C163.994 311.41 166.831 304.841 170.905 298.897C171.682 292.595 171.207 285.651 171.173 279.268L170.954 242.766Q171.114 179.138 170.493 115.513C170.454 106.325 171.155 95.9251 178.197 89.1333C188.468 79.2277 213.825 82.2937 227.293 82.4983Z"/>
	<path transform="scale(13.6803 13.6803)" d="M329.018 786.333C330.67 786.35 332.211 786.276 333.426 787.612C336.977 791.517 335.268 801.338 334.979 806.4C341.765 806.156 351.91 804.624 357.248 809.58C357.268 810.426 357.492 810.72 356.857 811.375C352.503 815.858 340.673 814.498 334.852 814.441C334.416 821.159 335.425 827.61 333.678 834.238C332.829 834.991 331.514 835.501 330.367 835.475C329.634 835.458 329.123 834.893 328.661 834.374C325.178 830.462 326.376 819.466 326.515 814.446C321.344 814.419 314.587 815.594 309.669 813.985C308.208 813.508 307.277 812.832 306.615 811.409C306.623 810.077 306.5 809.227 307.469 808.155C310.691 804.595 322.176 806.26 326.694 806.48C326.802 799.794 325.391 792.288 329.018 786.333Z"/>
	<path transform="scale(13.6803 13.6803)" d="M151.557 440.761C178.167 433.089 205.921 434.915 230.387 448.395C253.881 461.339 270.443 482.704 277.792 508.435C285.25 534.551 282.224 564.409 268.842 588.119Q268.242 589.2 267.615 590.265Q266.988 591.331 266.336 592.381Q265.683 593.43 265.004 594.464Q264.325 595.497 263.621 596.513Q262.917 597.529 262.188 598.527Q261.458 599.525 260.705 600.505Q259.951 601.485 259.174 602.446Q258.396 603.407 257.595 604.348Q256.793 605.29 255.969 606.211Q255.145 607.132 254.298 608.033Q253.451 608.933 252.582 609.812Q251.713 610.692 250.822 611.549Q249.932 612.407 249.02 613.242Q248.109 614.077 247.177 614.889Q246.245 615.701 245.293 616.49Q244.341 617.279 243.37 618.044Q242.399 618.809 241.41 619.55Q240.42 620.291 239.412 621.007Q238.404 621.723 237.379 622.414Q236.354 623.104 235.312 623.77Q234.27 624.435 233.212 625.074Q232.154 625.713 231.08 626.326Q230.006 626.938 228.918 627.524Q227.829 628.11 226.727 628.669Q225.624 629.228 224.508 629.759Q223.391 630.29 222.262 630.794Q221.133 631.297 219.992 631.773Q218.851 632.248 217.698 632.695Q216.546 633.142 215.382 633.56Q214.219 633.978 213.046 634.367Q211.872 634.756 210.69 635.116Q209.507 635.476 208.316 635.807C190.78 640.688 170.572 641.487 153.015 636.237Q145.503 634.028 138.317 630.92Q137.191 630.409 136.077 629.87Q134.964 629.332 133.864 628.768Q132.763 628.203 131.677 627.612Q130.591 627.021 129.519 626.404Q128.447 625.787 127.39 625.144Q126.333 624.502 125.292 623.834Q124.251 623.167 123.226 622.474Q122.202 621.782 121.194 621.065Q120.186 620.348 119.196 619.607Q118.206 618.866 117.233 618.102Q116.261 617.337 115.307 616.55Q114.354 615.762 113.419 614.952Q112.485 614.142 111.57 613.31Q110.656 612.477 109.761 611.623Q108.867 610.769 107.993 609.894Q107.119 609.018 106.267 608.122Q105.414 607.226 104.584 606.31Q103.753 605.394 102.945 604.458Q102.136 603.522 101.351 602.567Q100.565 601.612 99.8022 600.638Q99.0397 599.664 98.3007 598.673Q97.5617 597.681 96.8467 596.672Q96.1318 595.663 95.4412 594.637Q94.7507 593.611 94.085 592.568Q93.4193 591.526 92.7788 590.468Q92.1383 589.41 91.5234 588.337Q90.9085 587.264 90.3195 586.176Q89.7305 585.089 89.1678 583.988Q88.6051 582.886 88.069 581.772Q87.5329 580.657 87.0238 579.53Q86.5146 578.403 86.0326 577.264Q85.5506 576.125 85.0961 574.975Q84.6495 573.803 84.2322 572.621Q83.815 571.438 83.4273 570.246Q83.0397 569.053 82.6819 567.852Q82.3241 566.65 81.9964 565.44Q81.6687 564.229 81.3713 563.011Q81.0738 561.793 80.8069 560.568Q80.5399 559.343 80.3036 558.112Q80.0673 556.88 79.8617 555.643Q79.6562 554.406 79.4815 553.165Q79.3069 551.923 79.1633 550.677Q79.0196 549.432 78.9071 548.183Q78.7946 546.934 78.7133 545.683Q78.6319 544.431 78.5818 543.179Q78.5317 541.926 78.5128 540.672Q78.4939 539.418 78.5064 538.164Q78.5188 536.911 78.5624 535.657Q78.6061 534.404 78.681 533.153Q78.7559 531.901 78.862 530.652Q78.9681 529.402 79.1053 528.156Q79.2425 526.909 79.4107 525.667Q79.579 524.424 79.7782 523.186Q79.9773 521.948 80.2073 520.716Q80.4373 519.483 80.6979 518.257Q80.9586 517.03 81.2498 515.811Q81.5409 514.591 81.8624 513.379Q82.1839 512.167 82.5354 510.963Q82.887 509.76 83.2685 508.565Q83.65 507.371 84.0612 506.186Q84.4724 505.002 84.9129 503.828Q85.3535 502.654 85.8232 501.491Q86.2929 500.329 86.7915 499.178Q87.29 498.028 87.8171 496.89C100.491 468.872 123.406 451.468 151.557 440.761Z"/>
	<path fill="#EB6F56" transform="scale(13.6803 13.6803)" d="M186.438 444.401C210.628 444.408 232.207 457.434 249.546 473.207C245.149 478.809 239.775 483.707 234.689 488.673C229.894 493.465 225.221 498.295 221.01 503.617C210.641 493.414 200.602 488.167 186.492 484.827C186.233 471.369 186.45 457.865 186.438 444.401Z"/>
	<path fill="#5EC9DA" transform="scale(13.6803 13.6803)" d="M173.905 444.677C175.243 444.486 176.07 444.356 177.398 444.742C179.819 447.787 178.529 479.01 178.502 485.317C163.003 486.01 151.916 492.391 140.916 502.97C136.63 499.219 132.611 495.174 128.542 491.191C123.419 485.863 118.349 480.722 112.392 476.298C127.707 457.353 150.505 448.441 173.905 444.677Z"/>
	<path fill="#5EC9DA" transform="scale(13.6803 13.6803)" d="M254.497 480.892C256.309 482.009 257.737 483.97 258.869 485.734C273.518 508.579 276.141 536.225 270.66 562.329C264.509 559.785 258.2 557.64 251.929 555.418L232.431 549.339C233.369 534.195 233.008 523.114 225.455 509.725C235.033 500.011 244.97 490.67 254.497 480.892Z"/>
	<path fill="#FBB32D" transform="scale(13.6803 13.6803)" d="M136.88 567.909C140.135 570.553 142.493 574.187 145.543 577.079C154.824 585.878 166.233 588.49 178.433 590.497L178.489 631.567C168.798 631.534 159.046 629.417 149.817 626.608Q148.038 626.018 146.286 625.355Q144.534 624.691 142.811 623.955Q141.088 623.218 139.398 622.41Q137.707 621.602 136.052 620.723Q134.397 619.845 132.78 618.898Q131.164 617.951 129.588 616.936Q128.012 615.922 126.481 614.843Q124.949 613.763 123.464 612.621Q121.979 611.478 120.543 610.274Q119.108 609.07 117.724 607.807Q116.34 606.544 115.01 605.224Q113.68 603.904 112.407 602.529Q111.134 601.154 109.92 599.727Q108.705 598.3 107.552 596.823Q106.398 595.347 105.308 593.823Q104.218 592.299 103.192 590.731C113.821 582.35 125.53 575.265 136.88 567.909Z"/>
	<path fill="#75C35B" transform="scale(13.6803 13.6803)" d="M106.444 481.777C114.386 486.206 127.681 502.512 136.075 509.696C127.076 528.031 127.98 540.659 133.082 559.941L112.719 574.026C107.911 577.138 103.249 580.533 98.5482 583.807C93.9408 574.778 90.4203 565.81 88.4929 555.817C83.2375 528.57 91.1784 504.315 106.444 481.777Z"/>
	<path fill="#EB6F56" transform="scale(13.6803 13.6803)" d="M228.92 556.507C242.098 560.484 254.998 565.264 268.164 569.274Q267.939 569.954 267.699 570.629C259.148 594.627 241.373 612.608 218.561 623.485C208.209 628.019 197.636 630.168 186.508 631.672L186.499 590.259C191.26 589.376 195.92 588.2 200.394 586.314C213.811 580.658 223.54 569.895 228.92 556.507Z"/>
	<path fill="#FEFEFE" transform="scale(13.6803 13.6803)" d="M176.684 493.159C186.483 491.78 197.502 495.269 205.516 500.826C215.072 507.451 222.041 517.95 224.092 529.429Q224.286 530.509 224.427 531.597Q224.568 532.685 224.655 533.779Q224.742 534.873 224.775 535.969Q224.808 537.066 224.787 538.163Q224.766 539.26 224.691 540.355Q224.616 541.449 224.487 542.539Q224.358 543.629 224.176 544.711Q223.994 545.793 223.759 546.864Q223.523 547.936 223.236 548.995Q222.948 550.054 222.608 551.097Q222.269 552.14 221.878 553.166Q221.488 554.191 221.047 555.196Q220.607 556.201 220.117 557.183Q219.628 558.165 219.091 559.122Q218.554 560.078 217.97 561.008Q217.387 561.937 216.758 562.836C208.905 574.086 198.396 579.551 185.119 581.855Q184.155 581.99 183.186 582.081Q182.217 582.171 181.244 582.215Q180.272 582.26 179.298 582.259Q178.325 582.258 177.353 582.211Q176.38 582.165 175.411 582.073Q174.442 581.98 173.479 581.843Q172.515 581.705 171.559 581.523Q170.603 581.341 169.656 581.113Q168.709 580.886 167.775 580.615Q166.84 580.344 165.919 580.029Q164.997 579.714 164.092 579.357Q163.187 578.999 162.299 578.599Q161.412 578.2 160.544 577.759Q159.676 577.318 158.829 576.837Q157.983 576.356 157.16 575.836Q156.338 575.316 155.54 574.758C145.733 567.826 139.43 556.836 137.573 545.048C135.705 533.194 138.143 520.913 145.315 511.185C153.075 500.66 163.915 495.05 176.684 493.159Z"/>
	<path transform="scale(13.6803 13.6803)" d="M459.338 182.019C459.137 174.396 457.182 155.199 461.319 149.421C463.434 148.151 467.093 148.242 469.53 148.182C486.301 147.768 503.176 148.191 519.961 148.186L618.999 148.243C627.305 148.27 661.92 147.304 666.731 148.762C667.915 149.12 668.433 149.436 668.921 150.605C670.587 154.592 669.56 229.135 669.566 240.91L669.584 271.457C679.06 275.528 687.471 280.885 693.974 289.008Q694.725 289.936 695.429 290.9Q696.134 291.864 696.789 292.862Q697.445 293.859 698.05 294.888Q698.655 295.917 699.209 296.975Q699.762 298.033 700.263 299.116Q700.763 300.2 701.209 301.308Q701.656 302.415 702.046 303.543Q702.437 304.671 702.771 305.817Q703.105 306.963 703.383 308.124Q703.66 309.286 703.879 310.459Q704.098 311.633 704.259 312.816Q704.42 313.999 704.521 315.188Q704.623 316.377 704.666 317.57Q704.709 318.763 704.693 319.957Q704.676 321.151 704.601 322.342Q704.525 323.534 704.391 324.72C701.649 346.964 674.367 397.316 655.945 411.083C654.252 412.348 651.948 413.212 649.826 412.767C640.226 410.756 622.223 382.685 616.146 373.908L515.782 373.603C500.413 373.604 484.835 374.422 469.499 373.821C467.031 373.724 462.396 373.731 460.41 372.323C458.078 362.85 458.939 350.336 458.884 340.476Q458.779 309.742 459.263 279.013C459.652 246.7 459.461 214.336 459.338 182.019Z"/>
	<path fill="#FEFEFE" transform="scale(13.6803 13.6803)" d="M470.839 156.771C533.141 155.72 595.621 156.516 657.937 156.622C644.412 168.3 627.81 178.797 613.415 189.638C597.969 200.115 581.379 212.866 565.371 222.05C554.873 216.354 545.211 209.277 535.376 202.532C530.953 199.499 525.741 195.278 520.803 193.228Q495.407 175.566 470.839 156.771Z"/>
	<path fill="#EB6F56" transform="scale(13.6803 13.6803)" d="M644.755 276.162C645.445 276.059 646.053 276.013 646.747 275.989C660.486 275.508 672.423 279.523 682.506 289.051C690.441 296.549 696.326 307.092 696.575 318.196C696.946 334.724 680.13 366.771 670.65 380.851C665.811 388.038 660.391 394.568 654.413 400.816L651.081 404.013C634.786 388.292 622.891 369.365 613.164 349.053C609.538 341.481 605.813 333.401 604.486 325.063Q604.335 324.053 604.234 323.037Q604.132 322.021 604.081 321.001Q604.029 319.981 604.028 318.96Q604.027 317.939 604.076 316.919Q604.124 315.899 604.223 314.883Q604.322 313.866 604.47 312.856Q604.619 311.846 604.817 310.844Q605.015 309.842 605.262 308.852Q605.509 307.861 605.804 306.883Q606.099 305.906 606.442 304.944Q606.784 303.982 607.174 303.038Q607.563 302.094 607.999 301.171Q608.434 300.247 608.915 299.346Q609.395 298.445 609.919 297.568Q610.442 296.691 611.009 295.842Q611.575 294.992 612.182 294.171C620.011 283.697 632.026 277.971 644.755 276.162Z"/>
	<path transform="scale(13.6803 13.6803)" d="M647.027 291.603Q648.154 291.545 649.281 291.572Q650.409 291.598 651.531 291.709Q652.654 291.819 653.765 292.013Q654.876 292.207 655.97 292.483Q657.064 292.76 658.134 293.117Q659.204 293.474 660.244 293.91Q661.284 294.346 662.289 294.859Q663.294 295.371 664.258 295.957C671.003 300.018 676.059 306.476 677.873 314.204Q678.029 314.861 678.153 315.525Q678.276 316.188 678.366 316.857Q678.456 317.527 678.512 318.199Q678.568 318.872 678.591 319.547Q678.613 320.222 678.602 320.897Q678.591 321.572 678.546 322.245Q678.501 322.919 678.422 323.589Q678.344 324.26 678.232 324.926Q678.12 325.591 677.974 326.251Q677.829 326.91 677.651 327.561Q677.473 328.212 677.263 328.854Q677.052 329.495 676.81 330.126Q676.568 330.756 676.294 331.373Q676.021 331.99 675.717 332.593Q675.413 333.196 675.079 333.783Q674.746 334.37 674.383 334.939C669.239 343.012 661.825 346.294 652.938 348.396C646.447 348.694 640.191 347.803 634.484 344.499Q633.921 344.171 633.375 343.815Q632.83 343.459 632.302 343.077Q631.774 342.695 631.266 342.288Q630.758 341.881 630.27 341.449Q629.782 341.017 629.316 340.561Q628.85 340.106 628.407 339.629Q627.964 339.151 627.545 338.652Q627.126 338.153 626.732 337.634Q626.338 337.116 625.97 336.578Q625.602 336.041 625.261 335.486Q624.919 334.931 624.606 334.36Q624.292 333.789 624.007 333.203Q623.722 332.617 623.466 332.018Q623.209 331.419 622.983 330.808Q622.757 330.198 622.56 329.576Q622.364 328.955 622.199 328.325C620.203 320.711 621.653 312.154 625.748 305.468C630.704 297.378 638.171 293.787 647.027 291.603Z"/>
	<path fill="#FEFEFE" transform="scale(13.6803 13.6803)" d="M646.388 300.559C650.346 300.353 653.892 300.31 657.667 301.803C662.706 303.798 666.542 307.974 668.569 312.949C670.61 317.958 670.733 323.509 668.529 328.486C665.681 334.92 660.394 337.86 654.143 340.211C649.717 340.71 645.341 340.323 641.241 338.487Q640.786 338.284 640.341 338.059Q639.896 337.834 639.462 337.587Q639.029 337.341 638.609 337.072Q638.189 336.804 637.782 336.515Q637.376 336.227 636.984 335.918Q636.592 335.609 636.217 335.282Q635.841 334.954 635.482 334.608Q635.123 334.262 634.781 333.899Q634.44 333.535 634.117 333.155Q633.795 332.775 633.491 332.38Q633.188 331.984 632.904 331.574Q632.621 331.164 632.358 330.74Q632.095 330.316 631.854 329.88Q631.613 329.443 631.393 328.996Q631.174 328.548 630.977 328.09Q630.781 327.631 630.607 327.164Q630.436 326.699 630.289 326.226Q630.142 325.753 630.019 325.273Q629.897 324.792 629.799 324.307Q629.701 323.821 629.629 323.331Q629.556 322.841 629.509 322.348Q629.461 321.854 629.439 321.359Q629.417 320.864 629.421 320.369Q629.424 319.873 629.453 319.379Q629.482 318.884 629.536 318.392Q629.591 317.899 629.67 317.41Q629.75 316.921 629.854 316.437Q629.959 315.952 630.088 315.474Q630.217 314.996 630.371 314.525Q630.524 314.054 630.702 313.591Q630.88 313.129 631.081 312.676Q631.282 312.223 631.506 311.781C634.641 305.599 640.138 302.707 646.388 300.559Z"/>
	<path fill="#FBB32D" transform="scale(13.6803 13.6803)" d="M661.495 164.762L661.433 268.395C646.484 265.609 631.588 268.282 618.9 276.88C607.647 284.506 598.957 296.55 596.421 310.009C592.64 330.066 603.402 347.98 611.295 365.569Q539.411 366.162 467.529 365.484L467.496 165.637C484.079 176.625 499.079 190.048 516.175 200.239L520.803 193.228C525.741 195.278 530.953 199.499 535.376 202.532C545.211 209.277 554.873 216.354 565.371 222.05C581.379 212.866 597.969 200.115 613.415 189.638Q616.367 192.419 619.411 195.098C633.393 185.034 647.946 175.37 661.495 164.762Z"/>
	<path transform="scale(13.6803 13.6803)" d="M227.293 82.4983C228.089 78.4895 228.737 74.0725 231.265 70.7231C233.859 67.2856 237.759 66.4334 241.807 65.8093C254.468 63.8571 268.196 65.1886 281.001 65.1945C291.026 65.1992 301.227 64.3948 311.214 65.3579C314.374 65.6627 318.629 66.0241 321.176 68.0499C325.601 71.5695 326.187 77.3328 326.63 82.5663C340.334 82.3987 361.651 79.4098 372.453 89.5829C375.873 92.8039 378.323 97.3223 379.323 101.913C381.511 111.954 380.182 123.036 380.074 133.25C379.903 149.49 379.734 165.788 380.059 182.025C380.738 214.765 379.954 247.63 380.021 280.387Q380.003 293.758 380.18 307.127C380.345 317.134 381.078 327.685 379.367 337.579C378.603 341.995 376.219 346.106 373.108 349.297C366.341 356.239 357.945 356.498 348.872 356.429C324.845 356.247 300.657 355.138 276.637 356.134C276.371 367.411 274.278 384.046 283.042 392.953C286.24 396.203 291.106 397.979 295.513 398.8C304.75 400.521 315.127 399.454 324.513 399.351C342.489 399.154 360.482 399.391 378.46 399.391C388.928 399.391 399.609 398.522 410.021 399.699C414.651 400.222 419.066 401.235 423.148 403.581C434.991 410.387 438.069 422.487 438.399 435.224C438.69 446.454 438.413 457.757 438.349 468.994L473.502 468.933C481.515 475.251 488.361 484.195 495.535 491.539L521.61 518.128C527.158 523.769 533.615 529.255 537.98 535.874C536.868 557.094 536.952 578.278 536.915 599.52Q536.763 640.028 537.359 680.532C544.884 680.857 563.158 682.696 568.908 677.666C572.815 674.248 572.778 667.188 572.876 662.394C573.027 655 572.502 647.581 572.487 640.182L572.498 576.043C566.638 573.075 561.626 569.79 559.387 563.235Q559.231 562.775 559.098 562.308Q558.966 561.84 558.858 561.367Q558.75 560.893 558.666 560.415Q558.583 559.936 558.524 559.454Q558.465 558.972 558.432 558.487Q558.398 558.003 558.389 557.517Q558.38 557.031 558.396 556.546Q558.412 556.061 558.453 555.577Q558.495 555.093 558.561 554.611Q558.627 554.13 558.717 553.653Q558.808 553.176 558.923 552.704Q559.039 552.232 559.178 551.767Q559.317 551.302 559.48 550.844Q559.644 550.386 559.83 549.938Q560.017 549.49 560.226 549.051Q560.435 548.613 560.667 548.186Q560.894 547.761 561.143 547.348Q561.391 546.936 561.661 546.536Q561.93 546.137 562.22 545.752Q562.51 545.367 562.819 544.998Q563.128 544.628 563.456 544.275Q563.784 543.922 564.13 543.587Q564.476 543.251 564.838 542.934Q565.201 542.616 565.579 542.318Q565.958 542.02 566.351 541.742Q566.744 541.463 567.151 541.206Q567.558 540.948 567.978 540.712Q568.398 540.475 568.83 540.261Q569.261 540.047 569.703 539.855Q570.145 539.663 570.597 539.495Q571.048 539.326 571.507 539.181Q571.967 539.035 572.433 538.914C578.124 537.452 584.063 538.645 589.008 541.726C590.209 542.475 591.338 543.331 592.456 544.197C614.117 530.082 635.799 515.849 658 502.593C656.584 497.09 655.781 492.462 655.908 486.779Q616.057 463.907 577.096 439.549C571.511 442.111 565.966 444.198 559.893 441.833C554.309 439.657 549.815 436.187 547.437 430.56C545.224 425.322 545.123 419.035 547.475 413.826C549.711 408.877 553.97 405.386 559.056 403.623C564.273 401.814 569.801 402.066 574.776 404.491C579.579 406.831 583.391 410.97 585.029 416.084C586.961 422.119 585.709 428.285 583.004 433.848C608.717 449.063 634.945 463.77 660.222 479.678C664.609 474.989 669.342 471.354 676.083 471.261Q676.573 471.258 677.063 471.279Q677.553 471.3 678.042 471.345Q678.53 471.39 679.016 471.46Q679.501 471.529 679.982 471.623Q680.464 471.716 680.94 471.833Q681.416 471.95 681.886 472.09Q682.356 472.231 682.818 472.394Q683.281 472.558 683.735 472.744Q684.188 472.93 684.632 473.139Q685.076 473.347 685.509 473.577Q685.942 473.807 686.363 474.059Q686.785 474.31 687.193 474.582Q687.601 474.854 687.995 475.145Q688.389 475.437 688.769 475.748Q689.148 476.059 689.512 476.388Q689.875 476.717 690.222 477.064Q690.598 477.436 690.954 477.826Q691.31 478.217 691.646 478.625Q691.981 479.034 692.296 479.459Q692.61 479.884 692.902 480.325Q693.194 480.765 693.463 481.22Q693.732 481.676 693.977 482.144Q694.222 482.612 694.443 483.092Q694.664 483.573 694.86 484.064Q695.056 484.555 695.227 485.055Q695.397 485.555 695.542 486.064Q695.687 486.572 695.805 487.087Q695.923 487.603 696.015 488.123Q696.107 488.644 696.171 489.168Q696.236 489.693 696.274 490.22Q696.312 490.748 696.323 491.276Q696.333 491.805 696.317 492.333C696.131 497.674 693.839 503.137 689.885 506.776C685.458 510.851 679.491 511.871 673.67 511.478C670.359 511.254 667.049 510.525 663.853 509.654C651.01 514.765 639.781 523.512 628.195 530.922C617.775 537.586 607.114 543.819 597.002 550.958C597.515 557.355 597.058 563.553 592.724 568.687C589.859 572.082 585.605 574.503 581.445 575.976Q580.908 604.515 581.095 633.059C581.188 645.416 582.941 662.032 580.351 673.889C579.581 677.418 577.511 681.112 574.851 683.565C565.926 691.797 548.259 689.093 537.036 688.997C537.339 699.864 537.963 710.741 536.128 721.517C524.672 722.712 513.156 722.111 501.664 722.032L454.193 721.989C406.723 722.017 359.201 722.969 311.74 722.545C309.273 722.523 305.473 722.809 303.282 721.839C300.642 714.318 302.09 675.642 302.132 664.901L302.147 614.637L302.076 538.594C301.992 521.71 301.534 504.773 301.978 487.893C302.067 484.479 301.966 480.055 303.376 476.915C304.615 474.157 307.682 471.278 310.588 470.387C322.967 466.594 345.434 469.063 358.921 469.093L429.945 469.108C430.162 456.07 432.149 434.155 428.446 422.173C427.491 419.086 425.748 416.337 423.465 414.058C420.618 411.214 417.136 409.326 413.241 408.371C405.159 406.391 395.679 407.519 387.366 407.501L330.084 407.343C319.065 407.384 307.805 408.237 296.823 407.308C293.192 407.001 289.785 406.395 286.436 404.889C273.459 399.049 268.752 387.239 268.466 373.783C268.343 367.971 268.454 362.143 268.499 356.331Q244.866 356.046 221.232 356.025C210.297 356.042 198.303 357.459 187.606 354.992C183.708 354.093 180.201 351.912 177.425 349.061C166.956 338.31 171.443 312.972 170.905 298.897C171.682 292.595 171.207 285.651 171.173 279.268L170.954 242.766Q171.114 179.138 170.493 115.513C170.454 106.325 171.155 95.9251 178.197 89.1333C188.468 79.2277 213.825 82.2937 227.293 82.4983Z"/>
	<path fill="#FBB32D" transform="scale(13.6803 13.6803)" d="M573.463 546.583C575.374 546.368 577.363 546.173 579.277 546.473C582.23 546.934 585.253 548.817 586.973 551.255C588.492 553.407 589.135 556.106 588.588 558.697C587.698 562.917 584.749 565.195 581.308 567.358C579.585 567.645 577.831 567.993 576.086 567.697Q575.47 567.589 574.869 567.416Q574.268 567.244 573.689 567.01Q573.109 566.776 572.557 566.482Q572.005 566.188 571.487 565.838Q570.969 565.488 570.49 565.086Q570.011 564.684 569.578 564.234Q569.144 563.784 568.759 563.291Q568.375 562.798 568.044 562.267C566.502 559.768 565.977 556.594 566.791 553.756C567.836 550.108 570.268 548.298 573.463 546.583Z"/>
	<path fill="#EB6F56" transform="scale(13.6803 13.6803)" d="M563.658 410.528C565.398 410.411 567.243 410.341 568.938 410.809C571.892 411.624 574.5 413.565 575.984 416.263C577.63 419.254 577.892 422.962 576.779 426.177C575.221 430.681 572.082 432.797 567.963 434.718C566.172 434.807 564.259 434.731 562.535 434.207Q561.939 434.032 561.364 433.794Q560.789 433.557 560.243 433.261Q559.697 432.965 559.184 432.612Q558.672 432.26 558.2 431.856Q557.728 431.452 557.3 431.001Q556.873 430.549 556.496 430.055Q556.119 429.561 555.796 429.03Q555.473 428.499 555.207 427.937Q554.936 427.352 554.727 426.741Q554.518 426.131 554.372 425.503Q554.227 424.874 554.148 424.234Q554.068 423.594 554.054 422.949Q554.041 422.304 554.094 421.662Q554.147 421.019 554.266 420.385Q554.385 419.751 554.569 419.132Q554.753 418.514 554.999 417.918C556.73 413.801 559.774 412.154 563.658 410.528Z"/>
	<path fill="#EB6F56" transform="scale(13.6803 13.6803)" d="M675.742 479.104C677.841 479.322 679.806 479.615 681.706 480.593C684.67 482.119 686.953 484.643 687.946 487.848Q688.127 488.432 688.248 489.032Q688.369 489.631 688.428 490.24Q688.487 490.849 688.484 491.461Q688.48 492.072 688.415 492.68Q688.349 493.289 688.222 493.887Q688.095 494.485 687.908 495.067Q687.72 495.65 687.474 496.21Q687.229 496.77 686.927 497.302C684.674 501.24 681.474 502.618 677.339 503.806C675.178 503.727 673.03 503.733 671.026 502.818C667.965 501.42 665.602 499.117 664.53 495.884C663.468 492.679 663.859 489.225 665.482 486.277C667.748 482.162 671.419 480.381 675.742 479.104Z"/>
	<path fill="#FBB32D" transform="scale(13.6803 13.6803)" d="M276.143 72.7457C282.36 72.7111 312.994 71.7299 316.502 75.1482C320.298 78.8471 318.709 90.0449 318.445 95.0251C305.262 96.1478 291.504 95.4311 278.25 95.4146L235.969 95.4123L235.881 94.2963C235.448 88.7173 234.229 80.4145 238.356 75.9357C239.7 74.4765 241.491 73.7071 243.412 73.3283C249.049 72.2162 268.645 72.8774 276.143 72.7457Z"/>
	<path fill="#FBB32D" transform="scale(13.6803 13.6803)" d="M333.667 90.25Q334.817 90.1865 335.967 90.1424C344.848 89.8024 359.535 88.3233 366.313 94.927C368.582 97.1377 370.635 99.9962 371.277 103.153C373.663 114.896 371.991 128.266 371.973 140.237L371.979 215.502L204.75 215.494L179.033 215.482L178.872 112.661C178.873 106.511 178.579 99.8608 183.382 95.2766C191.318 87.7025 216.514 90.6334 227.508 90.9969L227.525 103.502L279.961 103.589C295.484 103.654 310.924 103.94 326.445 103.439L326.507 90.4694L333.667 90.25Z"/>
	<path fill="#FEFEFE" transform="scale(13.6803 13.6803)" d="M294.32 133.509C298.255 133.808 302.254 133.804 306.201 133.932C315.442 151.372 322.682 175.14 329.552 193.995C325.046 194.379 320.558 194.419 316.04 194.463Q314.363 189.727 312.559 185.037C311.509 182.37 310.294 179.196 307.556 178.014L290.851 178C288.354 183.399 286.258 188.97 284.094 194.508C279.856 194.497 275.616 194.574 271.379 194.613C273.486 185.924 277.224 177.766 280.405 169.439C284.992 157.434 289.343 145.362 294.32 133.509Z"/>
	<path fill="#FBB32D" transform="scale(13.6803 13.6803)" d="M300.263 148.399C303.519 151.668 305.773 164.541 306.99 169.506L299.875 169.459L293.525 169.499C295.274 162.329 297.673 155.305 300.263 148.399Z"/>
	<path fill="#FEFEFE" transform="scale(13.6803 13.6803)" d="M223.216 133.21C229.532 132.808 236.025 132.682 242.26 133.914C249.742 135.392 256.306 139.144 260.496 145.695C265.394 153.353 266.224 163.264 264.231 171.993C262.363 180.172 257.654 186.26 250.597 190.627C238.069 196.054 225.395 195.085 212.099 194.374Q211.686 164.242 212.144 134.111L223.216 133.21Z"/>
	<path fill="#FBB32D" transform="scale(13.6803 13.6803)" d="M225.834 142.717C232.572 142.344 239.457 142.599 245.026 147.005C249.333 150.412 251.268 155.286 251.852 160.627C252.668 168.099 250.379 175.058 245.677 180.829C240.132 185.464 232.294 185.257 225.444 185.564C225.199 176.512 223.238 150.025 225.834 142.717Z"/>
	<path fill="#FBB32D" transform="scale(13.6803 13.6803)" d="M196.512 223.742Q284.297 223.21 372.083 223.589L372.011 294.831C372.026 307.232 373.092 320.043 371.707 332.37C371.275 336.223 370.55 339.978 368.017 343.062C365.007 346.726 361.081 347.563 356.625 347.978L245.017 347.871L212.777 347.95C206.168 347.978 199.306 348.382 192.752 347.49C188.93 346.969 185.294 345.62 182.567 342.788C180.183 340.312 179.728 337.544 179.353 334.259C178.004 322.436 179.139 309.888 179.147 297.977L179.027 223.895L196.512 223.742Z"/>
	<path fill="#FEFEFE" transform="scale(13.6803 13.6803)" d="M331.702 311.306C334.18 311.671 336.08 312.403 337.618 314.487C339.124 316.525 339.401 319.064 338.914 321.5C338.289 324.627 336.666 326.209 334.129 327.973C332.299 328.058 330.789 327.689 329.406 326.467C327.91 325.146 327.269 323.203 327.255 321.246C327.223 316.958 328.719 314.232 331.702 311.306Z"/>
	<path fill="#FEFEFE" transform="scale(13.6803 13.6803)" d="M209.976 243.868C212.106 243.935 214.056 244.36 215.633 245.887C217.127 247.334 217.806 249.249 217.855 251.302C217.946 255.122 216.389 257.921 213.874 260.651C211.921 260.666 210.314 260.444 208.779 259.182C207.036 257.75 206.229 255.642 206.141 253.426C205.982 249.471 207.419 246.749 209.976 243.868Z"/>
	<path fill="#FEFEFE" transform="scale(13.6803 13.6803)" d="M331.62 276.821C331.893 276.821 332.165 276.814 332.438 276.82C334.332 276.855 335.991 277.678 337.206 279.134C338.574 280.774 338.958 282.937 338.808 285.016C338.528 288.874 337.106 291.104 334.246 293.561C332.166 293.596 330.312 293.191 328.84 291.644C327.423 290.153 326.913 288.164 326.997 286.148C327.167 282.1 328.805 279.571 331.62 276.821Z"/>
	<path fill="#FEFEFE" transform="scale(13.6803 13.6803)" d="M330.273 242.959C332.537 242.812 334.462 242.909 336.312 244.396C337.912 245.682 338.676 247.552 338.848 249.558C339.176 253.384 337.778 256.286 335.457 259.201C335.366 259.23 335.277 259.267 335.184 259.288C333.483 259.658 331.675 259.549 330.183 258.549C328.186 257.21 327.422 254.61 327.196 252.352C326.789 248.281 327.708 246.059 330.273 242.959Z"/>
	<path fill="#FEFEFE" transform="scale(13.6803 13.6803)" d="M211.221 276.994C213.384 277.429 215.061 278.038 216.5 279.805C218.012 281.66 218.499 284.028 218.221 286.371C217.77 290.182 216.026 292.537 213.103 294.87C212.407 294.854 212.581 294.875 211.668 294.731C209.898 294.45 208.46 293.398 207.442 291.946C205.745 289.526 205.684 286.36 206.304 283.569C207.026 280.314 208.531 278.814 211.221 276.994Z"/>
	<path fill="#FEFEFE" transform="scale(13.6803 13.6803)" d="M210.553 311.352C210.93 311.388 211.308 311.422 211.684 311.474C214.032 311.796 215.742 312.714 217.137 314.67C218.509 316.594 218.842 319.009 218.466 321.306C217.935 324.55 216.306 326.383 213.77 328.315C212.22 328.195 210.667 328.099 209.272 327.335C206.74 325.948 206.144 322.952 205.434 320.401C206.318 316.19 207.305 314.264 210.553 311.352Z"/>
	<path transform="scale(13.6803 13.6803)" d="M258.367 264.254Q275.71 264.179 293.053 264.305C293.165 266.654 293.546 269.173 292.733 271.414C291.532 272.615 291.259 272.444 289.625 272.587L254.473 272.497C254.362 270.132 253.945 267.551 254.875 265.328C256.204 264.249 256.7 264.384 258.367 264.254Z"/>
	<path transform="scale(13.6803 13.6803)" d="M254.557 300.012L292.521 300.032L292.516 308.504L254.547 308.511L254.557 300.012Z"/>
	<path fill="#FEFEFE" transform="scale(13.6803 13.6803)" d="M318.599 477.213C368.552 477.66 418.551 477.02 468.51 477.021L468.513 519.159C468.499 524.799 467.725 530.75 468.367 536.334C468.569 538.096 469.003 540.343 470.325 541.649C472.121 543.423 475.444 544.111 477.843 544.406C483.831 545.143 490.463 544.469 496.496 544.358Q512.585 544.04 528.677 544.019L528.696 644C528.752 667.314 529.148 690.545 528.502 713.857L521.25 713.952L310.482 714.544Q309.825 634.502 310.133 554.462L310.207 511.854C310.172 502.522 309.701 492.844 310.435 483.553C310.557 481.999 310.841 480.421 311.964 479.244C313.664 477.463 316.312 477.438 318.599 477.213Z"/>
	<path transform="scale(13.6803 13.6803)" d="M463.704 653.033C466.266 652.883 470.068 652.668 472.165 654.58C473.188 655.513 473.115 655.909 473.139 657.187C472.501 658.514 471.917 659.199 470.879 660.198C468.584 660.416 465.308 660.659 463.272 659.335C462.065 658.55 462.009 658.145 461.642 656.842C461.91 655.185 462.694 654.299 463.704 653.033Z"/>
	<path transform="scale(13.6803 13.6803)" d="M459.817 590.993C462.205 590.919 465.152 590.915 467.31 592.052C468.575 592.719 468.776 593.313 469.183 594.623C468.867 596.331 468.016 597.148 466.891 598.378C464.611 598.586 461.835 598.755 459.732 597.674C458.44 597.01 458.186 596.401 457.716 595.085C457.956 593.268 458.684 592.398 459.817 590.993Z"/>
	<path transform="scale(13.6803 13.6803)" d="M344.994 591.18C345.988 591.236 347.046 591.264 348.019 591.484C349.36 591.787 350.053 592.785 350.736 593.889C350.831 595.212 350.907 595.823 350.036 596.96C349.022 598.284 347.233 598.529 345.711 598.859C344.544 598.817 343.118 598.769 342.012 598.349C340.719 597.857 340.061 596.897 339.482 595.7C339.536 594.31 339.517 593.723 340.536 592.636C341.612 591.488 343.526 591.388 344.994 591.18Z"/>
	<path transform="scale(13.6803 13.6803)" d="M362.744 591.104C365.125 590.946 368.533 590.781 370.774 591.655C372.078 592.164 372.401 592.652 372.937 593.891C372.667 595.52 372.015 596.409 371.071 597.701C368.867 598.263 365.542 598.885 363.404 597.785C362.036 597.082 361.908 596.677 361.328 595.34C361.418 593.613 361.918 592.606 362.744 591.104Z"/>
	<path transform="scale(13.6803 13.6803)" d="M442.358 653.066C444.658 652.914 448.135 652.634 450.194 653.866C451.517 654.658 451.572 655 451.967 656.392C451.65 658.091 450.84 658.967 449.767 660.242C447.541 660.561 444.139 660.904 442.178 659.518C441.156 658.795 440.601 658.098 440.52 656.816C440.432 655.432 441.584 654.113 442.358 653.066Z"/>
	<path transform="scale(13.6803 13.6803)" d="M383.866 591.033C386.155 590.897 389.119 590.639 391.244 591.651C392.348 592.176 393.144 592.936 393.435 594.169C393.777 595.624 392.856 597.331 392.278 598.629C390.128 598.734 387.229 599.033 385.208 598.224C384.081 597.773 383.257 597.085 382.848 595.901C382.295 594.299 383.268 592.484 383.866 591.033Z"/>
	<path transform="scale(13.6803 13.6803)" d="M378.886 653.106C381.197 652.84 384.611 652.538 386.681 653.857C387.933 654.656 387.983 655.08 388.36 656.423C388.102 658.052 387.38 658.926 386.409 660.188C384.176 660.506 380.773 660.949 378.739 659.688C377.433 658.878 377.376 658.481 376.95 657.091C377.188 655.39 377.883 654.472 378.886 653.106Z"/>
	<path transform="scale(13.6803 13.6803)" d="M357.296 653.156Q357.824 653.088 358.353 653.033C361.01 652.766 364.492 652.786 366.461 654.975C367.246 655.847 367.158 656.421 367.037 657.463C366.097 658.759 365.369 659.552 364.01 660.408C361.611 660.41 358.543 660.203 356.479 658.87C355.236 658.067 355.176 657.713 354.795 656.376C355.244 654.767 356.067 654.169 357.296 653.156Z"/>
	<path transform="scale(13.6803 13.6803)" d="M399.298 653.076C401.805 652.839 404.886 652.651 407.231 653.71C408.526 654.295 408.828 654.956 409.395 656.196C409.387 657.855 408.783 658.81 407.986 660.197C405.825 660.531 402.176 661.019 400.198 659.964C399.106 659.381 398.437 658.826 398.126 657.578C397.763 656.119 398.72 654.38 399.298 653.076Z"/>
	<path transform="scale(13.6803 13.6803)" d="M482.51 590.511C484.747 590.51 487.662 590.779 489.257 592.611C490.185 593.677 490.129 594.158 490.172 595.494C489.47 597.038 488.739 597.73 487.42 598.778C484.892 598.78 481.258 598.664 479.475 596.456C478.58 595.348 478.731 594.926 478.892 593.618C479.897 592.062 480.925 591.433 482.51 590.511Z"/>
	<path transform="scale(13.6803 13.6803)" d="M502.494 591.078C504.719 590.887 508.087 590.643 510.034 591.967C511.292 592.822 511.351 593.244 511.735 594.63C511.45 596.321 510.791 597.252 509.79 598.624C507.563 598.925 504.028 599.088 502.078 597.784C500.799 596.928 500.755 596.502 500.369 595.099C500.676 593.363 501.417 592.445 502.494 591.078Z"/>
	<path transform="scale(13.6803 13.6803)" d="M421.166 653.028C423.873 652.825 427.17 652.737 429.569 654.264C430.722 654.997 430.858 655.644 431.096 656.915C430.641 658.384 430.06 659.179 429.079 660.308C426.682 660.521 422.836 660.919 420.725 659.496C419.496 658.667 419.47 658.253 419.186 656.903C419.569 655.279 420.168 654.352 421.166 653.028Z"/>
	<path transform="scale(13.6803 13.6803)" d="M336.983 652.491C339.39 652.532 343.063 652.737 344.793 654.772C345.741 655.887 345.623 656.257 345.471 657.603C344.572 659.046 343.503 659.643 342.093 660.494C339.773 660.584 336.527 660.71 334.678 658.947C333.627 657.945 333.737 657.511 333.691 656.148C334.428 654.418 335.529 653.634 336.983 652.491Z"/>
	<path transform="scale(13.6803 13.6803)" d="M483.774 653.068C486.571 652.877 490.478 652.668 493.015 654.108C494.256 654.813 494.368 655.184 494.824 656.44C494.569 658.084 493.89 658.76 492.805 659.921C490.113 660.445 486.741 660.791 484.198 659.454C482.923 658.784 482.642 658.081 482.162 656.79C482.281 655.197 482.91 654.341 483.774 653.068Z"/>
	<path transform="scale(13.6803 13.6803)" d="M346.227 547.236C355.884 546.919 366.786 546.255 376.32 547.592C378.573 547.908 380.247 548.418 381.694 550.257C381.857 551.521 381.905 551.871 381.082 552.974C378.911 555.888 375.336 555.712 372.116 555.86C364.716 556.137 343.743 557.601 337.889 554.001C336.668 553.25 336.47 552.716 336.154 551.37C336.514 550.263 336.873 549.637 337.665 548.806C339.639 546.732 343.547 547.275 346.227 547.236Z"/>
	<path transform="scale(13.6803 13.6803)" d="M386.631 526.27C391.287 526.004 405.511 524.83 409.048 527.995C409.62 528.506 410.028 528.941 410.092 529.72C410.2 531.041 409.567 532.165 408.653 533.071C407.48 534.234 405.321 534.292 403.739 534.429C398.514 534.879 393.105 534.478 387.853 534.54C377.859 534.658 367.871 535.028 357.875 534.784C353.755 534.714 349.581 534.751 345.472 534.456C341.882 534.198 337.717 533.582 335.247 530.725C335.297 530.042 335.145 529.626 335.684 529.13C337.539 527.426 340.444 526.739 342.871 526.433C347.737 525.819 352.999 526.211 357.904 526.228Q372.267 526.33 386.631 526.27Z"/>
	<path transform="scale(13.6803 13.6803)" d="M424.404 574.614C427.791 574.798 431.292 575.648 434.258 577.307Q435.048 577.75 435.79 578.269Q436.532 578.788 437.219 579.377Q437.907 579.967 438.533 580.621Q439.159 581.275 439.718 581.988Q440.277 582.7 440.763 583.464Q441.249 584.228 441.657 585.036Q442.066 585.845 442.393 586.689Q442.72 587.533 442.962 588.406Q443.097 588.875 443.208 589.35Q443.319 589.825 443.405 590.305Q443.492 590.785 443.554 591.269Q443.616 591.753 443.653 592.24Q443.69 592.726 443.703 593.214Q443.715 593.702 443.703 594.189Q443.69 594.677 443.653 595.164Q443.616 595.65 443.554 596.134Q443.492 596.618 443.406 597.098Q443.319 597.578 443.209 598.053Q443.098 598.529 442.963 598.997Q442.828 599.466 442.67 599.928Q442.511 600.389 442.329 600.842Q442.148 601.295 441.943 601.737Q441.738 602.18 441.511 602.612Q441.285 603.044 441.036 603.464C437.666 609.054 432.64 611.096 426.639 612.65C423.004 612.549 419.427 611.845 416.185 610.146Q415.775 609.936 415.376 609.706Q414.978 609.476 414.591 609.227Q414.204 608.977 413.831 608.708Q413.457 608.439 413.098 608.152Q412.738 607.864 412.394 607.559Q412.049 607.254 411.72 606.932Q411.391 606.61 411.079 606.272Q410.767 605.933 410.472 605.58Q410.177 605.226 409.901 604.858Q409.624 604.49 409.367 604.109Q409.109 603.728 408.871 603.334Q408.633 602.94 408.414 602.534Q408.196 602.129 407.999 601.713Q407.802 601.297 407.626 600.872Q407.449 600.447 407.295 600.013Q407.14 599.58 407.008 599.139Q406.872 598.675 406.759 598.205Q406.647 597.735 406.559 597.26Q406.471 596.785 406.407 596.306Q406.344 595.827 406.305 595.345Q406.267 594.863 406.253 594.38Q406.239 593.897 406.25 593.414Q406.261 592.931 406.297 592.449Q406.333 591.967 406.394 591.488Q406.454 591.008 406.539 590.533Q406.625 590.057 406.734 589.586Q406.844 589.116 406.978 588.651Q407.112 588.187 407.269 587.73Q407.427 587.273 407.607 586.825Q407.788 586.377 407.992 585.939Q408.196 585.5 408.421 585.073Q408.647 584.646 408.895 584.231C412.479 578.312 417.995 576.104 424.404 574.614Z"/>
	<path fill="#FEFEFE" transform="scale(13.6803 13.6803)" d="M421.372 583.515C422.65 583.472 423.993 583.387 425.271 583.491C428.242 583.735 431.288 585.301 433.198 587.595Q433.522 587.977 433.804 588.391Q434.086 588.804 434.323 589.246Q434.559 589.687 434.748 590.151Q434.936 590.615 435.075 591.096Q435.213 591.578 435.299 592.071Q435.386 592.564 435.42 593.064Q435.454 593.564 435.434 594.064Q435.415 594.564 435.343 595.06C434.754 599.152 432.012 601.652 428.839 603.95C427.324 604.339 425.835 604.546 424.264 604.39C421.666 604.132 419.035 602.806 417.423 600.735Q417.081 600.29 416.786 599.812Q416.491 599.334 416.246 598.829Q416.002 598.323 415.811 597.795Q415.62 597.267 415.484 596.722Q415.348 596.178 415.268 595.622Q415.189 595.066 415.167 594.505Q415.146 593.943 415.182 593.383Q415.218 592.823 415.311 592.269C415.975 588.111 418.088 585.903 421.372 583.515Z"/>
	<path transform="scale(13.6803 13.6803)" d="M727.485 562.525L727.547 424.07L727.424 388.272C727.359 380.57 726.692 372.585 727.78 364.944Q727.906 364.012 728.106 363.093Q728.306 362.174 728.58 361.274Q728.853 360.374 729.199 359.499Q729.544 358.624 729.959 357.78Q730.373 356.936 730.855 356.128Q731.336 355.32 731.881 354.553Q732.426 353.786 733.031 353.066Q733.636 352.346 734.297 351.677C737.526 348.38 741.285 347.059 745.711 346.25C755.797 344.407 766.776 345.445 777.011 345.461L830.652 345.531Q856.464 345.976 882.275 345.482C894.322 357.717 905.615 370.722 917.322 383.283C925.141 391.671 936.005 401.715 942.283 410.95C941.549 429.176 942.061 447.348 942.11 465.577L942.008 545.36L942.081 574.466C942.106 581.715 942.473 589.157 941.338 596.341Q941.219 597.12 941.037 597.886Q940.856 598.653 940.615 599.402Q940.373 600.152 940.073 600.88Q939.772 601.608 939.415 602.31Q939.057 603.012 938.645 603.683Q938.233 604.354 937.768 604.99Q937.304 605.626 936.79 606.224Q936.277 606.821 935.717 607.375C932.925 610.087 929.176 611.422 925.416 612.133C919.116 613.323 912.12 612.722 905.734 612.68L874.514 612.481C874.829 634.506 874.666 656.606 875.361 678.616C878.682 680.028 893.598 678.816 898.424 679.268L933.403 713.058C941.645 721.059 950.079 728.861 957.613 737.551L957.799 880.676L957.761 924.264C957.754 931.71 958.131 939.351 957.675 946.774C957.56 948.644 957.274 950.215 956.368 951.863L955.888 952.22C953.544 953.962 874.326 952.994 864.264 952.989L745.241 953.413L713.419 953.47C708.68 953.475 703.163 954.065 698.523 953.291C696.294 952.919 693.324 951.869 692.092 949.845C691.645 949.111 691.858 948.796 691.965 947.999C694.17 945.401 698.013 944.759 701.254 944.487C710.239 943.735 719.811 944.536 728.838 944.634C728.122 921.62 729.321 898.528 728.735 875.504C728.183 865.339 728.545 855.022 728.54 844.835L728.507 788.876L728.406 714.819C728.359 704.944 727.766 695.02 727.938 685.156C727.971 683.238 728.158 681.779 729.17 680.141C732.805 677.902 812.268 678.988 823.181 679.122L823.059 612.528C799.805 611.977 776.561 612.72 753.307 612.702C746.016 612.697 737.841 612.102 732.489 606.478C725.069 598.684 727.318 581.215 727.535 571.182C716.057 571.649 688.592 569.911 679.568 572.434C676.772 573.216 674.454 574.606 672.369 576.63Q671.854 577.124 671.375 577.654Q670.896 578.184 670.456 578.747Q670.016 579.31 669.617 579.902Q669.219 580.495 668.863 581.115Q668.508 581.734 668.198 582.377Q667.887 583.021 667.624 583.685Q667.36 584.349 667.145 585.029Q666.929 585.71 666.763 586.405C664.245 597.371 665.798 609.947 665.855 621.18L666.007 678.2C667.178 678.614 668.368 679.024 669.505 679.525C674.771 681.845 679.017 686.012 681.021 691.455C682.834 696.379 682.593 702.081 680.192 706.766C677.232 712.541 672.322 714.953 666.476 716.927Q666.318 746.365 666.473 775.803C671.421 777.631 676.29 780.143 679.437 784.532C682.46 788.749 683.362 794.197 682.29 799.236Q682.184 799.725 682.054 800.208Q681.924 800.691 681.77 801.166Q681.616 801.642 681.438 802.11Q681.261 802.577 681.06 803.036Q680.86 803.494 680.637 803.941Q680.414 804.389 680.169 804.825Q679.924 805.261 679.657 805.684Q679.391 806.107 679.104 806.517Q678.817 806.926 678.51 807.321Q678.202 807.716 677.876 808.095Q677.55 808.473 677.205 808.836Q676.86 809.198 676.497 809.542Q676.135 809.887 675.756 810.213Q675.377 810.539 674.982 810.846Q674.587 811.153 674.177 811.44Q673.767 811.727 673.344 811.993Q672.929 812.264 672.5 812.513Q672.071 812.762 671.63 812.988Q671.189 813.215 670.737 813.419Q670.285 813.622 669.823 813.803Q669.361 813.983 668.891 814.139Q668.42 814.295 667.942 814.427Q667.464 814.559 666.98 814.666Q666.496 814.773 666.007 814.856Q665.518 814.938 665.026 814.995Q664.533 815.052 664.038 815.083Q663.544 815.115 663.048 815.121Q662.552 815.127 662.057 815.108Q661.561 815.088 661.067 815.043Q660.574 814.999 660.083 814.929Q659.592 814.858 659.106 814.763Q658.619 814.668 658.138 814.548C652.781 813.211 648.538 809.928 645.851 805.119C643.319 800.587 642.561 794.955 644.018 789.943C646.043 782.975 651.661 779.335 657.6 775.976L657.988 717.125C652.752 714.462 647.964 711.271 645.237 705.846Q644.816 705.014 644.479 704.143Q644.141 703.273 643.892 702.374Q643.643 701.475 643.484 700.556Q643.324 699.636 643.257 698.706Q643.189 697.775 643.214 696.842Q643.239 695.909 643.356 694.984Q643.473 694.058 643.681 693.148Q643.889 692.239 644.186 691.354C646.414 684.699 651.5 681.455 657.494 678.596L657.506 620.998C657.436 609.259 655.872 596.169 658.237 584.644C659.236 579.774 661.777 575.286 665.211 571.709C668.179 568.618 671.864 566.145 675.965 564.85C689.046 560.716 712.971 562.925 727.485 562.525Z"/>
	<path fill="#5EC9DA" transform="scale(13.6803 13.6803)" d="M661.338 783.443C663.18 783.634 664.914 783.86 666.63 784.601C669.833 785.983 672.415 788.608 673.541 791.932C674.521 794.823 674.365 798.024 672.919 800.733C671.001 804.33 668.084 805.581 664.408 806.79C662.506 806.82 660.501 806.767 658.681 806.167C656.017 805.289 653.71 803.561 652.456 801.016C651.133 798.33 651.047 795.085 652.034 792.279C653.679 787.608 657.14 785.485 661.338 783.443Z"/>
	<path fill="#EB6F56" transform="scale(13.6803 13.6803)" d="M660.665 686.053C662.724 685.962 664.881 686.096 666.788 686.93Q667.324 687.165 667.835 687.452Q668.346 687.739 668.826 688.073Q669.307 688.408 669.752 688.788Q670.198 689.168 670.605 689.59Q671.011 690.011 671.375 690.47Q671.738 690.929 672.056 691.422Q672.373 691.914 672.641 692.435Q672.909 692.956 673.125 693.5Q673.36 694.084 673.532 694.69Q673.705 695.296 673.814 695.916Q673.922 696.536 673.965 697.164Q674.009 697.792 673.986 698.422Q673.964 699.051 673.876 699.675Q673.788 700.298 673.636 700.909Q673.483 701.52 673.268 702.112Q673.053 702.704 672.777 703.27C671.036 706.774 668.355 708.247 664.808 709.539C662.878 709.48 661.154 709.343 659.346 708.604C656.117 707.284 653.485 704.83 652.234 701.541Q652.029 701.016 651.876 700.474Q651.723 699.932 651.625 699.377Q651.527 698.822 651.484 698.261Q651.441 697.699 651.453 697.136Q651.466 696.572 651.534 696.013Q651.603 695.454 651.726 694.904Q651.849 694.354 652.026 693.82Q652.203 693.285 652.432 692.77C654.152 688.993 657.043 687.53 660.665 686.053Z"/>
	<path fill="#75C35B" transform="scale(13.6803 13.6803)" d="M899.912 692.814C905.864 697.853 942.989 732.806 943.687 736.717L899.861 737.057Q899.569 714.935 899.912 692.814Z"/>
	<path fill="#FBB32D" transform="scale(13.6803 13.6803)" d="M881.453 356.985C886.817 362.145 928.006 405.284 928.641 408.484C918.455 408.65 907.335 409.537 897.281 407.707C892.118 406.767 887.332 404.758 884.37 400.206C879.687 393.008 879.822 365.525 881.453 356.985Z"/>
	<path fill="#FEFEFE" transform="scale(13.6803 13.6803)" d="M831.496 612.512L874.514 612.481C874.829 634.506 874.666 656.606 875.361 678.616C873.262 679.979 837.052 679.076 831.522 679.065L831.496 612.512Z"/>
	<path fill="#75C35B" transform="scale(13.6803 13.6803)" d="M736.893 688.004L767.986 687.909L767.98 851.661C767.983 882.583 768.474 913.539 767.767 944.454C757.785 945.327 747.303 944.679 737.271 944.644L736.893 688.004Z"/>
	<path fill="#FBB32D" transform="scale(13.6803 13.6803)" d="M778.543 687.724Q835.087 688.609 891.627 687.518C891.476 703.533 889.254 729.613 892.635 744.282C909.668 747.049 931.255 745.483 948.861 745.316L948.905 880.708L948.924 922.918C948.927 929.332 949.489 936.192 948.961 942.537C948.863 943.72 948.859 943.825 947.998 944.562C942.056 945.12 935.739 944.637 929.761 944.613L894.416 944.572L776.512 944.551L776.541 770.535L776.557 714.753C776.553 707.627 776.158 700.458 776.322 693.343C776.362 691.59 776.215 689.328 777.305 687.889L778.543 687.724Z"/>
	<path transform="scale(13.6803 13.6803)" d="M826.415 774.722C845.286 774.992 864.09 775.323 882.968 775.098C891.35 774.998 902.299 773.805 910.258 774.321C912.171 774.444 914.528 774.892 916.059 776.144C917.13 777.019 917.413 777.642 917.645 778.974C917.402 780.066 917.151 780.804 916.249 781.535C912.964 784.199 908.389 783.338 904.503 783.126C893.709 782.593 818.365 784.129 815.887 783.083C814.148 782.349 813.271 781.168 812.55 779.492C812.628 778.704 812.512 778.352 813.083 777.727C815.833 774.718 822.657 774.922 826.415 774.722Z"/>
	<path transform="scale(13.6803 13.6803)" d="M887.537 804.231C893.449 804.063 911.267 803.282 916.172 805.209C917.233 806.156 917.647 806.813 917.885 808.244C918.108 809.583 917.642 810.625 916.909 811.707C915.701 812.486 914.401 812.506 913.006 812.576C906.619 812.894 900.066 812.454 893.652 812.483L844.125 812.613C837.936 812.82 819.622 814.302 814.663 811.772C813.246 811.049 812.799 810.176 812.374 808.707C812.548 807.763 812.698 807.297 813.325 806.534C814.354 805.281 816.26 804.585 817.823 804.401C823.619 803.723 831.657 804.443 837.685 804.441C854.291 804.436 870.937 804.681 887.537 804.231Z"/>
	<path transform="scale(13.6803 13.6803)" d="M818.712 862.726C832.915 862.388 847.278 862.884 861.498 862.902C871.503 862.914 908.579 861.719 915.462 863.859C916.965 864.326 918.106 864.884 918.894 866.315C918.807 867.766 918.511 868.697 917.466 869.799C916.211 871.121 915.255 870.931 913.561 871.094C893.106 872.446 872.046 871.625 851.544 871.567C843.883 871.546 822.001 872.487 815.612 870.57C814.082 870.111 813.61 869.196 812.978 867.831C812.996 866.491 813.194 865.056 814.155 864.014C815.473 862.583 816.9 862.869 818.712 862.726Z"/>
	<path transform="scale(13.6803 13.6803)" d="M901.194 892.235C905.47 892.269 911.202 891.716 915.164 893.296C916.609 893.872 917.348 894.611 917.941 896.069C917.961 897.51 917.921 898.138 917.19 899.442C915.795 900.577 914.702 900.892 912.961 901.064C904.2 901.932 894.84 901.079 886 901.097L831.591 901.587C827.38 901.638 818.804 902.706 815.267 900.322C814.289 899.662 813.555 898.696 813.491 897.471C813.427 896.271 814.036 895.152 814.953 894.414C816.239 893.379 818.35 893.074 819.933 892.932C830.111 892.02 840.918 892.545 851.149 892.575Q876.175 892.871 901.194 892.235Z"/>
	<path transform="scale(13.6803 13.6803)" d="M833.676 833.241C843.75 833.153 913.664 832.847 916.041 834.088C917.112 834.647 917.876 835.614 918.107 836.813Q918.151 837.045 918.169 837.28Q918.187 837.516 918.178 837.752Q918.169 837.988 918.134 838.221Q918.099 838.454 918.038 838.682Q917.977 838.91 917.89 839.13Q917.804 839.35 917.693 839.558Q917.582 839.767 917.449 839.962Q917.316 840.156 917.161 840.335C914.693 843.225 902.403 842.127 898.453 842.117C889.847 842.104 817.556 842.922 814.571 841.27C813.283 840.557 813.109 839.926 812.597 838.645C812.692 837.205 812.893 836.38 813.839 835.245C816.31 832.284 829.45 833.324 833.676 833.241Z"/>
	<path fill="#FBB32D" transform="scale(13.6803 13.6803)" d="M756.758 353.723C770.508 353.202 784.354 353.93 798.115 353.99L873 353.915C873.079 369.637 868.705 397.041 880.27 409.045C890.901 420.081 919.041 416.977 933.535 416.935L933.537 534.267L933.531 570.684C933.54 577.347 933.891 584.249 933.354 590.888C933.097 594.076 932.735 598.351 930.386 600.712C926.1 605.018 917.636 604.11 911.998 604.15C875.641 605.401 838.894 604.377 802.506 604.183L768.022 604.137C760.911 604.155 753.599 604.577 746.517 603.846C743.809 603.566 741.113 602.724 739.087 600.83C736.41 598.327 735.695 594.883 735.542 591.362C734.987 578.619 735.78 565.594 735.828 552.817L735.923 471.228L735.875 409.849C735.749 396.727 734.857 383.334 735.695 370.236C735.977 365.836 736.253 361.286 739.478 357.952C743.831 353.451 750.977 353.906 756.758 353.723Z"/>
	<path transform="scale(13.6803 13.6803)" d="M897.837 515.736L904.003 515.712L904.189 523.998L773.972 524.114L766.999 524.133L766.978 516.019C810.575 515.225 854.253 516.836 897.837 515.736Z"/>
	<path transform="scale(13.6803 13.6803)" d="M806.232 455.241L903.952 455.306L903.663 463.437L865.25 463.43L766.919 463.578L766.921 455.423Q786.578 455.572 806.232 455.241Z"/>
	<path transform="scale(13.6803 13.6803)" d="M767.008 546.496L903.59 546.502L903.561 554.883Q835.279 554.399 766.998 555.145L767.008 546.496Z"/>
	<path transform="scale(13.6803 13.6803)" d="M767.121 485.46L904.13 485.587L904.11 493.995L767.122 494.022L767.121 485.46Z"/>
</svg>
