<?xml version="1.0" encoding="utf-8" ?>
<svg xmlns="http://www.w3.org/2000/svg" xmlns:xlink="http://www.w3.org/1999/xlink" width="14008" height="14008">
	<path fill="#020B4E" transform="scale(13.6803 13.6803)" d="M102.529 699.602C105.741 699.428 108.505 699.451 111.533 700.71Q112.272 701.009 112.977 701.38Q113.683 701.751 114.348 702.191Q115.013 702.63 115.63 703.134Q116.248 703.637 116.813 704.2Q117.378 704.763 117.883 705.379Q118.389 705.995 118.831 706.658Q119.273 707.321 119.647 708.025Q120.02 708.729 120.322 709.467Q120.617 710.19 120.836 710.94Q121.055 711.689 121.195 712.457Q121.335 713.225 121.396 714.004Q121.456 714.782 121.436 715.563Q121.416 716.343 121.315 717.118Q121.215 717.892 121.035 718.652Q120.855 719.412 120.598 720.149Q120.341 720.886 120.009 721.593C117.791 726.287 113.936 728.67 109.277 730.462C106.822 730.579 104.269 730.712 101.893 729.98C97.5722 728.65 93.9365 725.82 91.938 721.725Q91.5921 721.015 91.3214 720.272Q91.0507 719.53 90.858 718.763Q90.6654 717.997 90.5529 717.215Q90.4405 716.433 90.4093 715.643Q90.3782 714.854 90.4288 714.065Q90.4793 713.276 90.611 712.497Q90.7427 711.718 90.9541 710.957Q91.1656 710.195 91.4545 709.46C93.5434 704.24 97.6573 701.768 102.529 699.602ZM104.123 705.974C101.181 707.164 98.906 708.538 97.7071 711.628Q97.5435 712.038 97.4219 712.463Q97.3004 712.888 97.222 713.322Q97.1437 713.757 97.1093 714.198Q97.075 714.638 97.085 715.079Q97.095 715.521 97.1493 715.959Q97.2036 716.398 97.3016 716.828Q97.3997 717.259 97.5404 717.678Q97.6812 718.097 97.8632 718.499C98.8113 720.61 100.707 722.465 102.877 723.299C104.249 723.826 105.852 723.95 107.309 724.02C110.133 723.136 112.479 721.704 113.8 718.942Q113.984 718.551 114.128 718.143Q114.272 717.736 114.374 717.316Q114.477 716.896 114.536 716.468Q114.595 716.039 114.611 715.607Q114.627 715.176 114.6 714.744Q114.572 714.313 114.502 713.886Q114.431 713.46 114.317 713.043Q114.204 712.626 114.049 712.222C113.124 709.796 111.129 707.671 108.703 706.706C107.246 706.127 105.67 706.03 104.123 705.974Z"/>
	<path fill="#61CDAC" transform="scale(13.6803 13.6803)" d="M273.677 902.02L284.503 902.015L284.598 915.655L298.437 915.623C298.498 919.569 298.381 923.528 298.334 927.475L284.883 927.167C284.97 931.475 285.241 935.962 284.421 940.206L272.789 940.273L272.964 927.161L259.475 927.489L259.484 915.51L273.561 915.488L273.677 902.02Z"/>
	<path fill="#61CDAC" transform="scale(13.6803 13.6803)" d="M939.024 560.775C947.054 562.802 944.898 569.487 949.961 574.09C953.352 577.173 958.717 577.267 962.063 580.832C962.28 581.508 962.573 581.888 962.309 582.594C960.88 586.416 952.444 587.534 949.077 589.523C948.929 589.61 948.784 589.704 948.637 589.794C945.923 594.079 945.424 598.971 942.187 603.093C935.417 600.021 936.978 593.228 931.87 589.484C929.281 587.585 925.097 586.904 922.113 585.568C920.557 584.871 919.463 584.146 918.822 582.495C919.652 576.459 928.085 576.999 931.778 573.481C935.594 569.847 934.533 564.375 939.024 560.775Z"/>
	<path fill="#020B4E" transform="scale(13.6803 13.6803)" d="M726.528 870.664C730.24 870.359 733.711 870.874 736.968 872.768C740.765 874.978 743.322 878.689 744.322 882.937C745.304 887.107 744.689 891.674 742.3 895.27C739.348 899.715 735.019 901.313 730.065 902.421C727.466 902.433 724.862 902.041 722.446 901.05C718.473 899.421 715.309 896.321 713.757 892.3Q713.471 891.562 713.263 890.799Q713.054 890.035 712.927 889.255Q712.799 888.474 712.753 887.684Q712.707 886.894 712.743 886.103Q712.779 885.313 712.897 884.53Q713.015 883.748 713.213 882.982Q713.412 882.216 713.689 881.475Q713.966 880.734 714.318 880.025C716.87 874.812 721.264 872.406 726.528 870.664Z"/>
	<path fill="#FEFEFE" transform="scale(13.6803 13.6803)" d="M727.664 878.482C728.782 878.532 729.945 878.568 731.03 878.866C733.197 879.461 735.196 880.959 736.184 883C737.199 885.098 737.103 887.478 736.282 889.62C735.039 892.861 732.784 894.16 729.77 895.568C726.31 894.612 723.239 893.54 721.461 890.156C720.579 888.478 720.352 886.557 720.965 884.748C722.069 881.49 724.753 879.929 727.664 878.482Z"/>
	<path fill="#020B4E" transform="scale(13.6803 13.6803)" d="M911.061 665.699C918.751 666.594 917.052 674.016 921.286 678.312C924.355 681.426 930.337 681.897 933.741 684.834C934.827 685.77 935.244 686.607 935.279 688.012C933.735 690.482 930.512 691.172 927.897 692.039C920.444 694.51 918.385 701.967 915.217 708.345C914.373 708.241 913.29 708.179 912.505 707.861C908.406 706.198 908.462 699.091 905.204 696.012C901.172 692.203 893.778 692.163 891.292 686.572C891.521 683.293 894.717 682.645 897.384 681.698C908.676 677.689 905.619 674.868 911.061 665.699Z"/>
	<path fill="#61CDAC" transform="scale(13.6803 13.6803)" d="M749.321 100.263C746.823 95.5119 744.757 90.4971 746.373 85.0619C747.606 80.9111 750.806 77.4442 754.608 75.4661Q755.327 75.0836 756.08 74.7756Q756.834 74.4676 757.615 74.2373Q758.396 74.0069 759.196 73.8566Q759.996 73.7063 760.807 73.6376Q761.618 73.5688 762.432 73.5823Q763.246 73.5958 764.054 73.6914Q764.863 73.787 765.658 73.9638Q766.452 74.1405 767.225 74.3966Q767.974 74.6444 768.692 74.9693Q769.411 75.2943 770.092 75.6926Q770.772 76.091 771.408 76.5585Q772.043 77.026 772.625 77.5575Q773.208 78.0889 773.732 78.6785Q774.256 79.2681 774.715 79.9093Q775.174 80.5505 775.564 81.2362Q775.953 81.922 776.269 82.6448C778.047 86.6856 778.291 92.0804 776.527 96.1722C774.433 101.032 770.003 104.332 765.148 106.127C764.896 106.22 764.642 106.307 764.388 106.397C758.334 106.016 754.072 103.891 749.321 100.263Z"/>
	<path fill="#F86858" transform="scale(13.6803 13.6803)" d="M235.002 717.21C236.833 717.078 238.746 716.927 240.121 718.423C241.309 719.714 241.66 721.861 241.958 723.529C241.954 730.386 241.125 744.446 244.53 750.168C244.403 755.045 244.404 760.492 242.398 765.042C233.178 761.014 222.986 760.245 213.061 760.635C212.14 747.322 211.673 733.997 210.955 720.674C218.879 719.24 227.284 719.703 235.002 717.21Z"/>
	<path fill="#020B4E" transform="scale(13.6803 13.6803)" d="M363.776 77.3848C364.84 77.4146 366.137 77.3776 367.102 77.8973C371.296 80.1564 373.679 90.684 377.789 94.8343C380.775 97.8498 386.071 99.5117 389.772 101.652C391.956 102.915 393.837 104.266 394.507 106.794C392.952 112.999 382.12 112.957 377.865 117.246C372.843 122.308 371.852 129.767 366.549 134.815C357.775 131.942 358.734 122.11 352.802 116.67C349.094 113.269 343.085 112.349 338.947 109.359C337.403 108.243 336.532 107.18 336.252 105.237C337.408 99.4856 350.373 97.2411 354.391 93.1897C358.629 88.9165 359.963 82.1699 363.776 77.3848Z"/>
	<path fill="#FEFEFE" transform="scale(13.6803 13.6803)" d="M365.624 90.3051C366.842 91.5269 367.698 93.5136 368.683 94.9685C372.564 100.702 376.459 103.357 382.6 106.313C374.543 109.753 370.416 113.868 365.663 121.136L365.522 121.188C363.472 120.478 361.312 115.37 359.681 113.512C356.839 110.275 353.254 107.993 349.65 105.704C356.496 101.535 361.286 97.0389 365.624 90.3051Z"/>
	<path fill="#020B4E" transform="scale(13.6803 13.6803)" d="M781.625 326.29C788.711 328.206 790.575 340.5 794.965 345.619C799.779 351.232 809.318 351.876 813.569 357.431C813.901 357.864 814 358.078 814.295 358.583C814.339 362.905 801.068 367.393 797.566 370.012C791.088 374.857 788.972 385.219 783.532 391.424C775.932 389.587 775.098 378.291 770.474 372.99C765.246 366.997 756.796 364.958 750.79 359.826C750.619 359.679 750.451 359.53 750.281 359.382C754.736 352.216 763.81 352.789 769.362 346.886C774.738 341.169 776.318 332.896 781.231 326.769C781.361 326.608 781.493 326.449 781.625 326.29Z"/>
	<path fill="#7497F6" transform="scale(13.6803 13.6803)" d="M782.088 339.282C783.578 340.726 784.855 343.164 786.093 344.885C791.021 351.734 795.34 355.707 802.83 359.635C791.879 364.507 788.108 369.122 782.528 379.528C775.43 368.986 775.017 364.374 762.041 359.273C772.54 354.008 776.619 349.769 782.088 339.282Z"/>
	<path fill="#020B4E" transform="scale(13.6803 13.6803)" d="M104.658 337.767C110.131 340.185 131.853 361.61 135.566 367.032C129.321 375.963 115.63 388.209 107.523 396.104C106.94 396.248 106.712 396.386 106.134 396.26C103.456 395.673 80.5257 371.667 77.5811 368.028C83.9005 356.91 95.55 346.69 104.658 337.767Z"/>
	<path fill="#FEFEFE" transform="scale(13.6803 13.6803)" d="M105.677 349.41C111.393 355.937 117.185 361.92 124.136 367.154C118.094 372.551 112.435 378.248 106.887 384.147L106.588 384.224C103.859 383.067 91.9158 370.269 88.6967 367.375C94.1519 361.218 99.9917 355.357 105.677 349.41Z"/>
	<path fill="#7497F6" transform="scale(13.6803 13.6803)" d="M935.057 354.831C935.281 354.863 935.508 354.873 935.727 354.926C939.396 355.802 965.167 382.738 968.586 386.71C970.404 388.822 971.859 391.025 973.258 393.43C969.457 398.565 964.182 403.179 959.665 407.717C952.087 415.331 944.571 423.293 936.352 430.207C929.684 427.67 902.339 398.484 898.212 391.514C906.447 381.435 924.959 362.771 935.057 354.831Z"/>
	<path fill="#FEFEFE" transform="scale(13.6803 13.6803)" d="M762.876 174.28Q762.556 175.21 762.193 176.123C754.768 194.814 740.486 211.237 721.916 219.321C704.199 227.034 684.789 227.769 666.813 220.566C648.66 213.291 634.281 200.118 626.648 182.018C620.214 166.758 617.987 150.23 624.359 134.619C632.128 115.584 646.997 98.9139 666.168 91.004Q667.985 90.2625 669.836 89.608Q671.686 88.9535 673.565 88.3875Q675.445 87.8215 677.349 87.3452Q679.253 86.8689 681.177 86.4834Q683.102 86.098 685.043 85.8042Q686.983 85.5104 688.936 85.309Q690.888 85.1075 692.848 84.9989Q694.807 84.8902 696.77 84.8746Q698.733 84.859 700.694 84.9365Q702.655 85.014 704.611 85.1843Q706.566 85.3547 708.511 85.6176Q710.456 85.8805 712.386 86.2353Q714.317 86.5901 716.228 87.036Q718.14 87.482 720.028 88.0181Q721.916 88.5541 723.776 89.1791Q725.637 89.8041 727.466 90.5166C734.916 93.3573 741.966 97.1817 749.321 100.263C754.072 103.891 758.334 106.016 764.388 106.397C769.675 114.751 775.49 123.28 779.588 132.285C772.132 131.037 764.964 130.71 758.527 135.497Q758.101 135.817 757.693 136.157Q757.283 136.497 756.892 136.858Q756.5 137.218 756.127 137.597Q755.754 137.977 755.4 138.374Q755.046 138.772 754.713 139.186Q754.379 139.601 754.066 140.031Q753.754 140.462 753.463 140.908Q753.172 141.353 752.904 141.813Q752.635 142.272 752.39 142.744Q752.145 143.217 751.924 143.701Q751.702 144.185 751.505 144.679Q751.308 145.173 751.136 145.677Q750.964 146.18 750.817 146.692Q750.67 147.203 750.548 147.721Q750.427 148.239 750.332 148.763Q750.236 149.286 750.167 149.814C749.321 156.17 751.383 162.392 755.32 167.376C757.413 170.025 760.119 172.348 762.876 174.28Z"/>
	<path fill="#020B4E" transform="scale(13.6803 13.6803)" d="M641.834 133.142C643.475 133.32 646.624 133.799 647.673 135.175C648.766 136.608 648.401 137.666 648.26 139.314C646.707 139.508 644.734 139.445 643.445 138.394C641.76 137.021 641.839 135.106 641.834 133.142Z"/>
	<path fill="#020B4E" transform="scale(13.6803 13.6803)" d="M671.62 107.211C672.57 107.316 673.62 107.446 674.501 107.825C675.71 108.345 676.058 109.298 676.447 110.436C676.288 112.029 675.739 112.798 674.834 114.043C674.167 114.066 673.463 113.993 672.796 113.96C671.707 113.172 671.056 112.685 670.733 111.327C670.349 109.709 670.811 108.573 671.62 107.211Z"/>
	<path fill="#020B4E" transform="scale(13.6803 13.6803)" d="M732.137 167.852C733.893 167.947 736.848 167.877 738.296 169.042C739.87 170.308 739.556 172.588 739.497 174.368C738.006 173.945 735.976 173.557 734.715 172.684C732.737 171.313 732.49 170.107 732.137 167.852Z"/>
	<path fill="#020B4E" transform="scale(13.6803 13.6803)" d="M636.502 152.44L638.752 152.398C640.577 152.354 642.053 152.111 643.676 153.065C644.598 154.494 644.392 154.98 644.324 156.641C642.333 156.896 639.975 157.512 638.078 156.718C636.813 155.248 636.847 154.32 636.502 152.44Z"/>
	<path fill="#020B4E" transform="scale(13.6803 13.6803)" d="M691.753 103.479C693.893 103.427 695.437 103.273 697.133 104.72C697.679 106.572 697.139 108.179 696.728 110.021C695.029 110.083 693.981 110.076 692.543 109.157C691.517 107.423 691.753 105.433 691.753 103.479Z"/>
	<path fill="#020B4E" transform="scale(13.6803 13.6803)" d="M640.89 170.596C642.197 170.507 643.697 170.363 644.994 170.54C646.383 170.73 647.069 171.072 647.884 172.175C647.498 173.491 647.086 173.765 646.088 174.739C644.98 175.218 643.75 175.86 642.511 175.674C641.18 175.474 640.624 174.953 639.896 173.905C639.868 172.416 640.09 171.847 640.89 170.596Z"/>
	<path fill="#020B4E" transform="scale(13.6803 13.6803)" d="M739.648 145.554C740.75 145.74 741.36 146.251 741.978 147.088L741.337 148.801C739.657 150.53 738.1 151.132 735.839 151.885C735.81 151.88 735.779 151.881 735.752 151.868C734.556 151.264 734.416 150.93 733.738 149.782C733.798 149.066 733.89 148.679 734.344 148.081C735.767 146.205 737.464 146.005 739.648 145.554Z"/>
	<path fill="#020B4E" transform="scale(13.6803 13.6803)" d="M714.658 109.166C715.429 109.41 716.31 109.641 717.015 110.037C718.212 110.708 718.416 111.47 718.742 112.716C718.426 114.62 717.567 115.733 716.448 117.274C715.832 117.155 715.42 117.097 714.81 116.869C713.636 116.431 713.173 115.786 712.681 114.705C712.722 112.603 713.721 110.985 714.658 109.166Z"/>
	<path fill="#020B4E" transform="scale(13.6803 13.6803)" d="M655.271 117.282L660.503 121.776L657.457 125.125C655.359 124.41 653.462 123.231 651.531 122.155L655.271 117.282Z"/>
	<path fill="#020B4E" transform="scale(13.6803 13.6803)" d="M688.583 198.825C690.274 199.021 691.737 199.047 693.007 200.311C693.984 202.249 693.603 204.785 693.544 206.912C691.583 207.016 690.389 207.014 688.8 205.798C687.859 203.691 688.406 201.079 688.583 198.825Z"/>
	<path fill="#020B4E" transform="scale(13.6803 13.6803)" d="M730.921 122.374C732.746 123.921 733.808 125.696 735.03 127.709L730.159 130.234C729.281 130.557 728.541 130.599 727.617 130.684L726.938 129.986C726.912 127.092 729.231 124.547 730.921 122.374Z"/>
	<path fill="#020B4E" transform="scale(13.6803 13.6803)" d="M671.9 194.725C673.842 195.466 674.604 195.864 675.475 197.746C675.479 200.016 674.249 202.017 673.299 204.031C672.769 203.876 672.231 203.723 671.716 203.527C670.817 203.185 669.965 202.557 669.668 201.613C668.956 199.348 670.879 196.678 671.9 194.725Z"/>
	<path fill="#020B4E" transform="scale(13.6803 13.6803)" d="M655.369 185.36C657.278 185.456 658.393 187.075 659.633 188.363L654.39 193.542C652.777 192.709 651.661 191.172 650.487 189.818C652.036 188.224 653.681 186.801 655.369 185.36Z"/>
	<path fill="#020B4E" transform="scale(13.6803 13.6803)" d="M723.978 184.754C726.384 185.968 728.719 187.74 730.985 189.222L727.36 192.562L727.094 192.715C726.161 192.785 725.311 192.789 724.522 192.188C723.376 191.313 722.634 189.706 722.444 188.299C722.25 186.861 723.181 185.848 723.978 184.754Z"/>
	<path fill="#020B4E" transform="scale(13.6803 13.6803)" d="M708.112 195.187C708.907 195.354 709.357 195.519 709.984 196.084C711.303 197.27 712.48 199.149 712.287 201.002C712.123 202.58 711.382 202.982 710.32 204.008C708.838 203.882 708 203.996 706.929 202.808C706.258 202.065 706.019 201.087 706 200.116C705.957 197.937 706.677 196.757 708.112 195.187Z"/>
	<path fill="#7497F6" transform="scale(13.6803 13.6803)" d="M689.582 123.663C696.898 123.039 704.369 125.595 710.042 130.187Q710.635 130.674 711.203 131.19Q711.771 131.705 712.313 132.248Q712.855 132.79 713.37 133.359Q713.885 133.927 714.372 134.52Q714.859 135.112 715.317 135.728Q715.774 136.344 716.201 136.981Q716.628 137.618 717.023 138.276Q717.419 138.933 717.782 139.609Q718.145 140.285 718.474 140.977Q718.804 141.67 719.099 142.378Q719.395 143.086 719.655 143.807Q719.916 144.529 720.141 145.262Q720.366 145.995 720.555 146.739Q720.745 147.482 720.897 148.234Q721.05 148.985 721.166 149.744Q721.282 150.502 721.361 151.265C722.239 159.673 719.645 168.646 714.148 175.108C708.332 181.945 700.688 184.373 692.102 185.074C685.359 185.076 678.691 183.548 673.078 179.683C666.222 174.963 661.033 167.218 659.654 158.971C658.342 151.125 660.696 143.002 665.328 136.625C671.367 128.312 679.77 125.142 689.582 123.663Z"/>
	<path fill="#020B4E" transform="scale(13.6803 13.6803)" d="M213.061 760.635C222.986 760.245 233.178 761.014 242.398 765.042C255.397 771.666 265.234 781.793 269.821 795.842C273.516 807.159 272.904 818.74 270.177 830.195C268.322 835.544 266.114 840.38 262.474 844.762C257.563 850.675 251.67 855.716 246.041 860.927Q236.015 870.241 226.12 879.695Q199.085 905.818 172.643 932.542C166.15 925.75 159.262 919.336 152.612 912.698L119.285 879.355C108.109 868.378 96.001 858.154 86.8209 845.35C78.805 834.17 76.5455 818.135 78.7404 804.808C81.0005 791.085 88.4334 778.393 99.8796 770.36Q100.899 769.648 101.952 768.987Q103.005 768.327 104.09 767.719Q105.175 767.112 106.289 766.56Q107.403 766.008 108.543 765.512Q109.684 765.016 110.847 764.577Q112.01 764.139 113.194 763.759Q114.378 763.379 115.58 763.059Q116.781 762.738 117.997 762.479Q119.213 762.219 120.44 762.019Q121.667 761.82 122.903 761.683Q124.139 761.546 125.38 761.47Q126.621 761.394 127.864 761.381Q129.107 761.367 130.35 761.415Q131.592 761.464 132.831 761.574Q134.069 761.685 135.3 761.857Q136.532 762.029 137.753 762.262C153.431 765.096 163.835 775.023 172.588 787.729Q174.182 784.799 176.077 782.053C184.688 769.564 198.551 763.238 213.061 760.635Z"/>
	<path fill="#F86858" transform="scale(13.6803 13.6803)" d="M215.251 768.16C216.739 767.947 218.217 767.849 219.719 767.828C231.677 767.665 243.015 771.368 251.613 779.916C259.861 788.117 265.64 800.96 265.564 812.621C265.515 820.225 264.089 829.521 259.803 835.99C253.399 845.656 237.283 858.834 228.398 867.399Q200.331 894.472 172.722 922.012Q156.18 905.364 139.351 889.006C126.584 876.316 113.638 863.619 101.251 850.562C90.8913 839.642 84.8103 827.661 85.2972 812.319Q85.3262 811.187 85.4113 810.058Q85.4965 808.929 85.6376 807.806Q85.7787 806.682 85.9755 805.567Q86.1722 804.452 86.4241 803.348Q86.6759 802.244 86.9823 801.154Q87.2887 800.064 87.6488 798.991Q88.0089 797.917 88.4219 796.863Q88.8349 795.809 89.2997 794.776Q89.7646 793.744 90.2801 792.736Q90.7956 791.728 91.3606 790.746Q91.9255 789.765 92.5385 788.813Q93.1515 787.861 93.811 786.941Q94.4705 786.02 95.1749 785.134Q95.8793 784.247 96.6268 783.397Q97.3744 782.547 98.1632 781.734Q98.9521 780.922 99.7803 780.15C107.973 772.477 118.669 768.248 129.932 768.663C142.014 769.108 154.29 774.922 161.504 784.748C164.819 789.263 167.308 794.275 171.204 798.352L171.703 798.864C175.55 795.99 178.277 791.914 181.124 788.106C190.684 775.313 199.417 770.517 215.251 768.16Z"/>
	<path fill="#020B4E" transform="scale(13.6803 13.6803)" d="M210.28 802.325C211.026 802.355 211.768 802.374 212.505 802.5C215.289 802.974 218.325 804.808 219.903 807.174Q220.103 807.471 220.273 807.786Q220.442 808.102 220.579 808.433Q220.716 808.764 220.819 809.107Q220.921 809.45 220.989 809.802Q221.056 810.154 221.088 810.51Q221.12 810.867 221.115 811.225Q221.111 811.583 221.07 811.939Q221.029 812.295 220.953 812.645C220.514 814.593 218.75 816.427 217.442 817.891C209.951 826.276 201.426 834.003 193.534 842.038C186.779 848.917 176.532 861.632 168.828 866.372C159.811 861.209 151.851 850.727 144.739 843.166C141.292 839.915 134.506 834.926 133.955 829.933C133.69 827.532 134.792 825.258 136.312 823.467C138.221 821.217 141.748 818.315 144.914 818.434C146.263 818.485 147.089 818.811 148.132 819.616C151.72 822.383 154.815 826.483 157.971 829.77C161.987 833.954 166.222 837.905 170.452 841.871C184.474 829.407 196.483 814.96 210.28 802.325Z"/>
	<path fill="#020B4E" transform="scale(13.6803 13.6803)" d="M99.3939 486.612C111.131 485.57 125.79 486.533 137.845 486.467L167.409 486.293C173.218 486.27 179.231 485.996 185.015 486.56C187.294 486.782 189.352 487.409 191.314 488.613C195.421 491.134 197.97 495.195 198.98 499.862C200.49 506.846 199.526 515.314 199.503 522.471L199.489 558.04L199.506 620.695C199.531 632.241 200.126 644.025 199.393 655.536C199.123 659.761 198.763 664.373 196.238 667.919C192.61 673.015 186.826 674.563 180.973 675.408L126.174 675.441C116.922 675.484 107.169 676.162 97.9736 675.274C94.7202 674.96 91.0536 674.259 88.2087 672.627C84.6385 670.579 82.3837 665.791 81.3738 661.989C79.136 653.564 80.4892 643.016 80.5287 634.26L80.5508 597.612L80.5462 540.248C80.5386 529.978 80.0991 519.543 80.6433 509.292C80.8666 505.086 81.1195 500.398 83.3494 496.73C86.9446 490.814 92.9001 488.08 99.3939 486.612Z"/>
	<path fill="#123880" transform="scale(13.6803 13.6803)" d="M105.416 492.748Q128.023 492.855 150.631 492.729C160.35 492.598 170.552 491.673 180.211 492.747C183.219 493.081 187.852 493.786 190.034 496.024C192.857 498.919 192.931 505.366 193.038 509.191C193.307 518.783 193.028 528.43 193.036 538.029L193.033 600.653L193.067 634.849C193.098 641.773 193.507 648.942 192.924 655.842C192.629 659.331 192.388 663.575 189.75 666.162C185.969 669.87 179.135 669.078 174.25 669.032C159.245 668.999 144.243 668.54 129.235 668.525C120.056 668.516 110.738 669.273 101.585 668.545C98.4054 668.292 92.2038 667.888 89.7548 665.761C87.2525 663.587 87.113 657.702 86.9794 654.507C86.5584 644.44 86.9932 634.202 87.0259 624.114L87.0313 569.064L86.908 535.115C86.7922 526.537 86.2041 517.868 86.9973 509.314C87.422 504.735 87.7795 500.34 91.175 496.89C95.0646 492.937 100.245 492.785 105.416 492.748Z"/>
	<path fill="#020B4E" transform="scale(13.6803 13.6803)" d="M144.151 501.72C148.525 501.791 155.288 501.168 159.401 502.766C160.626 503.243 161.009 503.673 161.491 504.853C161.144 506.151 160.787 506.684 159.844 507.637C154.375 508.855 147.756 508.207 142.125 508.216C137.552 508.252 132.74 508.505 128.201 508.029C126.138 507.812 124.172 507.57 122.833 505.886C122.943 505.113 122.871 504.619 123.409 503.998C126.397 500.545 139.408 501.827 144.151 501.72Z"/>
	<path fill="#020B4E" transform="scale(13.6803 13.6803)" d="M138.239 642.552C140.53 642.48 142.744 642.467 144.79 643.651C148.365 645.72 149.287 650.104 150.362 653.765C149.68 655.909 149.041 658.235 147.745 660.098C145.947 662.682 143.573 663.308 140.624 663.883C138.594 663.901 136.686 663.738 134.798 662.915C132.285 661.82 130.393 659.816 129.492 657.221Q129.31 656.69 129.182 656.144Q129.055 655.598 128.982 655.041Q128.91 654.485 128.894 653.924Q128.878 653.363 128.918 652.804Q128.958 652.244 129.054 651.692Q129.15 651.139 129.301 650.599Q129.452 650.058 129.656 649.536Q129.86 649.013 130.116 648.514C131.919 644.994 134.634 643.724 138.239 642.552Z"/>
	<path fill="#123880" transform="scale(13.6803 13.6803)" d="M138.286 648.276C139.421 648.462 140.742 648.793 141.675 649.512C142.781 650.363 143.363 651.198 143.36 652.641C143.354 654.956 141.923 656.444 140.463 658.061C139.3 657.995 138.178 657.669 137.231 656.958C136.309 656.266 135.791 655.376 135.693 654.226C135.466 651.581 136.679 650.192 138.286 648.276Z"/>
	<path fill="#020B4E" transform="scale(13.6803 13.6803)" d="M97.649 516.142C115.547 515.595 133.657 516.304 151.572 516.397C163.487 516.459 175.32 515.451 187.215 516.657C189.537 526.328 188.529 537.983 188.519 547.951L188.379 593.668C188.366 604.849 189.212 616.092 188.903 627.253C188.834 629.745 189.021 632.887 187.894 635.156C186.852 636.164 185.989 636.248 184.625 636.463C167.732 637.061 150.898 636.762 134.001 636.767C124.002 636.771 113.857 637.444 103.888 636.596C100.412 636.3 97.2634 635.805 94.0071 634.495C92.9347 626.574 92.7581 522.353 93.7037 519.54C94.2936 517.785 96.0993 516.869 97.649 516.142Z"/>
	<path fill="#FEFEFE" transform="scale(13.6803 13.6803)" d="M135.343 521.736C151.025 521.539 166.747 521.941 182.426 522.311C182.44 558.347 183.042 594.488 182.233 630.51L147.25 630.431L99.7453 630.395C99.0844 594.301 99.5586 558.105 99.5553 522.001Q117.45 522.025 135.343 521.736Z"/>
	<path fill="#020B4E" transform="scale(13.6803 13.6803)" d="M159.476 548.806C164.948 550.868 170.641 559.043 174.437 563.418Q165.083 572.354 155.976 581.542C149.442 588.224 143.429 595.129 135.921 600.776C130.533 597.341 126.24 592.213 121.891 587.592C117.119 582.686 112.325 577.814 107.828 572.652C112.094 567.311 116.786 562.367 121.461 557.388C126.747 561.96 131.497 566.984 136.336 572.02Q148.1 560.607 159.476 548.806Z"/>
	<path fill="#F86858" transform="scale(13.6803 13.6803)" d="M159.375 555.311C162.783 557.362 165.536 560.5 168.25 563.355C157.06 573.444 146.742 584.449 135.63 594.635C131.018 590.267 126.641 585.65 122.213 581.096L113.952 572.508C116.747 569.756 119.413 566.852 122.124 564.015C126.603 569.304 131.222 574.047 136.526 578.512L159.375 555.311Z"/>
	<path fill="#020B4E" transform="scale(13.6803 13.6803)" d="M839.319 731.2C845 730.859 850.593 730.926 856.242 731.688C880.071 734.902 902.125 749.036 916.451 768.113Q917.17 769.068 917.864 770.041Q918.559 771.014 919.229 772.003Q919.899 772.993 920.544 773.999Q921.189 775.005 921.809 776.027Q922.429 777.049 923.024 778.086Q923.618 779.123 924.186 780.175Q924.754 781.226 925.296 782.292Q925.838 783.357 926.353 784.436Q926.868 785.514 927.356 786.605Q927.844 787.696 928.305 788.799Q928.766 789.902 929.199 791.016Q929.632 792.13 930.037 793.255Q930.442 794.379 930.819 795.514Q931.196 796.648 931.545 797.791Q931.893 798.934 932.214 800.086Q932.534 801.238 932.825 802.397Q933.116 803.556 933.378 804.722Q933.64 805.888 933.873 807.061Q934.106 808.233 934.31 809.411Q934.514 810.589 934.688 811.771Q934.862 812.954 935.007 814.14Q935.152 815.327 935.267 816.516Q935.382 817.706 935.468 818.898Q935.553 820.09 935.609 821.284Q935.664 822.478 935.69 823.673Q935.716 824.868 935.712 826.064Q935.708 827.259 935.675 828.454Q935.641 829.648 935.578 830.842Q935.514 832.036 935.421 833.227Q935.328 834.419 935.205 835.608Q935.082 836.797 934.929 837.982Q934.777 839.168 934.595 840.349Q934.418 841.507 934.213 842.66Q934.008 843.814 933.774 844.961Q933.54 846.109 933.278 847.251Q933.016 848.393 932.726 849.528Q932.436 850.662 932.118 851.79Q931.8 852.917 931.455 854.036Q931.109 855.156 930.735 856.266Q930.362 857.376 929.962 858.477Q929.561 859.578 929.133 860.668Q928.706 861.759 928.251 862.839Q927.797 863.918 927.316 864.986Q926.835 866.054 926.328 867.11Q925.821 868.166 925.288 869.209Q924.755 870.252 924.196 871.282Q923.637 872.311 923.053 873.327Q922.469 874.342 921.86 875.343Q921.252 876.344 920.618 877.329Q919.985 878.315 919.327 879.284Q918.67 880.254 917.989 881.206Q917.307 882.159 916.603 883.095Q915.898 884.031 915.171 884.949Q914.443 885.867 913.693 886.767Q912.943 887.667 912.172 888.548Q911.4 889.429 910.606 890.291Q909.813 891.153 908.998 891.995Q908.184 892.836 907.349 893.658Q906.514 894.48 905.659 895.28Q904.804 896.081 903.929 896.86Q903.055 897.64 902.161 898.397Q901.268 899.155 900.356 899.89Q899.444 900.625 898.514 901.337Q897.584 902.05 896.637 902.739C879.066 915.621 855.146 922.133 833.493 918.832C825.445 929.295 818.005 936.754 806.008 942.637C787.05 950.196 769.173 947.05 750.321 941.327C756.066 939.633 762.025 938.203 767.418 935.547C781.068 928.823 786.87 916.245 791.477 902.539C770.679 885.267 755.584 860.733 752.864 833.548C750.474 809.664 756.957 784.183 772.36 765.536C789.298 745.031 813.085 733.656 839.319 731.2Z"/>
	<path fill="#123880" transform="scale(13.6803 13.6803)" d="M842.821 738.215C847.326 737.833 852.323 738.258 856.799 738.911C878.357 742.055 896.5 755.114 909.319 772.356C923.905 791.973 930.054 815.208 926.322 839.44Q926.161 840.496 925.973 841.548Q925.785 842.6 925.571 843.647Q925.357 844.693 925.117 845.735Q924.877 846.776 924.611 847.811Q924.345 848.846 924.054 849.874Q923.762 850.901 923.445 851.922Q923.128 852.942 922.785 853.954Q922.443 854.966 922.075 855.97Q921.707 856.973 921.315 857.966Q920.922 858.96 920.505 859.944Q920.087 860.927 919.646 861.9Q919.204 862.873 918.738 863.835Q918.272 864.796 917.783 865.746Q917.293 866.696 916.78 867.633Q916.266 868.57 915.73 869.494Q915.194 870.418 914.634 871.329Q914.075 872.239 913.493 873.135Q912.911 874.031 912.307 874.912Q911.703 875.794 911.077 876.66Q910.451 877.526 909.804 878.376Q909.156 879.226 908.488 880.059Q907.82 880.893 907.131 881.71Q906.442 882.526 905.733 883.326Q905.024 884.125 904.295 884.906Q903.566 885.688 902.818 886.451Q902.07 887.214 901.303 887.958Q900.536 888.701 899.751 889.426Q898.966 890.151 898.163 890.856Q897.359 891.56 896.539 892.245Q895.719 892.929 894.882 893.593Q894.044 894.257 893.191 894.9Q892.337 895.543 891.468 896.164C872.772 909.724 851.716 913.33 829.166 909.748C824.749 918.007 819.898 924.109 812.411 929.75C801.009 937.082 789.048 939.669 775.621 940.096C790.746 930.461 796.003 915.877 800.84 899.418Q797.585 896.956 794.409 894.391C775.563 879.03 762.948 857.334 760.59 832.979C758.421 810.571 764.071 787.59 778.656 770.162C795.135 750.472 817.503 740.392 842.821 738.215Z"/>
	<path fill="#FEFEFE" transform="scale(13.6803 13.6803)" d="M841.878 775.444C844.287 775.449 846.24 775.268 848.121 777.061C854.19 782.841 851.589 809.15 851.623 817.891C859.887 818.011 888.206 815.224 893.585 820.45C895.013 821.837 895.463 823.555 895.423 825.493C895.388 827.173 894.76 828.662 893.501 829.787C888.13 834.589 859.194 832.406 850.924 832.257C850.998 841.905 852.63 861.383 850.824 869.841C850.472 871.492 849.765 872.629 848.745 873.949C847.454 874.591 845.596 875.492 844.133 875.447C842.468 875.394 841.246 874.832 840.132 873.623C838.523 871.877 837.829 869.475 837.516 867.172C836.368 858.735 837.435 841.603 837.501 832.098C829.87 832.294 803.487 834.567 798.32 829.698C797.074 828.523 796.511 827.049 796.463 825.36C796.416 823.706 796.999 822.201 798.152 821.026C803.596 815.474 829.231 817.646 837.017 817.9C836.757 807.54 835.927 796.615 836.963 786.289C837.424 781.686 838.228 778.43 841.878 775.444Z"/>
	<path fill="#020B4E" transform="scale(13.6803 13.6803)" d="M531.518 90.6332C532.53 88.2578 533.652 86.1017 535.567 84.3182C537.874 82.1694 540.827 80.8745 544.015 81.03C549.2 81.2829 552.767 84.5331 556.103 88.1226C560.062 86.7027 564.071 85.7659 568.237 86.9563C572.841 88.2714 576.01 91.7302 578.214 95.8205C582.401 96.2878 587.461 96.6114 591.05 99.0294C595.075 101.741 595.543 106.023 596.254 110.418C599.662 114.594 605.511 117.302 607.851 122.216C609.817 126.344 608.643 130.758 607.299 134.868C610.967 138.697 614.461 143.139 614.261 148.741C614.073 154.027 610.659 157.725 607.031 161.139C607.804 166.131 608.487 171.385 606.384 176.165C603.731 182.198 598.104 184.582 592.338 186.742C592.014 188.411 591.643 190.174 591.069 191.779C589.627 195.808 586.686 199.543 582.718 201.303C577.976 203.406 573.676 202.4 569.049 200.733C566.548 203.371 564.06 204.773 560.736 206.099C556.744 220.166 550.503 231.229 540.602 241.977C549.141 241.961 557.955 242.437 566.235 244.659C586.161 250.007 597.765 263.743 607.728 280.906C612.109 272.337 615.793 263.983 622.549 256.944Q623.644 255.821 624.793 254.754Q625.943 253.686 627.143 252.676Q628.343 251.667 629.592 250.718Q630.841 249.768 632.135 248.882Q633.429 247.995 634.765 247.174Q636.101 246.352 637.476 245.598Q638.851 244.843 640.261 244.157Q641.672 243.471 643.115 242.855Q644.557 242.24 646.029 241.696Q647.5 241.152 648.996 240.682Q650.492 240.211 652.01 239.815Q653.528 239.419 655.063 239.098Q656.598 238.777 658.148 238.532Q659.697 238.288 661.256 238.12Q662.816 237.952 664.382 237.861Q665.948 237.77 667.516 237.756C683.974 237.577 700.892 244.587 712.525 256.21Q714.046 257.734 715.454 259.364Q716.862 260.993 718.149 262.72Q719.436 264.446 720.595 266.261Q721.754 268.076 722.78 269.969Q723.806 271.862 724.693 273.825Q725.58 275.787 726.323 277.808Q727.067 279.829 727.663 281.898Q728.259 283.967 728.705 286.074C730.615 295.078 730.007 304.939 730 314.119L729.932 347.286Q729.643 403.406 729.992 459.523L841.991 459.44Q842.485 390.316 842.07 321.191C836.725 320.671 831.882 319.73 827.085 317.22C819.575 313.29 814.578 307.559 812.076 299.426C814.173 295.291 814.057 294.41 812.92 289.97C812.071 286.655 813.148 284.746 814.826 281.927C813.858 279.843 812.536 277.478 812.636 275.122C812.752 272.376 814.922 270.702 816.8 269.002Q816.597 267.444 816.365 265.891C815.419 259.625 812.366 253.434 807.063 249.752C794.217 240.834 784.651 256.103 772.534 258.068C767.379 258.904 761.976 257.799 757.82 254.58C753.004 250.851 749.497 244.518 748.925 238.452C747.667 225.12 760.209 218.785 767.526 209.92C771.78 204.766 774.558 198.693 773.805 191.871C772.944 184.063 768.677 179.054 762.876 174.28C760.119 172.348 757.413 170.025 755.32 167.376C751.383 162.392 749.321 156.17 750.167 149.814Q750.236 149.286 750.332 148.763Q750.427 148.239 750.548 147.721Q750.67 147.203 750.817 146.692Q750.964 146.18 751.136 145.677Q751.308 145.173 751.505 144.679Q751.702 144.185 751.924 143.701Q752.145 143.217 752.39 142.744Q752.635 142.272 752.904 141.813Q753.172 141.353 753.463 140.908Q753.754 140.462 754.066 140.031Q754.379 139.601 754.713 139.186Q755.046 138.772 755.4 138.374Q755.754 137.977 756.127 137.597Q756.5 137.218 756.892 136.858Q757.283 136.497 757.692 136.157Q758.101 135.817 758.527 135.497C764.964 130.71 772.132 131.037 779.588 132.285C785.551 136.915 791.583 140.259 799.435 139.287C804.937 138.605 809.883 136.401 813.289 131.909C821.799 120.68 815.08 105.098 825.973 94.7972C829.144 91.7994 833 90.1251 837.285 89.4621C843.35 88.5238 850.287 89.3309 855.237 93.1904C871.014 105.49 859.155 129.358 877.348 137.692Q878.854 138.396 880.439 138.897Q882.023 139.398 883.66 139.689Q885.297 139.979 886.957 140.054Q888.618 140.129 890.274 139.986C904.05 138.804 915.188 125.577 928.839 136.769C933.64 140.704 937.03 146.468 937.484 152.721C937.933 158.904 935.241 164.315 931.206 168.821C923.632 177.28 912.184 182.265 912.931 195.512C913.984 214.219 939.619 219.402 937.586 239.086C937.139 243.405 935.559 247.428 932.706 250.721C929.343 254.603 923.296 258.394 918.037 258.683C903.185 259.496 887.3 237.529 873.622 252.726C870.056 256.688 866.575 263.294 867.063 268.709C867.841 277.343 873.585 274.087 868.334 284.702C869.372 286.647 870.511 288.584 871.433 290.585L869.396 296.518C869.962 298.346 870.591 300.176 871.013 302.043C866.839 310.292 858.981 317.36 850.114 320.242C849.804 320.343 849.49 320.436 849.178 320.533Q848.667 389.953 849.44 459.37C856.907 459.177 877.417 457.497 883.52 461.07C885.068 464.691 884.632 471.169 884.728 475.172C885.145 492.564 884.725 509.984 884.777 527.381C884.82 541.718 885.993 648.423 884.074 653.404C883.844 654.001 883.692 654.54 883.066 654.809C879.248 656.448 826.821 655.453 817.709 655.511C817.762 664.829 819.033 702.378 816.703 707.897C815.592 708.725 815.402 708.785 814.02 708.917C807.941 706.782 770.497 663.467 762.33 655.328C752.042 654.694 741.694 654.485 731.409 655.318Q731.024 686.205 731.4 717.092C731.501 734.118 733.368 756.774 729.245 772.859C726.703 782.78 721.659 791.376 714.323 798.505C706.662 805.95 697.175 811.92 686.985 815.208L687.049 870.881C687.128 884.312 688.97 899.311 685.82 912.423C684.235 919.019 680.489 925.111 675.729 929.9C665.356 940.336 652.534 940.125 638.779 940.049L449.378 939.598L396.694 939.548C387.183 939.553 376.659 940.457 367.277 938.991C360.123 937.873 353.052 934.271 347.998 929.083Q347.249 928.315 346.552 927.5Q345.855 926.685 345.213 925.826Q344.572 924.966 343.988 924.066Q343.404 923.167 342.882 922.23Q342.358 921.294 341.898 920.325Q341.438 919.356 341.043 918.359Q340.648 917.362 340.319 916.341Q339.991 915.32 339.73 914.28C336.982 903.057 338.309 890.353 338.369 878.882L338.394 836.51L300.912 836.501C295.115 836.518 287.78 837.564 282.182 836.231C281.541 834.847 281.426 833.59 281.274 832.098C277.871 832.239 273.627 830.759 270.177 830.195C272.904 818.74 273.516 807.159 269.821 795.842C265.234 781.793 255.397 771.666 242.398 765.042C244.404 760.492 244.403 755.045 244.53 750.168C241.125 744.446 241.954 730.386 241.958 723.529C241.66 721.861 241.309 719.714 240.121 718.423C238.746 716.927 236.833 717.078 235.002 717.21C234.215 706.319 234.879 695.312 234.957 684.401L235.091 629.872L234.905 457.643L163.536 457.722C156.387 457.765 139.604 459.033 133.533 457.915C131.559 457.551 130.273 456.961 129.108 455.283C129.066 453.969 128.998 453.431 129.983 452.391C131.317 450.984 133.757 450.342 135.611 450.117C141.331 449.425 147.958 450.373 153.79 450.444C167.352 450.608 180.929 450.48 194.493 450.448L194.501 427.922Q174.344 427.647 154.188 427.985C148.06 428.112 141.683 428.797 135.582 428.561C134.172 428.506 132.708 428.386 131.384 427.857C129.825 427.235 129.123 426.325 128.508 424.771C128.547 423.496 128.751 422.764 129.677 421.824C131.104 420.374 133.304 420.296 135.21 420.134C141.616 419.593 148.301 420.38 154.747 420.451L194.863 420.51C195.042 413.186 194.814 405.832 194.784 398.505C184.355 398.715 136.056 400.484 130.456 397.197C129.537 396.657 129.29 396.497 129.041 395.497C129.286 394.823 129.516 394.239 130.035 393.721C131.56 392.199 133.959 391.333 136.062 391.083C141.019 390.492 146.924 391.473 152 391.505L194.488 391.513C194.591 384.384 194.517 377.244 194.526 370.113C188.653 370.11 168.204 371.389 163.939 369.339C162.496 368.645 161.885 367.838 161.409 366.351C161.694 365.417 161.91 364.906 162.623 364.197C163.907 362.921 166.237 362.677 167.938 362.537C175.596 361.902 183.725 362.52 191.427 362.563Q213.22 362.679 235.013 362.538L235.014 311.108C213.603 316.978 191.523 318.443 169.869 312.867Q168.504 312.518 167.148 312.135Q165.792 311.752 164.446 311.336Q163.1 310.919 161.765 310.47Q160.43 310.02 159.106 309.538Q157.782 309.056 156.471 308.541Q155.159 308.026 153.861 307.479Q152.563 306.932 151.278 306.353Q149.994 305.774 148.724 305.163Q147.455 304.553 146.2 303.911Q144.946 303.269 143.708 302.596Q142.47 301.924 141.249 301.221Q140.028 300.518 138.825 299.785Q137.622 299.052 136.437 298.29Q135.252 297.527 134.087 296.736Q132.921 295.944 131.775 295.124Q130.63 294.304 129.505 293.456Q128.38 292.608 127.276 291.733Q126.172 290.857 125.09 289.954Q124.009 289.052 122.949 288.123Q121.89 287.194 120.854 286.239Q119.819 285.284 118.807 284.303Q117.795 283.323 116.807 282.318Q115.82 281.313 114.858 280.284Q113.895 279.255 112.959 278.203Q112.022 277.15 111.112 276.075Q110.202 274.999 109.318 273.902Q108.435 272.804 107.579 271.685Q106.723 270.566 105.895 269.426Q105.067 268.287 104.267 267.127Q103.467 265.967 102.696 264.787Q101.926 263.608 101.184 262.41Q100.443 261.212 99.7312 259.996C84.9865 234.784 79.6003 204.972 87.1981 176.551C94.8148 148.058 112.676 123.053 138.389 108.231C165.05 92.8633 198.317 87.7161 228.133 95.7669Q229.476 96.1262 230.809 96.5183Q232.142 96.9104 233.466 97.3351Q234.789 97.7599 236.101 98.2169Q237.414 98.674 238.715 99.1631Q240.016 99.6523 241.304 100.173Q242.593 100.694 243.868 101.246Q245.143 101.799 246.405 102.382Q247.666 102.966 248.913 103.58Q250.159 104.194 251.391 104.839Q252.622 105.484 253.837 106.158Q255.052 106.833 256.25 107.537Q257.448 108.242 258.629 108.975Q259.809 109.709 260.971 110.471Q262.133 111.233 263.276 112.024Q264.419 112.814 265.543 113.633Q266.666 114.451 267.769 115.297Q268.872 116.142 269.954 117.015Q271.035 117.887 272.095 118.786Q273.156 119.685 274.193 120.609Q275.231 121.534 276.246 122.484Q277.26 123.433 278.251 124.408Q279.243 125.382 280.209 126.38Q281.176 127.379 282.118 128.4Q283.061 129.422 283.977 130.467Q284.894 131.511 285.785 132.578Q286.676 133.645 287.54 134.733Q288.404 135.821 289.242 136.931Q290.079 138.04 290.889 139.169Q291.699 140.298 292.481 141.447Q293.263 142.596 294.017 143.764Q294.77 144.932 295.495 146.118Q296.22 147.304 296.915 148.507C314.549 179.413 313.981 209.182 304.961 242.542Q356.665 243.247 408.36 242.096C395.162 225.393 392.704 206.569 391.309 185.949C390.898 179.886 390.86 173.439 388.729 167.676C387.237 163.641 385.009 161.011 382.094 157.949Q383.659 157.155 385.266 156.449C392.806 153.189 405.204 151.739 412.867 155.015C415.796 156.268 417.952 158.461 419.153 161.409C422.996 170.845 419.545 187.265 420.685 197.893C421.601 206.427 424.576 214.937 427.891 222.808C431.364 225.073 435.371 226.03 438.891 228.098C440.211 228.873 441.564 229.967 441.802 231.581C442.363 235.376 437.491 239.661 435.242 242.168C440.312 242.071 445.323 241.786 450.377 241.401Q452.897 238.921 455.651 236.703C462.596 231.096 471.51 227.786 480.496 228.902C489.82 230.06 497.006 235.308 502.732 242.501C510.968 242.746 519.254 243.042 527.483 242.563C539.557 234.178 548.575 222.463 552.858 208.436C548.976 206.903 545.583 204.89 542.167 202.513C537.876 204.19 533.283 205.368 528.836 203.514C523.539 201.305 520.976 196.084 518.963 191.074C515.151 191.445 511.291 191.152 508.079 188.855C504.157 186.052 503.183 181.451 502.464 176.994Q501.288 176.502 500.134 175.958C496.295 174.123 492.933 171.141 491.63 166.981C490.021 161.843 491.834 157.388 494.246 152.925C492.911 151.667 491.621 150.42 490.544 148.927C488.037 145.45 486.758 141.251 487.641 136.988C488.837 131.208 493.15 127.585 497.798 124.467C496.67 120.07 495.859 115.846 498.176 111.62C500.606 107.186 505.077 105.626 509.606 104.241C510.955 99.1549 512.586 93.5154 517.551 90.82C521.925 88.4459 526.964 89.3967 531.518 90.6332Z"/>
	<path fill="#FAD7C8" transform="scale(13.6803 13.6803)" d="M436.184 249.67C438.845 249.454 442.004 248.794 444.416 250.108C445.337 251.518 445.216 252.046 445.259 253.693C441.839 253.809 438.925 251.459 436.184 249.67Z"/>
	<path fill="#FEFEFE" transform="scale(13.6803 13.6803)" d="M423.72 226.992C427.631 228.474 430.36 231.29 434.593 232.481C431.085 238.053 428.406 240.973 421.954 242.712C417.127 240.766 414.109 237.199 410.823 233.357C415.517 231.614 419.676 229.987 423.72 226.992Z"/>
	<path fill="#FEFEFE" transform="scale(13.6803 13.6803)" d="M400.158 207.17C405.623 208.351 411.001 210.81 416.454 212.27C417.681 214.729 419.966 218.454 419.403 221.245C419.076 222.863 418.203 223.504 416.965 224.428C413.589 225.666 410.067 226.593 406.618 227.615C403.869 221.054 402.075 214.006 400.158 207.17Z"/>
	<path fill="#123880" transform="scale(13.6803 13.6803)" d="M824.424 304.247C836.888 303.876 849.427 304.103 861.898 304.06C860.104 305.734 858.182 307.29 856.315 308.883C855.236 309.655 854.142 310.469 852.991 311.13C847.905 314.052 841.435 314.42 835.837 313.019C831.86 312.024 826.812 309.849 824.696 306.201C824.12 305.209 824.1 305.459 824.424 304.247Z"/>
	<path fill="#FEFEFE" transform="scale(13.6803 13.6803)" d="M397.508 182.257C403.008 183.815 408.337 186.054 413.597 188.272C414.467 193.925 414.469 199.743 414.521 205.453C408.749 203.486 403.618 201.275 398.7 197.676Q398.063 189.97 397.508 182.257Z"/>
	<path fill="#FEFEFE" transform="scale(13.6803 13.6803)" d="M395.773 160.672C401.807 160.311 407.013 161.184 412.779 162.917C413.789 168.174 415.847 176.063 413.221 180.937C407.801 179.418 402.467 177.448 397.131 175.655C396.802 171.771 394.225 164.621 394.724 161.344L395.773 160.672Z"/>
	<path fill="#123880" transform="scale(13.6803 13.6803)" d="M820.294 275.021C827.053 274.929 859.388 273.647 863.392 275.932C864.172 276.377 864.577 276.741 864.829 277.595C865.454 279.717 864.084 281.562 863.101 283.353C857.188 283.65 823.85 284.43 820.386 282.914C819.486 282.52 818.608 281.391 818.416 280.442C817.972 278.249 819.126 276.74 820.294 275.021Z"/>
	<path fill="#123880" transform="scale(13.6803 13.6803)" d="M819.526 289.048C834.537 288.885 849.503 288.83 864.505 289.543C864.558 292.475 864.744 295.444 864.144 298.332Q848.247 299.052 832.333 299.013C830.26 298.994 821.394 299.317 820.394 297.968C818.889 295.938 819.456 291.497 819.526 289.048Z"/>
	<path fill="#4077C8" transform="scale(13.6803 13.6803)" d="M473.581 236.623C477.673 236.408 481.719 236.725 485.578 238.199C493.427 241.199 497.386 247.42 500.712 254.647C494.261 256.22 487.643 256.868 481.048 257.492Q466.717 257.714 452.51 255.815C453.55 252.894 454.898 249.957 456.564 247.337C460.751 240.755 466.249 238.25 473.581 236.623Z"/>
	<path fill="#4077C8" transform="scale(13.6803 13.6803)" d="M498.825 262.702C499.589 262.564 500.227 262.643 500.996 262.703C501.759 263.58 502.017 263.893 502.213 265.081C503.085 270.376 500.035 278.445 496.964 282.582C492.83 288.15 486.301 291.868 479.441 292.771C471.874 293.766 466.071 291.085 460.222 286.637C452.755 279.566 451.297 272.462 450.819 262.652C467.371 265.739 482.288 264.94 498.825 262.702Z"/>
	<path fill="#123880" transform="scale(13.6803 13.6803)" d="M542.04 87.4145C542.172 87.4221 542.304 87.4245 542.435 87.4372C548.31 88.0092 551.135 91.4853 554.734 95.7018C556.196 95.1194 557.663 94.5408 559.164 94.0659C562.007 93.1659 565.286 92.5187 568.025 94.1138C571.58 96.1846 572.541 100.405 573.502 104.079C576.22 103.659 578.876 103.389 581.626 103.334C584.182 103.282 587.727 102.952 589.675 104.836C590.795 106.828 589.77 109.862 589.818 112.076C590.001 120.449 597.662 118.925 601.571 122.331C603.696 126.195 601.592 133.175 600.655 137.255C602.298 138.571 603.897 140.025 605.24 141.65C606.771 143.502 607.836 145.942 607.572 148.383C607.025 153.431 601.85 157.074 598.163 159.981C599.605 163.606 601.147 167.865 600.655 171.815C600.196 175.493 598.239 177.617 595.4 179.783C593.228 180.02 590.756 180.119 588.695 180.86C584.183 182.481 586.039 190.005 584.203 193.656C583.568 194.918 582.625 195.782 581.261 196.195C576.522 197.632 570.675 194.582 566.55 192.481C564.786 194.811 563.032 197.163 560.808 199.083C558.813 200.806 556.509 201.968 553.837 201.8C548.85 199.845 546.433 196.624 543.435 192.406C540.492 195.254 535.822 199.78 531.508 199.839C527.912 197.962 527.688 191.893 525.699 188.42C521.854 181.706 517.932 186.557 512.715 184.607C507.119 182.514 510.269 175.988 508.89 172.223C506.628 169.589 503.611 169.352 500.386 168.675C498.685 166.96 497.491 165.042 496.215 163.012C498.332 159.985 501.984 155.145 501.768 151.257C501.569 147.671 498.686 146.955 496.381 144.891C494.827 143.499 494.15 141.919 494.071 139.842C493.852 134.072 500.765 132.24 503.976 128.617C507.607 124.522 503.774 121.185 503.606 116.743C503.542 115.045 504.226 113.66 505.355 112.444C508.224 109.354 511.971 109.472 515.866 109.364C516.193 105.909 516.288 102.007 517.977 98.9147C518.89 97.2445 520.169 95.9633 522.087 95.5345C526.215 94.6114 530.416 97.4895 533.817 99.4447C536.187 94.8552 537.982 90.8188 542.04 87.4145Z"/>
	<path fill="#020B4E" transform="scale(13.6803 13.6803)" d="M550.818 117.631Q551.854 117.554 552.893 117.561Q553.932 117.568 554.967 117.659Q556.002 117.751 557.026 117.925Q558.05 118.1 559.057 118.357Q560.063 118.614 561.046 118.952Q562.029 119.29 562.98 119.706Q563.932 120.122 564.848 120.614Q565.763 121.106 566.635 121.67C572.835 125.676 577.302 132.504 578.602 139.763Q578.73 140.454 578.823 141.151Q578.916 141.848 578.975 142.548Q579.034 143.248 579.059 143.951Q579.083 144.653 579.073 145.356Q579.063 146.059 579.019 146.76Q578.974 147.462 578.895 148.16Q578.816 148.859 578.703 149.552Q578.589 150.246 578.442 150.933Q578.295 151.621 578.114 152.3Q577.933 152.979 577.719 153.648Q577.505 154.318 577.258 154.976Q577.011 155.634 576.732 156.279Q576.453 156.925 576.143 157.555Q575.833 158.186 575.492 158.801Q575.151 159.415 574.78 160.013Q574.41 160.61 574.01 161.188C569.304 167.928 563.062 170.662 555.28 172.11C548.284 171.972 542.351 171.081 536.447 166.996C530.768 163.066 526.778 157.09 525.634 150.25C524.412 142.947 526.391 134.98 530.701 128.979C535.763 121.932 542.618 119.074 550.818 117.631Z"/>
	<path fill="#FEFEFE" transform="scale(13.6803 13.6803)" d="M549.949 125.056C553.914 124.854 557.712 125.298 561.284 127.129C565.732 129.409 568.981 133.519 570.504 138.249C572.19 143.483 571.86 149.304 569.325 154.211C566.281 160.102 561.365 162.563 555.347 164.479C550.88 164.97 546.761 164.643 542.71 162.546Q542.286 162.321 541.873 162.075Q541.461 161.829 541.062 161.563Q540.662 161.296 540.276 161.01Q539.891 160.724 539.521 160.418Q539.15 160.113 538.795 159.789Q538.441 159.465 538.103 159.124Q537.765 158.783 537.445 158.425Q537.125 158.067 536.823 157.694Q536.521 157.32 536.239 156.932Q535.957 156.543 535.694 156.141Q535.432 155.739 535.19 155.324Q534.948 154.91 534.727 154.483Q534.507 154.056 534.308 153.619Q534.109 153.182 533.933 152.736Q533.757 152.289 533.603 151.834Q533.449 151.379 533.319 150.917Q533.183 150.434 533.072 149.944Q532.961 149.454 532.874 148.96Q532.788 148.465 532.727 147.967Q532.665 147.469 532.629 146.968Q532.593 146.467 532.582 145.965Q532.571 145.463 532.585 144.961Q532.6 144.459 532.639 143.959Q532.679 143.458 532.744 142.96Q532.808 142.463 532.898 141.969Q532.988 141.475 533.103 140.986Q533.217 140.497 533.356 140.014Q533.495 139.532 533.658 139.057Q533.822 138.582 534.008 138.116Q534.195 137.65 534.405 137.194Q534.615 136.738 534.848 136.293Q535.081 135.849 535.336 135.416C538.62 129.745 543.802 126.741 549.949 125.056Z"/>
	<path fill="#FAD7C8" transform="scale(13.6803 13.6803)" d="M372.823 734.259C371.836 739.761 372.643 746.456 372.696 752.086L372.75 784.52L372.527 847.643C372.493 858.794 371.845 870.432 372.874 881.519C373.359 886.75 374.786 892.204 377.763 896.594C381.621 902.285 388.082 906 394.766 907.208C405.555 909.158 417.627 907.943 428.565 907.617C435.166 907.42 441.806 907.512 448.409 907.657Q486.063 908.315 523.722 908.014L621.293 908.106C640.705 908.096 660.218 907.606 679.617 908.078C679.074 911.194 678.215 914.15 676.788 916.976C673.293 923.898 666.825 929.366 659.332 931.504C650.456 934.036 617.394 932.718 606.303 932.622L552.325 932.553L431.265 932.452C411.842 932.439 392.116 933.279 372.731 932.477C368.29 932.294 364.109 931.152 360.237 928.954C353.8 925.3 348.589 918.98 346.778 911.76C343.896 900.271 345.785 883.38 345.891 871.251L346.026 816.309C346.056 799.442 344.528 782.003 345.986 765.228C346.472 759.633 347.715 754.254 350.586 749.375C355.506 741.016 363.675 736.573 372.823 734.259Z"/>
	<path fill="#F86858" transform="scale(13.6803 13.6803)" d="M347.059 302.391Q349.346 308.861 350.857 315.556Q352.368 322.25 353.081 329.076C353.475 332.817 353.091 337.75 354.06 341.316C354.414 342.62 354.764 342.816 355.823 343.466C361.155 343.15 372.347 330.871 375.869 326.884C381.401 320.621 386.042 313.854 390.443 306.767C390.553 315.222 390.845 323.71 390.015 332.139Q389.724 334.906 389.319 337.659Q388.913 340.411 388.394 343.145Q387.874 345.878 387.242 348.587Q386.609 351.297 385.864 353.978Q385.12 356.658 384.265 359.306Q383.409 361.953 382.445 364.563Q381.48 367.173 380.408 369.74Q379.336 372.308 378.158 374.828Q376.98 377.349 375.699 379.819Q374.417 382.288 373.034 384.702Q371.651 387.117 370.169 389.471Q368.687 391.826 367.108 394.117Q365.53 396.408 363.857 398.632Q362.185 400.855 360.422 403.007Q358.658 405.16 356.807 407.237Q354.956 409.314 353.02 411.312Q351.885 412.469 350.722 413.597Q349.558 414.725 348.367 415.824Q347.177 416.923 345.959 417.992Q344.741 419.062 343.497 420.1Q342.254 421.139 340.984 422.147Q339.715 423.154 338.422 424.13Q337.128 425.106 335.811 426.05Q334.493 426.994 333.153 427.905Q331.812 428.815 330.45 429.693Q329.087 430.57 327.704 431.413Q326.32 432.256 324.916 433.065Q323.511 433.874 322.087 434.648Q320.664 435.422 319.221 436.16Q317.779 436.898 316.318 437.601Q314.858 438.303 313.38 438.969Q311.903 439.635 310.41 440.265Q308.916 440.894 307.408 441.486Q305.899 442.078 304.377 442.633Q302.854 443.187 301.318 443.704Q299.782 444.221 298.234 444.699Q296.686 445.178 295.126 445.618Q293.567 446.058 291.997 446.46Q290.427 446.861 288.847 447.223Q287.268 447.586 285.68 447.909Q284.092 448.232 282.496 448.516Q280.901 448.8 279.299 449.044Q277.697 449.288 276.089 449.493Q274.482 449.697 272.869 449.862Q271.257 450.026 269.642 450.151Q268.026 450.276 266.408 450.361Q264.789 450.445 263.169 450.49Q261.549 450.534 259.929 450.539C238.167 450.784 216.21 448.864 194.493 450.448L194.501 427.922Q174.344 427.647 154.188 427.985C148.06 428.112 141.683 428.797 135.582 428.561C134.172 428.506 132.708 428.386 131.384 427.857C129.825 427.235 129.123 426.325 128.508 424.771C128.547 423.496 128.751 422.764 129.677 421.824C131.104 420.374 133.304 420.296 135.21 420.134C141.616 419.593 148.301 420.38 154.747 420.451L194.863 420.51C195.042 413.186 194.814 405.832 194.784 398.505C184.355 398.715 136.056 400.484 130.456 397.197C129.537 396.657 129.29 396.497 129.041 395.497C129.286 394.823 129.516 394.239 130.035 393.721C131.56 392.199 133.959 391.333 136.062 391.083C141.019 390.492 146.924 391.473 152 391.505L194.488 391.513C194.591 384.384 194.517 377.244 194.526 370.113C229.677 369.844 261.729 373.633 294.607 357.646Q299.006 355.506 303.208 353.003Q307.411 350.499 311.387 347.65Q315.363 344.801 319.085 341.626Q322.807 338.451 326.247 334.974C335.808 325.343 342.213 315.005 347.059 302.391Z"/>
	<path fill="#020B4E" transform="scale(13.6803 13.6803)" d="M194.784 398.505C184.355 398.715 136.056 400.484 130.456 397.197C129.537 396.657 129.29 396.497 129.041 395.497C129.286 394.823 129.516 394.239 130.035 393.721C131.56 392.199 133.959 391.333 136.062 391.083C141.019 390.492 146.924 391.473 152 391.505L194.488 391.513L254.998 391.476C263.475 391.469 273.718 390.545 281.952 391.547C283.706 391.761 286.153 392.616 287.341 394.006C287.787 394.529 287.784 394.628 288.002 395.182C287.462 396.456 286.938 396.847 285.655 397.404C283.378 398.395 280.507 398.79 278.031 398.909C269.249 399.332 260.297 398.604 251.49 398.572L194.784 398.505Z"/>
	<path fill="#020B4E" transform="scale(13.6803 13.6803)" d="M194.501 427.922Q174.344 427.647 154.188 427.985C148.06 428.112 141.683 428.797 135.582 428.561C134.172 428.506 132.708 428.386 131.384 427.857C129.825 427.235 129.123 426.325 128.508 424.771C128.547 423.496 128.751 422.764 129.677 421.824C131.104 420.374 133.304 420.296 135.21 420.134C141.616 419.593 148.301 420.38 154.747 420.451L194.863 420.51L251.361 420.583C260.896 420.557 271.541 419.569 280.965 420.769C283.194 421.053 285.083 421.377 286.723 422.988C287.069 424.163 287.13 424.632 286.716 425.792C284.805 427.986 282.308 428.324 279.517 428.509C269.884 429.147 259.829 428.217 250.157 428.112L194.501 427.922Z"/>
	<path fill="#F86858" transform="scale(13.6803 13.6803)" d="M838.898 96.5233C840.619 96.4348 842.28 96.5197 843.991 96.7396C864.401 99.3636 852.212 120.757 864.12 135.666C867.134 139.438 871.265 142.481 875.598 144.587C895.118 154.073 904.084 137.296 918.447 139.403C922.456 139.991 925.419 142.447 927.641 145.727C936.983 159.513 921.862 166.299 914.083 174.968C910.412 179.059 907.8 183.892 906.714 189.305C902.629 209.674 918.752 215.051 927.821 229.394C929.962 232.78 931.066 236.601 930.04 240.562C929.094 244.217 926.563 248.127 923.213 249.995C912.152 256.161 901.052 243.138 890.759 240.607Q890.231 240.478 889.698 240.376Q889.165 240.274 888.627 240.198Q888.089 240.122 887.548 240.073Q887.008 240.025 886.465 240.003Q885.922 239.981 885.379 239.986Q884.836 239.991 884.294 240.023Q883.752 240.056 883.212 240.115Q882.672 240.174 882.136 240.26Q881.6 240.346 881.069 240.458Q880.538 240.571 880.013 240.71Q879.488 240.848 878.97 241.013Q878.453 241.178 877.944 241.368Q877.435 241.558 876.937 241.774Q876.438 241.989 875.951 242.229Q875.464 242.469 874.99 242.733Q874.515 242.997 874.054 243.284C864.837 249.036 861.688 258.506 859.276 268.506L847.375 268.503L824.173 268.583C823.731 264.835 822.932 261.136 821.47 257.647C818.539 250.653 813.244 244.502 806.061 241.7C790.666 235.696 786.981 245.467 775.916 250.259C772.408 251.778 768.431 252.167 764.871 250.577C761.338 248.998 757.901 245.109 756.535 241.519C751.776 229.009 773.758 216.779 778.641 205.86C780.578 201.529 781.305 196.722 781.037 192.002C779.883 171.679 762.839 171.72 757.812 157.542C756.22 153.051 757.158 148.157 759.331 144.02C766.273 130.805 782.648 144.175 792.366 146.121C796.74 146.996 800.972 146.733 805.198 145.283C809.625 143.765 813.496 141.208 816.802 137.913C829.11 125.648 821.736 116.084 827.703 104.742C830.193 100.01 834.084 98.1492 838.898 96.5233Z"/>
	<path fill="#020B4E" transform="scale(13.6803 13.6803)" d="M837.775 169.641C842.743 169.491 847.422 170.332 851.819 172.779C857.86 176.14 862.053 182.093 863.691 188.761Q863.843 189.369 863.964 189.983Q864.085 190.598 864.175 191.218Q864.266 191.837 864.325 192.461Q864.385 193.084 864.413 193.71Q864.442 194.336 864.439 194.962Q864.436 195.589 864.402 196.214Q864.368 196.839 864.303 197.462Q864.238 198.085 864.142 198.704Q864.046 199.323 863.919 199.937Q863.792 200.55 863.635 201.157Q863.478 201.763 863.291 202.361Q863.104 202.958 862.888 203.546Q862.671 204.134 862.425 204.71Q862.18 205.286 861.906 205.85Q861.632 206.413 861.33 206.962Q861.029 207.511 860.7 208.044C856.097 215.556 849.199 218.547 841.017 220.501C834.82 220.535 828.611 218.99 823.457 215.46Q822.967 215.128 822.493 214.772Q822.02 214.416 821.565 214.037Q821.11 213.658 820.674 213.257Q820.239 212.856 819.823 212.434Q819.408 212.012 819.014 211.569Q818.62 211.127 818.248 210.666Q817.877 210.205 817.528 209.726Q817.18 209.247 816.856 208.752Q816.531 208.256 816.232 207.745Q815.933 207.234 815.659 206.709Q815.385 206.184 815.138 205.646Q814.891 205.108 814.67 204.558Q814.45 204.009 814.257 203.449Q814.064 202.889 813.899 202.32Q813.733 201.752 813.597 201.175Q813.46 200.599 813.352 200.017Q813.244 199.392 813.166 198.763Q813.088 198.134 813.041 197.502Q812.994 196.87 812.978 196.236Q812.961 195.602 812.976 194.968Q812.991 194.334 813.037 193.702Q813.083 193.07 813.159 192.44Q813.236 191.811 813.343 191.186Q813.45 190.561 813.588 189.943Q813.725 189.324 813.893 188.712Q814.06 188.101 814.258 187.498Q814.455 186.896 814.681 186.304Q814.908 185.712 815.163 185.131Q815.418 184.551 815.701 183.984Q815.984 183.416 816.295 182.863Q816.605 182.311 816.942 181.774Q817.279 181.237 817.642 180.717C822.619 173.592 829.636 171.03 837.775 169.641Z"/>
	<path fill="#4077C8" transform="scale(13.6803 13.6803)" d="M836.974 175.578C840.642 175.567 844.126 175.964 847.477 177.558Q847.912 177.766 848.337 177.995Q848.761 178.225 849.174 178.475Q849.586 178.726 849.985 178.997Q850.384 179.268 850.769 179.559Q851.154 179.85 851.523 180.16Q851.893 180.47 852.247 180.798Q852.6 181.126 852.937 181.472Q853.273 181.818 853.592 182.18Q853.91 182.542 854.21 182.92Q854.51 183.298 854.791 183.691Q855.071 184.083 855.331 184.49Q855.591 184.896 855.831 185.315Q856.07 185.734 856.288 186.164Q856.506 186.594 856.702 187.035Q856.898 187.476 857.071 187.926Q857.245 188.377 857.395 188.835Q857.557 189.297 857.695 189.767Q857.832 190.238 857.946 190.714Q858.059 191.191 858.147 191.673Q858.236 192.154 858.299 192.64Q858.363 193.126 858.401 193.614Q858.439 194.103 858.452 194.592Q858.465 195.082 858.453 195.572Q858.44 196.061 858.403 196.55Q858.365 197.038 858.302 197.524Q858.24 198.01 858.152 198.492Q858.064 198.974 857.951 199.45Q857.839 199.927 857.701 200.397Q857.564 200.868 857.403 201.33Q857.242 201.793 857.057 202.246Q856.872 202.7 856.664 203.143Q856.456 203.587 856.225 204.019C853 210.052 847.488 212.578 841.238 214.341C837.602 214.117 834.192 213.734 830.844 212.194C826.021 209.976 822.165 205.956 820.425 200.911Q820.27 200.454 820.138 199.99Q820.007 199.526 819.9 199.056Q819.792 198.585 819.71 198.11Q819.627 197.635 819.568 197.156Q819.51 196.677 819.477 196.196Q819.443 195.715 819.434 195.232Q819.426 194.75 819.442 194.268Q819.458 193.786 819.499 193.305Q819.54 192.824 819.606 192.347Q819.672 191.869 819.762 191.395Q819.852 190.921 819.967 190.452Q820.081 189.984 820.22 189.522Q820.358 189.06 820.521 188.605Q820.683 188.151 820.868 187.706Q821.054 187.26 821.262 186.825Q821.47 186.39 821.7 185.966C825.001 179.834 830.623 177.357 836.974 175.578Z"/>
	<path fill="#FEFEFE" transform="scale(13.6803 13.6803)" d="M544.303 335.733Q563.873 335.605 583.443 335.805L583.189 392.028Q576.341 391.78 569.491 391.616C558.062 391.398 545.006 392.374 536.43 400.908C526.283 411.004 527.362 425.693 527.411 438.846L527.504 460.889C546.857 460.667 566.138 460.501 585.487 461.071L585.476 516.916Q556.73 516.979 527.987 516.598C527.015 586.597 528.22 656.587 527.833 726.587L506.462 726.803L469.995 727.026Q469.517 687.39 469.923 647.754L470.032 516.614Q439.511 516.984 408.991 516.589L408.85 460.917C429.189 459.881 449.612 461.772 469.948 460.42L469.957 427.908C469.993 402.313 471.354 382.845 488.888 362.477C503.307 345.727 522.5 337.375 544.303 335.733Z"/>
	<path fill="#FEFEFE" transform="scale(13.6803 13.6803)" d="M188.517 100.294L188.959 100.245C216.638 97.3795 244.599 106.849 265.967 124.399C287.235 141.866 300.486 168.167 303.033 195.469C305.621 223.212 295.725 251.2 278.054 272.48C260.507 293.61 234.425 305.531 207.378 308.121L206.677 308.211C180.197 311.41 152.324 301.142 131.862 284.701C109.945 267.092 95.8318 242.459 92.8632 214.412C89.9176 186.582 98.1168 159.903 115.687 138.192C133.649 115.995 160.357 103.198 188.517 100.294Z"/>
	<path fill="#123880" transform="scale(13.6803 13.6803)" d="M190.206 119.183C211.459 116.802 233.756 123.316 250.699 136.229Q251.518 136.866 252.322 137.524Q253.125 138.181 253.913 138.858Q254.7 139.534 255.47 140.23Q256.24 140.926 256.994 141.64Q257.747 142.355 258.482 143.088Q259.217 143.82 259.935 144.571Q260.652 145.321 261.35 146.089Q262.049 146.857 262.729 147.641Q263.408 148.426 264.069 149.227Q264.729 150.028 265.369 150.845Q266.01 151.662 266.63 152.495Q267.25 153.327 267.85 154.174Q268.449 155.022 269.028 155.884Q269.607 156.745 270.164 157.621Q270.722 158.497 271.258 159.386Q271.793 160.275 272.307 161.177Q272.821 162.079 273.313 162.993Q273.805 163.907 274.274 164.833Q274.743 165.759 275.189 166.697Q275.635 167.634 276.059 168.582Q276.482 169.529 276.882 170.487Q277.282 171.445 277.658 172.413Q278.035 173.38 278.387 174.357Q278.74 175.333 279.068 176.318Q279.397 177.302 279.701 178.295Q280.005 179.287 280.285 180.287Q280.565 181.287 280.821 182.293Q281.076 183.299 281.307 184.311Q281.537 185.323 281.743 186.341Q281.949 187.358 282.13 188.38Q282.311 189.403 282.467 190.429Q282.622 191.455 282.753 192.485Q282.898 193.529 283.016 194.576Q283.135 195.623 283.228 196.672Q283.321 197.722 283.388 198.774Q283.455 199.825 283.496 200.878Q283.537 201.931 283.552 202.985Q283.567 204.038 283.556 205.092Q283.544 206.146 283.507 207.199Q283.47 208.252 283.407 209.303Q283.344 210.355 283.255 211.405Q283.166 212.455 283.051 213.503Q282.936 214.55 282.795 215.594Q282.654 216.639 282.488 217.679Q282.321 218.72 282.129 219.756Q281.937 220.792 281.719 221.823Q281.502 222.854 281.259 223.879Q281.015 224.904 280.747 225.923Q280.479 226.942 280.185 227.954Q279.892 228.966 279.574 229.971Q279.255 230.975 278.912 231.971Q278.569 232.968 278.202 233.955Q277.834 234.943 277.442 235.921Q277.05 236.899 276.635 237.867Q276.219 238.836 275.779 239.793Q275.339 240.751 274.876 241.697Q274.413 242.644 273.927 243.579Q273.44 244.513 272.931 245.436Q272.422 246.358 271.89 247.268Q271.358 248.177 270.803 249.074Q270.249 249.97 269.673 250.852Q269.097 251.734 268.499 252.602Q267.901 253.469 267.282 254.322Q266.663 255.175 266.023 256.012C250.662 275.827 230.169 285.34 205.748 288.446C184.555 289.777 163.657 284.211 146.6 271.372C128.24 257.552 115.24 236.902 112.132 213.988Q111.996 212.983 111.885 211.976Q111.773 210.968 111.687 209.958Q111.6 208.948 111.538 207.936Q111.476 206.924 111.439 205.911Q111.402 204.898 111.39 203.884Q111.377 202.871 111.39 201.857Q111.402 200.843 111.439 199.83Q111.476 198.817 111.538 197.805Q111.6 196.794 111.687 195.783Q111.773 194.773 111.885 193.766Q111.996 192.758 112.132 191.754Q112.268 190.749 112.428 189.748Q112.589 188.747 112.774 187.75Q112.959 186.753 113.168 185.762Q113.377 184.77 113.61 183.783Q113.844 182.796 114.101 181.816Q114.358 180.835 114.64 179.861Q114.921 178.888 115.226 177.921Q115.531 176.954 115.86 175.995Q116.188 175.036 116.54 174.085Q116.892 173.134 117.267 172.193Q117.642 171.251 118.04 170.318Q118.438 169.386 118.859 168.464Q119.279 167.541 119.722 166.629Q120.165 165.718 120.631 164.817Q121.096 163.916 121.583 163.027Q122.07 162.138 122.579 161.261Q123.087 160.384 123.617 159.52Q124.147 158.656 124.698 157.805Q125.249 156.954 125.821 156.117Q126.392 155.279 126.984 154.456Q127.576 153.633 128.188 152.825C143.806 132.521 165.15 122.381 190.206 119.183Z"/>
	<path fill="#FEFEFE" transform="scale(13.6803 13.6803)" d="M173.574 163.023C175.025 162.952 176.539 162.88 177.967 163.202C185.668 164.94 231.61 191.331 240.043 197.263C241.729 198.449 243.351 199.661 244.409 201.474C246.035 204.26 246.728 208.098 245.742 211.215C243.256 219.073 223.342 228.069 216.302 231.775C208.29 236.246 200.399 240.946 192.443 245.518C186.785 248.768 179.018 253.732 172.224 251.647C169.084 250.684 166.542 247.952 165.153 245.032C162.287 239.01 162.931 176.257 165.485 169.818C166.867 166.334 170.391 164.532 173.574 163.023Z"/>
	<path fill="#FDC33D" transform="scale(13.6803 13.6803)" d="M641.016 466.552L772.614 466.665C807.497 466.472 842.662 465.52 877.519 466.786L877.477 647.599L829.243 647.906C823.162 647.53 817.354 647.36 811.329 648.4C808.168 663.224 809.615 680.039 809.872 695.122C794.48 679.94 780.803 662.77 765.082 648.018C749.144 647.658 733.131 647.996 717.186 648.042L640.994 647.942L641.016 466.552Z"/>
	<path fill="#020B4E" transform="scale(13.6803 13.6803)" d="M676.863 571.717C682.446 571.429 688.14 571.836 693.737 571.884C702.283 571.958 710.844 571.823 719.392 571.78C730.127 571.725 741.522 570.529 752.152 571.571C754.472 571.798 756.288 572.483 758.054 573.991C758.632 575.356 758.663 575.304 758.193 576.702C755.726 579.097 753.002 578.805 749.771 578.967L696.715 578.927C689.164 578.952 680.408 579.757 673.026 579.233C670.787 579.074 668.881 578.396 667.379 576.714C667.152 575.581 667.029 575.096 667.85 574.101C669.922 571.588 673.93 571.856 676.863 571.717Z"/>
	<path fill="#020B4E" transform="scale(13.6803 13.6803)" d="M677.038 491.763C697.575 491.208 718.261 491.459 738.804 491.735C747.369 491.85 756.476 491.274 764.967 492.08C767.9 492.359 770.478 492.998 772.415 495.313C772.487 496.217 772.733 496.427 771.991 497.167C769.591 499.562 765.477 499.217 762.375 499.255C750.749 499.527 673.614 500.296 669.112 498.397C668.098 497.969 667.553 497.211 667.303 496.128C667.009 494.856 667.402 493.908 668.09 492.887C670.482 491.213 674.214 491.744 677.038 491.763Z"/>
	<path fill="#020B4E" transform="scale(13.6803 13.6803)" d="M779.831 545.256C784.957 545.031 792.339 544.428 797.04 546.766C798.302 547.394 798.596 547.793 799.015 549.106C798.725 550.044 798.357 550.644 797.673 551.338C796.86 552.164 796.087 552.732 794.917 552.901C787.674 553.951 772.069 553.075 764.1 553.06C738.281 553.011 712.385 552.462 686.578 553.274C682.988 553.288 679.231 553.472 675.665 553.088C672.444 552.743 668.866 551.966 666.784 549.307C666.837 548.743 666.712 548.141 667.181 547.752C668.819 546.392 671.784 545.992 673.837 545.8C684.147 544.837 695.102 545.448 705.488 545.43C730.252 545.387 755.079 545.931 779.831 545.256Z"/>
	<path fill="#020B4E" transform="scale(13.6803 13.6803)" d="M670.113 615.151C709.231 614.748 748.368 615.081 787.487 615.116L826.194 614.96C832.689 614.923 839.367 614.584 845.844 614.943C848 615.062 851.967 615.369 853.592 616.991C854.529 617.924 854.511 618.418 854.421 619.606C853.661 620.854 853.033 621.558 851.91 622.493L729.272 622.37C711.452 622.346 693.283 623.426 675.5 622.536C673.427 622.432 669.788 622.412 668.297 620.776Q668.159 620.626 668.04 620.461Q667.922 620.296 667.824 620.117Q667.726 619.938 667.651 619.749Q667.575 619.56 667.523 619.363Q667.471 619.167 667.444 618.965Q667.416 618.763 667.413 618.56Q667.41 618.356 667.431 618.154Q667.453 617.951 667.499 617.753C667.818 616.315 668.997 615.861 670.113 615.151Z"/>
	<path fill="#020B4E" transform="scale(13.6803 13.6803)" d="M676.529 518.238C687.794 517.803 699.156 518.099 710.433 518.096Q749.132 518.074 787.829 518.48L828.26 518.618C835.419 518.66 843.575 518.006 850.586 519.385C852.471 519.755 854.104 520.237 855.179 521.922C855.098 523.052 854.918 523.5 854.117 524.32C851.548 526.949 847.847 526.507 844.476 526.5C829.181 525.774 813.791 526.018 798.481 525.997C766.045 525.955 733.54 526.376 701.116 525.69C692.368 525.505 683.299 526.652 674.616 525.97C672.161 525.777 669.221 525.32 667.239 523.722C666.375 523.025 666.378 522.998 666.218 521.854C666.851 520.742 667.663 520.256 668.747 519.643C668.956 519.524 669.17 519.413 669.38 519.296C671.63 518.043 674.027 518.245 676.529 518.238Z"/>
	<path fill="#FEFEFE" transform="scale(13.6803 13.6803)" d="M372.823 734.259C385.431 731.957 399.1 733.708 411.877 733.865C431.171 734.103 450.486 733.978 469.782 733.982L594.04 733.911L632.989 733.843C640.029 733.812 647.123 733.459 654.155 733.81C659.779 734.09 664.848 734.918 669.648 738.142C675.366 741.983 678.106 746.902 679.254 753.512C681.247 764.983 679.948 785.893 679.879 798.262Q679.647 835.74 679.883 873.219C679.883 884.762 679.131 896.566 679.617 908.078C660.218 907.606 640.705 908.096 621.293 908.106L523.722 908.014Q486.063 908.315 448.409 907.657C441.806 907.512 435.166 907.42 428.565 907.617C417.627 907.943 405.555 909.158 394.766 907.208C388.082 906 381.621 902.285 377.763 896.594C374.786 892.204 373.359 886.75 372.874 881.519C371.845 870.432 372.493 858.794 372.527 847.643L372.75 784.52L372.696 752.086C372.643 746.456 371.836 739.761 372.823 734.259Z"/>
	<path fill="#020B4E" transform="scale(13.6803 13.6803)" d="M574.61 864.889C576.408 865.031 577.712 865.198 579.214 866.297C579.842 867.448 580.074 867.787 579.832 869.149C579.38 871.695 576.482 873.797 574.575 875.201C573.418 874.999 571.638 874.713 570.691 873.982C569.577 873.123 569.571 872.628 569.342 871.335C570.319 868.285 572.188 866.839 574.61 864.889Z"/>
	<path fill="#020B4E" transform="scale(13.6803 13.6803)" d="M559.551 843.552C560.697 843.485 562.38 843.319 563.501 843.683C564.927 844.147 565.538 844.841 566.346 846.046C566.427 846.923 566.625 847.443 566.229 848.268C565.276 850.259 563.542 850.715 561.605 851.411C560.561 851.667 559.419 852.007 558.336 851.882C557.126 851.741 556.206 851.127 555.54 850.133C554.934 849.229 554.904 847.971 555.285 846.963C556.052 844.934 557.696 844.294 559.551 843.552Z"/>
	<path fill="#020B4E" transform="scale(13.6803 13.6803)" d="M557.683 820.406C561.503 820.665 564.355 822.149 567.697 823.859C566.971 825.818 566.091 827.723 565.253 829.636C562.888 829.589 559.731 829.102 557.694 827.822C556.588 827.127 555.858 826.122 555.721 824.796C555.548 823.133 556.789 821.691 557.683 820.406Z"/>
	<path fill="#020B4E" transform="scale(13.6803 13.6803)" d="M623.789 862.435C626.079 863.5 628.555 865.052 630.014 867.163C630.938 868.5 630.941 869.476 630.676 871.024C629.694 872.442 628.78 872.975 627.265 873.767C623.854 871.781 621.246 869.333 618.614 866.434L623.789 862.435Z"/>
	<path fill="#020B4E" transform="scale(13.6803 13.6803)" d="M633.366 843.214C636.202 843.472 639.194 843.77 641.682 845.285C642.594 845.841 643.351 846.651 643.576 847.715C643.996 849.694 643.035 851.032 641.963 852.564C638.122 852.432 635.088 851.192 631.677 849.586C632.123 847.389 632.545 845.312 633.366 843.214Z"/>
	<path fill="#020B4E" transform="scale(13.6803 13.6803)" d="M625.506 801.957C627.176 802.099 628.333 802.309 629.849 803.039C630.518 803.891 630.982 804.303 630.793 805.485C630.321 808.447 626.953 811.002 624.81 812.844C623.389 813.056 621.569 812.481 620.343 811.8C619.744 810.654 619.413 809.985 619.749 808.672C620.58 805.427 622.92 803.786 625.506 801.957Z"/>
	<path fill="#020B4E" transform="scale(13.6803 13.6803)" d="M573.132 799.307C573.644 799.411 573.667 799.406 574.284 799.599C577.973 800.755 579.876 805.524 581.45 808.689C580.323 809.559 578.99 810.257 577.767 810.993L576.788 811.38C575.045 810.971 573.808 810.162 572.633 808.793C571.27 807.205 570.139 804.72 570.497 802.584C570.773 800.943 571.893 800.219 573.132 799.307Z"/>
	<path fill="#020B4E" transform="scale(13.6803 13.6803)" d="M597.043 873.151L604.415 872.968C604.92 877.011 605.018 880.52 604.137 884.522C603.301 884.655 602.336 884.868 601.492 884.831C600.229 884.775 599.068 884.259 598.264 883.259C596.234 880.733 596.931 876.165 597.043 873.151Z"/>
	<path fill="#020B4E" transform="scale(13.6803 13.6803)" d="M638.271 820.548C639.858 820.575 641.035 821.184 642.325 822.056C642.715 823.212 642.94 823.984 642.428 825.167C640.999 828.467 638.513 829.31 635.39 830.415C634.045 830.422 633.907 830.366 632.77 829.64C631.436 827.522 631.32 824.932 630.965 822.495L638.271 820.548Z"/>
	<path fill="#020B4E" transform="scale(13.6803 13.6803)" d="M600.304 790.227C601.054 790.44 602.033 790.722 602.667 791.203C604.373 792.5 605.269 794.757 605.441 796.842C605.69 799.888 604.868 802.242 602.845 804.474L602.643 804.438C601.448 804.237 599.96 804.122 598.971 803.365C597.973 802.602 597.286 801.229 597.049 800.011C596.361 796.483 598.304 792.951 600.304 790.227Z"/>
	<path fill="#020B4E" transform="scale(13.6803 13.6803)" d="M470.093 769.653C480.905 768.705 492.402 769.464 503.276 769.499L564.824 769.524L623.533 769.523C635.721 769.518 649.066 768.508 661.065 770.735L660.794 771.005C653.438 772.49 475.611 772.746 472.26 771.82C470.913 771.448 470.669 770.837 470.093 769.653Z"/>
	<path fill="#020B4E" transform="scale(13.6803 13.6803)" d="M491.019 883.246C495.538 882.965 511.979 882.24 515.435 884.191C516.511 884.798 517.418 885.702 517.585 886.991C517.731 888.126 517.315 889.265 516.416 889.976C515.402 890.778 513.728 891.045 512.478 891.127C509.989 891.292 507.441 890.981 504.946 890.965L484.715 890.946Q452.174 890.705 419.635 891.095C415.347 891.205 398.211 892.066 395.231 890.585C393.612 889.78 392.957 888.484 392.417 886.849C392.602 886.048 392.532 885.729 393.188 885.144C394.709 883.786 396.792 883.51 398.753 883.326C407.613 882.496 417.3 883.439 426.25 883.448Q458.635 883.612 491.019 883.246Z"/>
	<path fill="#F86858" transform="scale(13.6803 13.6803)" d="M417.499 754.145C423.661 753.886 429.509 754.761 434.87 758.058Q435.391 758.379 435.896 758.726Q436.4 759.072 436.887 759.443Q437.374 759.814 437.842 760.208Q438.311 760.602 438.759 761.019Q439.207 761.436 439.634 761.875Q440.061 762.313 440.466 762.772Q440.871 763.231 441.253 763.71Q441.635 764.188 441.992 764.685Q442.35 765.181 442.683 765.695Q443.016 766.208 443.323 766.738Q443.631 767.267 443.911 767.811Q444.192 768.355 444.446 768.912Q444.699 769.469 444.925 770.038Q445.151 770.607 445.349 771.186Q445.547 771.765 445.715 772.354Q445.884 772.942 446.024 773.538Q446.173 774.17 446.291 774.808Q446.409 775.446 446.495 776.089Q446.582 776.732 446.636 777.379Q446.691 778.025 446.715 778.674Q446.738 779.322 446.729 779.971Q446.721 780.62 446.68 781.268Q446.64 781.915 446.568 782.56Q446.496 783.205 446.393 783.846Q446.289 784.486 446.155 785.121Q446.02 785.756 445.854 786.383Q445.689 787.011 445.493 787.629Q445.297 788.248 445.071 788.856Q444.845 789.465 444.589 790.061Q444.333 790.657 444.049 791.241Q443.764 791.824 443.452 792.393Q443.139 792.961 442.799 793.514C438.407 800.561 432.027 803.637 424.26 805.496C417.356 805.75 411.293 805.292 405.38 801.234Q404.848 800.866 404.336 800.472Q403.823 800.078 403.33 799.66Q402.837 799.241 402.365 798.799Q401.893 798.357 401.444 797.892Q400.994 797.427 400.568 796.94Q400.142 796.454 399.741 795.947Q399.339 795.44 398.963 794.914Q398.586 794.388 398.236 793.845Q397.887 793.301 397.564 792.741Q397.241 792.18 396.946 791.605Q396.651 791.029 396.385 790.44Q396.119 789.851 395.882 789.249Q395.645 788.647 395.437 788.035Q395.23 787.422 395.054 786.8Q394.877 786.178 394.731 785.548Q394.585 784.918 394.47 784.282Q394.355 783.649 394.272 783.011Q394.19 782.373 394.139 781.732Q394.089 781.09 394.07 780.447Q394.052 779.804 394.067 779.161Q394.081 778.518 394.128 777.876Q394.175 777.234 394.254 776.596Q394.333 775.957 394.445 775.324Q394.556 774.69 394.699 774.063Q394.842 773.436 395.017 772.816Q395.191 772.197 395.397 771.588Q395.602 770.978 395.838 770.38Q396.075 769.781 396.341 769.195Q396.607 768.609 396.902 768.038Q397.197 767.466 397.521 766.91Q397.844 766.354 398.196 765.815Q398.547 765.276 398.925 764.756C403.451 758.557 410.081 755.25 417.499 754.145Z"/>
	<path fill="#020B4E" transform="scale(13.6803 13.6803)" d="M594.909 806.593C601.665 806.12 608.433 807.306 614.388 810.602C621.589 814.587 627 821.971 629.252 829.823C631.594 837.994 630.274 846.849 626.15 854.232C621.395 862.742 614.086 866.812 604.984 869.432C597.264 869.959 590.576 869.715 583.713 865.715Q583.06 865.33 582.426 864.913Q581.793 864.496 581.18 864.049Q580.568 863.602 579.978 863.125Q579.389 862.648 578.823 862.142Q578.258 861.637 577.718 861.104Q577.178 860.572 576.665 860.013Q576.152 859.455 575.667 858.872Q575.182 858.289 574.726 857.683Q574.27 857.077 573.845 856.449Q573.419 855.821 573.025 855.173Q572.631 854.525 572.27 853.859Q571.908 853.192 571.579 852.508Q571.251 851.825 570.956 851.126Q570.662 850.427 570.402 849.715Q570.142 849.002 569.918 848.278Q569.694 847.554 569.505 846.819Q569.298 846.024 569.13 845.22Q568.962 844.416 568.834 843.605Q568.706 842.794 568.618 841.977Q568.53 841.161 568.482 840.341Q568.435 839.521 568.428 838.7Q568.421 837.879 568.454 837.058Q568.488 836.238 568.562 835.42Q568.635 834.602 568.75 833.788Q568.864 832.975 569.018 832.168Q569.172 831.362 569.365 830.564Q569.559 829.766 569.792 828.978Q570.025 828.19 570.296 827.415Q570.567 826.64 570.877 825.879Q571.186 825.118 571.532 824.374Q571.879 823.629 572.261 822.903Q572.644 822.176 573.062 821.469C577.98 813.247 585.867 808.91 594.909 806.593Z"/>
	<path fill="#F86858" transform="scale(13.6803 13.6803)" d="M597.756 814.132C602.288 813.755 607.029 814.735 610.976 817C616.794 820.34 620.849 826.399 622.344 832.88Q622.479 833.46 622.585 834.046Q622.691 834.632 622.768 835.223Q622.845 835.813 622.893 836.407Q622.941 837.001 622.96 837.596Q622.978 838.191 622.968 838.787Q622.957 839.382 622.917 839.976Q622.877 840.571 622.808 841.162Q622.739 841.754 622.64 842.341Q622.542 842.929 622.415 843.51Q622.288 844.092 622.132 844.667Q621.977 845.242 621.793 845.809Q621.61 846.375 621.398 846.932Q621.187 847.489 620.949 848.034Q620.71 848.58 620.445 849.114Q620.18 849.647 619.889 850.167Q619.598 850.686 619.282 851.191C615.119 857.828 608.887 860.694 601.507 862.233C595.929 862.337 590.984 861.539 586.294 858.322Q585.77 857.955 585.266 857.563Q584.761 857.17 584.277 856.753Q583.793 856.335 583.33 855.894Q582.868 855.453 582.428 854.989Q581.988 854.525 581.572 854.039Q581.156 853.553 580.766 853.047Q580.375 852.542 580.01 852.017Q579.645 851.492 579.307 850.949Q578.969 850.406 578.659 849.847Q578.349 849.288 578.068 848.714Q577.786 848.14 577.534 847.553Q577.281 846.965 577.059 846.366Q576.836 845.767 576.644 845.157Q576.452 844.547 576.291 843.928Q576.13 843.31 576.001 842.684Q575.871 842.058 575.773 841.426Q575.68 840.839 575.617 840.247Q575.553 839.656 575.519 839.062Q575.486 838.468 575.482 837.873Q575.478 837.278 575.504 836.684Q575.53 836.09 575.585 835.498Q575.641 834.905 575.726 834.317Q575.812 833.728 575.926 833.145Q576.041 832.561 576.185 831.984Q576.329 831.406 576.501 830.837Q576.674 830.268 576.875 829.708Q577.076 829.148 577.304 828.599Q577.533 828.05 577.789 827.513Q578.045 826.976 578.328 826.453Q578.61 825.929 578.919 825.421Q579.227 824.912 579.561 824.42Q579.894 823.927 580.252 823.452C584.67 817.63 590.758 815.194 597.756 814.132Z"/>
	<path fill="#4077C8" transform="scale(13.6803 13.6803)" d="M392.748 826.432C434.107 825.784 475.527 826.442 516.89 826.509L517.066 868.967L393.018 869.104L392.748 826.432Z"/>
	<path fill="#4077C8" transform="scale(13.6803 13.6803)" d="M509.836 259.394C515.97 256.735 522.156 252.907 528.515 250.964C539.013 247.755 560.521 250.121 570.731 254.159C585.475 259.99 595.94 272.118 602.038 286.489C603.439 289.791 604.612 293.379 606.731 296.293C607.821 296.664 608.432 296.816 609.591 296.359C611.041 295.789 611.829 293.914 612.335 292.571C614.976 285.547 616.473 278.395 620.311 271.851C632.655 250.807 658.382 240.584 681.878 246.586Q683.196 246.921 684.495 247.321Q685.795 247.722 687.072 248.188Q688.35 248.653 689.602 249.183Q690.855 249.712 692.079 250.304Q693.303 250.896 694.496 251.549Q695.689 252.201 696.848 252.913Q698.006 253.625 699.127 254.394Q700.249 255.164 701.33 255.989Q702.411 256.814 703.449 257.692Q704.487 258.57 705.479 259.499Q706.472 260.429 707.417 261.407Q708.361 262.385 709.255 263.41Q710.149 264.434 710.99 265.503Q711.832 266.571 712.618 267.68Q713.405 268.789 714.134 269.937Q714.864 271.084 715.535 272.267C719.12 278.455 721.162 284.8 722.003 291.885C722.887 299.338 722.536 307.062 722.536 314.559L722.523 347.985L722.516 459.506L668.925 459.405C657.529 459.347 646.173 458.811 634.788 459.602C632.598 471.494 633.609 483.964 633.805 496.005Q634.01 513.711 633.963 531.418C633.99 569.118 632.523 607.035 633.7 644.7C633.785 647.437 633.66 651.205 635.11 653.599C635.817 654.767 637.366 654.948 638.601 655.134C647.521 656.481 657.658 655.47 666.718 655.458L723.502 655.44L723.434 719.425C723.513 735.916 725.895 754.964 721.851 770.996C719.534 780.183 714.303 788.711 707.608 795.365C701.852 801.085 695.301 804.647 687.499 806.77L687.524 779.816C687.542 765.913 689.504 746.619 678.866 735.787Q678.087 735 677.25 734.273Q676.414 733.547 675.526 732.885Q674.638 732.223 673.703 731.63Q672.767 731.036 671.79 730.514Q670.813 729.992 669.8 729.545Q668.786 729.098 667.742 728.728Q666.698 728.358 665.629 728.067Q664.561 727.776 663.473 727.566C650.877 725.092 631.755 726.488 618.482 726.495L535.164 726.497Q534.512 625.519 535.556 524.549Q552.763 524.174 569.972 524.486C577.135 524.564 584.533 525.029 591.666 524.391C592.27 522.347 592.64 520.397 592.774 518.27C593.244 510.833 593.789 459.778 592.084 455.451C587.23 451.348 544.567 453.407 535.084 453.223C534.983 439.809 532.184 416.764 542.376 406.629C549.588 399.458 559.836 399.11 569.347 399.334C573.745 399.438 585.8 401.315 589.047 398.082C589.953 397.181 590.085 395.545 590.202 394.325C590.909 387.004 590.434 379.333 590.555 371.967C590.757 359.611 591.479 346.824 590.624 334.5C590.506 332.803 590.59 331.223 589.229 330.016C585.021 326.287 547.729 328.258 540.704 328.857Q532.992 329.546 525.43 331.21C504.907 335.708 487.087 349.298 475.78 366.86C459.043 392.858 462.375 423.644 462.513 453.006Q432.025 453.647 401.536 453.09L401.543 524.247L462.496 524.508L462.492 726.587L408.086 726.566C395.533 726.531 382.023 724.998 369.724 727.905C362.369 729.643 355.553 733.156 350.171 738.503C340.501 748.107 338.296 760.231 338.344 773.372Q338.584 800.934 338.485 828.497C332.764 828.595 325.92 829.319 320.327 828.126C312.316 829.039 287.632 827.85 282.362 829.832C281.987 830.584 281.609 831.327 281.274 832.098C277.871 832.239 273.627 830.759 270.177 830.195C272.904 818.74 273.516 807.159 269.821 795.842C265.234 781.793 255.397 771.666 242.398 765.042C244.404 760.492 244.403 755.045 244.53 750.168C241.125 744.446 241.954 730.386 241.958 723.529C243.798 715.863 242.58 703.195 242.523 694.993L242.481 653.197L242.368 457.993C254.444 457.976 266.606 458.028 278.601 456.444C307.857 452.581 336.637 438.736 357.48 417.787Q358.69 416.581 359.87 415.346Q361.049 414.11 362.197 412.845Q363.345 411.58 364.462 410.287Q365.578 408.994 366.661 407.673Q367.744 406.352 368.794 405.005Q369.844 403.657 370.86 402.284Q371.875 400.91 372.856 399.512Q373.837 398.113 374.783 396.691Q375.728 395.268 376.638 393.822Q377.548 392.376 378.421 390.908Q379.294 389.44 380.13 387.95Q380.966 386.46 381.764 384.95Q382.563 383.44 383.323 381.91Q384.083 380.38 384.805 378.832Q385.526 377.284 386.209 375.718Q386.892 374.152 387.535 372.569Q388.178 370.987 388.781 369.389Q389.384 367.79 389.947 366.178Q390.51 364.565 391.033 362.938Q391.555 361.312 392.037 359.673Q392.518 358.034 392.958 356.384Q393.398 354.733 393.797 353.072Q394.196 351.411 394.553 349.74Q394.909 348.07 395.224 346.391Q395.539 344.712 395.812 343.026Q396.085 341.339 396.315 339.647Q396.545 337.954 396.733 336.256Q396.921 334.558 397.066 332.856Q397.211 331.154 397.314 329.449Q397.416 327.744 397.476 326.037Q397.535 324.329 397.552 322.621Q397.569 320.913 397.543 319.205C397.504 312.095 397.439 292.753 392.809 287.963C392.2 287.332 391.873 287.479 391.062 287.402C385.901 290.486 384.591 301.453 381.77 306.719C376.732 316.122 368.413 324.318 360.428 331.258C359.242 321.523 354.645 293.253 347.689 287.23C346.689 286.364 346.083 286.31 344.813 286.384C342.5 287.693 341.958 290.964 341.297 293.361C340.153 297.506 339.369 301.977 337.757 305.956C330.62 323.565 312.73 338.711 296.662 347.926C280.401 357.253 261.235 362.065 242.524 362.591L242.568 308.023C269.672 295.672 289.246 276.989 301.887 249.894C323.229 249.208 344.62 249.741 365.97 249.871L419.287 249.763C426.769 254.119 434.527 259.048 442.941 261.362C443.62 273.233 445.529 283.613 454.745 291.948Q455.347 292.501 455.976 293.023Q456.605 293.546 457.259 294.036Q457.914 294.526 458.592 294.983Q459.27 295.44 459.97 295.862Q460.67 296.285 461.39 296.672Q462.11 297.059 462.849 297.409Q463.587 297.76 464.343 298.073Q465.098 298.386 465.868 298.661Q466.638 298.936 467.42 299.173Q468.203 299.409 468.996 299.606Q469.79 299.803 470.592 299.96Q471.395 300.117 472.204 300.234Q473.013 300.351 473.827 300.427Q474.641 300.503 475.458 300.538Q476.275 300.574 477.092 300.569Q477.91 300.563 478.726 300.517Q479.53 300.471 480.33 300.384Q481.131 300.297 481.926 300.171Q482.721 300.044 483.509 299.878Q484.296 299.711 485.075 299.506Q485.853 299.3 486.62 299.056Q487.388 298.812 488.142 298.53Q488.896 298.247 489.634 297.927Q490.373 297.608 491.095 297.251Q491.817 296.895 492.52 296.503Q493.224 296.111 493.906 295.684Q494.589 295.257 495.249 294.797Q495.91 294.336 496.546 293.843Q497.183 293.35 497.794 292.826Q498.405 292.302 498.989 291.747Q499.573 291.193 500.129 290.611Q500.684 290.028 501.21 289.418C508.728 280.727 509.714 270.411 509.836 259.394Z"/>
	<path fill="#FDC33D" transform="scale(13.6803 13.6803)" d="M244.53 750.168C246.059 743.805 249.183 727.25 255.055 723.73C256.105 723.1 256.546 723.172 257.719 723.236C259.735 724.393 260.768 725.855 261.351 728.12C263.977 738.301 258.715 751.064 256.962 761.223C263.173 752.19 271.429 736.585 283.232 734.461C284.4 734.251 284.912 734.392 285.854 735.057C287.894 744.091 274.78 760.428 270.932 768.708C271.071 768.638 271.212 768.57 271.351 768.497C278.39 764.806 292.348 750.295 300.712 751.881C301.836 752.094 302.976 752.835 303.494 753.881C304.318 755.55 303.584 757.673 302.831 759.221C298.318 768.498 288.435 775.673 280.656 782.134C287.973 778.914 305.3 770.118 313.174 773.516C314.458 774.071 314.888 774.678 315.535 775.869C315.639 778.303 314.651 779.886 313.026 781.657C306.113 789.194 293.549 794.109 283.994 797.127C292.177 796.859 319.921 791.634 325.206 796.665C325.747 797.18 325.707 797.649 325.856 798.341C324.958 801.536 321.708 803.866 318.938 805.418C310.711 810.029 300.077 810.23 291.235 813.711C300.886 814.006 322.426 814.138 329.519 820.52C329.934 821.662 330.054 821.663 329.601 822.77L328.674 823.146C325.47 824.46 323.027 825.98 320.327 828.126C312.316 829.039 287.632 827.85 282.362 829.832C281.987 830.584 281.609 831.327 281.274 832.098C277.871 832.239 273.627 830.759 270.177 830.195C272.904 818.74 273.516 807.159 269.821 795.842C265.234 781.793 255.397 771.666 242.398 765.042C244.404 760.492 244.403 755.045 244.53 750.168Z"/>
	<path fill="#020B4E" transform="scale(13.6803 13.6803)" d="M336.112 568.668C336.239 568.652 336.365 568.631 336.493 568.62C355.519 566.986 374.276 572.076 389.125 584.261Q390.522 585.416 391.861 586.638Q393.2 587.861 394.476 589.148Q395.753 590.435 396.964 591.783Q398.175 593.132 399.318 594.539Q400.462 595.946 401.534 597.407Q402.606 598.869 403.605 600.382Q404.603 601.895 405.526 603.455Q406.449 605.016 407.293 606.62Q408.138 608.224 408.902 609.868Q409.666 611.511 410.348 613.191Q411.03 614.871 411.628 616.582Q412.226 618.293 412.739 620.032Q413.251 621.771 413.677 623.533Q414.104 625.295 414.442 627.076Q414.781 628.856 415.031 630.652Q415.281 632.447 415.442 634.253Q415.624 636.066 415.716 637.885Q415.808 639.705 415.81 641.527Q415.812 643.349 415.724 645.168Q415.635 646.988 415.457 648.801Q415.279 650.614 415.011 652.416Q414.743 654.218 414.386 656.005Q414.029 657.792 413.584 659.558Q413.139 661.325 412.607 663.068Q412.076 664.81 411.458 666.524Q410.841 668.238 410.139 669.92Q409.437 671.601 408.653 673.245Q407.869 674.89 407.005 676.494Q406.141 678.097 405.198 679.656Q404.255 681.215 403.236 682.726Q402.217 684.236 401.125 685.694Q400.032 687.152 398.869 688.554C386.574 703.28 370.304 709.483 351.622 711.25C334.216 713.212 314.464 707.788 300.37 697.462C285.896 686.858 275.471 669.719 272.893 651.945Q272.629 650.128 272.455 648.3Q272.282 646.472 272.198 644.638Q272.115 642.803 272.122 640.967Q272.129 639.131 272.227 637.298Q272.324 635.464 272.512 633.638Q272.7 631.811 272.978 629.996Q273.256 628.181 273.623 626.382Q273.99 624.583 274.445 622.804Q274.901 621.025 275.443 619.271Q275.986 617.517 276.614 615.791Q277.242 614.066 277.955 612.374Q278.668 610.682 279.463 609.027Q280.258 607.372 281.134 605.758Q282.01 604.144 282.965 602.576Q283.919 601.007 284.95 599.487Q285.981 597.968 287.085 596.501C298.882 580.719 316.845 571.515 336.112 568.668Z"/>
	<path fill="#FEFEFE" transform="scale(13.6803 13.6803)" d="M342.065 601.531C345.097 601.365 347.902 601.26 350.776 602.404Q351.535 602.703 352.258 603.08Q352.982 603.457 353.662 603.906Q354.343 604.356 354.973 604.874Q355.603 605.392 356.176 605.972Q356.749 606.553 357.259 607.19Q357.768 607.827 358.209 608.513Q358.65 609.199 359.017 609.928Q359.384 610.656 359.673 611.419C361.184 615.344 361.127 619.991 359.248 623.785C357.078 628.168 353.309 630.497 348.807 631.992C346.377 632.096 343.812 632.013 341.484 631.255Q340.716 631.013 339.977 630.693Q339.238 630.373 338.536 629.979Q337.833 629.586 337.175 629.123Q336.516 628.659 335.908 628.131Q335.301 627.603 334.75 627.015Q334.199 626.428 333.712 625.787Q333.224 625.146 332.805 624.459Q332.385 623.772 332.038 623.045Q331.706 622.344 331.448 621.613Q331.19 620.882 331.009 620.128Q330.828 619.374 330.726 618.605Q330.624 617.836 330.602 617.061Q330.58 616.286 330.638 615.513Q330.696 614.739 330.834 613.976Q330.972 613.213 331.188 612.468Q331.403 611.724 331.695 611.005C333.679 606.074 337.456 603.636 342.065 601.531Z"/>
	<path fill="#FEFEFE" transform="scale(13.6803 13.6803)" d="M342.349 641.669Q342.933 641.625 343.518 641.605C352.848 641.301 362.189 645.494 368.898 651.824C380.041 662.338 383.168 677.185 383.528 691.937C373.476 700.322 362.008 703.04 349.12 703.557C333.899 703.883 320.607 701.608 307.614 693.417C305.894 680.439 307.854 667.253 315.764 656.518C322.514 647.358 331.335 643.352 342.349 641.669Z"/>
	<path fill="#61CDAC" transform="scale(13.6803 13.6803)" d="M342.111 576.201C356.203 575.164 370.123 579.756 381.404 588.118Q382.739 589.099 384.023 590.146Q385.308 591.192 386.539 592.301Q387.77 593.41 388.944 594.578Q390.119 595.747 391.234 596.972Q392.349 598.197 393.402 599.476Q394.455 600.755 395.443 602.085Q396.431 603.415 397.353 604.792Q398.274 606.169 399.125 607.59Q399.977 609.011 400.757 610.473Q401.537 611.934 402.244 613.433Q402.951 614.931 403.582 616.463Q404.214 617.995 404.769 619.556Q405.323 621.117 405.8 622.703Q406.277 624.29 406.674 625.898Q407.072 627.507 407.389 629.133Q407.706 630.759 407.942 632.399C411.119 654.311 402.718 670.055 389.925 687.033C389.266 679.855 388.037 672.666 385.456 665.908C379.682 650.79 369.626 642.55 355.124 636.159C360.859 632.227 365.281 627.769 366.633 620.642Q366.729 620.112 366.8 619.577Q366.87 619.042 366.914 618.505Q366.959 617.968 366.977 617.429Q366.995 616.89 366.987 616.351Q366.979 615.812 366.945 615.274Q366.91 614.736 366.85 614.2Q366.789 613.664 366.703 613.132Q366.617 612.6 366.504 612.073Q366.392 611.545 366.254 611.024Q366.117 610.503 365.954 609.989Q365.791 609.475 365.603 608.969Q365.415 608.464 365.203 607.968Q364.991 607.473 364.755 606.988Q364.519 606.503 364.26 606.03Q364.001 605.557 363.719 605.098Q363.437 604.638 363.133 604.193C359.248 598.583 353.707 596.071 347.205 594.914C346.471 594.938 345.747 594.971 345.014 595.035C338.744 595.587 333.003 598.028 328.955 602.997Q328.616 603.417 328.299 603.854Q327.981 604.29 327.685 604.741Q327.39 605.193 327.116 605.658Q326.843 606.124 326.593 606.602Q326.343 607.081 326.117 607.571Q325.891 608.061 325.69 608.561Q325.488 609.062 325.311 609.572Q325.134 610.082 324.983 610.6Q324.831 611.118 324.706 611.643Q324.58 612.168 324.48 612.698Q324.38 613.229 324.307 613.763Q324.233 614.298 324.186 614.835Q324.139 615.373 324.118 615.912Q324.097 616.452 324.103 616.991Q324.109 617.531 324.142 618.07Q324.174 618.609 324.233 619.145C325.093 626.792 329.58 631.569 335.284 636.139C328.063 638.29 321.609 641.162 315.984 646.299C304.083 657.168 300.615 671.44 299.912 686.969C289.21 674.774 281.449 662.491 280.016 645.977Q279.883 644.388 279.827 642.794Q279.771 641.2 279.794 639.605Q279.816 638.011 279.916 636.419Q280.016 634.828 280.193 633.243Q280.371 631.658 280.626 630.083Q280.881 628.509 281.212 626.949Q281.543 625.389 281.95 623.847Q282.357 622.305 282.839 620.785Q283.321 619.265 283.876 617.77Q284.432 616.275 285.06 614.809Q285.687 613.343 286.386 611.909Q287.084 610.475 287.852 609.078Q288.62 607.68 289.455 606.321Q290.29 604.962 291.19 603.646Q292.091 602.33 293.054 601.059Q294.018 599.788 295.042 598.566C306.964 584.454 324.02 577.641 342.111 576.201Z"/>
</svg>
