<?xml version="1.0" encoding="utf-8" ?>
<svg xmlns="http://www.w3.org/2000/svg" xmlns:xlink="http://www.w3.org/1999/xlink" width="14008" height="14008">
	<path fill="#061356" transform="scale(13.6803 13.6803)" d="M447.329 868.481C449.553 868.438 452.408 868.664 453.939 870.586C454.711 871.555 455.072 872.426 454.867 873.682C454.63 875.129 453.355 876.088 452.307 876.971C450.227 877.115 447.987 877.154 446.353 875.606C445.525 874.821 445.149 873.963 445.081 872.831C444.971 870.991 446.162 869.722 447.329 868.481Z"/>
	<path fill="#061356" transform="scale(13.6803 13.6803)" d="M236.056 314.883C237.788 315.324 239.583 315.788 240.678 317.351C241.519 318.553 241.746 319.503 241.52 320.954C241.191 323.064 239.456 324.285 237.827 325.403C236.342 325.176 234.932 324.954 233.74 323.953C232.78 323.147 232.149 322.061 232.184 320.784C232.257 318.069 234.119 316.482 236.056 314.883Z"/>
	<path fill="#061356" transform="scale(13.6803 13.6803)" d="M459.521 868.002C461.45 867.988 463.446 868.113 464.93 869.527C465.882 870.434 466.415 871.319 466.387 872.672C466.346 874.742 465.022 876.001 463.646 877.341C461.613 877.466 459.494 877.625 457.888 876.089C456.899 875.143 456.439 874.218 456.518 872.824C456.643 870.602 458.007 869.416 459.521 868.002Z"/>
	<path fill="#061356" transform="scale(13.6803 13.6803)" d="M850.218 367.5C850.811 367.397 850.833 367.376 851.521 367.353C853.204 367.299 855.157 367.85 856.289 369.163C857.04 370.034 857.317 371.178 857.269 372.306C857.154 375.001 855.604 376.27 853.709 377.935C853.182 378.013 852.796 378.087 852.246 378.084C850.673 378.076 848.882 377.244 847.891 376.004C847.026 374.921 846.776 373.515 846.943 372.169C847.22 369.931 848.529 368.823 850.218 367.5Z"/>
	<path fill="#061356" transform="scale(13.6803 13.6803)" d="M420.664 641.696C421.724 641.883 422.411 641.995 423.366 642.536C424.427 643.138 424.511 644.7 424.809 645.836C426.251 647.691 428.58 647.189 430.373 648.395C431.269 648.998 431.265 649.526 431.519 650.505C430.61 653.769 427.688 652.75 425.318 654.406C424.969 656.658 424.793 658.137 423.296 659.907C422.079 659.964 421.413 659.844 420.289 659.371C419.188 658.116 419.189 656.043 418.981 654.424C417.475 653.91 415.724 653.453 414.363 652.624C413.504 652.102 412.987 651.607 412.889 650.548C412.55 646.874 417.316 648.749 419.191 646.375C419.365 644.424 419.547 643.325 420.664 641.696Z"/>
	<path fill="#061356" transform="scale(13.6803 13.6803)" d="M681.483 635.936C682.827 635.9 683.553 635.983 684.793 636.534C685.739 636.955 686.35 637.187 687.413 637.2C688.625 636.551 689.58 635.913 691.008 636C692.29 636.765 692.8 637.299 693.609 638.499C693.608 640.056 692.806 640.616 691.872 641.826C691.743 643.22 692.082 644.05 692.603 645.303L692.807 645.781C692.715 647.405 691.384 648.517 690.366 649.685C689.142 649.313 688.39 648.633 687.387 647.869C686.353 647.912 686.709 647.777 685.846 648.248C685.125 648.642 684.347 649.223 683.575 649.5C682.399 649.922 681.711 649.788 680.71 649.055C679.609 648.249 679.068 646.93 678.926 645.633Q679.12 645.123 679.294 644.607C679.97 642.564 679.755 641.471 678.822 639.589C678.748 639.44 678.67 639.293 678.594 639.144C679.078 637.678 680.337 636.885 681.483 635.936Z"/>
	<path fill="#5CCFD3" transform="scale(13.6803 13.6803)" d="M392.613 856.465C392.981 852.374 392.905 849.304 396.035 846.369C397.29 846.063 397.606 845.861 398.746 846.663C401.43 848.55 401.231 853.632 401.408 856.501C404.013 856.592 407.192 856.404 409.407 857.991C410.597 858.844 411.036 859.721 411.244 861.128C410.967 861.794 410.716 862.379 410.172 862.88C407.705 865.149 404.233 864.575 401.139 864.522C400.401 866.754 400.061 868.808 399.787 871.129L399.615 873.021C399.314 873.145 399.025 873.304 398.712 873.395C397.69 873.692 395.817 873.337 395.058 872.623C392.919 870.611 393.084 867.264 393.1 864.577C391.811 864.544 390.517 864.513 389.23 864.42C386.548 864.227 385.121 863.534 383.406 861.478C383.132 860.195 383.01 859.853 383.823 858.689C385.512 856.269 390.029 856.559 392.613 856.465Z"/>
	<path fill="#061356" transform="scale(13.6803 13.6803)" d="M395.498 323.259C396.711 323.455 397.793 323.651 398.714 324.546C401.174 326.935 400.486 331.438 400.421 334.543C402.662 334.482 405.483 334.192 407.622 334.91C409.237 335.453 410.431 336.404 411.132 337.963C410.951 339.262 410.802 339.846 409.705 340.662C407.184 342.54 403.39 341.874 400.476 341.63C400.49 343.781 400.611 346.06 400.333 348.194C399.985 350.869 398.632 352.318 396.613 353.961C395.903 353.447 394.999 352.9 394.432 352.235C392.181 349.594 392.909 344.832 392.989 341.621C390.535 341.661 387.606 341.978 385.21 341.48C383.532 341.131 381.745 340.25 380.81 338.79C380.796 337.448 380.739 337.133 381.851 336.178C384.639 333.785 389.645 334.477 393.004 334.577C392.947 330.141 392.622 326.883 395.498 323.259Z"/>
	<path fill="#061356" transform="scale(13.6803 13.6803)" d="M399.787 871.129C401.31 869.465 402.293 868.254 404.66 868.16C409.562 867.964 414.575 868.454 419.487 868.517C425.979 868.6 433.563 867.705 439.917 869.007C440.97 869.222 442.037 869.881 442.738 870.69C443.506 871.577 443.838 872.899 443.562 874.045C443.26 875.295 442.316 875.857 441.202 876.303C437.111 877.938 407.03 878.14 403.147 876.293C401.643 875.578 400.649 874.279 399.615 873.021L399.787 871.129Z"/>
	<path fill="#5CCFD3" transform="scale(13.6803 13.6803)" d="M99.3998 791.768C101.305 791.856 103.051 792.066 104.379 793.608C106.344 795.89 105.973 799.669 105.972 802.482C108.227 802.455 111.009 802.232 113.153 802.946C114.691 803.458 115.835 804.331 116.547 805.81C116.416 806.996 116.437 807.343 115.576 808.246C113.139 810.801 108.762 810.432 105.53 810.431C105.665 814.961 106.19 818.363 103.18 822.117C101.664 822.31 100.408 822.412 99.1906 821.331C96.912 819.309 97.5267 813.789 97.5219 811.037C95.2946 810.977 92.5661 811.026 90.4386 810.36C88.6382 809.797 87.3856 808.818 86.5246 807.137C86.6595 805.683 86.6853 805.387 87.79 804.319C90.0868 802.097 94.5559 802.477 97.4935 802.452C97.4531 798.382 96.9982 795.255 99.3998 791.768Z"/>
	<path fill="#F7A757" transform="scale(13.6803 13.6803)" d="M135.759 118.169C136.418 118.232 136.965 118.346 137.56 118.671C139.846 119.919 140.726 123.309 141.631 125.597C143.81 125.396 146.915 124.815 148.754 126.371C149.659 127.138 149.854 127.994 149.716 129.13C149.373 131.969 145.911 134.102 143.791 135.58C144.334 136.674 144.876 137.801 145.224 138.976C145.679 140.514 145.409 141.695 144.638 143.088C143.951 143.502 143.637 143.875 142.793 143.816C140.583 143.664 139.053 141.961 137.573 140.492C137.294 140.313 131.233 143.411 129.274 143.042C126.438 139.935 129.424 135.522 128.25 133.691C127.192 132.042 124.167 131.121 122.937 129.081C122.365 128.135 122.454 127.93 122.696 126.923C124.779 124.963 128.791 125.487 131.458 125.527C132.788 122.998 134.244 120.591 135.759 118.169Z"/>
	<path fill="#EE6552" transform="scale(13.6803 13.6803)" d="M918.477 275.236C919.976 275.383 921.191 275.501 922.237 276.751C924.62 279.597 923.721 285.015 923.611 288.478C926.071 288.44 929.511 288.049 931.819 288.927C933.397 289.527 934.681 290.354 935.449 291.888C935.353 293.291 935.36 293.614 934.261 294.633C931.815 296.902 927.053 296.449 923.973 296.474C923.915 301.748 923.933 305.552 920.555 309.903C919.473 309.877 918.408 309.748 917.561 308.996C914.557 306.329 915.5 299.697 915.59 296.168Q913.485 296.142 911.382 296.053C908.549 295.921 906.319 295.41 904.352 293.272C904.101 292.04 903.917 291.697 904.786 290.629C906.993 287.919 912.435 288.278 915.532 288.141Q915.482 286.414 915.455 284.687C915.397 280.578 915.518 278.283 918.477 275.236Z"/>
	<path fill="#5CCFD3" transform="scale(13.6803 13.6803)" d="M661.945 359.892C662.091 359.885 662.236 359.871 662.382 359.87C663.87 359.854 665.307 359.914 666.355 361.11C668.811 363.909 668.097 369.243 668.111 372.762C670.228 372.808 672.366 372.82 674.477 372.974C676.997 373.158 679.234 373.94 680.896 375.9C681.167 377.091 681.399 377.676 680.544 378.746C678.042 381.877 671.68 381.334 668.097 381.246C668.075 386.432 668.374 391.137 664.763 395.291C663.857 394.867 662.983 394.393 662.233 393.718C659.264 391.048 659.763 384.923 659.624 381.311C656.416 381.24 652.733 381.505 649.766 380.14C648.008 379.332 647.283 378.544 646.667 376.723C647.038 375.554 647.117 375.092 648.127 374.31C651.239 371.895 656.156 372.878 659.764 373.209C659.582 368.625 659.174 363.828 661.945 359.892Z"/>
	<path fill="#5CCFD3" transform="scale(13.6803 13.6803)" d="M465.102 115.453C465.856 115.4 466.763 115.283 467.507 115.407C468.867 115.634 469.828 116.336 470.66 117.41C472.658 119.987 471.733 125.053 471.465 128.072C474.343 128.059 478.126 127.702 480.73 129C482.143 129.704 483.036 130.408 483.596 131.924C483.404 133.283 483.344 133.659 482.274 134.648C479.614 137.109 474.804 136.542 471.492 136.498C471.553 139.08 471.806 141.898 471.475 144.455C471.145 147.001 469.917 148.427 468.011 150.016C466.914 149.589 465.774 149.175 464.935 148.317C462.017 145.331 462.836 140.186 462.99 136.406C459.819 136.44 456.118 136.839 453.145 135.581C451.46 134.868 450.735 134.146 450.099 132.441C450.34 131.572 450.349 131.14 450.981 130.455C453.868 127.323 459.483 127.897 463.317 127.881Q463.012 126.304 462.754 124.718C462.123 120.764 462.772 118.678 465.102 115.453Z"/>
	<path fill="#FCFCFC" transform="scale(13.6803 13.6803)" d="M485.159 905.065C488.049 904.627 490.681 904.82 493.411 905.94Q494.154 906.248 494.862 906.631Q495.57 907.014 496.234 907.468Q496.898 907.922 497.512 908.443Q498.126 908.963 498.683 909.544Q499.24 910.125 499.734 910.76Q500.228 911.395 500.654 912.078Q501.079 912.761 501.432 913.484Q501.786 914.207 502.062 914.963C503.474 918.742 503.426 922.897 501.636 926.543C499.56 930.768 496.005 932.977 491.707 934.507C488.792 935.064 486.092 935.037 483.267 934.022C479.577 932.697 476.717 929.774 475.163 926.211C473.485 922.365 473.31 917.802 474.968 913.917C476.978 909.21 480.584 906.879 485.159 905.065Z"/>
	<path fill="#2A447A" transform="scale(13.6803 13.6803)" d="M485.289 913.966C487.508 913.925 489.631 913.988 491.512 915.318C492.749 916.193 493.669 917.597 493.724 919.144C493.826 922.051 492.265 923.915 490.397 925.952C488.36 926.027 486.39 925.806 484.767 924.46Q484.532 924.269 484.319 924.054Q484.106 923.839 483.917 923.602Q483.727 923.366 483.564 923.111Q483.401 922.855 483.266 922.584Q483.13 922.313 483.024 922.03Q482.919 921.746 482.843 921.453Q482.768 921.159 482.725 920.859Q482.681 920.56 482.669 920.257C482.546 917.666 483.667 915.864 485.289 913.966Z"/>
	<path fill="#FCFCFC" transform="scale(13.6803 13.6803)" d="M712.135 415.585C715.406 415.267 718.493 415.413 721.533 416.753C725.607 418.55 728.646 422.016 730.079 426.216C731.545 430.514 731.243 435.347 729.033 439.338C726.523 443.87 722.637 446.087 717.812 447.497C714.459 447.719 711.627 447.719 708.489 446.287C704.533 444.482 701.606 441.135 700.181 437.042Q699.909 436.263 699.716 435.462Q699.523 434.66 699.412 433.843Q699.3 433.026 699.271 432.201Q699.242 431.377 699.296 430.554Q699.35 429.731 699.486 428.918Q699.622 428.104 699.839 427.309Q700.056 426.513 700.352 425.743Q700.648 424.973 701.019 424.237C703.417 419.504 707.31 417.231 712.135 415.585ZM712.534 426.691C710.985 428.562 709.811 430.209 709.963 432.746C710.032 433.892 710.447 434.966 711.306 435.754C712.738 437.069 714.52 437.104 716.32 436.814C716.591 436.771 716.86 436.717 717.13 436.668C718.627 435.172 719.959 433.934 720.127 431.689C720.222 430.42 719.858 429.235 718.96 428.314C717.396 426.708 715.252 426.493 713.139 426.631C712.937 426.645 712.736 426.671 712.534 426.691Z"/>
	<path fill="#FCFCFC" transform="scale(13.6803 13.6803)" d="M609.693 105.575C612.04 105.9 614.13 106.087 615.892 107.813C618.576 110.445 618.487 114.762 618.576 118.261C622.49 118.395 625.646 118.132 628.868 120.789C630.527 122.155 631.695 124.207 631.777 126.38C631.855 128.422 631.062 130.358 629.668 131.837C626.871 134.803 622.993 135.328 619.126 135.478C618.921 138.33 618.49 141.145 618.077 143.973C615.949 146.283 614.402 147.213 611.361 148.083C608.907 147.929 606.218 147.805 604.274 146.095C601.437 143.6 601.602 139.044 601.32 135.591C598.626 135.198 595.511 134.946 593.142 133.513C590.995 132.213 589.167 130.317 588.696 127.777C588.346 125.886 588.883 123.99 590.031 122.464C592.793 118.793 597.09 118.115 601.313 117.474C601.327 114.769 601.454 112.08 602.895 109.704C604.413 107.202 607.012 106.3 609.693 105.575Z"/>
	<path fill="#FCFCFC" transform="scale(13.6803 13.6803)" d="M885.669 660.053C889.637 659.739 893.467 660.162 897.11 661.857Q897.563 662.07 898.004 662.305Q898.445 662.541 898.874 662.799Q899.303 663.057 899.718 663.336Q900.133 663.616 900.533 663.916Q900.933 664.216 901.318 664.536Q901.702 664.856 902.069 665.195Q902.437 665.535 902.787 665.892Q903.137 666.25 903.468 666.625Q903.799 667 904.11 667.391Q904.422 667.783 904.713 668.19Q905.004 668.596 905.275 669.017Q905.545 669.438 905.793 669.873Q906.041 670.307 906.267 670.753Q906.493 671.2 906.696 671.657Q906.898 672.114 907.078 672.581Q907.257 673.048 907.412 673.524C909.065 678.516 908.751 684.08 906.263 688.746C903.402 694.112 898.936 696.376 893.424 698.169C888.909 698.871 884.215 698.259 880.164 696.096Q879.346 695.66 878.575 695.146Q877.804 694.631 877.088 694.042Q876.371 693.453 875.717 692.796Q875.063 692.139 874.478 691.42Q873.892 690.702 873.381 689.928Q872.87 689.155 872.438 688.334Q872.006 687.514 871.658 686.655Q871.31 685.796 871.049 684.906C869.482 679.593 869.828 673.173 872.747 668.366C875.719 663.471 880.354 661.392 885.669 660.053Z"/>
	<path fill="#2A447A" transform="scale(13.6803 13.6803)" d="M886.213 671.506C887.392 671.475 888.594 671.426 889.771 671.518C891.945 671.688 894.288 673.131 895.626 674.811C896.679 676.133 897.139 677.729 896.929 679.41C896.556 682.385 894.502 684.105 892.245 685.798C891.072 686.152 889.726 686.431 888.494 686.407C886.833 686.374 885.024 685.583 883.872 684.39C882.488 682.955 881.966 681.14 882.018 679.177C882.108 675.776 883.796 673.696 886.213 671.506Z"/>
	<path fill="#FCFCFC" transform="scale(13.6803 13.6803)" d="M440.952 789.863C442.274 789.982 443.254 790.265 444.35 791.029C449.111 794.349 466.252 818.435 467.201 824.179C466.928 825.022 466.913 825.405 466.256 826.047C462.137 830.076 448.824 828.474 443.34 828.295C436.155 828.493 423.298 830.216 417.317 826.299C416.64 825.077 416.366 824.446 416.574 823.029C417.61 815.962 434.885 794.144 440.952 789.863Z"/>
	<path fill="#FCFCFC" transform="scale(13.6803 13.6803)" d="M287.234 325.556C291.921 325.23 296.044 325.268 300.414 327.329Q300.895 327.558 301.365 327.812Q301.834 328.065 302.289 328.343Q302.744 328.62 303.185 328.92Q303.626 329.221 304.05 329.543Q304.475 329.866 304.882 330.21Q305.29 330.554 305.679 330.918Q306.068 331.282 306.439 331.666Q306.809 332.05 307.159 332.452Q307.509 332.855 307.837 333.274Q308.166 333.694 308.473 334.13Q308.78 334.566 309.064 335.018Q309.348 335.469 309.609 335.934Q309.87 336.399 310.106 336.877Q310.342 337.355 310.554 337.845Q310.765 338.334 310.952 338.834Q311.138 339.333 311.298 339.842Q311.46 340.348 311.597 340.86Q311.733 341.373 311.844 341.893Q311.955 342.412 312.04 342.936Q312.125 343.46 312.183 343.987Q312.242 344.515 312.274 345.045Q312.306 345.575 312.312 346.106Q312.318 346.636 312.297 347.167Q312.276 347.697 312.229 348.226Q312.182 348.755 312.109 349.281Q312.035 349.806 311.935 350.328Q311.836 350.849 311.71 351.365Q311.585 351.881 311.434 352.39Q311.282 352.899 311.106 353.399Q310.93 353.9 310.729 354.391Q310.528 354.883 310.302 355.363Q310.077 355.844 309.828 356.313C306.765 362.037 301.834 365.176 295.744 366.89Q294.875 367.097 293.992 367.228Q293.109 367.36 292.218 367.414Q291.327 367.468 290.434 367.445Q289.542 367.422 288.654 367.322Q287.767 367.222 286.892 367.046Q286.017 366.87 285.16 366.618Q284.303 366.367 283.471 366.042Q282.64 365.717 281.839 365.322Q281.389 365.094 280.951 364.843Q280.513 364.593 280.088 364.322Q279.663 364.05 279.251 363.758Q278.84 363.466 278.443 363.154Q278.047 362.842 277.666 362.511Q277.285 362.18 276.921 361.831Q276.557 361.482 276.211 361.115Q275.865 360.748 275.537 360.365Q275.209 359.982 274.9 359.583Q274.591 359.184 274.302 358.77Q274.014 358.357 273.745 357.929Q273.477 357.502 273.231 357.062Q272.984 356.622 272.759 356.17Q272.534 355.719 272.332 355.257Q272.129 354.795 271.95 354.323Q271.77 353.852 271.614 353.372Q271.443 352.864 271.298 352.349Q271.153 351.833 271.034 351.311Q270.915 350.788 270.822 350.261Q270.729 349.733 270.662 349.202Q270.595 348.67 270.555 348.136Q270.515 347.602 270.502 347.066Q270.489 346.531 270.502 345.995Q270.515 345.459 270.555 344.925Q270.595 344.391 270.662 343.86Q270.729 343.328 270.822 342.8Q270.915 342.273 271.034 341.751Q271.153 341.228 271.299 340.713Q271.444 340.197 271.614 339.689Q271.785 339.181 271.981 338.683Q272.177 338.184 272.397 337.696Q272.617 337.208 272.862 336.731C275.978 330.689 280.995 327.616 287.234 325.556ZM289.086 339.018C286.698 341.421 284.814 343.625 284.708 347.171C284.656 348.901 285.116 350.516 286.359 351.762C287.977 353.384 290.445 353.925 292.67 353.92C292.811 353.92 292.951 353.904 293.091 353.896C295.468 352.387 297.113 351.056 297.726 348.182C298.189 346.01 297.764 343.706 296.409 341.928C295.446 340.665 293.612 339.266 291.996 339.039C291.05 338.906 290.038 338.975 289.086 339.018Z"/>
	<path fill="#FCFCFC" transform="scale(13.6803 13.6803)" d="M116.545 643.612C121.799 643.25 127.009 644.324 131.588 646.97Q132.11 647.271 132.616 647.597Q133.122 647.923 133.612 648.274Q134.101 648.626 134.572 649.001Q135.043 649.376 135.495 649.775Q135.946 650.173 136.378 650.594Q136.809 651.014 137.218 651.456Q137.628 651.897 138.015 652.359Q138.402 652.82 138.765 653.301Q139.129 653.781 139.468 654.279Q139.806 654.777 140.12 655.291Q140.434 655.805 140.721 656.335Q141.008 656.864 141.269 657.407Q141.53 657.95 141.763 658.505Q141.996 659.061 142.201 659.627Q142.406 660.193 142.582 660.769Q142.759 661.345 142.906 661.929C144.594 668.508 143.632 675.835 139.979 681.595C135.657 688.41 129.217 691.452 121.653 693.203C115.915 693.456 110.791 692.87 105.789 689.744Q105.278 689.419 104.783 689.07Q104.288 688.721 103.811 688.348Q103.333 687.975 102.875 687.579Q102.416 687.183 101.977 686.766Q101.538 686.348 101.12 685.91Q100.702 685.471 100.306 685.013Q99.9102 684.555 99.5368 684.078Q99.1635 683.601 98.8137 683.107Q98.464 682.612 98.1388 682.101Q97.8135 681.59 97.5135 681.064Q97.2135 680.537 96.9395 679.997Q96.6655 679.457 96.418 678.904Q96.1706 678.351 95.9504 677.787Q95.7301 677.223 95.5376 676.649Q95.3451 676.074 95.1808 675.491Q95.0165 674.908 94.8807 674.318Q94.7384 673.691 94.6278 673.057Q94.5173 672.423 94.4388 671.785Q94.3603 671.146 94.3141 670.505Q94.2678 669.863 94.254 669.22Q94.2401 668.577 94.2586 667.934Q94.2772 667.291 94.3281 666.65Q94.379 666.009 94.4621 665.371Q94.5452 664.733 94.6603 664.1Q94.7755 663.467 94.9223 662.841Q95.0692 662.215 95.2474 661.597Q95.4256 660.979 95.6348 660.371Q95.8439 659.762 96.0834 659.165Q96.3228 658.568 96.5921 657.984Q96.8613 657.4 97.1597 656.83Q97.458 656.26 97.7846 655.706Q98.1113 655.152 98.4654 654.615C102.825 648.03 109.057 645.103 116.545 643.612ZM116.948 651.572C111.564 653.009 107.246 655.223 104.439 660.313Q104.226 660.698 104.034 661.093Q103.841 661.487 103.669 661.892Q103.497 662.296 103.345 662.708Q103.194 663.121 103.064 663.541Q102.934 663.96 102.825 664.386Q102.717 664.812 102.63 665.243Q102.543 665.674 102.479 666.108Q102.414 666.543 102.372 666.98Q102.33 667.418 102.31 667.857Q102.29 668.296 102.292 668.735Q102.295 669.174 102.32 669.613Q102.345 670.052 102.392 670.489Q102.439 670.925 102.509 671.359Q102.578 671.793 102.67 672.223Q102.761 672.653 102.875 673.077Q102.988 673.502 103.123 673.92Q103.369 674.698 103.692 675.446Q104.015 676.195 104.412 676.907Q104.81 677.619 105.277 678.287Q105.745 678.956 106.278 679.573Q106.81 680.19 107.403 680.751Q107.995 681.311 108.642 681.808Q109.288 682.306 109.981 682.735Q110.675 683.164 111.408 683.521C114.247 684.89 117.609 685.542 120.744 685.18C126.224 683.566 130.644 681.445 133.532 676.189Q133.952 675.416 134.293 674.605Q134.634 673.793 134.892 672.952Q135.15 672.111 135.322 671.248Q135.495 670.385 135.581 669.51Q135.666 668.634 135.664 667.754Q135.662 666.874 135.572 665.999Q135.482 665.124 135.304 664.262Q135.127 663.4 134.865 662.56Q134.647 661.83 134.357 661.125Q134.067 660.42 133.709 659.747Q133.352 659.075 132.929 658.441Q132.506 657.807 132.023 657.218Q131.539 656.629 131 656.09Q130.46 655.552 129.87 655.07Q129.28 654.587 128.645 654.166Q128.01 653.745 127.337 653.388C123.965 651.604 120.685 651.274 116.948 651.572Z"/>
	<path fill="#5CCFD3" transform="scale(13.6803 13.6803)" d="M596.075 270.645C601.937 270.428 607.616 271.464 612.548 274.864C617.873 278.534 621.434 284.545 622.561 290.871C623.771 297.668 621.972 304.746 618.037 310.372C613.721 316.544 607.859 319.638 600.614 320.961C595.148 321.361 589.423 319.7 584.852 316.701C579.049 312.895 574.972 307.21 573.748 300.323C572.52 293.412 574.063 285.618 578.3 279.967C582.807 273.958 588.948 271.723 596.075 270.645ZM596.502 280.613C592.116 281.611 588.658 283.115 586.146 287.047C583.823 290.684 583.156 295.355 584.101 299.542C584.951 303.306 587.231 306.636 590.58 308.599C594.063 310.64 597.405 310.719 601.297 310.396C606.076 308.613 610.087 306.355 612.357 301.508Q612.666 300.852 612.907 300.167Q613.148 299.482 613.317 298.777Q613.487 298.071 613.583 297.352Q613.68 296.633 613.703 295.908Q613.726 295.182 613.675 294.459Q613.623 293.735 613.498 293.02Q613.374 292.305 613.176 291.607Q612.979 290.909 612.712 290.234Q612.568 289.867 612.405 289.508Q612.242 289.149 612.06 288.799Q611.878 288.449 611.678 288.11Q611.477 287.77 611.26 287.441Q611.042 287.113 610.807 286.796Q610.572 286.479 610.321 286.175Q610.07 285.871 609.803 285.581Q609.536 285.291 609.254 285.015Q608.972 284.74 608.676 284.479Q608.38 284.219 608.071 283.974Q607.761 283.73 607.44 283.502Q607.118 283.274 606.784 283.064Q606.451 282.853 606.107 282.661Q605.763 282.468 605.409 282.294Q605.055 282.12 604.693 281.965Q604.33 281.81 603.96 281.674C601.592 280.779 599.023 280.469 596.502 280.613Z"/>
	<path fill="#2A447A" transform="scale(13.6803 13.6803)" d="M760.53 621.115C769.122 625.06 777.945 628.389 787.306 629.937C809.701 633.639 831.8 628.041 850.096 614.717Q851.004 614.067 851.894 613.392Q852.784 612.718 853.656 612.021Q854.528 611.324 855.382 610.604Q856.235 609.885 857.07 609.143Q857.904 608.401 858.719 607.638Q859.534 606.874 860.328 606.09Q861.123 605.305 861.897 604.5Q862.67 603.695 863.423 602.87Q864.175 602.045 864.906 601.2Q865.636 600.356 866.344 599.493Q867.052 598.63 867.738 597.748Q868.423 596.866 869.085 595.967Q869.747 595.068 870.385 594.152Q871.023 593.236 871.637 592.303Q872.251 591.37 872.84 590.422Q873.429 589.474 873.994 588.51Q874.558 587.547 875.097 586.569Q875.636 585.591 876.149 584.599Q876.662 583.607 877.149 582.603Q877.636 581.598 878.096 580.581Q878.557 579.563 878.99 578.535Q879.424 577.506 879.83 576.466Q880.237 575.426 880.616 574.376Q880.995 573.325 881.347 572.266Q881.698 571.206 882.022 570.137Q882.346 569.069 882.641 567.992Q882.937 566.915 883.204 565.831Q883.471 564.747 883.71 563.656Q883.949 562.566 884.159 561.469Q884.369 560.372 884.55 559.271Q884.732 558.169 884.884 557.063Q885.037 555.957 885.16 554.847C885.867 548.189 884.763 541.221 885.813 534.675C886.891 533.384 887.207 533.457 888.787 533.07C899.482 556.997 900.923 580.897 891.481 605.557Q890.982 606.823 890.453 608.076Q889.923 609.329 889.364 610.569Q888.805 611.81 888.216 613.036Q887.627 614.262 887.008 615.474Q886.39 616.686 885.742 617.882Q885.095 619.079 884.419 620.259Q883.743 621.44 883.038 622.604Q882.334 623.768 881.602 624.914Q880.869 626.061 880.11 627.189Q879.35 628.318 878.563 629.428Q877.777 630.538 876.963 631.628Q876.15 632.719 875.311 633.79Q874.472 634.86 873.607 635.911Q872.742 636.961 871.852 637.99Q870.962 639.019 870.048 640.026Q869.133 641.034 868.195 642.019Q867.256 643.004 866.295 643.966Q865.333 644.928 864.348 645.866Q863.363 646.805 862.356 647.719Q861.348 648.634 860.32 649.524Q859.291 650.414 858.24 651.279Q857.19 652.144 856.12 652.983Q855.049 653.823 853.958 654.636Q852.868 655.449 851.758 656.236Q850.648 657.023 849.52 657.782Q848.391 658.542 847.245 659.275Q846.098 660.007 844.934 660.712Q843.771 661.416 842.59 662.092Q841.41 662.769 840.213 663.416Q839.017 664.064 837.805 664.682Q836.594 665.301 835.367 665.89Q834.141 666.479 832.901 667.039C793.871 684.413 747.257 677.941 705.697 678.784C728.185 664.562 752.88 648.245 760.53 621.115Z"/>
	<path fill="#061356" transform="scale(13.6803 13.6803)" d="M827.479 445.064Q828.584 442.952 829.774 440.888C837.605 427.333 851.252 417.599 866.321 413.686C881.314 409.792 896.822 411.639 910.195 419.612C924.508 428.144 935.099 443.442 939.029 459.548C942.831 475.131 939.638 492.003 931.297 505.604C921.419 521.708 906.627 528.798 888.787 533.07C887.207 533.457 886.891 533.384 885.813 534.675C884.763 541.221 885.867 548.189 885.16 554.847Q885.037 555.957 884.884 557.063Q884.732 558.169 884.55 559.271Q884.369 560.372 884.159 561.469Q883.949 562.566 883.71 563.656Q883.471 564.747 883.204 565.831Q882.937 566.915 882.641 567.992Q882.346 569.069 882.022 570.137Q881.698 571.206 881.347 572.266Q880.995 573.325 880.616 574.376Q880.237 575.426 879.83 576.466Q879.424 577.506 878.99 578.535Q878.557 579.563 878.096 580.581Q877.636 581.598 877.149 582.603Q876.662 583.607 876.149 584.599Q875.636 585.591 875.097 586.569Q874.558 587.547 873.994 588.51Q873.429 589.474 872.84 590.422Q872.251 591.37 871.637 592.303Q871.023 593.236 870.385 594.152Q869.747 595.068 869.085 595.967Q868.423 596.866 867.737 597.748Q867.052 598.63 866.344 599.493Q865.636 600.356 864.906 601.201Q864.175 602.045 863.423 602.87Q862.67 603.695 861.897 604.5Q861.123 605.305 860.328 606.09Q859.534 606.874 858.719 607.638Q857.904 608.401 857.07 609.143Q856.235 609.885 855.382 610.604Q854.528 611.324 853.656 612.021Q852.784 612.718 851.894 613.393Q851.004 614.067 850.096 614.717C831.8 628.041 809.701 633.639 787.306 629.937C777.945 628.389 769.122 625.06 760.53 621.115C756.369 618.896 752.273 615.536 748.775 612.404C731.664 597.083 721.294 577.321 720.184 554.24Q720.139 553.226 720.119 552.212Q720.099 551.197 720.103 550.182Q720.108 549.168 720.138 548.153Q720.167 547.139 720.222 546.126Q720.277 545.113 720.356 544.101Q720.436 543.089 720.54 542.08Q720.645 541.071 720.774 540.064Q720.903 539.058 721.057 538.055Q721.211 537.052 721.389 536.053Q721.568 535.054 721.771 534.06Q721.974 533.066 722.201 532.077Q722.429 531.088 722.68 530.105Q722.932 529.122 723.208 528.145Q723.483 527.169 723.783 526.199Q724.083 525.23 724.406 524.268Q724.73 523.306 725.077 522.353Q725.424 521.399 725.794 520.454Q726.164 519.51 726.558 518.574Q726.951 517.639 727.367 516.714Q727.784 515.788 728.223 514.873Q728.662 513.958 729.123 513.055Q729.584 512.151 730.068 511.259Q730.551 510.367 731.056 509.486Q731.561 508.606 732.088 507.739Q732.615 506.872 733.163 506.018Q733.711 505.164 734.279 504.323Q734.848 503.483 735.437 502.657Q736.026 501.83 736.636 501.019Q737.245 500.208 737.874 499.411Q738.503 498.615 739.152 497.835Q739.8 497.054 740.467 496.29Q741.135 495.526 741.821 494.778C758.053 476.971 779.776 468.495 803.6 467.344Q803.8 464.586 804.095 461.836C804.706 456.507 806.804 450.989 811.209 447.667C816.06 444.009 821.786 444.241 827.479 445.064Z"/>
	<path fill="#F7A757" transform="scale(13.6803 13.6803)" d="M859.504 535.224Q868.202 534.885 876.906 534.998C878.922 556.285 874.034 576.954 860.187 593.661Q858.933 595.166 857.618 596.618C852.885 591.107 847.966 585.613 843.788 579.658C854.796 567.865 858.78 550.836 859.504 535.224Z"/>
	<path fill="#F2BF5E" transform="scale(13.6803 13.6803)" d="M816.835 535.065C831.006 535.038 845.366 535.796 859.504 535.224C858.78 550.836 854.796 567.865 843.788 579.658C833.724 567.86 824.082 555.72 813.928 543.991C815.046 541.04 815.987 538.104 816.835 535.065Z"/>
	<path fill="#F7A757" transform="scale(13.6803 13.6803)" d="M732.565 575.017C732.871 575.159 733.181 575.291 733.482 575.442C738.314 577.864 742.216 583.533 746.705 586.76C761.266 597.231 784.694 599.109 801.547 594.204C811.844 591.207 823.998 585.74 831.392 577.729C838.446 585.849 845.264 593.94 851.598 602.637Q848.908 605.146 845.979 607.372Q843.05 609.597 839.913 611.517Q836.775 613.437 833.46 615.031Q830.145 616.625 826.686 617.878C808.523 624.55 787.696 624.111 770.067 615.939Q768.456 615.182 766.884 614.348Q765.312 613.514 763.782 612.605Q762.253 611.695 760.769 610.712Q759.286 609.729 757.852 608.674Q756.418 607.62 755.037 606.497Q753.656 605.374 752.332 604.186Q751.008 602.997 749.743 601.745Q748.478 600.493 747.275 599.181Q746.073 597.869 744.936 596.5Q743.799 595.131 742.73 593.708Q741.661 592.285 740.662 590.812Q739.664 589.339 738.739 587.818Q737.813 586.298 736.963 584.735Q736.113 583.171 735.34 581.568Q734.566 579.965 733.872 578.326Q733.178 576.688 732.565 575.017Z"/>
	<path fill="#118895" transform="scale(13.6803 13.6803)" d="M899.403 425.187C910.006 428.069 919.093 436.367 924.534 445.735C931.779 458.209 933.589 473.994 929.806 487.878C926.429 500.271 918.373 511.31 907.162 517.714C900.788 521.354 893.697 523.625 886.486 524.882C874.603 526.954 862.449 526.524 850.436 526.522L812.964 526.586L812.998 482.998C813.003 475.071 812.683 467.057 813.053 459.142C814.648 456.549 816.093 454.1 819.24 453.276C821.04 452.805 823.039 452.839 824.888 452.823C821.479 471.872 822.759 494.582 823.128 514.107C825.497 514.131 827.978 514.415 830.175 513.415C830.907 512.652 831.297 512.16 831.64 511.155C843.73 510.287 856.522 510.834 868.655 511.129C876.418 511.318 884.879 512.417 892.489 510.663C898.052 509.381 903.112 506.546 907.354 502.754C916.641 494.452 921.005 482.484 921.533 470.249C922.171 455.464 917.004 444.001 907.015 433.195C904.429 430.688 901.411 428.172 899.403 425.187Z"/>
	<path fill="#F2BF5E" transform="scale(13.6803 13.6803)" d="M797.834 476.695C799.892 476.37 802.179 476.523 804.271 476.485C804.395 486.87 801.959 524.487 804.734 531.597C805.298 533.042 807.657 533.902 809.02 534.586C808.324 536.082 807.609 537.603 806.75 539.012C805.157 541.626 802.511 543.669 799.491 544.302C789.713 546.349 775.587 534.546 768.114 529.412C758.911 522.74 749.473 516.74 739.656 511.022Q740.944 509.349 742.254 507.693C756.653 489.511 774.822 479.362 797.834 476.695Z"/>
	<path fill="#F2BF5E" transform="scale(13.6803 13.6803)" d="M735.574 517.978C745.755 523.711 755.236 530.099 764.876 536.693C772.839 542.139 781.389 549.104 790.513 552.411C793.994 553.673 797.387 554.1 801.01 553.134C803.584 552.447 805.971 551.2 808.33 549.989C816.432 558.93 823.594 568.545 831.392 577.729C823.998 585.74 811.844 591.207 801.547 594.204C784.694 599.109 761.266 597.231 746.705 586.76C742.216 583.533 738.314 577.864 733.482 575.442C733.181 575.291 732.871 575.159 732.565 575.017C725.18 558.288 727.257 539.326 733.714 522.644Q734.624 520.303 735.574 517.978Z"/>
	<path fill="#FCFCFC" transform="scale(13.6803 13.6803)" d="M745.248 544.004C746.701 544.227 748.173 544.481 749.499 545.152C751.696 546.262 753.474 548.491 754.223 550.817C755.018 553.284 754.839 556 753.515 558.253C751.98 560.865 749.959 561.717 747.143 562.483C746.419 562.372 745.699 562.27 744.991 562.078C742.447 561.388 740.172 559.851 738.947 557.468C737.871 555.375 737.907 552.907 738.632 550.711C739.797 547.183 742.089 545.667 745.248 544.004Z"/>
	<path fill="#5CCFD3" transform="scale(13.6803 13.6803)" d="M831.64 511.155C831.012 504.524 831.466 497.418 831.445 490.738C831.414 480.616 830.395 469.262 832.217 459.321C834.459 447.091 842.724 435.867 852.915 428.972Q853.899 428.305 854.915 427.688Q855.931 427.07 856.975 426.503Q858.02 425.936 859.092 425.421Q860.163 424.906 861.258 424.444Q862.354 423.982 863.47 423.574Q864.587 423.167 865.723 422.815Q866.858 422.463 868.009 422.167Q869.161 421.871 870.325 421.632Q871.49 421.393 872.664 421.211Q873.839 421.029 875.021 420.906Q876.204 420.782 877.391 420.716Q878.578 420.651 879.766 420.644Q880.955 420.637 882.143 420.688Q883.331 420.739 884.514 420.849Q885.698 420.958 886.875 421.125Q888.052 421.293 889.219 421.518C892.699 422.361 896.317 423.307 899.403 425.187C901.411 428.172 904.429 430.688 907.015 433.195C917.004 444.001 922.171 455.464 921.533 470.249C921.005 482.484 916.641 494.452 907.354 502.754C903.112 506.546 898.052 509.381 892.489 510.663C884.879 512.417 876.418 511.318 868.655 511.129C856.522 510.834 843.73 510.287 831.64 511.155Z"/>
	<path fill="#061356" transform="scale(13.6803 13.6803)" d="M875.267 494.503C874.101 492.866 873.134 491.311 873.043 489.247C872.941 486.936 873.789 484.804 875.398 483.15C877.309 481.186 880.06 480.141 882.782 480.141C886.069 480.142 888.284 481.544 890.477 483.853C888.627 484.892 886.108 484.597 884.028 484.61C879.859 487.32 878.624 491.276 875.267 494.503Z"/>
	<path fill="#2A447A" transform="scale(13.6803 13.6803)" d="M890.477 483.853C891.843 485.917 892.997 488.13 892.421 490.678C891.907 492.952 890.128 494.739 888.18 495.898C885.704 497.371 882.545 497.958 879.75 497.155C878.019 496.657 876.654 495.607 875.267 494.503C878.624 491.276 879.859 487.32 884.028 484.61C886.108 484.597 888.627 484.892 890.477 483.853Z"/>
	<path fill="#FCFCFC" transform="scale(13.6803 13.6803)" d="M873.846 435.188C881.079 434.225 890.675 435.199 897.591 437.578C902.698 439.336 904.682 441.41 907.045 446.037C902.999 446.068 899.207 445.602 895.229 444.902C890.243 443.692 885.274 442.918 880.128 443.17C873.998 443.469 867.773 444.97 861.67 443.693C861.458 443.398 861.224 443.104 861.098 442.757C860.697 441.652 860.634 440.714 861.277 439.683C863.34 436.378 870.261 435.646 873.846 435.188Z"/>
	<path fill="#061356" transform="scale(13.6803 13.6803)" d="M878.593 464.613C890.314 464.089 898.454 468.465 907.127 475.977C905.438 477.96 903.658 479.799 901.82 481.64C897.416 477.205 892.99 474.941 887.224 472.735C876.916 471.721 870.023 475.588 862.319 481.793C860.714 479.967 859.372 477.978 857.987 475.985C863.092 469.123 870.501 466.349 878.593 464.613Z"/>
	<path fill="#061356" transform="scale(13.6803 13.6803)" d="M876.804 449.665C877.27 449.625 877.736 449.582 878.203 449.559C893.108 448.831 906.271 453.938 917.223 463.952C915.544 466.142 913.628 468.123 911.751 470.142C904.665 463.008 896.587 459.883 886.959 457.633C871.591 456.955 863.78 461.24 851.759 470.259C849.959 468.8 848.19 467.298 846.41 465.815C855.069 456.177 864.012 451.696 876.804 449.665Z"/>
	<path fill="#061356" transform="scale(13.6803 13.6803)" d="M286.374 109.209C308.771 106.115 337.37 114.73 356.26 126.53C383.554 143.58 399.287 170.434 406.298 201.237C411.003 200.018 415.952 199.194 420.813 199.035C432.549 198.65 444.355 202.841 452.871 211.003Q453.699 211.808 454.487 212.652Q455.274 213.497 456.019 214.38Q456.764 215.262 457.464 216.18Q458.164 217.099 458.818 218.05Q459.472 219.002 460.079 219.985Q460.685 220.968 461.242 221.98Q461.799 222.991 462.305 224.029Q462.811 225.067 463.265 226.129Q463.719 227.191 464.121 228.274Q464.522 229.356 464.869 230.458Q465.216 231.559 465.509 232.676Q465.801 233.794 466.038 234.924Q466.275 236.054 466.456 237.195Q466.636 238.335 466.76 239.483Q466.884 240.632 466.952 241.784Q467.019 242.937 467.029 244.092C467.12 255.274 463.249 265.937 455.331 273.938C449.946 279.379 442.56 283.65 435.04 285.231C427.065 286.908 418.534 286.425 410.434 286.376L381.939 286.21L283.75 286.209L203.429 286.405C188.293 286.456 172.388 287.465 157.344 285.817C151.786 285.208 146.828 283.971 141.659 281.836C127.771 276.098 116.689 264.282 111.022 250.458Q110.502 249.172 110.047 247.862Q109.591 246.551 109.201 245.22Q108.811 243.889 108.487 242.54Q108.163 241.192 107.906 239.828Q107.649 238.465 107.46 237.091Q107.271 235.717 107.15 234.335Q107.029 232.953 106.977 231.567Q106.925 230.181 106.941 228.794Q106.957 227.407 107.042 226.022Q107.127 224.637 107.28 223.259Q107.433 221.88 107.655 220.511Q107.876 219.141 108.164 217.785Q108.453 216.428 108.809 215.087Q109.164 213.746 109.585 212.424Q110.007 211.103 110.493 209.804Q110.979 208.505 111.529 207.231C117.649 192.81 129.004 181.161 143.654 175.419C160.574 168.788 177.269 171.271 193.503 178.432C197.413 166.681 204.952 155.035 212.973 145.674C231.645 123.881 257.942 111.455 286.374 109.209Z"/>
	<path fill="#FCFCFC" transform="scale(13.6803 13.6803)" d="M287.867 117.707C303.102 115.065 326.342 121.223 340.061 127.894C364.04 139.555 384.303 160.089 393.054 185.568C396.029 194.23 397.192 203.466 400.242 212.108L400.481 212.774C408.135 211.572 415.496 207.903 423.292 207.745C432.042 207.567 440.491 211.616 446.694 217.618C454.06 224.746 458.95 234.415 459 244.791C459.042 253.556 455.274 262.186 449.067 268.334C444.414 272.942 439.156 275.569 432.708 276.734C425.824 277.979 418.721 277.637 411.754 277.631L384.414 277.607L284.25 277.509L207.517 277.758C191.128 277.871 168.604 279.793 152.999 276.325Q151.883 276.072 150.781 275.766Q149.679 275.459 148.593 275.099Q147.507 274.739 146.44 274.326Q145.372 273.914 144.326 273.45Q143.281 272.986 142.258 272.472Q141.236 271.958 140.241 271.395Q139.245 270.832 138.277 270.221Q137.31 269.61 136.374 268.952Q135.437 268.295 134.534 267.593Q133.631 266.891 132.762 266.146Q131.894 265.401 131.063 264.614Q130.233 263.827 129.441 263.001Q128.649 262.175 127.899 261.312Q127.148 260.448 126.441 259.549Q125.733 258.65 125.07 257.718Q124.407 256.786 123.79 255.822C116.911 244.886 114.55 230.604 117.486 218.019C120.417 205.451 128.774 194.039 139.733 187.268C151.929 179.733 168.059 177.558 181.588 182.644C186.961 184.664 191.962 187.699 197.598 188.955L198.302 189.108C201.836 183.998 203.614 177.581 206.076 171.908C208.898 165.407 213.156 159.366 217.619 153.896C235.236 132.302 260.435 120.429 287.867 117.707Z"/>
	<path fill="#061356" transform="scale(13.6803 13.6803)" d="M359.557 185.986C362.127 186.223 364.268 186.413 366.105 188.405C367.206 189.599 367.655 191.073 367.537 192.686C367.331 195.502 365.347 197.256 363.245 198.832C360.883 198.738 358.835 198.506 357.088 196.749C355.886 195.538 355.402 193.96 355.506 192.276C355.686 189.351 357.41 187.738 359.557 185.986Z"/>
	<path fill="#061356" transform="scale(13.6803 13.6803)" d="M289.781 137.577Q293.016 137.487 296.252 137.515C315.002 137.836 334.35 145.372 347.34 159.198C349.014 160.979 351.332 163.788 350.99 166.453C350.686 168.818 349.364 169.664 347.559 170.968L347.374 170.864C344.043 169.032 341.321 166.281 338.474 163.791C332.638 158.687 326.409 154.042 319.158 151.125C315.401 149.615 311.232 148.729 307.24 148.113C303.067 147.47 291.532 147.608 288.341 145.281C287.506 144.671 286.732 143.692 286.734 142.613C286.737 140.383 288.237 138.968 289.781 137.577Z"/>
	<path fill="#061356" transform="scale(13.6803 13.6803)" d="M772.799 115.703Q778.414 115.255 784.04 115.524C814.04 116.99 843.916 131.452 864.082 153.593C886.04 177.702 896.149 208.743 894.433 241.149C892.736 273.201 875.938 302.806 852.333 324.012C828.951 345.019 799.12 354.685 767.833 352.908C737.716 351.198 709.741 336.254 689.863 313.848C665.378 286.249 658.393 256.999 660.513 220.957C638.884 220.19 616.992 220.996 595.338 221.067C582.231 221.11 566.778 219.582 553.998 221.913C548.662 222.886 544.221 225.233 539.742 228.189C537.945 229.518 536.301 230.942 534.74 232.539C530.445 236.932 526.958 242.441 525.389 248.417C522.109 260.908 523.72 274.921 523.798 287.749L524.157 333.593C531.211 333.464 539.444 332.438 546.346 333.846C548.243 334.234 549.762 334.771 550.887 336.416C550.932 337.564 550.688 338.393 550.103 339.368C546.823 344.835 541.61 350.211 537.55 355.193Q524.478 371.375 511.02 387.238C504.726 380.435 472.44 342.425 471.434 336.153C471.285 335.224 471.474 335.3 471.994 334.605C478.697 331.643 496.28 332.934 504.001 333.341L503.918 269.141C503.947 249.118 506.42 232.57 521.242 217.957Q522.523 216.689 523.89 215.513Q525.256 214.338 526.701 213.259Q528.145 212.181 529.661 211.205Q531.177 210.23 532.757 209.362Q534.337 208.494 535.973 207.738Q537.61 206.981 539.295 206.34Q540.979 205.699 542.704 205.176Q544.43 204.654 546.187 204.252C561.313 200.79 578.382 202.692 593.858 202.804L663.841 203.298C668.62 186.512 675.986 171.201 687.183 157.705C708.768 131.688 739.643 118.703 772.799 115.703Z"/>
	<path fill="#FCFCFC" transform="scale(13.6803 13.6803)" d="M550.235 207.518C550.455 207.514 550.677 207.481 550.895 207.506C551.66 207.593 552.195 207.719 552.641 208.363C553.831 210.079 553.463 212.384 553.26 214.342C551.267 216.47 544.892 217.212 541.987 218.416C539.611 219.401 537.521 220.754 535.39 222.172L530.013 216.187C536.302 212.202 543.122 209.601 550.235 207.518Z"/>
	<path fill="#FCFCFC" transform="scale(13.6803 13.6803)" d="M613.065 206.498L634.823 206.506L634.049 214.851C627.357 215.659 620.061 215.072 613.303 215.005L613.065 206.498Z"/>
	<path fill="#FCFCFC" transform="scale(13.6803 13.6803)" d="M639.563 206.58C647.341 206.554 655.183 206.335 662.948 206.786L660.679 214.29C654.589 216.12 645.9 214.868 639.577 214.581L639.563 206.58Z"/>
	<path fill="#FCFCFC" transform="scale(13.6803 13.6803)" d="M557.894 206.614Q569.015 206.439 580.136 206.606L579.988 214.935L558.534 215.018C558.478 212.22 558.136 209.403 557.894 206.614Z"/>
	<path fill="#FCFCFC" transform="scale(13.6803 13.6803)" d="M525.167 219.809C527.341 221.319 529.035 223.254 530.832 225.179C527.012 228.941 520.409 241.106 518.107 242.347L511.222 240.859C514.57 232.598 519.21 226.361 525.167 219.809Z"/>
	<path fill="#FCFCFC" transform="scale(13.6803 13.6803)" d="M585.497 206.507L607.597 206.518L607.545 215.032L585.498 215.028L585.497 206.507Z"/>
	<path fill="#FCFCFC" transform="scale(13.6803 13.6803)" d="M508.557 277.506L516.421 277.512C516.445 285.973 516.601 294.462 516.226 302.915L508.581 302.909L508.557 277.506Z"/>
	<path fill="#FCFCFC" transform="scale(13.6803 13.6803)" d="M508.502 307.392L516.478 307.364L516.497 333.455L508.536 333.432L508.502 307.392Z"/>
	<path fill="#FCFCFC" transform="scale(13.6803 13.6803)" d="M509.808 245.37C512.538 245.578 515.243 246.256 517.923 246.803C516.745 255.616 516.493 264.172 516.5 273.053C514.035 273.11 511.42 273.416 509.302 271.952C506.286 266.263 508.9 252.043 509.808 245.37Z"/>
	<path fill="#E58130" transform="scale(13.6803 13.6803)" d="M717.717 286.428C730.465 297.801 742.311 306.694 759.273 310.753C764.445 311.991 769.782 312.441 774.922 313.676Q775.154 321.303 775.212 328.934C766.427 326.095 759.356 326.362 750.53 321.562C739.337 315.474 721.343 298.838 717.717 286.428Z"/>
	<path fill="#FCFCFC" transform="scale(13.6803 13.6803)" d="M500.999 341.242Q518.785 341.142 536.568 341.45C530.625 350.555 523.158 358.872 516.25 367.26L511.388 373.014C501.459 364.316 493.382 352.449 486.061 341.516L500.999 341.242Z"/>
	<path fill="#F7A757" transform="scale(13.6803 13.6803)" d="M668.255 238.574L699.161 238.498C700.62 252.086 703.896 264.419 710.967 276.249C713.057 279.746 715.635 282.924 717.717 286.428C721.343 298.838 739.337 315.474 750.53 321.562C759.356 326.362 766.427 326.095 775.212 328.934Q775.251 336.73 774.745 344.509Q772.394 344.469 770.047 344.326Q767.7 344.183 765.361 343.937Q763.022 343.692 760.697 343.344Q758.371 342.997 756.063 342.548Q753.755 342.099 751.469 341.549Q749.182 341 746.922 340.351Q744.662 339.702 742.432 338.954Q740.203 338.207 738.008 337.363Q735.813 336.519 733.657 335.58Q731.502 334.641 729.389 333.608Q727.277 332.576 725.211 331.452Q723.146 330.328 721.131 329.114Q719.117 327.901 717.158 326.601Q715.199 325.301 713.298 323.916Q711.398 322.531 709.559 321.065Q707.721 319.598 705.949 318.053C682.471 297.462 670.276 269.411 668.255 238.574Z"/>
	<path fill="#EE6552" transform="scale(13.6803 13.6803)" d="M855.015 238.509L886.086 238.507C884.953 253.149 881.678 266.656 875.344 279.958C861.512 309.003 838.494 328.525 808.359 339.19C799.874 341.67 791.17 342.905 782.438 344.12Q782.577 328.407 782.281 312.697Q783.694 312.586 785.102 312.427Q786.51 312.267 787.912 312.059Q789.314 311.85 790.707 311.593Q792.101 311.335 793.485 311.029Q794.869 310.724 796.241 310.37Q797.613 310.016 798.972 309.615Q800.331 309.213 801.676 308.765Q803.02 308.316 804.348 307.821Q805.676 307.326 806.986 306.785Q808.296 306.244 809.586 305.658Q810.876 305.072 812.145 304.441Q813.414 303.81 814.66 303.135Q815.906 302.46 817.128 301.742Q818.35 301.025 819.546 300.265Q820.743 299.505 821.912 298.704Q823.081 297.902 824.221 297.061C843.935 282.292 851.677 262.165 855.015 238.509Z"/>
	<path fill="#F7A757" transform="scale(13.6803 13.6803)" d="M772.744 124.727C773.458 124.606 773.612 124.752 774.272 124.992C776.562 130.237 774.806 149.166 774.539 155.942C755.937 157.449 739.655 162.877 725.373 175.23C708.756 189.603 700.894 209.19 699.424 230.793C689.931 230.696 680.413 230.885 670.918 230.927C670.16 230.814 669.713 230.549 669.041 230.197C668.806 229.626 668.599 229.114 668.509 228.499C668.003 225.057 669.182 220.405 669.801 216.996C673.406 197.143 680.896 179.562 693.851 163.964C714.048 139.647 741.745 127.646 772.744 124.727Z"/>
	<path fill="#EE6552" transform="scale(13.6803 13.6803)" d="M782.494 124.98C806.296 124.752 830.611 135.435 848.456 150.805C872.665 171.658 884.197 199.709 886.53 231.063Q871.311 231.295 856.091 231.086C853.613 216.534 850.246 202.71 841.864 190.298C827.327 168.773 807.137 160.093 782.496 155.316L782.494 124.98Z"/>
	<path fill="#FCFCFC" transform="scale(13.6803 13.6803)" d="M773.83 163.709C788.732 162.663 804.696 168.234 816.735 176.799Q818.188 177.827 819.588 178.925Q820.988 180.023 822.333 181.189Q823.677 182.355 824.962 183.587Q826.247 184.818 827.469 186.111Q828.692 187.404 829.849 188.756Q831.006 190.108 832.095 191.515Q833.184 192.923 834.202 194.383Q835.22 195.842 836.165 197.35Q837.109 198.859 837.978 200.412Q838.847 201.965 839.639 203.559Q840.43 205.153 841.141 206.784Q841.852 208.415 842.482 210.08Q843.112 211.744 843.659 213.438Q844.206 215.131 844.668 216.849Q845.131 218.568 845.508 220.307Q845.884 222.046 846.175 223.802Q846.447 225.476 846.637 227.162Q846.827 228.847 846.935 230.54Q847.042 232.233 847.066 233.929Q847.09 235.625 847.031 237.32Q846.973 239.015 846.831 240.706Q846.689 242.396 846.464 244.077Q846.24 245.759 845.933 247.427Q845.627 249.095 845.239 250.746Q844.851 252.398 844.382 254.028Q843.914 255.658 843.366 257.264Q842.819 258.869 842.193 260.446Q841.568 262.022 840.865 263.566Q840.163 265.11 839.386 266.618Q838.609 268.126 837.76 269.594Q836.91 271.062 835.989 272.487Q835.068 273.911 834.079 275.289C821.057 293.07 802.77 301.238 781.486 304.447C763.799 304.863 747.629 300.725 733.682 289.351Q732.322 288.24 731.019 287.063Q729.716 285.886 728.473 284.645Q727.231 283.404 726.052 282.103Q724.873 280.802 723.76 279.443Q722.648 278.084 721.604 276.672Q720.561 275.259 719.59 273.796Q718.618 272.334 717.721 270.824Q716.824 269.315 716.003 267.762Q715.183 266.21 714.441 264.618Q713.699 263.027 713.037 261.4Q712.375 259.773 711.796 258.116Q711.216 256.458 710.72 254.774Q710.224 253.089 709.813 251.382Q709.401 249.675 709.076 247.949Q708.75 246.224 708.512 244.484Q708.273 242.744 708.121 240.995C706.355 222.378 711.574 203.458 723.588 189.011C736.305 173.72 754.264 165.542 773.83 163.709Z"/>
	<path fill="#061356" transform="scale(13.6803 13.6803)" d="M772.841 176.198C786.524 174.42 802.353 180.828 813.013 189.079Q814.107 189.935 815.156 190.844Q816.206 191.754 817.21 192.713Q818.214 193.673 819.17 194.681Q820.125 195.689 821.029 196.743Q821.934 197.797 822.785 198.895Q823.636 199.992 824.433 201.13Q825.229 202.268 825.968 203.444Q826.707 204.619 827.388 205.83Q828.068 207.041 828.688 208.284Q829.308 209.527 829.865 210.799Q830.423 212.071 830.918 213.369Q831.412 214.666 831.842 215.987Q832.272 217.308 832.636 218.648Q833 219.988 833.298 221.345Q833.596 222.701 833.826 224.071Q834.056 225.441 834.219 226.82Q834.4 228.231 834.511 229.649Q834.622 231.067 834.662 232.489Q834.703 233.911 834.672 235.333Q834.642 236.755 834.542 238.174Q834.441 239.592 834.27 241.004Q834.099 242.417 833.859 243.818Q833.618 245.22 833.308 246.609Q832.998 247.997 832.62 249.368Q832.242 250.739 831.796 252.09Q831.35 253.441 830.838 254.768Q830.326 256.094 829.748 257.394Q829.171 258.694 828.53 259.964Q827.888 261.234 827.185 262.47Q826.482 263.706 825.718 264.906Q824.954 266.106 824.132 267.267Q823.31 268.428 822.431 269.546Q821.524 270.687 820.561 271.782Q819.598 272.877 818.583 273.923Q817.567 274.969 816.501 275.963Q815.434 276.958 814.32 277.898Q813.206 278.839 812.047 279.723Q810.888 280.607 809.686 281.433Q808.484 282.258 807.243 283.024Q806.002 283.789 804.725 284.492Q803.448 285.195 802.137 285.833Q800.826 286.472 799.486 287.045Q798.145 287.619 796.778 288.125Q795.411 288.631 794.02 289.069Q792.629 289.506 791.219 289.875Q789.808 290.243 788.381 290.542Q786.954 290.84 785.514 291.067Q784.074 291.294 782.624 291.45C767.724 292.675 753.126 288.619 741.289 279.366C729.133 269.864 721.742 255.946 719.95 240.681Q719.787 239.244 719.695 237.8Q719.603 236.357 719.582 234.91Q719.561 233.464 719.612 232.018Q719.662 230.573 719.784 229.131Q719.905 227.69 720.098 226.256Q720.29 224.823 720.553 223.4Q720.815 221.978 721.148 220.57Q721.48 219.162 721.882 217.773Q722.283 216.383 722.752 215.015Q723.221 213.646 723.757 212.303Q724.293 210.959 724.895 209.644Q725.496 208.328 726.162 207.044Q726.827 205.76 727.555 204.51Q728.283 203.26 729.072 202.047Q729.86 200.835 730.708 199.662Q731.555 198.49 732.459 197.361C742.621 184.747 756.909 177.91 772.841 176.198Z"/>
	<path fill="#FCFCFC" transform="scale(13.6803 13.6803)" d="M759.571 187.473L760.212 187.942C760.844 190.898 756.978 202.843 756.341 206.604C755.011 214.458 754.36 222.403 753.628 230.33Q741.27 230.114 728.91 230.091C728.088 229.78 728.013 229.963 727.691 229.314C726.425 226.77 728.607 221.294 729.614 218.707C735.272 204.173 745.337 193.726 759.571 187.473Z"/>
	<path fill="#FCFCFC" transform="scale(13.6803 13.6803)" d="M726.863 237.568L753.535 237.505C754.699 252.62 757.035 266.423 760.698 281.146C757.007 279.479 753.346 277.622 749.975 275.371C736.264 266.213 730.081 253.318 726.863 237.568Z"/>
	<path fill="#FCFCFC" transform="scale(13.6803 13.6803)" d="M800.046 237.559L826.938 237.752C824.684 250.65 819.826 261.124 810.556 270.459C805.062 275.112 799.216 278.142 792.53 280.754C797.59 266.668 799.122 252.373 800.046 237.559Z"/>
	<path fill="#FCFCFC" transform="scale(13.6803 13.6803)" d="M791.401 186.745C796.211 188.16 800.789 190.571 804.85 193.492C817.386 202.509 824.159 215.045 826.666 230.074L800.253 230.257C798.703 215.228 795.805 201.195 791.401 186.745Z"/>
	<path fill="#FCFCFC" transform="scale(13.6803 13.6803)" d="M775.447 183.5C777.285 183.424 778.636 183.464 780.156 184.664C789.051 191.686 791.481 218.754 792.652 230.071L779.25 230.101L761.488 230.079Q761.444 223.843 762.042 217.635Q762.64 211.428 763.874 205.315C765.636 196.791 767.785 188.548 775.447 183.5Z"/>
	<path fill="#FCFCFC" transform="scale(13.6803 13.6803)" d="M764.167 237.246Q778.34 237.052 792.515 237.096C792.671 251.804 790.402 267.24 783.977 280.582C782.749 282.458 780.94 283.917 778.787 284.629C777.246 285.139 775.689 284.869 774.287 284.084C769.044 281.149 766.515 273.987 764.919 268.514C763.333 263.071 758.902 242.442 761.993 237.847C762.426 237.203 763.454 237.339 764.167 237.246Z"/>
	<path fill="#061356" transform="scale(13.6803 13.6803)" d="M175.493 337.633C176.249 337.539 176.988 337.456 177.749 337.425C183.954 337.176 189.993 338.49 195.204 341.984C204.193 348.009 210.47 357.347 217.85 365.106L254.372 402.993C263.355 412.45 271.982 422.37 281.52 431.27L281.684 480.551C289.503 480.506 298.125 479.45 305.834 480.709C316.21 482.404 336.544 493.903 344.751 500.545C344.642 500.642 344.535 500.741 344.424 500.836C336.884 507.374 312.347 520.655 302.809 522.214C296.016 523.324 288.561 522.435 281.711 522.032Q282.065 559.231 281.779 596.43C294.899 607.636 306.835 621.172 318.74 633.663C326.25 633.535 338.376 631.811 344.837 635.611C346.252 637.534 346.721 639.64 347.023 641.985C347.628 646.677 347.203 651.79 347.204 656.537Q347.244 672.153 347.055 687.768C356.526 697.697 365.98 707.596 375.014 717.931Q375.365 733.474 375.498 749.02L375.516 850.648L375.613 881.236C375.638 888.742 375.92 896.548 374.876 903.992C374.514 906.569 373.521 908.89 371.613 910.703C369.79 912.435 367.959 912.982 365.519 913.328C355.796 914.707 339.493 913.936 329.215 913.94L251.875 913.707L195.012 913.676C184.064 913.731 172.838 914.535 161.927 913.542C159.385 913.311 155.813 913.119 153.946 911.223C152.212 909.462 151.462 907.122 151.194 904.722C150.375 897.404 150.855 889.682 150.822 882.312L150.674 840.35C150.567 799.14 149.721 757.73 151.428 716.551C155.389 712.095 160.045 708.029 164.345 703.885C170.344 698.104 176.252 692.155 182.491 686.635C182.204 669.459 180.822 650.786 183.918 633.887C192.92 632.59 202.126 633.068 211.186 633.318C223.329 621.743 234.295 609.102 246.949 598.024L172.41 597.874C155.86 597.91 139.201 598.498 122.666 598.11C119.983 598.047 116.076 598.197 113.603 597.092C110.786 591.294 112.293 573.211 112.425 565.928C104.355 566.216 95.6902 567.142 87.879 564.724C86.8469 556.651 87.5398 547.873 87.5567 539.703L87.6709 492.88L87.6646 404.968C87.6175 392.909 87.0815 380.774 87.2369 368.73C87.2751 365.771 87.2833 362.356 88.4981 359.621C93.5735 356.936 139.89 358.083 149.745 358.096Q151.693 354.071 154.223 350.383C159.559 342.574 166.562 339.366 175.493 337.633Z"/>
	<path fill="#2EBAB6" transform="scale(13.6803 13.6803)" d="M258.483 419.13C262.209 421.081 266.937 425.424 269.268 428.908L258.199 428.942C258.177 425.679 258.374 422.392 258.483 419.13Z"/>
	<path fill="#E58130" transform="scale(13.6803 13.6803)" d="M296.061 621.542L309.287 634.004L295.432 634.007C295.461 629.853 295.781 625.685 296.061 621.542Z"/>
	<path fill="#2EBAB6" transform="scale(13.6803 13.6803)" d="M229.512 541.43L242.516 541.431L236.079 548.15L229.398 555.378L229.512 541.43Z"/>
	<path fill="#E58130" transform="scale(13.6803 13.6803)" d="M355.361 707.147C359.511 711.355 363.593 715.696 367.886 719.755C363.838 723.726 359.829 728.091 355.49 731.725C355.513 723.538 355.65 715.329 355.361 707.147Z"/>
	<path fill="#E58130" transform="scale(13.6803 13.6803)" d="M159.988 718.922Q167.032 712.366 173.988 705.718C173.988 714.061 173.684 722.525 174.101 730.851C169.266 727.046 164.656 722.93 159.988 718.922Z"/>
	<path fill="#F2BF5E" transform="scale(13.6803 13.6803)" d="M347.272 698.907C350.122 701.54 352.772 704.257 355.361 707.147C355.65 715.329 355.513 723.538 355.49 731.725C352.882 734.191 350.114 736.374 347.274 738.565C346.424 725.542 346.832 711.956 347.272 698.907Z"/>
	<path fill="#F2BF5E" transform="scale(13.6803 13.6803)" d="M173.988 705.718Q178.046 701.281 182.258 696.99C182.414 710.761 182.497 724.483 181.965 738.249C179.344 735.802 176.607 733.412 174.101 730.851C173.684 722.525 173.988 714.061 173.988 705.718Z"/>
	<path fill="#FCFCFC" transform="scale(13.6803 13.6803)" d="M307.532 489.149C316.116 491.737 324.437 496.153 332.022 500.865C329.572 502.321 326.875 503.52 324.323 504.801Q315.864 509.149 307.188 513.045L307.532 489.149Z"/>
	<path fill="#2EBAB6" transform="scale(13.6803 13.6803)" d="M281.5 489.09L299.393 489.101L299.413 513.998C293.447 514.148 287.459 514.065 281.49 514.069L281.5 489.09Z"/>
	<path fill="#E58130" transform="scale(13.6803 13.6803)" d="M356.393 741.081Q362.012 735.9 367.889 731.014L367.946 841.504L367.835 879.898C367.802 886.7 368.061 893.64 367.652 900.425C367.573 901.736 367.573 903.175 366.639 904.201C365.014 905.983 362.579 905.91 360.366 905.832Q358.689 905.771 357.023 905.577C358.078 889.182 358.527 745.986 356.393 741.081Z"/>
	<path fill="#F2BF5E" transform="scale(13.6803 13.6803)" d="M265.208 592.092C276.093 601.334 285.994 611.43 296.061 621.542C295.781 625.685 295.461 629.853 295.432 634.007L221.826 633.962C228.546 628.106 234.555 621.474 240.829 615.15C248.742 607.173 256.798 599.55 265.208 592.092Z"/>
	<path fill="#2EBAB6" transform="scale(13.6803 13.6803)" d="M96.0641 366L148.929 365.999L149.026 383.081C136.777 382.736 124.362 381.988 112.197 383.795C109.789 398.085 111.459 413.801 111.516 428.284L111.939 520.125L112.096 558.097L96.089 558.001C95.3747 494.032 96.0682 429.978 96.0641 366Z"/>
	<path fill="#DE596C" transform="scale(13.6803 13.6803)" d="M176.58 345.108Q177.485 345.035 178.392 345.022C184.77 344.959 191.193 346.903 195.764 351.5C199.602 355.36 201.947 360.556 203.012 365.85C205.074 376.1 203.62 387.154 203.583 397.562C203.535 410.829 203.928 424.075 203.741 437.348C197.093 432.053 190.663 426.434 184.152 420.968L179.409 417.608C171.452 423.71 163.968 430.388 156.416 436.977L156.397 393.6C156.352 384.912 155.614 375.656 156.703 367.057C157.263 362.639 158.436 358.198 160.956 354.471C164.704 348.924 170.227 346.391 176.58 345.108Z"/>
	<path fill="#061356" transform="scale(13.6803 13.6803)" d="M175.048 363.292C176.122 363.33 177.287 363.328 178.327 363.617C179.956 364.069 181.066 365.305 181.785 366.776C184.067 371.452 182.822 378.735 181.189 383.494C180.118 383.574 178.882 383.729 177.836 383.439C176.515 383.073 175.46 381.981 174.803 380.82C172.055 375.961 173.741 368.397 175.048 363.292Z"/>
	<path fill="#2EBAB6" transform="scale(13.6803 13.6803)" d="M258.442 436.504L273.205 436.501C274.045 487.456 273.47 538.522 273.516 589.488C270.817 587.366 268.014 585.353 265.267 583.292C262.297 585.349 259.477 587.681 256.623 589.898C218.551 590.481 180.43 589.796 142.355 589.58L120.45 589.571L120.427 570.086L225.07 569.595C231.161 565.093 236.296 558.705 241.567 553.291C246.934 547.777 252.644 542.637 258.362 537.493C259.087 503.85 258.565 470.153 258.442 436.504Z"/>
	<path fill="#FCFCFC" transform="scale(13.6803 13.6803)" d="M211.46 371.456C218.055 375.668 223.576 383.485 228.973 389.241C236.522 397.291 244.505 404.865 251.461 413.453C250.987 428.947 251.236 444.413 251.215 459.91L251.02 534.057Q249.59 533.97 248.159 533.912C242.862 533.703 228.471 532.093 224.621 535.99C220.375 540.287 222.279 556.247 222.418 562.105L119.958 562.271L119.67 525.948L119.497 390.074C129.258 389.928 139.115 389.546 148.845 390.504C149.269 400.913 149.117 411.23 148.85 421.641C148.677 428.392 147.616 436.484 148.954 443.108C149.326 444.951 149.734 446.152 151.337 447.191C159.585 446.186 173.102 432.753 179.844 427.074C186.392 432.196 198.126 444.426 205.084 447.084C206.809 447.743 208.247 447.321 209.835 446.545C212.987 442.051 211.488 380.329 211.46 371.456Z"/>
	<path fill="#061356" transform="scale(13.6803 13.6803)" d="M155.145 536.261C163.084 535.934 206.223 535.248 210.361 537.231C211.536 537.794 211.547 538.381 211.926 539.525C211.737 540.885 211.567 541.492 210.689 542.557C207.464 544.383 197.708 543.415 193.75 543.405C185.997 543.446 141.454 544.013 137.46 541.973C136.839 541.656 136.615 541.001 136.485 540.342C136.26 539.21 136.69 538.266 137.306 537.38C141.994 535.174 149.979 536.231 155.145 536.261Z"/>
	<path fill="#061356" transform="scale(13.6803 13.6803)" d="M137.921 512.176C148.578 511.587 227.611 511.033 232.455 512.582C233.703 512.981 233.834 513.461 234.437 514.525C234.393 516.151 233.795 517.053 232.978 518.391C224.973 519.535 139.785 519.642 137.192 518.142C136.608 517.804 136.56 517.096 136.353 516.496C136.542 514.733 137.032 513.699 137.921 512.176Z"/>
	<path fill="#061356" transform="scale(13.6803 13.6803)" d="M137.921 487.488C150.36 487.536 226.716 486.037 231.932 488.144C233.146 488.635 233.409 489.386 233.867 490.518C233.744 492.141 233.252 493.083 232.446 494.481C220.136 494.674 142.43 495.638 138.087 493.806C136.866 493.291 136.788 492.904 136.334 491.772C136.482 489.966 136.967 489.014 137.921 487.488Z"/>
	<path fill="#061356" transform="scale(13.6803 13.6803)" d="M138.536 462.587C151.704 462.503 225.07 461.099 232.223 463.628C233.492 464.076 233.612 464.411 234.229 465.511C234.2 467.284 233.554 468.339 232.694 469.859C222.272 470.073 141.794 470.961 138.11 469.089C136.936 468.492 136.697 467.64 136.397 466.467C136.736 464.752 137.423 463.909 138.536 462.587Z"/>
	<path fill="#FCFCFC" transform="scale(13.6803 13.6803)" d="M190.424 641.498C240.079 641.507 289.781 641.17 339.43 641.785C339.455 676.322 338.563 711.149 339.965 745.645C328.046 755.108 316.879 766.181 305.506 776.338L265.285 812.395C248.768 798.709 233.278 784.007 217.424 769.578C208.436 761.399 198.974 753.823 190.408 745.179L190.424 641.498Z"/>
	<path fill="#061356" transform="scale(13.6803 13.6803)" d="M218.82 682.667C221.092 682.562 223.466 682.394 225.71 682.851C227.713 683.259 230.839 684.206 231.815 686.099C232.174 686.795 232.006 686.677 231.737 687.543C230.579 688.594 229.658 689.334 228.214 689.949C225.235 690.066 221.986 690.406 219.04 689.86C217.285 689.534 216.205 689.11 215.132 687.627C214.86 686.331 215.029 685.724 215.477 684.49C216.435 683.34 217.453 683.101 218.82 682.667Z"/>
	<path fill="#061356" transform="scale(13.6803 13.6803)" d="M216.907 665.541C220.208 665.426 226.499 664.666 229.384 666.61C230.624 667.445 230.69 667.807 230.998 669.167C230.555 670.72 230.065 671.599 229.113 672.907C225.664 673.147 220.087 674.004 216.952 672.327C215.763 671.691 215.522 671.059 215.112 669.838C215.334 668.066 215.955 667.034 216.907 665.541Z"/>
	<path fill="#061356" transform="scale(13.6803 13.6803)" d="M262.125 778.506C263.27 778.46 264.448 778.444 265.587 778.604C267.758 778.908 269.918 780.356 271.144 782.155C272.261 783.795 272.587 785.656 272.151 787.592C271.483 790.559 269.383 792.007 266.945 793.532Q265.685 793.522 264.428 793.444C262.026 793.273 259.574 792.284 258.022 790.374C256.911 789.008 256.518 787.454 256.704 785.713C257.072 782.269 259.549 780.428 262.125 778.506Z"/>
	<path fill="#061356" transform="scale(13.6803 13.6803)" d="M216.991 704.134C225.915 704.127 275.882 702.919 279.38 705.138C280.437 705.809 280.375 706.412 280.507 707.524C279.91 709.196 279.425 709.789 278.091 710.964C267.864 710.967 221.059 712.317 215.682 709.895C214.922 708.949 214.493 708.577 214.72 707.259C214.975 705.782 215.92 705.018 216.991 704.134Z"/>
	<path fill="#061356" transform="scale(13.6803 13.6803)" d="M247.355 665.498L289.505 665.497C296.78 665.467 312.667 664.102 318.815 665.942C320.009 666.3 320.151 666.802 320.771 667.804C320.91 669.627 320.208 670.857 319.444 672.477C308.827 672.611 252.611 673.734 248.026 672.066C246.638 671.561 246.57 671.229 246.005 669.982C246.026 668.147 246.509 667.11 247.355 665.498Z"/>
	<path fill="#061356" transform="scale(13.6803 13.6803)" d="M215.78 741.057C227.969 740.847 314.602 740.159 317.894 741.948C319.139 742.625 319.158 743.021 319.51 744.283C319.246 745.877 318.735 746.665 317.794 747.911C309.122 748.892 220.599 749.228 216.593 747.524C215.2 746.932 215.13 746.516 214.552 745.22C214.575 743.494 214.968 742.567 215.78 741.057Z"/>
	<path fill="#F2BF5E" transform="scale(13.6803 13.6803)" d="M158.932 728.462C194.754 758.885 228.858 791.36 264.624 821.832C277.644 812.364 289.363 801.014 301.345 790.287L356.393 741.081C358.527 745.986 358.078 889.182 357.023 905.577Q291.937 906.263 226.85 905.778C207.407 905.711 187.624 906.822 168.236 905.931C165.541 905.807 161.554 905.855 159.415 904.223C158.112 897.318 158.494 889.852 158.425 882.84L158.208 850.292Q158.131 789.373 158.932 728.462Z"/>
	<path fill="#FCFCFC" transform="scale(13.6803 13.6803)" d="M170.066 877.823C171.925 877.903 173.397 877.951 174.968 879.11C176.549 880.276 177.443 882.268 177.613 884.185C177.95 888.006 176.531 890.721 174.159 893.566C172.805 893.524 171.696 893.461 170.466 892.84C168.828 892.013 167.768 890.488 167.342 888.732C166.397 884.839 168.118 881.068 170.066 877.823Z"/>
	<path fill="#FCFCFC" transform="scale(13.6803 13.6803)" d="M169.943 786.268C171.549 786.418 173.341 786.628 174.772 787.445C175.98 788.135 176.661 788.938 177.08 790.262C178.401 794.433 177.903 850.519 177.402 857.228C177.154 860.563 176.836 863.521 175.382 866.592C173.453 866.562 171.102 866.596 169.479 865.409C168.551 864.73 168.189 863.674 167.956 862.59C165.629 851.746 167.03 828.871 167.2 817.077C167.318 808.897 166.78 800.391 167.863 792.279C168.172 789.96 168.7 788.25 169.943 786.268Z"/>
	<path fill="#061356" transform="scale(13.6803 13.6803)" d="M387.724 394.673Q388.858 394.614 389.993 394.597C445.581 393.888 501.275 394.244 556.87 394.355L607.552 394.43C617.217 394.43 627.31 393.821 636.904 394.837C641.987 395.375 645.569 396.2 649.307 399.958C652.865 403.535 655.629 408.461 656.417 413.479C657.41 419.796 656.967 426.717 656.966 433.112L656.921 465.845L656.788 574.324C656.733 583.113 657.556 593.474 650.582 600.056C647.141 603.304 643.018 604.954 638.408 605.707C625.991 607.736 605.914 606.323 592.823 606.307L549.194 606.261C540.99 606.251 532.681 606.506 524.49 606.095L524.513 653.546C524.523 662.58 524.852 671.764 524.349 680.779C522.918 706.424 505.185 705.133 489.834 719.071C486.071 722.487 483.553 726.675 483.422 731.855C483.281 737.396 485.526 743.194 489.389 747.162C492.437 750.293 496.997 752.895 501.254 753.997C510.313 756.342 520.775 755.249 530.083 755.176Q545.273 755.025 560.463 755.118C560.542 744.751 561.289 734.973 569.051 727.182C575.709 720.499 583.94 719.531 592.834 719.342C594.262 713.387 595.755 707.411 598.538 701.919C604.664 689.832 617.211 679.907 630.035 675.807Q631.326 675.394 632.636 675.046Q633.946 674.699 635.271 674.417Q636.597 674.136 637.935 673.921Q639.273 673.707 640.621 673.56Q641.968 673.413 643.321 673.334Q644.674 673.255 646.029 673.243Q647.384 673.232 648.738 673.289Q650.092 673.346 651.442 673.471Q652.791 673.596 654.133 673.789Q655.474 673.981 656.804 674.241Q658.135 674.501 659.45 674.827Q660.765 675.153 662.063 675.545Q663.36 675.937 664.636 676.393Q665.912 676.85 667.164 677.37Q668.415 677.89 669.639 678.472Q670.863 679.054 672.056 679.697C687.204 687.698 695.227 700.453 700.193 716.429C713.145 715.924 726.147 716.183 739.108 716.199L801.274 716.178L852.784 716.011C862.563 715.907 872.466 715.281 882.231 715.662C893.783 716.111 900.747 720.139 908.459 728.379C912.531 733.526 914.98 738.841 916.183 745.309C918.455 757.532 917.234 772.989 917.175 785.62Q916.762 818.54 917.335 851.458C917.68 869.878 919.111 888.953 905.248 903.145C899.724 908.8 892.862 912.797 884.992 914.051C874.277 915.759 862.619 914.913 851.756 914.893L797.485 914.859L608.633 915.527C595.067 915.605 582.655 913.174 572.774 903.238C566.984 897.415 563.402 890.141 561.654 882.153C558.865 869.412 560.452 855.757 560.479 842.8L560.46 779.462L530.067 779.477C522.122 779.473 514.001 779.72 506.112 778.653Q504.765 778.458 503.429 778.198Q502.092 777.939 500.77 777.615Q499.448 777.292 498.143 776.905Q496.838 776.518 495.553 776.069Q494.268 775.62 493.006 775.109Q491.744 774.599 490.508 774.028Q489.272 773.458 488.065 772.828Q486.858 772.199 485.682 771.512Q484.507 770.826 483.366 770.083Q482.225 769.341 481.121 768.544Q480.017 767.748 478.953 766.899Q477.888 766.051 476.866 765.152Q475.844 764.253 474.866 763.306Q473.888 762.359 472.957 761.367Q472.025 760.374 471.143 759.337Q470.261 758.301 469.429 757.223C462.385 747.94 459.219 736.692 460.904 725.131C464.366 701.392 483.372 696.743 499.834 684.116C500.001 683.988 500.166 683.856 500.331 683.726C500.66 674.567 500.385 665.336 500.363 656.169L500.263 606.465Q461.504 605.924 422.744 606.429C411.97 606.463 400.917 607.677 390.203 606.514C385.464 605.999 380.87 604.842 376.816 602.229C371.671 598.912 367.895 593.769 366.814 587.694C365.363 579.537 366.321 570.043 366.377 561.725L366.505 516.975L366.575 453.592C366.555 441.531 365.817 429.075 366.885 417.074C367.354 411.802 367.91 407.313 371.234 402.996C375.354 397.647 381.256 395.495 387.724 394.673Z"/>
	<path fill="#F2BF5E" transform="scale(13.6803 13.6803)" d="M592.778 739.082C593.679 742.049 594.542 745.033 595.575 747.958C591.567 745.531 587.505 743.168 583.69 740.444C586.796 740.237 589.81 740.1 592.778 739.082Z"/>
	<path fill="#FCFCFC" transform="scale(13.6803 13.6803)" d="M476.1 743.044C477.721 743.614 484.809 753.132 486.748 755.173C485.209 756.894 483.967 758.832 482.668 760.735C479.314 757.524 475.481 753.746 473.133 749.716C472.112 747.963 471.614 746.568 472.125 744.556C473.46 743.362 474.368 743.387 476.1 743.044Z"/>
	<path fill="#FCFCFC" transform="scale(13.6803 13.6803)" d="M471.697 718.273C473.571 719.515 475.532 720.441 477.556 721.404C476.354 724.901 475.817 735.041 474.392 736.658L468.545 737.539C468.336 730.321 469.028 725.028 471.697 718.273Z"/>
	<path fill="#FCFCFC" transform="scale(13.6803 13.6803)" d="M508.418 659.503L515.959 659.509L515.719 676.847C513.313 676.988 510.855 676.934 508.441 676.973L508.418 659.503Z"/>
	<path fill="#FCFCFC" transform="scale(13.6803 13.6803)" d="M492.446 759.306C497.585 759.817 502.215 762.371 507.447 762.693C507.568 765.011 507.869 767.3 507.184 769.55C506.089 770.625 505.937 770.497 504.381 770.631C498.53 769.107 493.258 767.156 487.861 764.426L492.446 759.306Z"/>
	<path fill="#FCFCFC" transform="scale(13.6803 13.6803)" d="M508.103 606.103L516.011 606.099Q516.064 615.413 515.878 624.726L508 624.731Q507.935 615.416 508.103 606.103Z"/>
	<path fill="#FCFCFC" transform="scale(13.6803 13.6803)" d="M508.582 684.172C511.03 684.434 513.535 684.403 515.997 684.472C513.505 692.199 509.774 696.323 503.32 701.034C502.896 701.211 502.288 701.218 501.829 701.276C499.706 699.954 498.398 697.901 496.919 695.928C501.912 692.543 505.541 689.504 508.582 684.172Z"/>
	<path fill="#FCFCFC" transform="scale(13.6803 13.6803)" d="M490.546 699.031C492.717 700.432 494.541 702.803 496.312 704.685C490.735 708.147 485.5 711.784 480.551 716.106L474.662 712.33C479.065 706.349 484.247 702.875 490.546 699.031Z"/>
	<path fill="#FCFCFC" transform="scale(13.6803 13.6803)" d="M547.304 762.271Q553.951 762.094 560.601 762.09C560.77 765.33 560.624 768.441 560.374 771.672L554.873 771.769L542.81 771.749C542.58 768.915 541.881 765.767 543.29 763.189C544.752 762.207 545.571 762.358 547.304 762.271Z"/>
	<path fill="#FCFCFC" transform="scale(13.6803 13.6803)" d="M507.986 631.001L516.021 630.989L516.016 652.509L507.997 652.494L507.986 631.001Z"/>
	<path fill="#FCFCFC" transform="scale(13.6803 13.6803)" d="M573.01 735.282C578.842 729.816 584.54 728.316 592.227 727.237C592.273 731.212 592.416 735.123 592.778 739.082C589.81 740.1 586.796 740.237 583.69 740.444C580.013 739.006 576.519 737.084 573.01 735.282Z"/>
	<path fill="#FCFCFC" transform="scale(13.6803 13.6803)" d="M514.412 762.429L536.422 762.443L536.414 771.482Q525.459 771.575 514.504 771.415L514.412 762.429Z"/>
	<path fill="#B73F5B" transform="scale(13.6803 13.6803)" d="M691.873 721.809C692.99 738.472 689.421 750.048 678.273 762.691C671.474 770.402 662.944 778.038 653.44 782.216L630.939 768.449C638.171 768.608 645.189 768.76 652.246 766.934C667.387 763.015 680.657 752.156 686.262 737.367C688.112 732.487 688.935 726.656 691.628 722.194C691.707 722.064 691.791 721.937 691.873 721.809Z"/>
	<path fill="#E58130" transform="scale(13.6803 13.6803)" d="M614.688 402.944C623.178 402.946 631.624 403.204 640.066 404.168C624.217 419.926 607.557 434.794 591.091 449.896Q551.948 486.214 512.005 521.65Q498.533 510.544 486.32 498.067C493.425 494.854 500.03 489.171 506.373 484.633Q526.38 470.433 545.956 455.645C563.028 442.949 580.726 430.995 597.517 417.935C601.919 414.511 612.12 407.589 614.688 402.944Z"/>
	<path fill="#2EBAB6" transform="scale(13.6803 13.6803)" d="M873.497 757.614C883.712 751.392 894.134 745.646 904.161 739.093C905.944 742.623 907.474 745.898 907.958 749.887C908.835 757.131 908.512 764.645 908.511 771.933L908.52 805.537L908.527 850.77C908.529 858.814 908.874 866.981 908.393 875.007C908.158 878.937 907.563 882.929 906.345 886.682C904.128 893.51 897.543 899.407 891.254 902.505C884.242 905.96 876.212 906.927 868.488 906.106C870.211 905.991 871.047 906.128 872.488 905.131C875.211 900.218 873.817 885.029 873.28 878.946C873.149 877.465 873.331 876.793 872.154 875.811C872.517 875.694 872.879 875.571 873.247 875.469C874.67 875.074 875.857 874.765 877.175 874.038C880.425 872.248 883.459 869.291 884.367 865.575C885.878 859.396 886.337 826.774 883.474 822.149C880.584 820.092 877.388 820.498 874.002 820.54Q874.89 796.315 874.296 772.081C874.208 767.669 874.737 761.756 873.497 757.614Z"/>
	<path fill="#DE596C" transform="scale(13.6803 13.6803)" d="M630.939 768.449C628.041 767.581 624.918 765.925 622.225 764.523C613.046 759.745 606.238 752.167 603.206 742.183C599.439 729.782 600.675 716.889 606.932 705.503C612.685 695.032 622.753 686.804 634.296 683.599Q635.377 683.304 636.472 683.062Q637.567 682.819 638.672 682.631Q639.777 682.443 640.89 682.309Q642.003 682.174 643.121 682.095Q644.239 682.015 645.36 681.991Q646.481 681.966 647.602 681.996Q648.722 682.026 649.84 682.11Q650.958 682.195 652.07 682.334Q653.183 682.474 654.287 682.667Q655.391 682.861 656.484 683.108Q657.578 683.355 658.658 683.655Q659.738 683.956 660.802 684.309Q661.866 684.661 662.912 685.066Q663.957 685.47 664.982 685.925Q666.007 686.38 667.008 686.885Q668.009 687.389 668.984 687.942C682.157 695.561 688.164 707.544 691.873 721.809C691.791 721.937 691.707 722.064 691.628 722.194C688.935 726.656 688.112 732.487 686.262 737.367C680.657 752.156 667.387 763.015 652.246 766.934C645.189 768.76 638.171 768.608 630.939 768.449Z"/>
	<path fill="#061356" transform="scale(13.6803 13.6803)" d="M646.192 716.024C648.541 715.914 650.818 716.076 652.998 717.024C656.521 718.558 659.266 721.388 660.561 725.022Q660.789 725.648 660.954 726.293Q661.119 726.938 661.218 727.597Q661.317 728.255 661.349 728.92Q661.382 729.586 661.347 730.251Q661.313 730.916 661.212 731.574Q661.111 732.232 660.944 732.877Q660.778 733.522 660.547 734.147Q660.317 734.771 660.025 735.37C658.08 739.286 655.082 741.065 651.116 742.521C649.384 742.567 647.518 742.689 645.822 742.266C642.267 741.378 639.061 739.019 637.322 735.781Q637.01 735.198 636.758 734.586Q636.506 733.975 636.317 733.341Q636.127 732.707 636.003 732.057Q635.878 731.408 635.819 730.749Q635.76 730.09 635.768 729.428Q635.776 728.767 635.85 728.11Q635.924 727.452 636.064 726.806Q636.204 726.159 636.408 725.53C638.038 720.539 641.741 718.183 646.192 716.024Z"/>
	<path fill="#FCFCFC" transform="scale(13.6803 13.6803)" d="M646.382 722.955C646.996 722.978 646.977 722.962 647.55 723.035C649.818 723.32 651.928 724.17 653.316 726.074Q653.49 726.311 653.639 726.564Q653.788 726.817 653.91 727.084Q654.033 727.351 654.127 727.629Q654.222 727.907 654.288 728.194Q654.353 728.48 654.389 728.772Q654.426 729.063 654.432 729.357Q654.438 729.651 654.414 729.943Q654.39 730.236 654.337 730.525C653.865 733.155 652.115 734.305 649.991 735.653C649.827 735.651 649.664 735.653 649.501 735.646C646.892 735.541 644.689 735.205 642.902 733.098C641.84 731.846 641.537 730.444 641.715 728.843C642.028 726.037 644.237 724.424 646.382 722.955Z"/>
	<path fill="#118895" transform="scale(13.6803 13.6803)" d="M590.606 546.867C608.722 562.71 625.049 580.559 643.506 595.952C639.047 597.363 634.682 597.796 630.02 597.978C615.712 598.537 601.277 598.315 586.951 598.391Q534.242 598.646 481.536 598.071C463.791 598.008 395.786 600.628 383.313 596.11C398.73 592.598 414.065 588.122 429.424 584.281Q464.362 575.664 499.502 567.911C513.556 564.753 527.629 561.495 541.746 558.634C554.728 556.003 579.339 551.975 590.606 546.867Z"/>
	<path fill="#2EBAB6" transform="scale(13.6803 13.6803)" d="M545.078 502.835Q567.235 525.479 590.606 546.867C579.339 551.975 554.728 556.003 541.746 558.634C527.629 561.495 513.556 564.753 499.502 567.911Q464.362 575.664 429.424 584.281C414.065 588.122 398.73 592.598 383.313 596.11L382.619 595.245C385.659 591.425 389.738 588.088 393.299 584.747L412.377 566.875L479.501 503.862Q486.693 509.873 493.502 516.314C497.304 519.974 501.041 524.189 505.27 527.326C506.953 528.574 508.932 529.668 511.058 529.835C513.306 530.012 515.365 529.106 517.204 527.896C520.818 525.517 524.027 521.983 527.227 519.062L545.078 502.835Z"/>
	<path fill="#FCFCFC" transform="scale(13.6803 13.6803)" d="M645.476 411.339C646.034 411.514 646.315 411.83 646.751 412.207C647.61 414.107 647.87 415.924 648.01 417.995C648.416 424.019 648.13 430.207 648.129 436.252L648.147 471.336Q648.437 530.527 648.004 589.717C632.429 574.185 616.114 559.286 600.064 544.243C583.828 528.554 566.815 513.69 550.748 497.825C564.658 484.631 579.249 472.252 593.364 459.293C610.771 443.311 627.658 426.887 645.476 411.339Z"/>
	<path fill="#FCFCFC" transform="scale(13.6803 13.6803)" d="M377.989 409.228C387.619 414.8 395.573 424.795 403.769 432.354C427.261 454.019 450.79 475.417 473.386 498.033Q449.905 521.451 425.424 543.822Q400.77 567.251 375.489 590.002L374.992 472.066L374.927 439.37C374.9 432.826 374.596 426.125 375.112 419.606C375.423 415.684 375.985 412.687 377.989 409.228Z"/>
	<path fill="#F2BF5E" transform="scale(13.6803 13.6803)" d="M385.434 403.072L614.688 402.944C612.12 407.589 601.919 414.511 597.517 417.935C580.726 430.995 563.028 442.949 545.956 455.645Q526.38 470.433 506.373 484.633C500.03 489.171 493.425 494.854 486.32 498.067C475.001 486.771 462.952 476.058 451.281 465.115L385.434 403.072Z"/>
	<path fill="#FCFCFC" transform="scale(13.6803 13.6803)" d="M446.542 433.775C449.267 434.138 451.282 435.346 453.436 437.024C456.163 439.148 459.56 442.769 459.704 446.463C459.794 448.777 458.847 449.658 457.319 451.174C454.461 450.816 452.257 449.311 450.017 447.588C447.362 445.545 444.587 442.308 444.257 438.826C444.045 436.581 445.152 435.352 446.542 433.775Z"/>
	<path fill="#FCFCFC" transform="scale(13.6803 13.6803)" d="M426.466 415.266C432.189 416.762 439.643 424.617 442.902 429.342C441.826 431.525 440.539 433.276 439.033 435.162L438.731 435.264C434.256 434.376 425.436 424.241 422.735 420.57C423.823 418.653 425.112 416.995 426.466 415.266Z"/>
	<path fill="#FCFCFC" transform="scale(13.6803 13.6803)" d="M464.085 450.307C468.45 451.057 472.635 453.97 475.72 457.087C477.712 459.099 479.816 461.947 479.603 464.937C479.49 466.522 477.99 467.662 476.919 468.696C476.789 468.686 476.658 468.685 476.53 468.665C470.549 467.703 463.553 459.595 460.238 454.876C461.372 453.16 462.639 451.765 464.085 450.307Z"/>
	<path fill="#2EBAB6" transform="scale(13.6803 13.6803)" d="M700.999 724.556L833.765 724.593L867.854 724.504C874.428 724.462 881.68 723.8 888.164 724.901C892.592 725.652 895.835 728.464 898.947 731.479Q841.953 764.789 785.484 798.978Q769.664 808.593 754.034 818.512C746.738 823.156 739.533 828.073 732.018 832.354C709.093 817.275 685.423 803.354 662.494 788.319C679.331 775.384 693.736 762.893 699.622 741.48C700.348 738.922 700.618 736.231 701 733.603L700.999 724.556Z"/>
	<path fill="#FCFCFC" transform="scale(13.6803 13.6803)" d="M815.865 731.581C818.382 731.469 820.844 731.614 823.061 732.939C825.019 734.109 826.654 735.94 827.169 738.205C827.548 739.872 827.216 741.577 826.294 743.011C824.68 745.522 822.081 746.309 819.334 746.979C817.172 746.973 814.761 746.768 812.791 745.818C810.527 744.727 808.502 742.779 807.834 740.303C807.403 738.708 807.697 737.088 808.577 735.706C810.21 733.14 813.105 732.33 815.865 731.581Z"/>
	<path fill="#FCFCFC" transform="scale(13.6803 13.6803)" d="M701 733.603C721.443 731.682 742.065 732.963 762.569 732.995C768.881 733.005 775.21 733.092 781.52 732.961C784.702 732.895 788.031 732.417 791.201 732.768C792.959 732.963 794.828 733.496 796.244 734.599C797.217 735.356 798.106 736.546 798.264 737.793C798.429 739.091 797.943 739.571 797.262 740.59C792.635 743.386 711.138 741.658 699.622 741.48C700.348 738.922 700.618 736.231 701 733.603Z"/>
	<path fill="#5CCFD3" transform="scale(13.6803 13.6803)" d="M569.531 741.647C579.798 747.138 589.758 753.61 599.675 759.724L649.83 790.889L699.684 822.02C710.338 828.683 721.189 835.137 731.442 842.408Q751.952 830.391 772.227 817.981L826.73 785.5C842.274 776.123 857.555 766.316 873.497 757.614C874.737 761.756 874.208 767.669 874.296 772.081Q874.89 796.315 874.002 820.54C877.388 820.498 880.584 820.092 883.474 822.149C886.337 826.774 885.878 859.396 884.367 865.575C883.459 869.291 880.425 872.248 877.175 874.038C875.857 874.765 874.67 875.074 873.247 875.469C872.879 875.571 872.517 875.694 872.154 875.811C873.331 876.793 873.149 877.465 873.28 878.946C873.817 885.029 875.211 900.218 872.488 905.131C871.047 906.128 870.211 905.991 868.488 906.106C844.737 905.687 821.064 906.064 797.319 906.077L676.044 906.005L629.339 906.044C618.308 906.109 606.681 906.895 595.741 905.291C589.457 904.369 583.832 901.745 579.296 897.259C574.307 892.326 571.728 886.271 570.489 879.455C568.249 867.13 569.485 846.134 569.487 832.753L569.531 741.647Z"/>
	<path fill="#061356" transform="scale(13.6803 13.6803)" d="M872.154 875.811C866.736 876.236 861.196 875.937 855.76 875.988C849.077 876.05 841.867 876.653 835.239 875.796C832.362 875.424 828.728 874.396 826.173 873.033C822.985 871.333 821.516 868.223 820.62 864.859C818.747 857.828 818.108 826.928 821.268 821.305C826.861 819.155 864.995 820.56 874.002 820.54C877.388 820.498 880.584 820.092 883.474 822.149C886.337 826.774 885.878 859.396 884.367 865.575C883.459 869.291 880.425 872.248 877.175 874.038C875.857 874.765 874.67 875.074 873.247 875.469C872.879 875.571 872.517 875.694 872.154 875.811Z"/>
	<path fill="#EE6552" transform="scale(13.6803 13.6803)" d="M857.019 829.283Q866.475 829.412 875.932 829.445L875.918 839.009L856.883 838.963C857.305 835.886 857.01 832.409 857.019 829.283Z"/>
	<path fill="#E58130" transform="scale(13.6803 13.6803)" d="M828.426 829.001Q842.724 828.971 857.019 829.283C857.01 832.409 857.305 835.886 856.883 838.963C847.428 838.764 837.938 838.951 828.48 838.995L828.426 829.001Z"/>
	<path fill="#DE596C" transform="scale(13.6803 13.6803)" d="M856.253 847.431L875.913 847.457C876.017 852.574 877.128 860.673 873.405 864.705C871.029 867.278 867.196 867.558 863.915 867.541C859.982 867.52 856.05 867.336 852.118 867.297C853.223 866.63 854.935 866.839 856.223 866.796Q856.319 857.114 856.253 847.431Z"/>
	<path fill="#EE6552" transform="scale(13.6803 13.6803)" d="M828.474 847.082Q842.366 847.047 856.253 847.431Q856.319 857.114 856.223 866.796C854.935 866.839 853.223 866.63 852.118 867.297C847.992 867.441 843.841 867.662 839.713 867.632C836.559 867.609 833.043 867.305 830.787 864.816C826.968 860.603 828.226 852.4 828.474 847.082Z"/>
</svg>
