<?xml version="1.0" encoding="utf-8" ?>
<svg xmlns="http://www.w3.org/2000/svg" xmlns:xlink="http://www.w3.org/1999/xlink" width="14008" height="14008">
	<path fill="#071440" transform="scale(13.6803 13.6803)" d="M165.971 789.246C171.583 789.237 177.246 788.99 182.851 789.201C185.338 789.295 187.734 789.537 189.508 791.428C189.83 792.859 189.765 793.075 189.291 794.473C186.287 796.439 173.699 795.536 169.403 795.542C162.882 795.552 155.557 796.129 149.13 795.199C147.507 794.965 146.277 794.576 145.29 793.182C145.379 791.97 145.522 791.691 146.499 790.826C149.573 788.104 161.666 789.286 165.971 789.246Z"/>
	<path fill="#071440" transform="scale(13.6803 13.6803)" d="M148.683 837.728C159.632 837.233 171.116 837.079 182.074 837.507C184.689 837.609 188.02 837.669 189.907 839.698C189.979 840.229 190.15 840.61 189.886 841.107C188.961 842.849 187.77 843.227 186.007 843.68C178.437 843.642 154.167 845.109 148.309 843.472C146.664 843.013 145.907 842.385 145.08 840.924L145.482 839.528C146.567 838.326 147.182 838.139 148.683 837.728Z"/>
	<path fill="#071440" transform="scale(13.6803 13.6803)" d="M352.062 122.244C353.411 122.623 354.732 122.948 355.654 124.102C357.967 126.997 357.118 131.994 357.011 135.433C359.391 135.392 362.08 135.147 364.422 135.56C366.282 135.888 368.035 136.741 369.141 138.292C369.175 139.568 369.23 139.866 368.195 140.797C365.481 143.238 360.201 142.507 356.889 142.419C356.971 145.664 357.341 149.462 356.614 152.627C356.121 154.778 355.439 155.844 353.58 157.006C352.62 156.529 351.728 156.012 350.985 155.221C348.369 152.439 349.533 145.973 349.912 142.468C347.667 142.339 345.354 142.269 343.121 141.988C341.021 141.724 337.928 140.889 336.664 139.027C336.21 138.359 336.465 138.134 336.633 137.419C340.044 134.52 345.495 135.299 349.644 135.5C349.46 130.527 349.437 126.67 352.062 122.244Z"/>
	<path fill="#071440" transform="scale(13.6803 13.6803)" d="M106.345 105.347C108.005 105.489 109.32 105.443 110.574 106.685C113.005 109.092 111.975 116.312 111.868 119.554C115.019 119.415 120.759 118.575 123.532 120.411C124.449 121.018 124.861 121.936 124.719 123.028C124.009 128.494 116.021 125.255 112.47 127.449C110.169 130.501 111.5 133.298 111.377 136.811C111.307 138.815 110.534 139.863 109.141 141.211C107.986 140.792 106.642 140.397 105.868 139.379C103.515 136.283 104.597 130.393 104.812 126.686C101.29 126.867 97.4994 127.318 94.1316 126.054C92.6649 125.503 91.6114 124.86 90.9549 123.375C91.1692 122.348 91.2009 122.004 92.0372 121.283C95.2378 118.523 100.969 119.329 104.831 119.451C104.469 114.5 104.442 110.028 106.345 105.347Z"/>
	<path fill="#071440" transform="scale(13.6803 13.6803)" d="M208.548 837.723Q233.675 837.469 258.802 837.583C264.173 837.629 270.996 836.954 276.204 837.934C277.81 838.236 278.841 838.854 280.041 839.924C280.483 841.203 280.542 841.195 280.061 842.448C279.033 843.2 278.38 843.358 277.125 843.532C262.534 843.376 247.9 843.406 233.309 843.556C226.237 843.628 218.721 844.456 211.702 843.842C209.499 843.65 207.655 843.414 205.792 842.177C205.238 841.072 204.935 840.535 205.542 839.283C206.19 837.949 207.287 837.99 208.548 837.723Z"/>
	<path fill="#071440" transform="scale(13.6803 13.6803)" d="M205.231 789.512C214.162 789.541 274.814 788.881 278.37 790.167C279.592 790.609 279.964 791.158 280.558 792.254C280.413 793.694 280.298 793.862 279.409 795.016C268.375 796.614 256.072 795.441 244.896 795.48C233.24 795.52 218.185 796.773 206.974 795.21C205.431 794.995 205.324 795.001 204.368 793.777C204.079 792.145 204.651 790.996 205.231 789.512Z"/>
	<path fill="#071440" transform="scale(13.6803 13.6803)" d="M413.599 788.281C414.996 788.741 416.206 789.155 417.241 790.274C419.828 793.071 418.767 799.974 418.649 803.605C422.814 803.491 427.108 802.92 430.983 804.807C432.359 805.477 433.07 806.209 433.611 807.62C433.325 808.463 433.319 808.802 432.643 809.433C429.361 812.495 422.688 811.584 418.488 811.474C418.611 816.741 419.382 821.798 415.867 826.144C414.399 825.978 412.925 825.729 411.917 824.526C409.366 821.483 410.402 814.692 410.494 811.007C407.254 811.159 403.574 811.621 400.451 810.651C398.573 810.068 397.681 809.468 396.798 807.708C397.013 806.792 396.957 806.475 397.643 805.774C400.668 802.68 406.683 803.465 410.56 803.506C410.515 800.831 410.437 798.137 410.513 795.463C410.602 792.333 411.321 790.415 413.599 788.281Z"/>
	<path fill="#071440" transform="scale(13.6803 13.6803)" d="M154.156 812.726C167.027 812.382 179.91 812.745 192.785 812.625C204.286 812.517 216.447 811.699 227.87 812.825C230.408 813.076 233.77 813.445 235.738 815.18C235.727 815.962 235.894 815.859 235.454 816.313C233.044 818.803 230.18 818.817 226.989 818.801C214.869 818.467 152.901 820.172 147.966 818.406C146.76 817.974 146.297 817.664 145.709 816.54C145.807 816.092 145.858 815.703 146.126 815.3C147.876 812.671 151.392 812.894 154.156 812.726Z"/>
	<path fill="#F6793E" transform="scale(13.6803 13.6803)" d="M386.54 710.535C388.894 710.507 391.269 710.92 393.419 711.904Q394.078 712.203 394.704 712.568Q395.329 712.932 395.913 713.36Q396.497 713.787 397.035 714.272Q397.572 714.757 398.057 715.295Q398.541 715.833 398.968 716.418Q399.394 717.003 399.759 717.628Q400.123 718.254 400.421 718.913Q400.719 719.573 400.947 720.26C402.041 723.549 401.893 727.238 400.324 730.352C398.297 734.376 395.007 736.259 390.852 737.541C388.713 737.555 386.611 737.459 384.581 736.711Q383.915 736.471 383.279 736.163Q382.642 735.855 382.041 735.482Q381.439 735.109 380.881 734.675Q380.322 734.241 379.812 733.751Q379.302 733.261 378.845 732.72Q378.389 732.179 377.992 731.594Q377.595 731.008 377.262 730.384Q376.928 729.76 376.662 729.105Q376.407 728.457 376.22 727.786Q376.033 727.115 375.915 726.429Q375.797 725.743 375.75 725.048Q375.703 724.353 375.727 723.657Q375.751 722.961 375.845 722.271Q375.94 721.581 376.105 720.905Q376.269 720.228 376.502 719.572Q376.735 718.915 377.033 718.286C379.026 714.107 382.357 712.117 386.54 710.535Z"/>
	<path fill="#F6793E" transform="scale(13.6803 13.6803)" d="M257.978 527.548C260.185 527.474 262.374 527.341 264.509 528.016Q265.196 528.229 265.857 528.511Q266.519 528.794 267.148 529.143Q267.777 529.491 268.367 529.903Q268.956 530.314 269.501 530.784Q270.046 531.253 270.539 531.776Q271.033 532.299 271.47 532.87Q271.907 533.441 272.284 534.054Q272.66 534.667 272.972 535.315C274.465 538.464 274.732 542.205 273.493 545.483C271.867 549.785 268.742 551.933 264.684 553.695C262.19 554.059 259.575 554.131 257.15 553.338Q256.53 553.136 255.934 552.873Q255.338 552.611 254.771 552.289Q254.204 551.968 253.672 551.591Q253.141 551.214 252.65 550.786Q252.158 550.357 251.713 549.882Q251.267 549.406 250.872 548.888Q250.476 548.37 250.135 547.816Q249.793 547.26 249.509 546.674Q249.199 546.044 248.954 545.386Q248.709 544.728 248.533 544.049Q248.357 543.369 248.25 542.675Q248.144 541.982 248.109 541.28Q248.074 540.579 248.11 539.878Q248.147 539.177 248.254 538.484Q248.362 537.79 248.54 537.111Q248.717 536.432 248.963 535.774C250.631 531.424 253.907 529.332 257.978 527.548Z"/>
	<path fill="#071440" transform="scale(13.6803 13.6803)" d="M171.91 766.238Q210.815 766.148 249.718 766.477C256.274 766.511 272.928 765.719 278.29 766.823C279.844 767.143 280.418 767.712 281.235 769.021C281.17 769.727 281.307 770.053 280.739 770.571C277.679 773.361 260.487 772.294 255.625 772.275L192.43 772.231C178.973 772.35 164.718 773.419 151.364 772.121C149.16 771.907 147.264 771.641 145.586 770.092C145.266 768.637 145.4 768.633 146.112 767.299C149.093 765.471 167.038 766.348 171.91 766.238Z"/>
	<path fill="#59BEE6" transform="scale(13.6803 13.6803)" d="M469.517 66.5813C474.781 66.1882 480.51 67.669 484.8 70.7402Q485.234 71.0514 485.651 71.3839Q486.069 71.7165 486.469 72.0696Q486.869 72.4227 487.251 72.7955Q487.633 73.1683 487.996 73.5597Q488.359 73.9512 488.702 74.3605Q489.045 74.7697 489.366 75.1956Q489.688 75.6215 489.988 76.0631Q490.288 76.5046 490.565 76.9607Q490.843 77.4167 491.097 77.8861Q491.351 78.3556 491.581 78.8371Q491.811 79.3187 492.017 79.8112Q492.223 80.3038 492.403 80.806Q492.584 81.3083 492.74 81.819Q492.895 82.3297 493.024 82.8475Q493.154 83.3654 493.257 83.8891Q493.36 84.4128 493.437 84.941C494.259 90.6953 492.819 96.8716 489.314 101.534C485.725 106.308 480.659 108.811 474.857 109.742C470.27 109.821 466.073 109.226 461.978 106.976Q461.495 106.708 461.026 106.417Q460.557 106.126 460.103 105.812Q459.648 105.498 459.21 105.161Q458.772 104.825 458.351 104.468Q457.93 104.111 457.527 103.733Q457.124 103.356 456.741 102.959Q456.357 102.562 455.993 102.146Q455.629 101.731 455.286 101.298Q454.944 100.865 454.623 100.416Q454.302 99.9663 454.003 99.5017Q453.705 99.0372 453.429 98.5584Q453.154 98.0797 452.903 97.588Q452.652 97.0963 452.425 96.5928Q452.198 96.0893 451.997 95.5752Q451.795 95.0611 451.619 94.5377Q451.443 94.0143 451.293 93.4829Q451.156 92.9695 451.046 92.4497Q450.935 91.93 450.851 91.4054Q450.767 90.8807 450.71 90.3525Q450.653 89.8242 450.622 89.2938Q450.592 88.7633 450.588 88.2319Q450.585 87.7006 450.608 87.1698Q450.632 86.639 450.682 86.11Q450.733 85.5811 450.81 85.0554Q450.887 84.5297 450.991 84.0086Q451.095 83.4875 451.225 82.9723Q451.355 82.4571 451.511 81.9492Q451.667 81.4413 451.849 80.942Q452.031 80.4427 452.237 79.9532Q452.444 79.4638 452.675 78.9854Q452.907 78.5071 453.162 78.0411Q453.417 77.5751 453.696 77.1227C457.372 71.02 462.787 68.1184 469.517 66.5813ZM470.797 77.0493C466.996 78.4605 463.917 80.2595 462.263 84.161C461.093 86.9212 461.055 90.1113 462.339 92.8397C463.633 95.587 466.139 97.6288 469.014 98.5413C470.67 99.0666 472.355 99.2482 474.079 99.3733C477.702 98.2006 480.502 96.9845 482.322 93.4394Q482.569 92.9484 482.765 92.4345Q482.96 91.9206 483.101 91.3893Q483.242 90.858 483.328 90.3149Q483.414 89.7718 483.443 89.2228Q483.472 88.6738 483.444 88.1248Q483.416 87.5757 483.332 87.0324Q483.247 86.4892 483.107 85.9576Q482.967 85.4259 482.773 84.9116C481.614 81.7575 479.108 79.3135 476.025 78.0229C474.333 77.3145 472.608 77.1756 470.797 77.0493Z"/>
	<path fill="#071440" transform="scale(13.6803 13.6803)" d="M775.241 327.617C779.733 327.416 783.657 327.506 787.85 329.434C793.365 331.969 797.529 336.82 799.564 342.501Q799.757 343.046 799.922 343.601Q800.086 344.155 800.222 344.717Q800.358 345.279 800.465 345.848Q800.571 346.416 800.649 346.989Q800.726 347.562 800.774 348.139Q800.822 348.715 800.84 349.293Q800.858 349.871 800.846 350.449Q800.835 351.027 800.793 351.604Q800.752 352.181 800.681 352.755Q800.61 353.329 800.51 353.898Q800.41 354.468 800.28 355.032Q800.151 355.595 799.992 356.151Q799.834 356.708 799.647 357.255Q799.461 357.802 799.246 358.339Q799.031 358.876 798.79 359.402Q798.548 359.927 798.279 360.439C795.126 366.432 789.989 369.488 783.731 371.438C779.12 372.419 774.295 372.068 769.974 370.099C764.8 367.742 760.984 363.232 759.138 357.894Q758.934 357.304 758.761 356.704Q758.587 356.104 758.445 355.495Q758.302 354.887 758.191 354.273Q758.08 353.658 758 353.039Q757.92 352.419 757.872 351.797Q757.824 351.174 757.808 350.549Q757.792 349.925 757.807 349.301Q757.823 348.676 757.871 348.054Q757.918 347.431 757.998 346.811Q758.077 346.192 758.188 345.577Q758.299 344.962 758.441 344.354Q758.583 343.746 758.756 343.146Q758.929 342.546 759.133 341.955Q759.336 341.365 759.569 340.785Q759.803 340.206 760.065 339.639Q760.328 339.073 760.619 338.52C763.846 332.475 768.886 329.474 775.241 327.617Z"/>
	<path fill="#F6793E" transform="scale(13.6803 13.6803)" d="M776.362 333.038C779.246 332.9 782.022 333.023 784.741 334.096Q785.15 334.256 785.551 334.436Q785.952 334.616 786.343 334.816Q786.734 335.016 787.114 335.236Q787.494 335.456 787.863 335.695Q788.231 335.934 788.587 336.192Q788.943 336.449 789.286 336.724Q789.628 336.999 789.956 337.292Q790.284 337.584 790.597 337.892Q790.909 338.201 791.206 338.525Q791.503 338.849 791.782 339.188Q792.062 339.527 792.324 339.879Q792.586 340.232 792.83 340.597Q793.074 340.962 793.299 341.34Q793.524 341.717 793.73 342.105Q793.935 342.494 794.121 342.892Q794.306 343.29 794.471 343.697C796.23 348.019 796.272 353.156 794.283 357.412C791.971 362.361 787.785 364.717 782.855 366.455C779.11 366.673 775.995 366.704 772.543 365.036C768.522 363.093 765.494 359.481 764.041 355.283C762.514 350.868 762.6 345.784 764.754 341.584C767.223 336.766 771.401 334.574 776.362 333.038Z"/>
	<path fill="#F6793E" transform="scale(13.6803 13.6803)" d="M81.2965 456.703C86.6162 457.124 91.2968 458.563 95.4438 462.091Q95.8921 462.473 96.3206 462.877Q96.7491 463.281 97.1568 463.705Q97.5645 464.13 97.9502 464.575Q98.336 465.02 98.6989 465.484Q99.0618 465.947 99.4009 466.429Q99.7401 466.91 100.055 467.408Q100.369 467.906 100.658 468.419Q100.947 468.932 101.21 469.459Q101.473 469.986 101.709 470.525Q101.945 471.065 102.153 471.615Q102.362 472.166 102.543 472.727Q102.723 473.287 102.875 473.856Q103.028 474.425 103.151 475Q103.274 475.576 103.369 476.157Q103.463 476.739 103.528 477.324Q103.593 477.909 103.628 478.497C104.045 484.769 102.221 491.205 97.8729 495.854C93.3555 500.686 87.4463 502.334 81.0431 502.557C76.4013 502.079 72.0116 501.004 68.0567 498.425Q67.5966 498.131 67.1525 497.813Q66.7083 497.495 66.2812 497.154Q65.8542 496.814 65.4454 496.452Q65.0366 496.089 64.6472 495.706Q64.2577 495.323 63.8887 494.921Q63.5197 494.518 63.1721 494.097Q62.8245 493.675 62.4992 493.237Q62.174 492.798 61.872 492.343Q61.5699 491.888 61.2919 491.418Q61.014 490.947 60.7608 490.463Q60.5076 489.979 60.2799 489.483Q60.0521 488.986 59.8505 488.479Q59.6489 487.971 59.4739 487.454Q59.2989 486.936 59.151 486.411Q59.0031 485.885 58.8827 485.352Q58.7624 484.819 58.6698 484.281Q58.5717 483.696 58.5029 483.107Q58.4341 482.518 58.3947 481.927Q58.3552 481.335 58.3453 480.742Q58.3354 480.149 58.355 479.556Q58.3746 478.964 58.4238 478.373Q58.4729 477.782 58.5513 477.194Q58.6298 476.606 58.7374 476.023Q58.845 475.44 58.9816 474.863Q59.1181 474.286 59.2832 473.717Q59.4483 473.147 59.6415 472.586Q59.8348 472.026 60.0557 471.475Q60.2766 470.925 60.5247 470.387Q60.7727 469.848 61.0472 469.322Q61.3218 468.797 61.6222 468.286Q61.9225 467.774 62.248 467.279Q62.5735 466.783 62.9232 466.304C67.4972 460.131 73.9347 457.662 81.2965 456.703ZM78.6078 466.524C74.2531 468.563 70.6754 471.154 69.0539 475.916Q68.85 476.519 68.7065 477.139Q68.563 477.759 68.4813 478.39Q68.3996 479.021 68.3804 479.657Q68.3613 480.293 68.4049 480.928Q68.4485 481.563 68.5545 482.19Q68.6604 482.818 68.8277 483.432Q68.9949 484.046 69.2219 484.64Q69.4488 485.235 69.7332 485.804C71.3036 488.926 74.1745 491.079 77.5154 492.001C79.5999 492.577 81.723 492.53 83.8601 492.358C87.9997 490.501 91.3945 488.322 93.1347 483.887Q93.3693 483.281 93.5411 482.654Q93.7129 482.026 93.8202 481.385Q93.9274 480.744 93.969 480.095Q94.0106 479.446 93.9861 478.796Q93.9616 478.146 93.8712 477.503Q93.7808 476.859 93.6256 476.227Q93.4703 475.596 93.2517 474.983Q93.0331 474.371 92.7535 473.784C91.203 470.515 88.3735 468.222 84.9817 467.055C82.8838 466.332 80.7938 466.437 78.6078 466.524Z"/>
	<path fill="#F6793E" transform="scale(13.6803 13.6803)" d="M939.235 442.6C944.487 442.371 949.3 442.919 953.966 445.582Q954.475 445.877 954.969 446.198Q955.463 446.518 955.941 446.863Q956.418 447.208 956.877 447.577Q957.336 447.945 957.777 448.337Q958.217 448.728 958.637 449.14Q959.057 449.553 959.456 449.986Q959.854 450.419 960.231 450.872Q960.607 451.325 960.961 451.796Q961.314 452.267 961.643 452.755Q961.973 453.244 962.277 453.748Q962.581 454.252 962.86 454.771Q963.138 455.289 963.391 455.822Q963.643 456.354 963.868 456.898Q964.093 457.442 964.291 457.997Q964.488 458.551 964.658 459.115Q964.827 459.679 964.968 460.251C966.488 466.33 965.568 473.048 962.292 478.412C958.518 484.59 952.738 487.435 945.922 488.982C940.851 489.584 935.836 488.831 931.345 486.321Q930.834 486.033 930.338 485.72Q929.842 485.408 929.362 485.07Q928.883 484.733 928.42 484.373Q927.958 484.012 927.514 483.629Q927.07 483.246 926.645 482.841Q926.221 482.437 925.817 482.011Q925.414 481.586 925.031 481.141Q924.649 480.696 924.29 480.233Q923.93 479.77 923.594 479.289Q923.258 478.809 922.946 478.312Q922.635 477.816 922.348 477.304Q922.061 476.793 921.8 476.267Q921.539 475.742 921.305 475.205Q921.07 474.667 920.863 474.119Q920.655 473.57 920.475 473.012Q920.295 472.454 920.143 471.888Q919.996 471.31 919.878 470.726Q919.76 470.141 919.671 469.552Q919.582 468.962 919.522 468.369Q919.462 467.775 919.432 467.18Q919.401 466.585 919.4 465.988Q919.399 465.392 919.427 464.796Q919.455 464.201 919.513 463.607Q919.57 463.014 919.657 462.424Q919.744 461.834 919.859 461.249Q919.975 460.664 920.12 460.086Q920.264 459.507 920.437 458.936Q920.609 458.366 920.81 457.804Q921.011 457.243 921.239 456.692Q921.467 456.141 921.722 455.602Q921.977 455.063 922.258 454.537Q922.539 454.011 922.846 453.5C926.608 447.26 932.349 444.203 939.235 442.6ZM941.504 452.513C936.975 454.072 933.361 456.049 931.15 460.573Q930.837 461.215 930.594 461.887Q930.35 462.558 930.178 463.252Q930.006 463.945 929.907 464.653Q929.808 465.36 929.784 466.074Q929.76 466.788 929.811 467.501Q929.862 468.213 929.987 468.917Q930.112 469.62 930.31 470.307Q930.507 470.993 930.776 471.655C932.097 474.969 934.678 477.433 937.977 478.756C940.102 479.609 942.267 479.655 944.519 479.539C948.792 478.181 952.292 476.31 954.468 472.196Q954.77 471.619 955.013 471.015Q955.256 470.411 955.436 469.786Q955.617 469.16 955.734 468.52Q955.851 467.879 955.903 467.23Q955.955 466.582 955.941 465.931Q955.928 465.28 955.849 464.634Q955.77 463.987 955.626 463.352Q955.483 462.717 955.276 462.1Q955.06 461.442 954.777 460.811Q954.494 460.179 954.148 459.58Q953.801 458.981 953.395 458.421Q952.988 457.861 952.526 457.346Q952.063 456.831 951.55 456.366Q951.037 455.902 950.479 455.493Q949.921 455.084 949.323 454.735Q948.725 454.385 948.095 454.1C946.081 453.171 943.715 452.636 941.504 452.513Z"/>
	<path fill="#59BEE6" transform="scale(13.6803 13.6803)" d="M930.498 105.623C935.385 105.505 940.368 106.376 944.676 108.764C950.213 111.834 953.91 117.031 955.486 123.115C957.101 129.347 956.216 135.795 952.761 141.256C948.808 147.504 942.798 150.812 935.731 152.286C930.506 152.861 924.807 151.549 920.411 148.657Q919.919 148.331 919.444 147.981Q918.969 147.632 918.511 147.259Q918.054 146.886 917.615 146.492Q917.177 146.097 916.758 145.681Q916.339 145.266 915.942 144.83Q915.544 144.394 915.168 143.939Q914.792 143.485 914.439 143.012Q914.086 142.539 913.756 142.05Q913.427 141.56 913.122 141.055Q912.817 140.55 912.537 140.031Q912.257 139.512 912.003 138.979Q911.749 138.447 911.521 137.902Q911.294 137.358 911.093 136.803Q910.893 136.248 910.719 135.684Q910.546 135.12 910.401 134.548Q910.256 133.976 910.139 133.398Q910.032 132.821 909.953 132.239Q909.874 131.657 909.823 131.072Q909.773 130.488 909.752 129.901Q909.73 129.314 909.738 128.727Q909.745 128.14 909.781 127.554Q909.818 126.968 909.883 126.385Q909.948 125.801 910.042 125.222Q910.135 124.642 910.257 124.068Q910.38 123.494 910.53 122.926Q910.68 122.359 910.858 121.799Q911.036 121.24 911.241 120.69Q911.446 120.14 911.678 119.601Q911.91 119.061 912.168 118.534Q912.427 118.007 912.711 117.493Q912.995 116.979 913.303 116.48Q913.612 115.98 913.945 115.497C917.96 109.734 923.733 106.809 930.498 105.623ZM931.53 117.631C928.256 118.273 925.613 119.868 923.655 122.622C921.928 125.052 921.264 128.282 921.804 131.205Q921.913 131.77 922.079 132.321Q922.245 132.871 922.465 133.403Q922.686 133.934 922.959 134.44Q923.232 134.946 923.555 135.422Q923.878 135.898 924.248 136.339Q924.617 136.78 925.03 137.181Q925.442 137.582 925.893 137.94Q926.343 138.297 926.828 138.607C929.543 140.382 932.265 140.643 935.416 140.534C939.06 139.254 942.144 137.476 943.841 133.831Q944.07 133.327 944.246 132.803Q944.422 132.278 944.542 131.737Q944.662 131.197 944.726 130.647Q944.789 130.098 944.795 129.544Q944.801 128.991 944.749 128.44Q944.698 127.889 944.589 127.346Q944.48 126.803 944.316 126.275Q944.151 125.746 943.933 125.238C942.626 122.132 939.875 119.671 936.714 118.552C935.062 117.967 933.262 117.817 931.53 117.631Z"/>
	<path fill="#59BEE6" transform="scale(13.6803 13.6803)" d="M70.9054 726.16C76.5356 725.409 82.5606 726.629 87.3496 729.704C92.7749 733.187 96.3264 738.834 97.486 745.142C98.6944 751.715 97.3776 758.993 93.4261 764.451C89.2468 770.222 83.39 772.801 76.5389 773.81C70.8932 774.159 65.1093 772.889 60.3562 769.759Q59.8504 769.429 59.3616 769.073Q58.8727 768.719 58.4019 768.34Q57.9311 767.961 57.4796 767.56Q57.028 767.158 56.5968 766.735Q56.1656 766.312 55.7557 765.868Q55.3458 765.424 54.9583 764.961Q54.5708 764.497 54.2067 764.015Q53.8425 763.533 53.5025 763.034Q53.1625 762.534 52.8475 762.019Q52.5326 761.503 52.2434 760.972Q51.9542 760.442 51.6915 759.898Q51.4288 759.354 51.1932 758.797Q50.9576 758.241 50.7497 757.674Q50.5419 757.107 50.3622 756.53Q50.1825 755.953 50.0315 755.368Q49.8804 754.783 49.7584 754.191Q49.6401 753.609 49.5516 753.021Q49.4631 752.434 49.4046 751.843Q49.3462 751.251 49.3179 750.658Q49.2896 750.065 49.2916 749.47Q49.2936 748.876 49.3259 748.283Q49.3581 747.69 49.4206 747.099Q49.483 746.508 49.5754 745.921Q49.6679 745.334 49.7901 744.753Q49.9123 744.172 50.0639 743.597Q50.2156 743.023 50.3963 742.457Q50.5771 741.891 50.7864 741.335Q50.9957 740.779 51.2331 740.234Q51.4704 739.69 51.7352 739.158Q52 738.626 52.2916 738.108Q52.5831 737.591 52.9007 737.089Q53.2182 736.586 53.5609 736.101C57.8165 730.154 63.895 727.342 70.9054 726.16ZM73.4134 738.534C69.4911 739.639 66.1234 741.094 63.9657 744.75C62.5693 747.116 62.239 749.878 62.9712 752.518C63.8719 755.766 66.3736 758.33 69.328 759.841C71.1892 760.792 73.2764 761.064 75.3293 761.307C79.2253 760.156 82.3643 758.615 84.3177 754.857Q84.5715 754.366 84.7731 753.851Q84.9746 753.337 85.1217 752.804Q85.2688 752.271 85.3598 751.726Q85.4509 751.181 85.4849 750.629Q85.5189 750.077 85.4955 749.525Q85.4721 748.973 85.3915 748.426Q85.311 747.879 85.1742 747.344Q85.0373 746.808 84.8457 746.29C83.8241 743.47 81.5167 741.113 78.7986 739.88C77.0861 739.103 75.2568 738.82 73.4134 738.534Z"/>
	<path fill="#071440" transform="scale(13.6803 13.6803)" d="M772.691 284.68C778.65 284.003 785.317 284.509 791.196 285.604C803.741 287.942 818.872 294.614 826.334 305.424C822.82 312.631 814.696 319.211 808.689 324.38C801.414 319.751 795.392 314.673 787.132 311.683C785.365 311.205 783.528 310.749 781.701 310.56C771.607 309.515 765.65 313.688 758.206 319.614C756.41 321.044 754.3 322.359 751.898 321.976C746.736 321.153 736.43 308.947 733.362 304.443C744.37 292.778 756.889 286.96 772.691 284.68Z"/>
	<path fill="#F6793E" transform="scale(13.6803 13.6803)" d="M778.372 289.731C793.893 288.864 808.889 295.709 820.261 305.816C816.279 309.801 812.31 313.773 808.538 317.959C800.666 311.536 793.611 307.56 783.613 305.573C770.974 304.938 762.293 308.938 752.551 316.645Q746.397 310.758 740.408 304.703C751.622 294.895 763.664 290.838 778.372 289.731Z"/>
	<path fill="#071440" transform="scale(13.6803 13.6803)" d="M290.061 414.182C299.995 417.836 316.108 429.852 324.249 436.975C319.658 445.778 307.683 462.815 300.154 469.245C298.829 470.376 297.645 471.263 295.838 471.158C294.936 470.437 294.656 470.038 294.445 468.812C293.464 463.127 306.905 447.455 310.743 442.469C292.99 442.106 273.348 446.584 258.365 456.349C230.028 474.816 217.023 505.973 210.336 537.829C208.967 545.951 207.788 554.292 207.518 562.529C207.35 567.679 208.607 580.426 206.563 584.245C206.034 585.234 205.193 586.106 204.035 586.288C202.899 586.466 201.42 586.133 200.535 585.402C198.652 583.847 198.519 580.615 198.445 578.354C197.178 539.746 207.454 494.946 234.079 466.069C254.72 443.681 277.494 435.676 307.388 434.515C303.007 431.368 290.071 424.019 288.745 419.148C288.183 417.082 289.018 415.86 290.061 414.182Z"/>
	<path fill="#071440" transform="scale(13.6803 13.6803)" d="M773.234 246.694C782.624 246.205 791.512 246.749 800.703 248.846C818.846 252.986 840.69 263.228 850.945 279.519C845.795 285.716 839.577 291.522 833.381 296.648C817.327 283.317 807.009 273.908 784.958 272.318C784.596 272.284 784.234 272.247 783.872 272.225Q782.355 272.126 780.834 272.094Q779.314 272.062 777.794 272.097Q776.274 272.132 774.756 272.233Q773.239 272.335 771.728 272.504Q770.217 272.672 768.714 272.907Q767.212 273.142 765.721 273.443Q764.231 273.744 762.755 274.11Q761.279 274.477 759.821 274.908Q758.363 275.339 756.925 275.833Q755.487 276.328 754.072 276.886Q752.658 277.443 751.269 278.063Q749.88 278.682 748.52 279.362Q747.16 280.042 745.831 280.781Q744.502 281.52 743.207 282.318Q741.912 283.115 740.653 283.968Q739.395 284.821 738.175 285.729C733.913 288.953 730.155 292.898 726.167 296.459C719.204 291.149 711.928 284.703 707.412 277.142C724.037 257.646 748.379 249.375 773.234 246.694Z"/>
	<path fill="#F6793E" transform="scale(13.6803 13.6803)" d="M775.27 252.209C777.567 252.036 779.837 251.963 782.141 252.033C805.806 252.752 827.154 261.354 843.46 278.578C840.048 282.586 836.302 286.225 832.502 289.857C818.12 275.356 802.791 268.76 782.563 266.803C782.399 266.785 782.235 266.762 782.071 266.747C760.265 264.774 741.432 275.458 725.441 289.106L714.075 277.559C732.182 261.88 751.409 254.077 775.27 252.209Z"/>
	<path fill="#071440" transform="scale(13.6803 13.6803)" d="M772.469 208.687C781.688 207.864 791.309 208.656 800.41 210.124C828.81 214.707 861.988 229.361 879.224 253.327C873.692 259.778 867.235 266.83 859.733 270.989C838.605 249.321 819.136 239.719 789.122 235.597C765.478 232.847 736.345 240.168 716.894 253.914C710.405 258.499 705.587 264.917 698.523 268.822L697.879 269.175C691.169 265.587 683.509 258.008 679.136 251.752C702.912 224.096 736.979 211.821 772.469 208.687Z"/>
	<path fill="#F6793E" transform="scale(13.6803 13.6803)" d="M775.82 214.217C779.152 213.989 782.526 214.11 785.863 214.221Q787.377 214.267 788.888 214.351Q790.401 214.435 791.91 214.555Q793.42 214.676 794.926 214.833Q796.432 214.991 797.933 215.185Q799.435 215.38 800.932 215.611Q802.428 215.842 803.919 216.11Q805.409 216.378 806.893 216.682Q808.376 216.986 809.851 217.327Q811.327 217.668 812.794 218.044Q814.26 218.421 815.717 218.834Q817.174 219.246 818.621 219.694Q820.067 220.142 821.502 220.626Q822.938 221.109 824.36 221.628Q825.783 222.146 827.193 222.699Q828.602 223.253 829.998 223.84Q831.393 224.428 832.774 225.05Q834.155 225.671 835.52 226.327Q836.885 226.982 838.234 227.671Q839.583 228.359 840.914 229.081Q842.245 229.802 843.559 230.556Q844.872 231.31 846.166 232.096Q847.461 232.882 848.736 233.699Q850.01 234.516 851.265 235.365Q852.519 236.213 853.752 237.092Q854.985 237.971 856.196 238.88Q857.408 239.789 858.596 240.727Q859.785 241.665 860.95 242.633Q862.115 243.6 863.256 244.595Q864.397 245.591 865.514 246.614Q866.63 247.637 867.721 248.687Q868.812 249.737 869.877 250.814Q870.942 251.891 871.98 252.993C868.309 256.851 864.435 260.557 860.669 264.324C838.769 242.595 814.444 231.986 783.677 230.215Q783.037 230.178 782.396 230.151C758.3 229.116 733.151 236.272 713.411 250.155C707.877 254.046 702.963 258.57 697.98 263.124C693.989 259.467 690.157 255.622 686.277 251.846C712.773 227.278 739.661 215.79 775.82 214.217Z"/>
	<path fill="#071440" transform="scale(13.6803 13.6803)" d="M148.074 633.73L228.679 633.839C243.772 633.837 259.255 633.139 274.306 633.976C276.256 634.085 278.111 634.201 279.839 635.191C280.498 636.627 280.461 638.385 280.506 639.95C281.109 660.732 280.472 681.684 280.534 702.487C280.56 711.23 281.658 738.765 280.036 745.25C278.925 746.228 278.607 746.218 277.125 746.469L194.996 746.004C178.659 746.016 161.409 747.59 145.239 745.56C144.553 737.294 143.553 638.445 145.156 635.459C145.887 634.099 146.726 634.123 148.074 633.73ZM149.924 639.478C150.097 673.126 150.715 706.862 150.203 740.503L275.46 740.513C275.461 706.906 275.949 673.135 275.038 639.549Q212.481 639.163 149.924 639.478Z"/>
	<path fill="#071440" transform="scale(13.6803 13.6803)" d="M206.932 645.706C209.51 645.521 213.317 644.91 215.5 646.563C217.684 648.216 217.831 650.626 218.081 653.119C220.697 654.681 223.307 655.931 226.114 657.114C226.967 655.82 228.202 653.584 229.51 652.733C230.612 652.015 231.389 652.053 232.616 652.446C238.015 654.178 243.642 666.221 245.859 671.007L240.597 674.131Q241.186 676.853 241.839 679.561C244.845 679.609 248.163 679.268 250.689 681.149C251.22 682.02 251.417 682.76 251.529 683.76C252.028 688.193 251.494 695.901 248.698 699.437C247.669 700.019 247.11 700.015 245.979 699.897C244.804 699.774 243.807 699.751 242.63 699.838C241.236 700.532 240.96 701.041 240.248 702.351Q241.893 705.1 243.483 707.881C240.731 714.613 235.903 718.106 230.371 722.417C228.581 721.039 226.976 719.505 225.34 717.952C222.412 719.036 219.785 720.163 217.095 721.758C216.67 723.795 216.193 725.781 215.598 727.776C215.071 728.003 214.543 728.22 213.997 728.396C210.23 729.615 203.059 729.759 199.53 727.903C197.564 725.746 197.97 721.992 197.928 719.249C195.277 717.378 192.387 715.908 189.534 714.373L185.706 717.608C182.771 715.761 178.849 712.899 177.161 709.84C174.867 705.682 176.404 701.842 177.653 697.668C174.953 697.258 171.165 697.167 168.938 695.59C167.436 692.987 167.145 689.755 167.042 686.789C166.978 684.947 166.844 680.558 168.311 679.327C170.059 677.858 174.188 678.465 176.371 678.527C177.661 670.219 173.915 669.66 174.278 664.972C174.611 660.664 182.004 654.802 185.107 652.046C187.168 653.924 189.15 655.907 191.165 657.834L198.453 653.961C198.453 651.95 198.189 649.152 199.556 647.497C200.992 645.758 204.846 645.889 206.932 645.706ZM207.885 651.167C206.265 651.396 205.487 651.284 204.247 652.392C203.463 654.584 203.997 656.829 204.013 659.105C199.293 660.493 195.69 661.995 191.663 664.841C189.304 663.163 186.973 661.487 184.732 659.652C182.846 662.397 181.004 665.155 178.837 667.691L185.06 669.939C183.721 675.254 182.403 680.478 180.544 685.64Q176.548 685.268 172.556 684.855L173.082 691.475C175.942 691.551 178.871 691.492 181.708 691.865C183.029 695.049 184.198 698.217 185.244 701.501C184.14 702.445 182.867 703.304 182.662 704.841C182.476 706.239 182.872 707.267 183.671 708.397C184.997 709.267 185.706 709.357 187.234 709.471L189.793 708.293C194.701 710.046 199.285 712.306 203.967 714.571L204.546 723.496C206.37 723.562 208.842 723.998 210.434 723.003C211.27 721.806 211.274 720.525 211.417 719.119C211.608 717.588 211.503 716.575 212.479 715.354C217.189 714.349 221.033 713.278 225.352 711.109L225.748 710.906C227.122 712.301 228.468 713.755 229.934 715.052C232.27 713.182 234.659 711.353 236.943 709.422C235.142 707.591 233.316 705.794 231.694 703.799C234.245 700.425 236.089 696.851 237.793 692.991L245.447 693.464L245.881 685.552L237.345 685.235C236.477 681.071 235.561 676.967 233.997 672.998C235.511 671.313 236.995 669.587 238.553 667.943C236.351 664.687 234.24 661.23 231.712 658.224Q229.081 661.666 226.51 665.152C221.654 662.359 217.201 660.387 211.749 659.065C211.691 657.335 211.623 655.628 211.7 653.898C211.745 652.874 211.57 652.271 211.111 651.335C209.829 650.786 209.247 650.995 207.885 651.167Z"/>
	<path fill="#59BEE6" transform="scale(13.6803 13.6803)" d="M207.885 651.167C209.247 650.995 209.829 650.786 211.111 651.335C211.57 652.271 211.745 652.874 211.7 653.898C211.623 655.628 211.691 657.335 211.749 659.065C217.201 660.387 221.654 662.359 226.51 665.152Q229.081 661.666 231.712 658.224C234.24 661.23 236.351 664.687 238.553 667.943C236.995 669.587 235.511 671.313 233.997 672.998C235.561 676.967 236.477 681.071 237.345 685.235L245.881 685.552L245.447 693.464L237.793 692.991C236.089 696.851 234.245 700.425 231.694 703.799C233.316 705.794 235.142 707.591 236.943 709.422C234.659 711.353 232.27 713.182 229.934 715.052C228.468 713.755 227.122 712.301 225.748 710.906L225.352 711.109C221.033 713.278 217.189 714.349 212.479 715.354C211.503 716.575 211.608 717.588 211.417 719.119C211.274 720.525 211.27 721.806 210.434 723.003C208.842 723.998 206.37 723.562 204.546 723.496L203.967 714.571C199.285 712.306 194.701 710.046 189.793 708.293L187.234 709.471C185.706 709.357 184.997 709.267 183.671 708.397C182.872 707.267 182.476 706.239 182.662 704.841C182.867 703.304 184.14 702.445 185.244 701.501C184.198 698.217 183.029 695.049 181.708 691.865C178.871 691.492 175.942 691.551 173.082 691.475L172.556 684.855Q176.548 685.268 180.544 685.64C182.403 680.478 183.721 675.254 185.06 669.939L178.837 667.691C181.004 665.155 182.846 662.397 184.732 659.652C186.973 661.487 189.304 663.163 191.663 664.841C195.69 661.995 199.293 660.493 204.013 659.105C203.997 656.829 203.463 654.584 204.247 652.392C205.487 651.284 206.265 651.396 207.885 651.167ZM207.032 666.15C201.194 667.057 196.193 669.11 192.56 674.039Q192.254 674.458 191.97 674.893Q191.686 675.327 191.425 675.775Q191.164 676.224 190.926 676.685Q190.688 677.146 190.475 677.619Q190.261 678.092 190.072 678.575Q189.882 679.058 189.718 679.55Q189.554 680.042 189.415 680.542Q189.276 681.042 189.163 681.549Q189.051 682.055 188.964 682.567Q188.877 683.078 188.817 683.594Q188.756 684.109 188.722 684.627Q188.689 685.145 188.681 685.663Q188.674 686.182 188.694 686.701Q188.713 687.219 188.759 687.736Q188.805 688.253 188.878 688.767Q188.95 689.281 189.049 689.79C190.168 695.475 193.792 700.684 198.592 703.894C203.624 707.259 208.652 707.733 214.501 707.598C220.621 705.916 225.625 702.869 228.794 697.177C231.457 692.392 232.344 686.566 230.793 681.276C229.171 675.742 225.08 671.161 219.95 668.601C215.89 666.575 211.53 665.917 207.032 666.15Z"/>
	<path fill="#071440" transform="scale(13.6803 13.6803)" d="M207.032 666.15C211.53 665.917 215.89 666.575 219.95 668.601C225.08 671.161 229.171 675.742 230.793 681.276C232.344 686.566 231.457 692.392 228.794 697.177C225.625 702.869 220.621 705.916 214.501 707.598C208.652 707.733 203.624 707.259 198.592 703.894C193.792 700.684 190.168 695.475 189.049 689.79Q188.95 689.281 188.878 688.767Q188.805 688.253 188.759 687.736Q188.713 687.219 188.694 686.701Q188.674 686.182 188.681 685.663Q188.689 685.145 188.722 684.627Q188.756 684.109 188.817 683.594Q188.877 683.078 188.964 682.567Q189.051 682.055 189.163 681.549Q189.276 681.042 189.415 680.542Q189.554 680.042 189.718 679.55Q189.882 679.058 190.072 678.575Q190.261 678.092 190.475 677.619Q190.688 677.146 190.926 676.685Q191.164 676.224 191.425 675.775Q191.686 675.327 191.97 674.893Q192.254 674.458 192.56 674.039C196.193 669.11 201.194 667.057 207.032 666.15ZM206.959 671.52C202.236 673.113 198.249 675.178 195.898 679.863C194.134 683.377 193.968 687.384 195.305 691.071Q195.583 691.827 195.938 692.551Q196.292 693.274 196.719 693.958Q197.146 694.641 197.641 695.277Q198.136 695.912 198.694 696.494Q199.252 697.075 199.867 697.596Q200.481 698.117 201.146 698.572Q201.811 699.027 202.52 699.411Q203.228 699.795 203.972 700.104C207.017 701.377 210.026 701.656 213.283 701.373C218.158 699.397 222.183 697.16 224.227 691.962C225.71 688.193 225.418 684.146 223.725 680.495C221.865 676.483 218.485 673.623 214.332 672.197Q213.448 671.891 212.533 671.694Q211.618 671.497 210.687 671.411Q209.755 671.326 208.82 671.353Q207.884 671.38 206.959 671.52Z"/>
	<path fill="#071440" transform="scale(13.6803 13.6803)" d="M115.116 545.244C115.145 545.245 115.176 545.237 115.205 545.245C118.548 546.197 118.267 551.336 120.235 553.761C121.004 554.707 121.962 555.076 123.161 554.96C126.169 554.67 129.875 551.323 131.973 549.306C135.813 551.035 138.758 552.743 141.679 555.864C140.807 558.191 139.959 560.292 140.824 562.775C141.299 564.138 142.126 565.032 143.446 565.631C146.723 567.119 149.409 565.477 152.336 564.111C154.627 567.444 156.859 570.716 158.712 574.317C156.004 576.455 153.231 577.518 152.129 581.059C152.78 585.702 158.546 585.847 160.847 589.442C162.134 591.452 161.735 593.353 161.471 595.597L260.678 595.979C276.28 596.01 292.526 594.957 308.047 596.296C311.115 596.561 314.268 596.637 316.535 598.985C318.129 600.636 319.05 602.797 319.254 605.064C320.039 613.777 319.297 623.135 319.253 631.903L319.187 684.286L319.601 862.561C319.611 866.058 319.377 870.088 316.67 872.645C312.017 877.041 302.062 875.558 296.104 875.331C294.225 871.564 292.736 867.569 291.32 863.609L307.844 863.599Q308.191 807.289 307.844 750.978L308.222 607.2C294.219 605.37 279.574 606.421 265.46 606.44L201.983 606.481C188.934 606.483 175.786 606.795 162.754 606.136C161.933 603.708 161.206 601.39 159.857 599.19C158.782 598.627 158.335 598.442 157.062 598.706C155.531 599.022 153.896 600.11 152.996 601.385C152.142 602.595 151.771 604.259 152.162 605.704C152.796 608.044 155.159 609.066 157.092 610.153C155.876 613.115 154.43 617.996 151.445 619.543C149.894 620.347 148.844 620.151 147.281 619.583C146.198 619.189 145.338 618.937 144.196 618.793C138.829 621.519 143.35 633.224 139.605 639.954C137.752 643.285 134.318 645.251 130.71 646.181C120.888 648.713 125.202 635.73 119.358 633.259C118.176 632.759 117.237 632.856 116.064 633.238C114.865 634.741 115.047 635.735 114.998 637.594C114.819 644.494 115.293 651.466 115.354 658.375L115.443 703.564L115.493 863.566L162.75 863.545L265.487 863.587Q275.348 873.373 284.617 883.722C290.236 890.067 295.551 896.68 301.717 902.515C333.151 932.257 373.495 936.165 414.524 936.123Q433.237 936.204 451.945 935.728C446.764 930.11 437.144 922.979 433.937 916.267C433.382 915.107 433.569 914.167 433.985 912.991C434.892 912.084 435.325 911.518 436.729 911.507C441.371 911.468 463.253 933.328 467.447 937.671C466.444 939.61 465.292 941.482 463.895 943.163C461.121 946.502 457.758 949.318 454.733 952.425C450.234 957.045 445.983 962.769 440.718 966.517C438.88 967.826 436.878 968.953 434.568 968.581C433.867 967.912 433.779 967.603 433.694 966.602C433.182 960.526 446.522 948.998 450.755 944.501C423.37 943.71 395.722 946.164 368.486 942.266C322.684 935.711 294.356 911.141 267.702 875.565L163.687 875.281C147.116 875.239 130.322 875.983 113.792 875.217C111.723 875.121 107.59 875.258 106.042 873.779C104.168 871.988 104.33 868.615 104.201 866.203C102.868 841.241 104.239 815.794 104.292 790.776L104.468 637.028C102.481 635.064 100.167 630.236 97.5634 629.438C95.1918 628.711 92.1083 631.04 90.1314 632.176C86.5357 630.291 83.309 628.154 80.3152 625.41C81.7755 623.109 83.1116 620.779 84.4078 618.383C82.9232 616.153 81.4786 614.284 79.5651 612.387L71.0709 612.162C69.5538 608.988 68.483 605.682 67.3643 602.354C69.7337 600.599 72.4287 598.942 73.7809 596.226C74.6128 594.555 74.8263 592.964 74.1177 591.182C72.9289 588.192 69.4298 586.806 66.7348 585.543L69.5514 574.178L77.4379 574.603C79.2298 571.945 80.7046 569.172 82.1951 566.339C80.9142 564.723 79.7417 563.017 78.5425 561.34C80.3303 559.382 82.1485 557.307 84.1085 555.526C85.4562 554.301 87.2973 553.171 89.2013 553.486C91.3154 553.836 92.2614 555.659 93.2818 557.311C96.6515 556.596 99.9185 555.777 103.211 554.763C103.94 552.05 104.462 549.295 105.014 546.542C108.313 545.804 111.754 545.586 115.116 545.244ZM131.123 628.657C129.798 631.434 128.86 633.949 129.436 637.049C130.052 637.888 130.319 638.516 131.495 638.54C131.856 638.547 132.478 638.353 132.835 638.254C133.973 636.548 135.65 634.547 135.234 632.341C134.924 630.704 133.639 629.923 132.291 629.212C131.91 629.011 131.516 628.835 131.123 628.657Z"/>
	<path fill="#59BEE6" transform="scale(13.6803 13.6803)" d="M110.047 551.212C112.457 553.139 113.295 555.34 114.326 558.196C119.075 558.693 123.815 559.854 128.495 560.795C130.065 559.253 131.816 557.775 133.923 557.077L134.465 557.571C134.349 558.401 134.235 559.241 134.217 560.081C134.098 565.525 138.759 569.429 142.227 572.976C145.395 572.388 148.532 571.641 151.674 570.931L144.841 577.166C146.012 581.445 147.116 585.659 147.881 590.035C150.869 590.983 153.745 591.512 156.857 591.817C154.046 593.226 151.169 594.523 148.322 595.861C147.312 599.944 146.106 603.999 144.995 608.058C146.206 609.363 147.472 610.483 147.971 612.244L147.554 612.893C145.614 613.303 143.771 612.566 141.908 612.044C139.052 614.73 136.625 617.936 134.126 620.953C131.894 621.141 128.913 621.085 126.926 622.183C124.035 623.781 123.523 626.67 122.698 629.588Q121.811 628.554 120.864 627.574C118.518 625.188 116.311 625.317 113.197 625.343C110.95 626.368 108.907 628.584 106.899 630.105L106.659 629.441C106.563 629.169 106.476 628.895 106.375 628.625C104.708 624.158 99.2769 622.32 95.3156 620.518C92.9089 622.976 90.4271 625.287 87.8433 627.558C88.6968 624.143 89.5826 621.127 91.482 618.127C88.6227 614.05 85.5669 610.088 82.6675 606.034C80.2869 606.137 78.2339 606.367 76.0964 605.112L76.028 604.146C77.229 602.512 78.9977 601.73 80.7363 600.775C79.6265 595.346 79.8552 590.42 80.6654 584.977C79.4292 584.548 78.1885 584.122 76.9725 583.638C75.6915 583.128 74.7522 582.562 74.1978 581.24L74.8633 580.419C77.1518 579.616 79.3131 579.943 81.6824 580.123C83.5677 576.059 86.0292 572.508 88.6589 568.898C87.8992 566.739 86.7366 564.341 87.026 562.023L87.8147 561.419C90.0973 561.662 91.9027 563.149 93.7861 564.371C98.7695 562.88 103.601 560.632 108.408 558.649C108.47 555.909 109.053 553.762 110.047 551.212Z"/>
	<path fill="#59BEE6" transform="scale(13.6803 13.6803)" d="M477.759 345.983C468.383 332.104 463.712 316.364 466.906 299.643C469.628 285.394 477.635 272.097 489.705 263.893Q490.853 263.114 492.037 262.392Q493.222 261.67 494.44 261.007Q495.659 260.344 496.909 259.742Q498.159 259.14 499.436 258.6Q500.714 258.06 502.017 257.584Q503.32 257.107 504.645 256.696Q505.97 256.284 507.313 255.938Q508.656 255.592 510.015 255.313Q511.374 255.033 512.745 254.821Q514.116 254.609 515.495 254.464Q516.875 254.319 518.26 254.243Q519.645 254.166 521.033 254.158Q522.42 254.15 523.806 254.21Q525.192 254.27 526.573 254.398Q527.954 254.526 529.328 254.722Q530.701 254.918 532.063 255.181Q533.306 255.417 534.536 255.715Q535.766 256.013 536.98 256.372Q538.194 256.731 539.388 257.15Q540.582 257.569 541.754 258.047Q542.926 258.525 544.072 259.061Q545.219 259.597 546.337 260.189Q547.456 260.782 548.543 261.429Q549.63 262.077 550.684 262.777Q551.738 263.478 552.755 264.231Q553.773 264.984 554.752 265.786Q555.73 266.589 556.668 267.439Q557.605 268.289 558.499 269.185Q559.393 270.081 560.241 271.02Q561.089 271.96 561.889 272.94Q562.689 273.921 563.439 274.94Q564.19 275.96 564.888 277.015C567.97 281.621 570.298 286.681 572.527 291.741C578.233 284.956 584.232 279.944 593.483 279.091C600.697 278.427 607.948 280.312 613.546 285.024C620.072 290.519 623.176 298.828 623.629 307.179C623.642 307.416 623.649 307.654 623.659 307.892C640.264 308.569 655.331 314.19 666.775 326.562Q667.767 327.655 668.705 328.795Q669.643 329.935 670.524 331.12Q671.404 332.304 672.226 333.53Q673.048 334.757 673.809 336.021Q674.57 337.286 675.269 338.587Q675.967 339.887 676.601 341.22Q677.235 342.553 677.803 343.916Q678.372 345.278 678.873 346.667Q679.374 348.056 679.806 349.467Q680.238 350.878 680.601 352.309Q680.964 353.74 681.257 355.187Q681.55 356.634 681.772 358.093Q681.993 359.553 682.143 361.021Q682.293 362.49 682.372 363.964Q682.45 365.438 682.456 366.914Q682.462 368.39 682.396 369.865C681.699 384.974 675.364 400.003 664.02 410.175C659.404 414.313 654.141 417.581 649.01 421.023C641.386 422.673 632.801 422.565 624.995 422.986L625.014 418.702C625.065 404.855 626.6 389.827 615.894 379.204C611.261 374.607 605.395 371.251 598.935 370.094C591.896 368.834 584.421 369.337 577.297 369.386L549.222 369.479C513.151 369.453 477.131 369.153 441.057 369.545C443.06 361.222 445.998 353.582 453.682 348.843C460.961 344.355 469.65 344.43 477.759 345.983Z"/>
	<path fill="#071440" transform="scale(13.6803 13.6803)" d="M198.786 150.226C206.291 149.95 225.712 148.314 231.147 153.092C234.761 156.268 235.257 160.712 235.558 165.218C238.763 165.452 241.935 166.064 245.051 166.839C274.645 174.204 301.468 193.639 317.039 219.95Q317.833 221.278 318.593 222.626Q319.354 223.973 320.081 225.339Q320.807 226.706 321.499 228.089Q322.192 229.473 322.849 230.874Q323.507 232.275 324.129 233.691Q324.751 235.108 325.338 236.54Q325.925 237.972 326.476 239.418Q327.027 240.864 327.541 242.323Q328.056 243.783 328.534 245.254Q329.011 246.726 329.453 248.209Q329.894 249.692 330.297 251.186Q330.701 252.68 331.068 254.183Q331.434 255.687 331.763 257.199Q332.092 258.711 332.383 260.23Q332.673 261.75 332.926 263.277Q333.179 264.803 333.394 266.336Q333.608 267.868 333.785 269.405Q333.961 270.943 334.099 272.484Q334.237 274.025 334.336 275.569Q334.436 277.113 334.496 278.66Q334.557 280.206 334.579 281.753Q334.601 283.3 334.585 284.848Q334.568 286.395 334.513 287.941Q334.458 289.488 334.364 291.032Q334.271 292.577 334.138 294.118Q334.006 295.66 333.835 297.198Q333.664 298.736 333.455 300.269Q333.246 301.802 332.999 303.33Q332.752 304.857 332.466 306.378Q332.181 307.899 331.858 309.412Q331.534 310.925 331.173 312.43Q330.812 313.935 330.414 315.43C321.052 351.432 295.714 378.152 264.357 396.601C264.379 398.655 264.497 400.814 263.761 402.77C262.423 406.328 258.49 408.125 255.254 409.627C248.649 412.692 229.766 420.576 223.301 417.823C219.501 416.205 217.613 410.705 216.03 407.25Q214.608 404.038 213.22 400.812C206.958 400.395 200.771 399.73 194.624 398.424C169.19 393.024 144.749 379.075 130.307 356.978C121.384 357.37 113.052 357.026 104.542 354.062C90.9606 349.331 79.4181 338.609 73.3367 325.611Q72.7801 324.4 72.2832 323.164Q71.7863 321.928 71.3502 320.668Q70.9141 319.409 70.5399 318.13Q70.1657 316.852 69.8542 315.556Q69.5427 314.26 69.2948 312.951Q69.0468 311.642 68.8629 310.322Q68.679 309.003 68.5596 307.675Q68.4403 306.348 68.3857 305.017Q68.3312 303.686 68.3415 302.353Q68.3519 301.021 68.4272 299.69Q68.5024 298.36 68.6425 297.035Q68.7825 295.71 68.9869 294.393Q69.1913 293.076 69.4596 291.771Q69.7279 290.466 70.0595 289.175Q70.3911 287.885 70.7852 286.612Q71.1793 285.339 71.6349 284.087C77.5451 268.106 88.6712 257.757 103.854 250.71C109.243 235.935 115.793 222.168 125.73 209.837C138.998 193.373 165.399 173.68 187.009 171.332C186.93 166.026 186.248 159.007 189.595 154.55C191.935 151.433 195.108 150.671 198.786 150.226ZM185.023 177.551C157.473 185.575 133.013 203.381 119.113 228.814C115.669 235.116 112.672 241.747 110.596 248.633C127.713 246.466 143.795 248 157.894 258.818C169.675 267.857 177.315 282.081 179.125 296.75C180.873 310.908 176.467 325.015 167.635 336.122C159.388 346.494 148.404 352.509 135.892 356.277C152.214 376.274 177.918 392.433 204.02 394.834C206.126 395.028 208.259 395.047 210.373 395.067C210.362 394.861 210.363 394.655 210.338 394.45C209.8 390.025 205.867 384.952 209.117 380.59C212.888 375.53 238.783 367.337 245.284 366.897C247.163 366.77 248.645 367.107 250.103 368.345C251.736 369.734 253.006 371.574 254.239 373.31C277.491 362.365 295.834 341.261 304.507 317.185Q304.918 316.077 305.3 314.959Q305.683 313.841 306.037 312.713Q306.391 311.586 306.717 310.45Q307.043 309.314 307.341 308.17Q307.638 307.026 307.906 305.876Q308.174 304.725 308.414 303.568Q308.653 302.41 308.863 301.247Q309.074 300.084 309.254 298.917Q309.435 297.749 309.587 296.577Q309.738 295.405 309.86 294.229Q309.982 293.054 310.074 291.876Q310.167 290.698 310.229 289.517Q310.292 288.337 310.325 287.156Q310.358 285.975 310.361 284.793Q310.365 283.611 310.338 282.43Q310.312 281.248 310.256 280.068Q310.199 278.888 310.114 277.709Q310.028 276.53 309.912 275.354Q309.797 274.178 309.652 273.005Q309.507 271.832 309.333 270.664Q309.158 269.495 308.955 268.331Q308.751 267.167 308.518 266.008Q308.285 264.849 308.023 263.697Q307.761 262.545 307.47 261.399Q307.179 260.254 306.86 259.116Q306.54 257.979 306.192 256.849Q305.844 255.72 305.467 254.6Q305.091 253.479 304.686 252.369Q304.282 251.259 303.85 250.159Q303.417 249.059 302.958 247.97Q302.498 246.882 302.011 245.805Q301.524 244.728 301.01 243.664C286.63 213.499 265.334 199.794 235.169 188.351C233.729 191.289 232.246 194.034 229.022 195.252C222.758 197.619 199.158 197.839 193.018 195.102C190.833 194.128 189.128 192.101 188.308 189.878C187.047 186.456 188.664 179.84 186.258 177.542L185.023 177.551ZM235.534 171.07L235.487 182.629C264.003 191.262 289.583 209.592 303.712 236.268Q304.306 237.397 304.871 238.541Q305.436 239.685 305.973 240.842Q306.51 242 307.018 243.17Q307.526 244.341 308.005 245.523Q308.484 246.706 308.933 247.9Q309.382 249.094 309.802 250.299Q310.222 251.504 310.611 252.719Q311.001 253.934 311.36 255.158Q311.72 256.383 312.049 257.615Q312.377 258.848 312.676 260.089Q312.974 261.329 313.241 262.577Q313.509 263.824 313.745 265.078Q313.982 266.332 314.187 267.591Q314.392 268.851 314.566 270.115Q314.74 271.379 314.883 272.646Q315.025 273.914 315.137 275.185Q315.248 276.456 315.327 277.73Q315.407 279.003 315.455 280.278Q315.503 281.553 315.519 282.829Q315.536 284.105 315.52 285.381Q315.505 286.657 315.458 287.932Q315.411 289.207 315.333 290.48Q315.255 291.754 315.145 293.025Q315.034 294.296 314.893 295.564Q314.752 296.832 314.579 298.096Q314.406 299.36 314.202 300.62Q313.997 301.879 313.762 303.133Q313.527 304.387 313.26 305.635Q312.994 306.883 312.697 308.124Q312.4 309.364 312.072 310.598Q311.744 311.831 311.386 313.055Q311.028 314.28 310.639 315.495C301.653 343.845 281.458 363.808 256.59 378.991L261.255 391.072C263.517 389.881 265.855 388.756 268.043 387.436C296.913 369.732 318.702 343.028 326.591 309.711C333.522 280.441 328.005 247.702 312.07 222.214C296.894 197.941 271.785 178.915 243.722 172.515Q239.666 171.58 235.534 171.07Z"/>
	<path fill="#F6793E" transform="scale(13.6803 13.6803)" d="M243.484 372.046C244.599 372.07 245.587 372.333 246.525 372.95C251.256 376.063 257.681 395 258.778 400.65C250.703 407.198 238.401 410.349 228.607 413.546C227.809 413.526 226.963 413.476 226.225 413.129C221.087 410.71 214.46 389.765 213.199 384.243C221.295 378.317 233.878 374.892 243.484 372.046Z"/>
	<path fill="#F6793E" transform="scale(13.6803 13.6803)" d="M204.626 155.744C210.074 155.713 221.662 154.718 226.168 156.729C227.418 157.287 227.944 158.536 228.339 159.783C229.846 164.542 230.932 184.968 227.918 189.042C225.712 192.024 219.119 191.49 215.875 191.582C208.767 191.863 201.46 192.183 194.558 190.224C193.953 188.366 193.447 186.529 193.129 184.601C192.235 179.168 190.266 161.841 194.084 157.623C196.269 155.209 201.647 155.791 204.626 155.744Z"/>
	<path fill="#F6793E" transform="scale(13.6803 13.6803)" d="M122.304 259.72C132.964 259.67 143.076 261.93 151.505 268.777Q152.337 269.466 153.134 270.196Q153.932 270.925 154.692 271.693Q155.453 272.461 156.175 273.265Q156.897 274.069 157.578 274.907Q158.26 275.746 158.899 276.617Q159.539 277.488 160.135 278.389Q160.731 279.29 161.283 280.22Q161.834 281.149 162.339 282.105Q162.844 283.06 163.301 284.039Q163.758 285.018 164.167 286.019Q164.576 287.019 164.935 288.038Q165.295 289.057 165.603 290.093Q165.912 291.128 166.17 292.178Q166.428 293.227 166.633 294.288Q166.839 295.349 166.993 296.418Q167.146 297.488 167.247 298.564Q167.332 299.602 167.367 300.644Q167.401 301.685 167.386 302.727Q167.37 303.769 167.303 304.809Q167.237 305.849 167.121 306.884Q167.004 307.919 166.837 308.948Q166.671 309.977 166.454 310.996Q166.238 312.015 165.973 313.023Q165.707 314.03 165.394 315.024Q165.08 316.017 164.718 316.995Q164.356 317.972 163.948 318.93Q163.539 319.889 163.085 320.826Q162.63 321.764 162.131 322.678Q161.631 323.593 161.088 324.482Q160.545 325.371 159.959 326.233Q159.374 327.095 158.747 327.927Q158.12 328.76 157.454 329.561C149.831 338.655 137.831 344.632 126.042 345.605C114.849 345.632 104.477 342.667 95.7082 335.49Q94.9015 334.838 94.1282 334.146Q93.3549 333.454 92.617 332.725Q91.8791 331.996 91.1783 331.231Q90.4775 330.466 89.8156 329.667Q89.1537 328.869 88.5323 328.038Q87.9109 327.207 87.3316 326.346Q86.7523 325.486 86.2165 324.597Q85.6807 323.709 85.1897 322.795Q84.6987 321.881 84.2537 320.944Q83.8087 320.007 83.4109 319.049Q83.013 318.091 82.6633 317.114Q82.3136 316.137 82.0128 315.145Q81.7121 314.152 81.461 313.145Q81.21 312.138 81.0093 311.121Q80.8086 310.103 80.6588 309.076Q80.5089 308.05 80.4103 307.017Q80.3038 305.935 80.2513 304.848Q80.1989 303.762 80.2006 302.674Q80.2023 301.587 80.2583 300.501Q80.3142 299.415 80.4242 298.333Q80.5341 297.251 80.6979 296.175Q80.8616 295.1 81.0788 294.035Q81.2959 292.969 81.5658 291.915Q81.8358 290.862 82.1579 289.823Q82.48 288.784 82.8535 287.763Q83.227 286.741 83.6509 285.74Q84.0748 284.738 84.5481 283.759Q85.0213 282.78 85.5428 281.826Q86.0643 280.871 86.6327 279.944Q87.2011 279.017 87.815 278.119Q88.4289 277.221 89.0867 276.355Q89.7446 275.489 90.4448 274.657C98.7622 264.842 109.742 260.702 122.304 259.72Z"/>
	<path fill="#071440" transform="scale(13.6803 13.6803)" d="M505.573 194.892Q505.983 184.181 507.867 173.629Q508.172 172.019 508.517 170.416Q508.861 168.814 509.245 167.22Q509.629 165.627 510.051 164.043Q510.474 162.459 510.935 160.886Q511.396 159.313 511.895 157.752Q512.395 156.191 512.932 154.643Q513.47 153.094 514.045 151.559Q514.62 150.025 515.232 148.504Q515.845 146.984 516.494 145.479Q517.144 143.974 517.83 142.486Q518.516 140.997 519.238 139.526Q519.961 138.054 520.719 136.601Q521.477 135.148 522.27 133.714Q523.063 132.279 523.892 130.865Q524.72 129.45 525.582 128.057Q526.445 126.663 527.341 125.291Q528.238 123.918 529.167 122.568Q530.097 121.218 531.059 119.892Q532.022 118.565 533.016 117.262Q534.011 115.959 535.037 114.681Q536.063 113.403 537.12 112.15Q538.177 110.897 539.264 109.671Q540.351 108.444 541.468 107.245Q542.585 106.045 543.732 104.873Q544.878 103.702 546.052 102.558Q547.226 101.415 548.428 100.3Q549.63 99.1857 550.859 98.101Q552.088 97.0163 553.343 95.962Q554.598 94.9077 555.878 93.8843Q557.158 92.861 558.463 91.8693Q559.768 90.8776 561.097 89.918Q562.426 88.9585 563.778 88.0318C592.806 68.1839 630.667 60.7898 665.14 67.4655C696.268 73.4933 726.427 92.4788 744.197 118.873C758.521 109.982 772.685 104.921 789.753 105.386Q791.535 105.425 793.312 105.553Q795.09 105.681 796.859 105.898Q798.628 106.114 800.384 106.418Q802.14 106.722 803.879 107.112Q805.618 107.503 807.335 107.98Q809.052 108.457 810.744 109.018Q812.435 109.58 814.096 110.225Q815.758 110.869 817.385 111.596Q819.012 112.323 820.602 113.13Q822.191 113.936 823.738 114.821Q825.285 115.706 826.786 116.666Q828.287 117.627 829.739 118.661Q831.19 119.695 832.589 120.799Q833.987 121.904 835.329 123.077Q836.671 124.25 837.953 125.488Q839.234 126.727 840.453 128.027C858.605 147.302 861.035 167.53 860.229 192.9C885.861 197.877 907.841 207.562 926.755 226.006Q927.832 227.061 928.884 228.142Q929.935 229.224 930.959 230.33Q931.984 231.437 932.981 232.568Q933.978 233.7 934.947 234.855Q935.916 236.011 936.856 237.19Q937.796 238.369 938.707 239.57Q939.619 240.772 940.5 241.996Q941.381 243.219 942.233 244.464Q943.084 245.709 943.904 246.974Q944.725 248.239 945.514 249.524Q946.303 250.809 947.061 252.113Q947.818 253.417 948.543 254.74Q949.269 256.062 949.961 257.401Q950.654 258.741 951.314 260.097Q951.973 261.453 952.599 262.825Q953.226 264.197 953.818 265.583Q954.41 266.97 954.969 268.371Q955.527 269.772 956.051 271.186Q956.574 272.6 957.063 274.027Q957.552 275.453 958.006 276.891Q958.46 278.33 958.878 279.778Q959.297 281.227 959.679 282.686Q960.062 284.144 960.409 285.612Q960.756 287.08 961.067 288.555Q961.378 290.031 961.653 291.514Q961.927 292.996 962.165 294.486Q962.404 295.975 962.605 297.469Q962.807 298.964 962.972 300.462Q963.137 301.961 963.265 303.464Q963.393 304.967 963.484 306.472Q963.576 307.977 963.63 309.484Q963.685 310.991 963.702 312.499C963.983 345.928 950.876 376.654 927.378 400.374C910.931 416.976 887.475 428.606 864.386 431.997C855.839 433.252 847.292 433.31 838.676 433.378L838.792 534.743C857.379 534.666 875.207 540.112 889.197 552.67C918.9 579.332 909.931 613.804 912.005 648.735C915.483 648.927 918.794 649.416 922.116 650.489C931.359 653.474 939.896 660.012 944.31 668.767C946.399 672.912 947.4 677.38 947.725 681.986C948.481 692.699 948.066 703.697 948.091 714.446L948.188 771.636L948.386 830.537C948.446 844.605 950.136 882.104 946.258 893.263C943.067 902.446 935.551 910.244 926.854 914.413C921.925 916.775 916.675 918.005 911.241 918.43C903.821 919.011 896.169 918.578 888.724 918.548L846.819 918.442Q826.237 918.434 805.657 918.717C796.742 918.848 787.702 919.32 778.795 918.884C773.436 918.621 768.415 918.12 763.349 916.304C749.251 925.808 735.205 933.858 719.489 940.44C673.5 959.702 619.459 965.002 572.617 945.626C527.344 926.899 493.109 890.76 474.548 845.711C456.458 801.808 455.086 754.132 467.964 708.63C473.082 690.545 480.116 673.412 487.332 656.095Q462.476 655.398 437.615 655.853C427.941 655.937 418.094 656.381 408.448 655.625C392.868 654.406 380.211 647.693 370.087 635.769C360.492 624.467 356.279 610.227 357.649 595.503C358.982 581.194 366.728 567.652 377.724 558.551C363.054 549.451 351.314 536.842 346.055 520.136C340.898 503.752 343.034 485.654 351.054 470.56C361.23 451.408 377.282 442.297 397.378 436.207C397.683 419.732 394.307 396.263 404.753 382.553C414.411 369.878 426.979 371.338 441.057 369.545C477.131 369.153 513.151 369.453 549.222 369.479L577.297 369.386C584.421 369.337 591.896 368.834 598.935 370.094C605.395 371.251 611.261 374.607 615.894 379.204C626.6 389.827 625.065 404.855 625.014 418.702L624.995 422.986C632.801 422.565 641.386 422.673 649.01 421.023Q720.359 421.787 791.71 421.457L830.571 421.333C839.003 421.308 847.494 421.627 855.897 420.805Q862.603 420.083 869.166 418.527Q875.729 416.972 882.046 414.608C907.841 404.939 929.762 385.523 941.203 360.312C953.183 333.912 954.981 302.005 944.645 274.796Q944.076 273.34 943.466 271.9Q942.857 270.46 942.207 269.037Q941.558 267.615 940.87 266.21Q940.182 264.806 939.455 263.422Q938.728 262.037 937.963 260.673Q937.199 259.31 936.396 257.967Q935.594 256.625 934.755 255.306Q933.916 253.986 933.041 252.69Q932.165 251.394 931.255 250.123Q930.344 248.852 929.398 247.607Q928.453 246.361 927.473 245.143Q926.494 243.924 925.481 242.733Q924.468 241.541 923.422 240.379Q922.377 239.216 921.299 238.082Q920.222 236.949 919.114 235.846Q918.006 234.743 916.867 233.671Q915.729 232.598 914.561 231.558Q913.394 230.518 912.198 229.511Q911.002 228.503 909.779 227.529Q908.556 226.555 907.306 225.615Q906.056 224.675 904.781 223.77Q903.506 222.865 902.206 221.996Q900.906 221.127 899.583 220.294Q898.26 219.461 896.914 218.665Q895.568 217.868 894.2 217.11Q892.833 216.351 891.445 215.631Q890.057 214.91 888.65 214.228Q887.243 213.547 885.817 212.904Q884.392 212.261 882.949 211.658Q881.506 211.055 880.047 210.493Q878.589 209.93 877.115 209.408Q875.641 208.885 874.153 208.404C867.16 206.116 857.086 206.359 851.007 203.453C849.762 202.858 849.193 202.372 848.715 201.077C846.493 195.052 849.122 181.931 848.672 174.854Q848.395 170.315 847.444 165.869Q846.492 161.422 844.886 157.168Q844.338 155.734 843.72 154.329Q843.101 152.924 842.413 151.551Q841.725 150.179 840.97 148.842Q840.215 147.505 839.394 146.208Q838.573 144.911 837.689 143.656Q836.804 142.401 835.858 141.192Q834.913 139.982 833.908 138.822Q832.903 137.661 831.841 136.552Q830.78 135.443 829.665 134.388Q828.549 133.333 827.383 132.335Q826.216 131.336 825.002 130.398Q823.787 129.459 822.527 128.582Q821.267 127.705 819.965 126.891Q818.663 126.078 817.322 125.33Q815.981 124.583 814.604 123.903Q813.228 123.223 811.819 122.613Q811.033 122.263 810.238 121.935Q809.443 121.608 808.639 121.302Q807.834 120.997 807.022 120.715Q806.209 120.433 805.389 120.174Q804.569 119.914 803.742 119.678Q802.915 119.442 802.081 119.23Q801.248 119.017 800.409 118.828Q799.57 118.639 798.725 118.474Q797.881 118.309 797.033 118.168Q796.184 118.027 795.332 117.91Q794.48 117.792 793.625 117.699Q792.77 117.606 791.913 117.537Q791.055 117.468 790.196 117.423Q789.337 117.379 788.477 117.358Q787.617 117.338 786.757 117.342Q785.897 117.346 785.038 117.374Q784.178 117.402 783.319 117.454Q782.461 117.507 781.604 117.583Q780.747 117.66 779.893 117.761Q779.039 117.861 778.188 117.986Q777.337 118.111 776.49 118.26Q775.642 118.409 774.8 118.582Q773.957 118.754 773.12 118.951Q772.282 119.147 771.451 119.367Q770.619 119.587 769.794 119.83Q768.969 120.074 768.152 120.34Q767.334 120.607 766.524 120.896Q765.714 121.186 764.912 121.498Q764.111 121.811 763.319 122.145Q762.526 122.48 761.744 122.837Q760.961 123.194 760.189 123.573Q759.417 123.952 758.656 124.353C753.765 126.941 749.253 131.211 744.076 133.078C741.764 133.911 740.798 133.342 739.033 131.812C734.433 127.824 730.955 121.896 727.066 117.189C716.443 104.336 701.524 94.3926 686.34 87.7418Q684.987 87.162 683.62 86.6154Q682.254 86.0689 680.874 85.5558Q679.495 85.0427 678.103 84.5634Q676.712 84.0842 675.309 83.639Q673.906 83.1938 672.492 82.783Q671.079 82.3722 669.656 81.996Q668.233 81.6198 666.801 81.2784Q665.369 80.937 663.93 80.6307Q662.49 80.3244 661.043 80.0532Q659.597 79.7821 658.144 79.5464Q656.691 79.3106 655.233 79.1104Q653.775 78.9102 652.312 78.7456Q650.849 78.581 649.383 78.4521Q647.917 78.3233 646.448 78.2302Q644.979 78.1372 643.508 78.08Q642.038 78.0228 640.566 78.0015Q639.094 77.9803 637.622 77.9949Q636.151 78.0095 634.679 78.0601Q633.208 78.1106 631.739 78.1971Q630.27 78.2835 628.803 78.4057Q627.336 78.528 625.873 78.6859Q624.41 78.8439 622.95 79.0376Q621.491 79.2312 620.037 79.4604Q618.583 79.6896 617.136 79.9542Q615.688 80.2188 614.247 80.5186Q612.806 80.8185 611.372 81.1534Q609.939 81.4883 608.514 81.8581Q607.09 82.2279 605.675 82.6323Q604.259 83.0367 602.854 83.4756Q601.449 83.9144 600.056 84.3874Q598.662 84.8604 597.28 85.3672Q595.898 85.8741 594.529 86.4145Q592.789 87.0961 591.072 87.8317Q589.355 88.5673 587.661 89.3562Q585.967 90.1452 584.299 90.9867Q582.631 91.8282 580.99 92.7215Q579.349 93.6147 577.737 94.5589Q576.125 95.503 574.543 96.4971Q572.961 97.4912 571.411 98.5342Q569.861 99.5773 568.344 100.668Q566.827 101.759 565.346 102.897Q563.864 104.035 562.418 105.219Q560.973 106.402 559.565 107.631Q558.157 108.859 556.788 110.131Q555.419 111.402 554.091 112.716Q552.763 114.03 551.476 115.385Q550.19 116.74 548.946 118.134Q547.702 119.528 546.503 120.961Q545.304 122.394 544.15 123.863Q542.996 125.332 541.888 126.837Q540.781 128.342 539.721 129.88Q538.661 131.419 537.649 132.99Q536.638 134.561 535.677 136.163Q534.715 137.764 533.804 139.396Q532.893 141.027 532.033 142.685Q531.173 144.344 530.366 146.029Q529.558 147.714 528.804 149.423Q528.05 151.133 527.349 152.865Q526.649 154.597 526.003 156.35Q525.357 158.103 524.766 159.875Q524.175 161.648 523.64 163.438Q523.105 165.228 522.626 167.034Q522.147 168.84 521.724 170.66Q521.302 172.48 520.937 174.312Q519.776 180.082 519.262 185.946C518.783 192.041 519.338 199.537 516.905 205.238C511.746 207.879 504.059 207.121 498.347 207.918C493.191 208.637 487.697 209.959 482.827 211.777Q480.845 212.518 478.893 213.338Q476.942 214.157 475.024 215.053Q473.107 215.949 471.226 216.92Q469.345 217.891 467.505 218.936Q465.664 219.98 463.866 221.097Q462.068 222.214 460.316 223.401Q458.564 224.588 456.86 225.843Q455.156 227.099 453.503 228.421Q451.85 229.742 450.25 231.129Q448.651 232.515 447.108 233.963Q445.564 235.412 444.08 236.92Q442.595 238.428 441.171 239.994Q439.747 241.56 438.386 243.181Q437.025 244.802 435.73 246.476Q434.434 248.149 433.206 249.873Q431.977 251.596 430.818 253.367Q429.659 255.138 428.57 256.953Q427.482 258.768 426.466 260.625Q425.451 262.482 424.509 264.378Q423.568 266.273 422.702 268.205Q421.837 270.136 421.048 272.1Q420.26 274.064 419.55 276.058Q418.839 278.052 418.209 280.072Q417.578 282.093 417.028 284.136Q416.477 286.18 416.008 288.244Q415.539 290.308 415.152 292.389Q414.765 294.47 414.461 296.564Q414.157 298.659 413.935 300.763Q413.714 302.868 413.576 304.98Q413.439 307.092 413.385 309.208Q413.33 311.324 413.36 313.44Q413.39 315.557 413.503 317.67C413.732 322.371 414.697 327.092 415.774 331.666C417.033 337.009 422.658 350.837 419.952 355.462C418.997 357.095 416.603 358.355 414.746 358.539C413.342 358.678 412.051 358.083 411.027 357.171C404.456 351.324 401.959 329.494 401.191 320.381Q401.081 318.946 401.007 317.509Q400.932 316.071 400.893 314.633Q400.854 313.194 400.85 311.755Q400.845 310.316 400.876 308.877Q400.907 307.438 400.974 306Q401.04 304.563 401.141 303.127Q401.242 301.691 401.378 300.259Q401.515 298.826 401.686 297.397Q401.857 295.968 402.063 294.544Q402.269 293.119 402.51 291.7Q402.751 290.281 403.027 288.869Q403.302 287.456 403.612 286.051Q403.922 284.645 404.266 283.248Q404.61 281.85 404.988 280.462Q405.367 279.073 405.779 277.694Q406.19 276.315 406.636 274.947Q407.082 273.578 407.56 272.221Q408.039 270.864 408.551 269.519Q409.063 268.174 409.608 266.841Q410.152 265.509 410.729 264.191Q411.306 262.872 411.915 261.568Q412.524 260.264 413.165 258.976Q413.806 257.687 414.478 256.414Q415.15 255.141 415.853 253.886Q416.556 252.63 417.289 251.391Q418.022 250.153 418.786 248.933Q419.549 247.713 420.342 246.512Q421.135 245.311 421.957 244.13Q422.78 242.948 423.63 241.787Q424.481 240.627 425.36 239.487Q426.239 238.347 427.145 237.229Q428.051 236.111 428.985 235.016Q429.873 233.951 430.787 232.909Q431.701 231.867 432.641 230.847Q433.58 229.827 434.544 228.831Q435.509 227.835 436.497 226.863Q437.485 225.89 438.497 224.943Q439.509 223.995 440.544 223.072Q441.579 222.15 442.636 221.253Q443.693 220.356 444.772 219.485Q445.851 218.614 446.951 217.77Q448.051 216.926 449.171 216.11Q450.292 215.293 451.432 214.504Q452.572 213.715 453.731 212.954Q454.89 212.194 456.067 211.462Q457.245 210.73 458.44 210.027Q459.635 209.324 460.847 208.651Q462.059 207.977 463.287 207.334Q464.515 206.69 465.758 206.077Q467.002 205.464 468.26 204.882Q469.518 204.3 470.79 203.748Q472.062 203.197 473.348 202.677Q474.633 202.157 475.931 201.669Q477.228 201.181 478.538 200.725Q479.847 200.269 481.167 199.845Q482.487 199.421 483.817 199.03Q485.147 198.638 486.486 198.28Q487.825 197.921 489.173 197.596Q490.521 197.27 491.876 196.978Q493.231 196.685 494.593 196.426Q495.955 196.167 497.323 195.942Q498.691 195.716 500.064 195.524Q501.437 195.332 502.815 195.174Q504.192 195.016 505.573 194.892ZM642.765 433.712C636.103 434.002 629.414 434.159 622.808 435.14C644.756 440.458 661.691 446.915 674.191 467.166C682.983 481.412 686.538 499.951 682.489 516.299C677.538 536.29 662.811 548.946 646.002 559.34C657.093 567.206 664.681 580.66 666.914 593.937Q667.137 595.239 667.295 596.551Q667.453 597.862 667.546 599.18Q667.64 600.498 667.668 601.818Q667.696 603.139 667.659 604.46Q667.622 605.78 667.52 607.097Q667.418 608.415 667.251 609.725Q667.084 611.036 666.853 612.336Q666.622 613.637 666.327 614.925Q666.031 616.212 665.673 617.484Q665.315 618.755 664.894 620.008Q664.474 621.26 663.992 622.49Q663.51 623.72 662.969 624.925Q662.427 626.13 661.826 627.306Q661.225 628.483 660.568 629.629Q659.91 630.774 659.196 631.886Q658.483 632.998 657.715 634.073C649.882 644.977 638.547 652.813 625.18 654.97C609.559 657.491 592.643 656.038 576.821 656.007L492.949 656.039C464.643 716.765 453.659 774.036 477.065 838.398C492.441 880.678 523.997 917.54 565.031 936.599Q573.349 940.497 582.027 943.512Q590.705 946.528 599.648 948.628Q602.082 949.088 604.527 949.49Q606.972 949.891 609.425 950.233Q611.879 950.575 614.34 950.858Q616.801 951.14 619.269 951.363Q621.736 951.586 624.208 951.749Q626.68 951.912 629.156 952.015Q631.631 952.118 634.108 952.161Q636.585 952.205 639.062 952.188Q641.54 952.171 644.016 952.094Q646.492 952.017 648.966 951.88Q651.439 951.744 653.909 951.547Q656.379 951.35 658.843 951.094Q661.307 950.837 663.764 950.521Q666.221 950.205 668.67 949.83Q671.119 949.455 673.558 949.02Q675.997 948.585 678.425 948.092Q680.852 947.598 683.267 947.046Q685.682 946.494 688.083 945.883Q690.484 945.273 692.87 944.604Q695.255 943.936 697.624 943.21Q699.993 942.483 702.343 941.7Q704.693 940.917 707.024 940.077Q709.355 939.237 711.664 938.341Q713.974 937.445 716.261 936.493Q718.549 935.541 720.812 934.534Q723.076 933.527 725.314 932.466Q727.553 931.405 729.765 930.289Q731.977 929.174 734.162 928.005Q736.346 926.837 738.502 925.616Q740.657 924.394 742.783 923.122Q744.908 921.849 747.002 920.524Q749.096 919.2 751.157 917.826C753.172 916.473 755.134 915.114 756.924 913.469C745.319 903.453 738.961 895.66 737.767 879.881C736.819 867.352 737.571 854.387 737.555 841.808L737.483 766.424L737.457 710.266C737.463 701.051 736.618 691.26 737.847 682.128C738.773 675.244 742.113 668.388 746.66 663.184C754.244 654.505 764.237 650.553 775.358 648.629Q774.818 633.409 774.81 618.18C774.621 594.705 775.441 574.056 792.365 555.891C802.58 544.925 818.53 536.945 833.461 535.333Q834.036 484.405 833.921 433.473L721.087 433.355C695.014 433.363 668.822 432.845 642.765 433.712ZM811.441 716.741C790.802 717.006 770.068 716.547 749.448 717.227L749.4 831.806L749.401 863.127C749.407 870.265 748.92 877.915 750.228 884.949C751.146 889.881 754.226 895.054 757.698 898.578C761.165 902.095 765.616 904.769 770.437 905.909C780.793 908.358 796.87 907.082 807.766 907.064C831.037 907.026 854.358 906.75 877.625 907.197C893.111 907.33 916.652 910.453 928.557 898.831C935.641 891.915 936.778 883.959 936.845 874.528L936.5 716.892C919.91 716.493 903.275 716.689 886.679 716.662Q849.06 716.512 811.441 716.741ZM405.487 560.711C394.968 561.541 386.599 565.722 379.76 573.831C372.343 582.625 369.282 594.428 370.274 605.785Q370.361 606.837 370.5 607.883Q370.639 608.929 370.83 609.967Q371.02 611.005 371.262 612.032Q371.503 613.06 371.795 614.074Q372.086 615.088 372.428 616.087Q372.769 617.086 373.159 618.066Q373.549 619.047 373.988 620.007Q374.426 620.967 374.91 621.904Q375.395 622.842 375.926 623.754Q376.456 624.667 377.031 625.552Q377.606 626.437 378.224 627.292Q378.841 628.148 379.501 628.972Q380.16 629.796 380.859 630.587Q381.558 631.378 382.295 632.133Q383.032 632.888 383.806 633.606Q384.579 634.324 385.387 635.003C390.646 639.405 396.938 642.467 403.755 643.394C419.326 645.512 435.555 644.314 451.248 644.181L518.595 644.046L583.074 644.045C594.883 644.101 606.84 645.074 618.604 643.925C629.758 642.835 638.313 638.272 645.486 629.549Q647.194 627.45 648.742 625.23C654.354 615.669 656.704 604.131 653.93 593.263C651.057 582.009 643.198 570.411 633.06 564.509C630.692 563.13 628.203 561.993 625.472 561.588C617.288 560.373 608.241 560.963 599.941 560.953L553.726 561.098C548.69 570.159 542.993 578.842 537.698 587.753C534.35 593.387 531.437 599.71 527.559 604.974C526.259 606.739 524.461 608.931 522.369 609.729C520.375 609.083 519.057 606.123 518.156 604.343C511.294 590.796 506.461 575.64 501.086 561.416L433.966 561.266C424.466 561.2 414.989 560.527 405.487 560.711ZM831.755 541.117C815.093 544.006 800.932 551.835 791.068 565.785C779.553 582.071 779.986 600.176 780.059 619.245L780.226 649.248L855.75 649.197C872.621 649.237 889.691 649.745 906.529 648.765Q906.864 624.877 906.445 600.991C885.931 601.093 865.819 601.867 850.204 586.381C843.134 579.369 838.88 571.404 835.361 562.185C833.057 556.148 834.664 545.288 832.757 541.183L831.755 541.117ZM625.011 448.714C624.966 460.776 624.674 472.859 624.727 484.917C624.793 499.952 627.337 522.524 622.209 536.419C619.813 542.911 615.307 547.867 610.728 552.901C624.865 552.474 636.794 550.845 648.937 542.912C660.698 534.711 669.042 523.844 671.586 509.49C673.964 496.071 670.244 482.476 662.479 471.406C653.457 458.543 640.063 451.896 625.011 448.714ZM395.741 450.474C381.143 455.101 368.638 463.49 361.369 477.346Q360.778 478.501 360.244 479.683Q359.709 480.865 359.234 482.072Q358.758 483.279 358.342 484.507Q357.926 485.736 357.571 486.983Q357.215 488.231 356.922 489.494Q356.628 490.758 356.396 492.034Q356.164 493.311 355.995 494.597Q355.826 495.883 355.721 497.176Q355.615 498.469 355.572 499.765Q355.53 501.062 355.551 502.359Q355.572 503.656 355.656 504.95Q355.741 506.244 355.889 507.533Q356.036 508.822 356.247 510.102Q356.458 511.382 356.731 512.65Q357.004 513.918 357.339 515.171Q357.673 516.425 358.069 517.66Q358.413 518.723 358.805 519.769Q359.196 520.815 359.635 521.843Q360.074 522.87 360.559 523.877Q361.044 524.883 361.574 525.867Q362.104 526.85 362.678 527.808Q363.252 528.767 363.869 529.698Q364.486 530.629 365.145 531.532Q365.804 532.434 366.503 533.306Q367.202 534.177 367.939 535.016Q368.677 535.855 369.452 536.66Q370.227 537.464 371.038 538.233Q371.849 539.001 372.693 539.732Q373.538 540.464 374.415 541.155Q375.292 541.847 376.2 542.499Q377.108 543.15 378.044 543.76Q378.98 544.37 379.943 544.936C389.455 549.934 398.682 553.343 409.548 553.551C405.058 548.433 401.355 543.604 399.307 537.024C395.472 524.705 397.452 509.153 397.521 496.352Q397.46 480.241 397.608 464.132C397.646 462.117 398.276 451.836 397.046 450.769C397.028 450.753 395.964 450.468 395.959 450.467C395.887 450.454 395.813 450.472 395.741 450.474ZM838.826 540.164C836.318 551.182 840.107 563.335 845.993 572.765C852.691 583.493 863.652 591.782 876.084 594.523C885.186 596.53 895.306 595.953 904.57 595.535L905.416 595.172C907.162 589.65 902.188 579.303 899.628 574.471C891.143 558.451 876.874 547.261 859.524 542.228C852.622 540.226 845.97 539.666 838.826 540.164Z"/>
	<path fill="#F6793E" transform="scale(13.6803 13.6803)" d="M778.914 659.75Q781.727 659.622 784.543 659.595C794.289 659.439 804.055 659.867 813.802 659.983L858.78 660.081L893.002 659.893C900.608 659.854 908.916 659.222 916.409 660.704C921.075 661.627 925.477 664.478 928.809 667.828C939.261 678.34 936.774 697.67 936.489 711.248Q922.556 711.219 908.625 711.423Q829.047 712.011 749.469 711.488C749.323 697.868 746.238 678.496 756.45 667.606C762.606 661.041 770.466 660.052 778.914 659.75Z"/>
	<path fill="#071440" transform="scale(13.6803 13.6803)" d="M908.817 666.551C910.92 666.483 912.92 666.571 914.943 667.197C918.335 668.246 921.22 670.279 922.871 673.478Q923.173 674.066 923.414 674.681Q923.655 675.297 923.832 675.933Q924.01 676.57 924.122 677.221Q924.235 677.873 924.281 678.532Q924.327 679.191 924.306 679.852Q924.286 680.512 924.198 681.168Q924.111 681.823 923.958 682.466Q923.805 683.109 923.588 683.733C921.837 688.841 918.072 691.266 913.456 693.436C911.69 693.457 909.906 693.298 908.206 692.801C904.451 691.703 901.311 689.329 899.54 685.803C897.884 682.506 897.591 678.442 898.959 674.995C900.848 670.237 904.402 668.428 908.817 666.551Z"/>
	<path fill="#FEFEFE" transform="scale(13.6803 13.6803)" d="M910.335 672.093C911.043 672.193 911.751 672.296 912.451 672.442C914.482 672.865 916.29 673.942 917.398 675.734C918.467 677.463 918.598 679.409 918.034 681.337C917.05 684.705 914.784 686.174 911.81 687.687C910.628 687.564 909.632 687.401 908.53 686.931C906.372 686.009 904.591 684.382 903.763 682.148Q903.628 681.784 903.532 681.408Q903.437 681.032 903.382 680.648Q903.328 680.264 903.315 679.876Q903.302 679.488 903.33 679.101Q903.359 678.714 903.429 678.333Q903.499 677.951 903.609 677.579Q903.719 677.207 903.869 676.849Q904.019 676.491 904.206 676.151C905.598 673.644 907.713 672.85 910.335 672.093Z"/>
	<path fill="#071440" transform="scale(13.6803 13.6803)" d="M770.635 665.108C772.862 664.888 775.095 664.87 777.251 665.534C780.836 666.639 783.812 669.019 785.405 672.445Q785.679 673.04 785.893 673.66Q786.107 674.279 786.257 674.917Q786.408 675.555 786.495 676.205Q786.581 676.854 786.603 677.509Q786.624 678.164 786.581 678.818Q786.537 679.472 786.428 680.118Q786.319 680.765 786.146 681.397Q785.974 682.029 785.739 682.641C783.98 687.212 780.556 689.505 776.338 691.49C774.068 691.556 771.756 691.618 769.579 690.885C765.924 689.653 762.823 687.072 761.285 683.496C759.955 680.405 759.847 676.655 761.137 673.532C763.023 668.968 766.349 666.991 770.635 665.108Z"/>
	<path fill="#FEFEFE" transform="scale(13.6803 13.6803)" d="M770.765 670.511C771.844 670.435 772.897 670.384 773.976 670.498C776.213 670.734 778.352 671.882 779.678 673.728C780.818 675.317 781.2 677.28 780.862 679.196C780.264 682.575 778.178 684.274 775.451 686.07C774.396 686.288 773.478 686.456 772.399 686.33C770.265 686.081 768.235 685.113 766.968 683.33C765.613 681.422 765.393 678.914 765.847 676.672C766.453 673.676 768.357 672.155 770.765 670.511Z"/>
	<path fill="#071440" transform="scale(13.6803 13.6803)" d="M857.228 861.744C864.731 861.384 872.303 861.605 879.816 861.52C884.191 861.471 889.315 860.84 893.617 861.487C894.772 861.66 896.74 862.338 897.634 863.08C898.659 863.93 898.675 864.219 898.727 865.44C897.832 866.154 897.246 866.299 896.125 866.489C890.592 866.511 857.615 867.813 855.045 865.373C854.54 864.894 854.735 864.41 854.737 863.77C855.646 862.381 855.676 862.313 857.228 861.744Z"/>
	<path fill="#071440" transform="scale(13.6803 13.6803)" d="M792.85 860.734C801.711 860.606 823.161 859.38 830.428 861.696C831.974 862.189 833.036 862.784 833.767 864.299C833.72 865.549 833.466 865.997 832.722 866.993C831.164 868.031 829.43 867.902 827.625 867.983C820.178 868.067 790.904 869.175 786.42 866.871C785.24 866.265 785.082 865.843 784.766 864.68C785.039 863.733 785.34 863.128 786.037 862.439C788.065 860.433 790.205 860.754 792.85 860.734Z"/>
	<path fill="#071440" transform="scale(13.6803 13.6803)" d="M787.115 817.632C796.439 817.593 853.336 816.302 857.715 819.112C858.309 819.493 858.26 820.111 858.415 820.749C857.841 822.341 857.09 823.009 855.853 824.071C849.495 824.298 789.395 824.842 786.753 823.494C785.532 822.87 785.507 822.424 785.135 821.218C785.499 819.487 785.9 818.918 787.115 817.632Z"/>
	<path fill="#071440" transform="scale(13.6803 13.6803)" d="M808.174 752.359C813.94 754.165 818.725 760.744 822.642 765.12C825.228 762.266 827.784 759.088 830.638 756.513C832.301 755.013 834.217 753.569 836.577 753.766C840.859 754.121 847.412 762.761 850.402 765.964C854.695 760.944 858.918 756.313 864.861 753.262C870.529 756.481 875.112 761.767 879.707 766.341C881.738 764.536 883.924 762.419 886.377 761.211C887.358 760.727 887.96 760.556 889.001 760.949L889.313 762.006C888.889 764.601 887.576 766.728 885.849 768.687C884.341 770.398 882.142 772.308 879.736 772.357C877.212 772.408 873.979 768.511 872.214 766.865C869.818 764.565 867.208 762.58 864.578 760.557C861.848 762.972 859.262 765.556 856.562 768.006C854.71 769.686 852.19 771.725 849.517 771.454C844.704 770.965 839.203 763.365 836.232 759.984C831.951 764.313 827.753 769.235 822.844 772.828C817.764 768.882 813.108 763.858 808.446 759.412C803.889 762.572 799.967 769.041 794.862 771.026C793.869 771.412 793.714 771.298 792.799 770.892L792.409 769.736C793.427 764.538 804.063 755.539 808.174 752.359Z"/>
	<path fill="#071440" transform="scale(13.6803 13.6803)" d="M787.057 839.706C809.274 838.823 831.755 839.448 853.998 839.503C867.342 839.535 881.173 838.646 894.455 839.459C896.422 839.579 899.384 839.752 900.948 841.014C901.449 841.419 901.981 842.025 901.914 842.702C901.765 844.236 900.464 845.182 899.34 846.049C890.924 846.901 882.187 846.533 873.72 846.58Q850.57 846.752 827.42 846.613L802.977 846.488C797.714 846.452 791.911 846.824 786.754 845.772C785.667 844.866 785.53 844.828 785.189 843.473C785.516 841.812 785.994 841.012 787.057 839.706Z"/>
	<path fill="#F6793E" transform="scale(13.6803 13.6803)" d="M430.81 379.139C430.973 379.124 431.136 379.104 431.3 379.094C443.142 378.403 455.161 378.88 467.028 378.896L529.944 378.968L569.9 378.947C578.044 378.93 586.59 378.36 594.658 379.453C599.945 380.168 603.331 381.46 607.238 385.186C613.966 391.602 615.105 399.273 615.374 408.06C616.171 434.034 615.476 460.262 615.501 486.265L615.557 512.218C615.57 518.213 615.931 524.538 614.977 530.467C614.098 535.933 611.245 541.509 607.377 545.46C604.809 548.083 601.676 549.854 598.159 550.88C586.259 554.353 563.646 551.919 550.363 552.031C540.313 564.213 532.04 580.796 524.061 594.564C521.592 586.513 512.543 559.355 507.141 554.244C505.896 553.067 504.379 552.531 502.722 552.212C497.732 551.251 492.075 551.57 486.986 551.559C473.837 551.532 460.685 552.058 447.535 552.099C441.156 552.119 434.191 552.533 427.91 551.328Q426.488 551.052 425.105 550.625Q423.721 550.198 422.392 549.625Q421.062 549.051 419.802 548.338Q418.541 547.625 417.365 546.78C412.005 542.97 408.91 537.85 407.862 531.389C406.548 523.286 407.197 514.662 407.192 506.468L407.119 466.358L406.911 429.919C406.798 421.058 406.221 411.966 407.186 403.146C407.74 398.08 408.993 393.553 412.076 389.388C416.718 383.117 423.327 380.228 430.81 379.139Z"/>
	<path fill="#071440" transform="scale(13.6803 13.6803)" d="M453.69 432.362C455.478 432.44 457.506 432.554 458.855 433.915C459.815 434.883 460.027 436.055 460.225 437.335C461.548 445.895 460.674 455.123 460.667 463.754C460.66 472.484 461.206 481.267 460.636 489.988C460.416 493.346 460.066 494.048 457.48 496.313C457.247 496.362 457.016 496.422 456.78 496.459C455.343 496.685 453.255 496.572 452.187 495.479C448.439 491.647 450.151 444.748 450.571 436.537C451.491 435.04 452.58 433.721 453.69 432.362Z"/>
	<path fill="#071440" transform="scale(13.6803 13.6803)" d="M518.192 431.257C519.509 431.506 520.566 432.098 521.349 433.223C522.376 434.698 522.441 436.328 522.201 438.04C521.533 442.803 504.762 484.022 501.464 490.231C500.474 492.096 499.124 494.395 497.258 495.517C496.235 496.133 495.147 496.51 493.974 496.074C492.236 495.429 491.06 493.703 490.199 492.153C484.139 481.251 479.628 463.18 474.287 450.876C472.466 446.171 469.271 441.823 470.102 436.551C470.462 434.267 471.319 432.689 473.196 431.356C474.189 431.269 474.541 431.103 475.476 431.545C482.06 434.655 492.88 471.854 495.435 479.43C500.57 467.796 507.196 445.391 513.529 436.01C514.86 434.04 516.297 432.677 518.192 431.257Z"/>
	<path fill="#071440" transform="scale(13.6803 13.6803)" d="M536.177 432.773C541.635 432.626 547.148 432.365 552.599 432.735C558.769 433.153 565.138 434.53 569.304 439.508C572.389 443.194 573.602 448.319 573.11 453.047C572.355 460.304 568.096 464.782 562.746 469.184C565.758 475.001 576.599 487.079 575.646 493.5C575.475 494.65 575.122 495.508 574.083 496.134C573.12 496.714 571.133 496.864 570.026 496.551C566.719 495.614 564.547 491.085 562.819 488.388L551.999 471.987L540.405 472.002C540.532 477.801 540.831 483.76 540.452 489.548C540.301 491.862 539.693 493.886 537.847 495.397C536.664 496.366 535.919 496.46 534.491 496.336C532.188 494.853 531.475 492.877 530.892 490.256C529.707 484.917 529.012 437.818 531.434 434.781C532.667 433.236 534.328 432.933 536.177 432.773Z"/>
	<path fill="#F6793E" transform="scale(13.6803 13.6803)" d="M545.398 441.729C548.256 441.651 551.441 441.671 554.227 442.366C557.802 443.259 561.501 445.26 563.316 448.601C564.214 450.252 564.652 452.329 563.997 454.147C562.919 457.141 560.335 459.747 557.553 461.144C551.941 463.111 546.339 462.78 540.495 462.531C540.46 456.023 539.812 448.801 540.716 442.388C542.017 441.68 543.939 441.803 545.398 441.729Z"/>
	<path fill="#071440" transform="scale(13.6803 13.6803)" d="M682.233 671.483C683.279 671.837 684.273 672.173 684.996 673.066C687.46 676.115 686.559 682.255 686.474 686.011C690.536 685.959 694.893 685.665 698.784 687.049C700.296 687.587 701.121 688.16 701.796 689.61L701.197 690.787C696.803 693.592 691.423 692.971 686.446 692.761C686.501 696.238 687.085 700.784 686.004 704.106C685.373 706.045 684.245 706.778 682.522 707.705C681.944 707.349 681.095 706.894 680.674 706.339C678.348 703.27 679.524 696.636 679.861 692.945C676.253 692.915 672.433 693.037 668.885 692.306C666.753 691.868 664.868 691.307 663.62 689.454L664.037 688.399C668.337 685.523 674.573 686.183 679.507 686.257C679.516 684.032 679.389 681.802 679.385 679.575C679.378 676.083 679.742 674 682.233 671.483Z"/>
	<path fill="#F6793E" transform="scale(13.6803 13.6803)" d="M753.838 500.079C756.305 500.223 758.531 500.437 760.756 501.595Q761.316 501.881 761.844 502.223Q762.372 502.564 762.863 502.958Q763.353 503.352 763.801 503.794Q764.248 504.237 764.648 504.722Q765.048 505.208 765.396 505.731Q765.744 506.255 766.037 506.812Q766.33 507.369 766.564 507.953Q766.799 508.536 766.972 509.141Q767.138 509.731 767.241 510.335Q767.344 510.939 767.384 511.55Q767.423 512.162 767.399 512.774Q767.375 513.386 767.287 513.993Q767.2 514.599 767.049 515.193Q766.899 515.787 766.687 516.362Q766.476 516.937 766.205 517.487Q765.935 518.037 765.609 518.556C763.471 521.934 760.386 523.339 756.627 524.23C753.739 523.998 750.976 523.733 748.392 522.28C745.42 520.609 743.15 517.914 742.364 514.563Q742.237 514.018 742.166 513.462Q742.095 512.907 742.08 512.347Q742.066 511.788 742.109 511.23Q742.152 510.671 742.252 510.12Q742.352 509.57 742.507 509.032Q742.662 508.494 742.872 507.975Q743.081 507.455 743.342 506.96Q743.604 506.465 743.914 505.999C746.273 502.464 749.831 500.935 753.838 500.079Z"/>
	<path fill="#071440" transform="scale(13.6803 13.6803)" d="M582.734 757.606C584.867 757.467 587.049 757.452 589.148 757.914C594.503 759.094 597.892 762.766 600.613 767.291C606.196 776.573 617.463 801.077 614.615 811.581C611.932 821.479 592.008 830.511 583.426 835.65C590.448 853.197 602.736 864.553 618.653 873.97C623.729 868.658 628.793 863.315 633.509 857.678C638.044 852.257 642.318 846.443 647.291 841.416C651.269 837.394 656.298 833.38 662.235 833.507C672.501 833.727 687.159 849.908 694.155 857.16C699.433 862.632 704.653 869.142 704.309 877.218C703.871 887.51 694.042 895.762 687.153 902.265C678.219 911.922 664.641 929.409 652.02 933C637.976 936.997 616.817 927.422 604.635 920.843C570.081 902.181 538.307 866.233 527.141 828.371C523.562 816.236 522.87 803.121 529.155 791.712C536.749 777.925 551.001 771.581 564.6 765.213C570.514 762.443 576.458 759.464 582.734 757.606ZM661.287 844.905C655.308 847.644 651.711 852.514 647.659 857.486C658.479 868.835 670.07 880.075 681.606 890.704L682.712 891.198C686.383 889.632 690.678 884.102 692.212 880.479C693.095 878.395 693.489 875.856 692.575 873.713C690.285 868.344 668.909 847.577 663.601 845.409C662.802 845.083 662.137 844.962 661.287 844.905ZM582.904 768.48C578.862 770.518 574.808 772.517 570.913 774.83C574.297 781.719 587.219 813.559 590.741 817.382C591.456 817.24 591.953 817.122 592.622 816.811C597.765 814.443 602.222 812.5 605.649 807.788C604.205 800.479 593.893 772.948 588.02 769.154C586.568 768.216 584.562 768.447 582.904 768.48Z"/>
	<path fill="#F6793E" transform="scale(13.6803 13.6803)" d="M560.034 779.923C563.369 781.601 579.037 819.069 581.261 824.583C577.43 827.47 574.141 830.875 570.959 834.447C571.735 837.15 572.794 839.811 573.956 842.369C583.491 863.362 600.506 878.617 622.041 886.633C628.8 880.469 634.487 872.824 640.403 865.853C652.733 876.202 664.032 887.441 675.248 898.969C672.882 902.193 670.148 905.198 667.563 908.25C663.742 912.584 659.705 917.57 654.607 920.454C647.818 924.295 639.308 922.445 632.269 920.277C601.145 910.69 576.259 887.452 557.164 861.825C552.232 855.205 547.327 848.437 543.5 841.106C537.37 829.36 533.016 814.299 537.198 801.212C540.866 789.734 550.049 785.042 560.034 779.923Z"/>
</svg>
